<?xml version="1.0" encoding="UTF-8" standalone="no"?>
<svg
   xmlns:dc="http://purl.org/dc/elements/1.1/"
   xmlns:cc="http://creativecommons.org/ns#"
   xmlns:rdf="http://www.w3.org/1999/02/22-rdf-syntax-ns#"
   xmlns:svg="http://www.w3.org/2000/svg"
   xmlns="http://www.w3.org/2000/svg"
   viewBox="0 0 1440 1440"
   height="1440"
   width="1440"
   xml:space="preserve"
   id="svg2"
   version="1.1"><metadata
     id="metadata8"><rdf:RDF><cc:Work
         rdf:about=""><dc:format>image/svg+xml</dc:format><dc:type
           rdf:resource="http://purl.org/dc/dcmitype/StillImage" /></cc:Work></rdf:RDF></metadata><defs
     id="defs6"><clipPath
       id="clipPath18"
       clipPathUnits="userSpaceOnUse"><path
         id="path16"
         d="M 0,1080 H 1080 V 0 H 0 Z" /></clipPath></defs><g
     transform="matrix(1.3333333,0,0,-1.3333333,0,1440)"
     id="g10"><g
       id="g12"><g
         clip-path="url(#clipPath18)"
         id="g14"><g
           transform="translate(286.475,628.1166)"
           id="g20"><path
             id="path22"
             style="fill:#ffffff;fill-opacity:1;fill-rule:nonzero;stroke:none"
             d="m 0,0 c -6.39,0 -6.18,4.59 -6.18,9.18 0,2.44 0.44,9.25 0.82,14.78 0.31,4.37 0.58,7.93 0.58,7.93 0,3.97 0.98,9.95 4.97,9.95 5.66,0 10.73,-0.97 14.83,-2.96 C 21.6,35.71 25.69,29.92 25.69,21.32 25.69,9.37 16.92,0 0,0 m 32.83,56.48 c -6.52,5.27 -14.87,8.29 -24.66,8.29 -24.92,0 -26.32,-0.6 -31.29,-0.6 -4.59,0 -8.58,-3.39 -8.58,-8.96 V -8.56 c 0,-7.27 -0.51,-26.46 -0.91,-41.73 -0.25,-9.87 -0.47,-18.1 -0.47,-20.45 0,-3.58 2.39,-7.57 9.96,-7.57 7.38,0 19.92,0.6 22.32,0.6 2.58,0 2.79,4.98 2,10.96 -0.37,3.31 -0.67,15.41 -0.84,24.91 -0.11,5.91 -0.17,10.81 -0.17,11.96 0,3.37 2.98,4.98 5.58,4.98 16.53,0 42.85,6.37 42.85,43.84 0,15.95 -5.72,29.42 -15.79,37.54" /></g><g
           transform="translate(424.825,661.5966)"
           id="g24"><path
             id="path26"
             style="fill:#ffffff;fill-opacity:1;fill-rule:nonzero;stroke:none"
             d="m 0,0 h -8.36 c -5.99,0 -6.38,-9.76 -6.38,-13.56 0,-8.96 -2.59,-26.1 -2.59,-34.46 0,-3.68 -0.38,-7.49 -1.23,-11.11 -1.93,-8.32 -6.31,-15.65 -14.11,-18.32 -2.02,-0.69 -4.27,-1.07 -6.77,-1.07 -16.75,0 -17.14,11.56 -17.14,18.34 0,6.77 -0.79,15.93 0.19,23.5 0.68,4.77 0.5,17.59 0.43,25.97 -0.01,1.47 -0.02,2.8 -0.02,3.93 0,4.59 -3.39,8.77 -10.96,8.77 -8.38,-0.4 -12.57,0.39 -12.57,-6.37 0,-8 -0.97,-21.94 -1.87,-35.79 -0.79,-12.03 -1.52,-23.99 -1.52,-31.96 0,-11.42 5.46,-26.11 27.78,-27.42 1.07,-0.07 2.17,-0.1 3.32,-0.1 25.1,0 32.69,9.98 33.87,6.39 2.4,-6.77 -0.79,-17.54 -14.74,-17.54 -8.77,0 -31.09,0.79 -35.47,0.79 -0.39,0 -0.78,0 -1.18,-0.02 -3.35,-0.09 -6.87,-0.76 -7.49,-4.65 -0.07,-0.4 -0.1,-0.83 -0.1,-1.29 0,-5.19 0,-13.55 0.41,-17.14 0.79,-3.6 1.18,-5.59 5.96,-5.59 4.78,0 40.66,1.2 52.2,2.4 11.18,1.2 16.75,10.77 16.75,18.72 0,7.57 2.4,38.67 2.4,46.63 0,5.33 1.96,33.24 3.13,50.64 0.49,7.38 0.84,12.87 0.84,13.94 C 4.78,-2.79 3.99,0 0,0" /></g><g
           transform="translate(499.915,568.5366)"
           id="g28"><path
             id="path30"
             style="fill:#ffffff;fill-opacity:1;fill-rule:nonzero;stroke:none"
             d="m 0,0 c -10.96,0 -16.15,7.98 -16.15,14.54 0,6.58 1.8,20.93 1.8,24.92 0,3.97 0,12.35 2.6,12.35 H 0 c 3.99,0 3.58,6.57 3.58,10.56 0,3.79 -3.58,4.78 -9.17,4.78 -6.16,0 -8.76,3 -8.76,6.58 v 20.16 c 0,3.18 -2.59,7.17 -5.38,7.17 h -14.15 c -3.59,0 -4.98,-3.18 -4.98,-9.76 0,0 0.99,-11.99 0.99,-16.37 0,-4.78 -2.58,-6.58 -6.57,-6.58 h -6.58 c -3.99,0 -9.95,-0.79 -9.95,-3.39 0,-1.8 -0.6,-3.99 -0.6,-8.36 0,-3.99 -0.8,-6.59 4.37,-6.59 h 6.59 c 6.56,0 8.77,0 8.77,-3.58 0,-3.79 -1.4,-22.71 -1.4,-35.67 0,-0.64 0.02,-1.26 0.05,-1.88 1.12,-20.47 20.52,-30.8 41.58,-30.8 2.39,0 4.13,1.18 5.21,2.67 0.64,0.87 1.06,1.85 1.25,2.77 0.09,0.4 0.13,0.78 0.13,1.14 v 8.75 C 4.98,-3.99 5.39,0 0,0" /></g><g
           transform="translate(599.095,616.7466)"
           id="g32"><path
             id="path34"
             style="fill:#ffffff;fill-opacity:1;fill-rule:nonzero;stroke:none"
             d="m 0,0 c 0,11.84 -3.52,20.21 -8.69,25.77 -5.96,6.42 -14.12,9.11 -21.59,9.11 -17.14,0 -26.9,-6.97 -29.11,-12.94 -1.01,-2.73 -2.76,-3.27 -3.24,-1 -0.08,0.38 -0.13,0.84 -0.13,1.39 0,6.18 -0.4,16.54 -0.4,21.32 v 25.52 c 0,3.97 -1.2,7.16 -2.79,7.16 -1.59,0 -11.95,-0.4 -14.35,-0.4 0,0 -5.17,1.2 -5.17,-5.17 0,-8.37 1.59,-44.64 1.59,-55.81 l -0.16,-55.16 -0.05,-16.37 c 0,-7.97 1.99,-9.56 4.39,-9.56 h 18.34 c 3.17,0 5.58,2.79 5.58,6.77 0,4.38 0.98,15.75 0.98,35.67 0,19.52 9.98,31.49 17.55,31.49 10.03,0 14.02,-9.19 15.17,-22.25 0.27,-3.03 0.38,-6.26 0.38,-9.64 0,-8.37 0.38,-25.51 -0.82,-32.28 -0.79,-6.37 0.41,-11.56 2.4,-11.56 h 15.94 c 3.99,0 4.78,3.19 4.78,11.56 C 0.6,-47.61 0,-16.73 0,0" /></g><g
           transform="translate(655.125,572.0366)"
           id="g36"><path
             id="path38"
             style="fill:#ffffff;fill-opacity:1;fill-rule:nonzero;stroke:none"
             d="m 0,0 c -2.31,-2.47 -5.44,-3.89 -9.69,-3.89 -17.93,0 -16.32,22.91 -17.14,28.48 -0.35,2.57 -0.86,10.46 0.43,18.43 v 0.01 c 0.92,5.63 2.73,11.29 6.13,15.15 2.62,2.97 6.18,4.87 10.99,4.87 7.57,0 15.54,-1.59 15.54,-18.34 C 6.26,33.48 6.8,21.47 5.14,12.2 4.23,7.11 2.67,2.86 0,0 m 32.37,54.28 c 0,2.55 -0.13,4.92 -0.4,7.13 -3.26,28.53 -26.25,29.74 -33.28,29.74 -1.21,0 -2.39,-0.01 -3.55,-0.03 -8.81,-0.13 -16.28,-0.96 -21.56,-5.55 -15.34,-12.14 -17.93,-39.25 -17.93,-61.77 0,-7.37 0.57,-15.43 2.85,-22.77 3.89,-12.59 12.79,-23.09 32.42,-24.49 1.47,-0.11 2.99,-0.16 4.58,-0.16 39.05,0 36.87,42.23 36.87,77.9" /></g><g
           transform="translate(796.565,565.5766)"
           id="g40"><path
             id="path42"
             style="fill:#ffffff;fill-opacity:1;fill-rule:nonzero;stroke:none"
             d="m 0,0 c -0.28,13.57 -1.32,43.15 -1.32,57.56 0,2.28 -0.16,4.48 -0.47,6.6 -3.04,21.02 -20.52,33.85 -38.99,33.85 -20.91,0 -30.09,-15.33 -33.67,-24.1 -0.99,-2.41 -2.98,-2.79 -2.58,1.2 0.2,2.38 0.58,5.36 0.58,16.92 0,3.99 -1.18,7.18 -2.78,7.18 -0.28,0 -0.78,-0.01 -1.42,-0.04 -2.96,-0.09 -8.97,-0.36 -10.94,-0.36 0,0 -5.17,1.2 -5.17,-5.19 0,-3.19 0.06,-6.32 0.13,-9.59 0.11,-5.31 0.26,-10.99 0.26,-17.91 l -0.17,-64.79 -0.02,-6.74 c 0,-7.97 1.99,-9.56 4.39,-9.56 h 20.31 c 3.2,0 4.59,2.79 4.59,6.77 0,4.38 -1.99,15.75 -1.99,35.67 0,2.16 0.12,4.37 0.37,6.59 v 0.01 c 1.92,17.92 11.33,36.83 23.74,36.83 7.57,0 11.81,-4.17 13.71,-14.36 v -0.01 c 0.85,-4.57 1.23,-10.35 1.23,-17.5 0,-8.36 0.6,-30.09 0.6,-40.64 0,-2.78 -0.19,-6.01 -0.24,-8.77 -0.06,-3.59 0.11,-6.39 1.23,-6.39 H -4.7 c 3.98,0 4.78,3.19 4.78,11.56 C 0.08,-3.99 0.05,-2.2 0,0" /></g><g
           transform="translate(299.175,409.2066)"
           id="g44"><path
             id="path46"
             style="fill:#ffffff;fill-opacity:1;fill-rule:nonzero;stroke:none"
             d="m 0,0 c -1.15,2.14 -1.47,5.77 -1.42,9.53 0.06,5.99 1.03,12.32 1.03,13.46 0,3.16 2.79,4.65 5.19,4.65 2.23,0 9.28,-0.57 12.43,-0.57 5.02,0 11.14,-5.01 11.14,-13.72 0,-1 -0.12,-1.95 -0.34,-2.84 C 24.95,-1.91 1.89,-3.46 0,0 m -5.01,80.48 c 0,3.7 1.85,5.56 4.62,5.56 9.28,0 23.74,-2.4 23.74,-15.4 0,-1.74 -0.24,-3.42 -0.69,-5.02 C 20.22,57.01 11.65,50.81 1.47,50.81 c -5.92,0 -7.78,1.3 -7.78,5.56 0,1.1 0.09,3.33 0.22,6.02 0.38,7.35 1.08,18.09 1.08,18.09 M 51.17,12.86 C 50.93,30.04 43,41.91 30.23,41.91 c -2.6,0 -2.79,0.93 0,2.79 4.99,3.33 14.07,9.81 14.44,23.72 0.02,0.67 0.03,1.34 0.03,2.01 -0.11,23.47 -15.11,40.64 -37.67,40.64 -23.18,0 -24.48,-0.56 -29.1,-0.56 -4.26,0 -7.98,-3.15 -7.98,-8.34 V 42.84 c 0,-5.8 -0.35,-19.74 -0.69,-32.55 -0.32,-11.8 -0.61,-22.64 -0.61,-25.31 0,-3.33 2.23,-7.05 9.28,-7.05 6.85,0 18.55,0.56 20.77,0.56 h 0.37 c 25.41,0 52.11,5.38 52.11,33.56 0,0.27 0,0.54 -0.01,0.81" /></g><g
           transform="translate(418.705,493.0166)"
           id="g48"><path
             id="path50"
             style="fill:#ffffff;fill-opacity:1;fill-rule:nonzero;stroke:none"
             d="m 0,0 c -21.14,0 -32.63,-14.64 -35.05,-22.05 -0.54,-1.69 -2.59,-3.53 -2.22,2.22 0.19,1.3 0.36,3.51 0.36,14.27 0,3.65 -1.06,6.57 -2.51,6.67 -0.03,0.01 -0.05,0.01 -0.08,0.01 -1.47,0 -11.11,-0.36 -13.34,-0.36 0,0 -4.82,1.1 -4.82,-4.83 0,-1.16 0.01,-2.31 0.02,-3.46 0.08,-6.61 0.34,-13.3 0.34,-22.13 l -0.1,-39.57 -0.07,-27.01 c 0,-7.41 1.84,-8.9 4.07,-8.9 h 17.06 c 2.96,0 4.28,2.59 4.28,6.31 0,4.08 1.83,14.66 1.83,33.19 0,1.19 0.03,2.4 0.1,3.62 0.93,17.38 8.52,36.81 22.91,36.81 5.19,0 8.91,-0.93 13.71,-0.93 4.82,0 7.98,0.37 7.98,7.78 C 14.47,-2.59 13.17,0 0,0" /></g><g
           transform="translate(473.605,407.2166)"
           id="g52"><path
             id="path54"
             style="fill:#ffffff;fill-opacity:1;fill-rule:nonzero;stroke:none"
             d="m 0,0 c -0.41,-0.04 -0.82,-0.06 -1.24,-0.06 -6.86,0 -11.48,5.21 -11.48,16.33 0,10.01 7.95,14.27 15.93,14.27 5.38,0 17.25,0 17.25,-6.49 C 20.46,22.56 19.9,20.41 18.89,18 15.82,10.65 8.52,0.88 0,0 m 42.71,20.72 v 0.19 c 0,0 0.74,10.56 0.56,22.06 0,2.48 -0.02,4.81 -0.08,7.09 -0.12,4.71 -0.41,9.24 -1.04,14.61 -2.23,18.36 -23.35,19.46 -29.1,19.46 -2.8,0 -9.82,0.3 -16.61,0.66 -7.15,0.35 -14.05,0.74 -15.48,0.84 -5.38,0.36 -8.9,-1.86 -9.45,-5.19 -0.56,-3.9 -0.75,-7.05 -0.75,-11.51 0,-3.61 2.45,-5.38 6.64,-5.93 0.97,-0.12 2.04,-0.18 3.19,-0.18 29.3,0 37.28,3.52 37.28,-7.79 0,-4.45 -1.3,-7.05 -4.09,-7.41 -2.4,-0.39 -19.84,-1.86 -25.03,-3.53 -15.77,-5.01 -22.99,-18.18 -22.99,-28.93 0,-6.31 -0.56,-13.17 3.53,-20.97 2.34,-4.46 5.11,-7.57 8.38,-9.71 5.3,-3.5 11.92,-4.52 20.16,-4.75 8.71,-0.18 16.52,3.71 22.81,9.27 0.56,0.39 1.3,1.86 1.3,-0.37 0,-1.85 0,-3.52 0.19,-5.19 0.37,-4.26 8.52,-3.71 12.24,-3.71 3.33,0 9.64,-0.37 9.64,4.28 0,2.59 -1.3,32.62 -1.3,36.71" /></g><g
           transform="translate(565.825,440.2366)"
           id="g56"><path
             id="path58"
             style="fill:#ffffff;fill-opacity:1;fill-rule:nonzero;stroke:none"
             d="m 0,0 c -8.62,3.29 -15.64,7.91 -15.64,19.22 0,14.1 8.91,16.69 14.1,16.69 5.22,0 9.81,-6.89 10.33,-15.75 0.03,-0.55 0.05,-1.11 0.05,-1.67 0,-2.98 -1.11,-5.95 5.57,-5.95 h 11.48 c 2.62,0 2.62,4.82 2.62,8.54 0,9.06 -2.64,18.96 -9.42,25.82 -5.14,5.21 -12.66,8.67 -23.23,8.67 -18.55,0 -32.26,-16.69 -32.26,-34.49 0,-24.52 16.23,-31.3 29,-36.23 8.29,-3.21 15.13,-5.64 15.13,-11.62 0,-6.68 -3.52,-8.52 -9.27,-8.52 -5.9,0 -10.21,3.9 -12.3,8.26 -0.93,1.95 -1.43,3.99 -1.43,5.82 0,4.09 -2.96,2.96 -5.56,2.96 h -11.5 c -4.44,0 -5.93,-2.96 -5.93,-5.92 0,-7.27 3.48,-16.49 12.14,-22.54 5.48,-3.82 13.04,-6.39 23.1,-6.39 20.39,0 34.49,10.38 34.49,25.97 C 31.47,-7.1 13.71,-5.24 0,0" /></g><g
           transform="translate(634.785,487.6566)"
           id="g60"><path
             id="path62"
             style="fill:#ffffff;fill-opacity:1;fill-rule:nonzero;stroke:none"
             d="M 0,0 C 0,2.94 -3.61,4.28 -7.73,4.43 -8,4.45 -8.27,4.45 -8.54,4.45 c -4.43,0 -12.41,-0.76 -15.03,-1.32 -2.2,0 -2.2,-3.52 -2.2,-3.52 l 0.31,-49.62 0.05,-8.24 c 0,-4.43 -2.22,-30.21 -2.59,-33.73 0,-3.72 2.23,-6.68 7.98,-7.24 6.12,0 13.71,0.93 17.23,1.3 0.41,0.08 0.75,0.21 1.05,0.38 1.5,0.83 1.71,2.73 1.73,5.46 C 0,-91.64 0,-91.17 0,-90.68 0.37,-87.16 0,-2.99 0,0 M 0.31,29.38 C 0.13,30.86 0,32.24 0,33.36 c 0,4.09 -5.02,4.82 -7.24,4.82 -2.23,0 -10.75,0.56 -12.98,0.56 -2.22,0 -4.45,-1.86 -5.38,-6.31 -1.3,-3.89 1.12,-9.82 -0.17,-13.9 -1.49,-3.89 2.96,-4.82 6.66,-4.82 3.1,0 11.1,1 14.73,1.24 0.49,0.03 0.91,0.05 1.22,0.05 2.6,0 4.82,1.13 4.82,4.09 0,1.88 -0.87,6.39 -1.35,10.29" /></g><g
           transform="translate(707.865,406.0566)"
           id="g64"><path
             id="path66"
             style="fill:#ffffff;fill-opacity:1;fill-rule:nonzero;stroke:none"
             d="m 0,0 v 0.01 c -0.21,2.33 -0.37,4.2 -0.37,4.81 0,1.86 -1.86,3.7 -4.45,3.7 -2.6,0 -21.3,0.75 -23.9,0.75 -1.3,0 -2.46,0 -3.35,0.34 -1.15,0.44 -1.86,1.44 -1.86,3.73 v 42.29 c 0,6.68 1.13,49.32 1.13,53.77 0,0.69 -0.05,1.31 -0.16,1.85 -0.48,2.69 -2.08,3.71 -3.93,3.71 h -15.57 c -2.96,0 -5.94,-2.23 -5.94,-5.93 -0.37,-2.22 -1.11,-55.26 -1.11,-62.31 V -11.5 c 0,-2.23 3.33,-6.68 10.38,-6.68 2.14,0 5.09,-0.04 8.47,-0.1 10.39,-0.18 24.94,-0.55 33.52,-0.62 0.98,-0.02 1.87,-0.02 2.68,-0.02 2.97,0 5.19,2.23 5.56,5.56 0,2 -0.66,8.63 -1.1,13.36" /></g><g
           transform="translate(780.515,479.1166)"
           id="g68"><path
             id="path70"
             style="fill:#ffffff;fill-opacity:1;fill-rule:nonzero;stroke:none"
             d="m 0,0 c -5.4,0 -11.33,1.16 -11.33,8.98 l 0.01,0.35 0.49,15.14 c 0,10.5 5.12,12.8 10.83,12.8 4.49,0 5.52,-4.8 5.83,-9.06 0.2,-3.27 0.44,-6.68 0.55,-9.96 C 6.72,8.52 5.97,0 0,0 M 20.09,22.83 C 20,26.26 19.68,29.45 19.21,32.12 16.96,44.57 11.85,50.44 0,50.44 c -11.74,0 -27.46,-2.67 -27.46,-22.42 0,-5.52 -0.21,-12.01 -0.21,-20.72 0,-3.48 0.53,-6.49 1.43,-9.06 3.24,-9.2 11.3,-12.84 17.35,-12.84 5.33,0 7.05,0.27 10.83,0.27 14.46,0 18.61,21.25 18.15,37.16" /></g><g
           transform="translate(770.675,399.5266)"
           id="g72"><path
             id="path74"
             style="fill:#ffffff;fill-opacity:1;fill-rule:nonzero;stroke:none"
             d="m 0,0 c 0,1.61 -2.46,2.06 -5.11,2.33 -4.1,0.49 -8.35,-0.07 -12.66,-0.57 -2.68,-0.31 -5.37,-0.6 -8.06,-0.6 -3.27,0 -4.8,0.55 -3.48,2.13 6.33,7.65 30.03,8.64 30.03,27.15 0,11.56 -10.83,21.88 -24.3,21.88 -16.75,0 -21.67,-10.14 -21.67,-24.72 0,-2.5 1.03,-3.04 2.05,-3.04 0,0 4.09,-0.18 5.93,-0.18 2.03,0 2.65,0.54 2.65,2.33 0,1.58 0.41,13.34 9.39,13.34 6.55,0 9.82,-3.57 9.82,-7.3 0,-19.21 -29.22,-10.32 -29.72,-33.37 0,-2.05 -0.31,-5.07 -0.31,-7.2 0,-2.3 -0.22,-3.56 5.82,-3.56 4.79,0 8.67,-0.17 12,-0.24 0.87,-0.02 1.69,-0.03 2.49,-0.03 8.69,0 14.41,0.36 22.89,0.36 3.37,0 2.65,1.42 2.65,3.37 C 0.41,-6.48 0,-2.57 0,0" /></g><g
           transform="translate(710.945,515.9266)"
           id="g76"><path
             id="path78"
             style="fill:#ffffff;fill-opacity:1;fill-rule:nonzero;stroke:none"
             d="m 0,0 c -0.12,-0.99 -0.76,-1.54 -1.67,-1.55 -0.86,-0.01 -1.46,0.75 -1.52,1.83 -0.03,0.48 -0.01,0.97 -0.01,1.45 0.01,0.53 0,1.05 0.01,1.57 0.02,1.07 0.58,1.68 1.46,1.78 0.89,0.1 1.55,-0.47 1.71,-1.47 C 0.18,2.42 0.15,1.2 0,0 m 36.27,-45.29 c -0.11,1.82 -0.35,4.57 -0.35,6.52 0,1.61 -2.46,2.05 -5.11,2.31 -6.64,0.81 -13.69,-1.15 -20.74,-1.15 -3.25,0 -4.78,0.53 -3.46,2.13 6.33,7.65 30.03,8.64 30.03,27.13 0,9.12 -6.73,17.47 -16.18,20.6 -0.34,0.11 -0.68,0.21 -1.03,0.31 -2.25,0.64 -4.63,0.99 -7.11,0.99 -12.51,0 -18.42,-5.65 -20.58,-14.6 0.11,-0.31 0.25,-0.6 0.42,-0.91 0.08,-0.13 0.14,-0.31 0.2,-0.46 -0.37,-0.37 -0.76,-0.72 -1.13,-1.09 v -0.02 c -0.54,-0.5 -1.06,-1.02 -1.59,-1.57 -0.38,-0.42 -0.81,-0.6 -1.37,-0.56 -0.7,0.04 -1.39,0.04 -2.07,0 -0.97,-0.02 -1.51,-0.5 -1.49,-1.29 0.02,-0.8 0.48,-1.17 1.47,-1.19 2.13,-0.03 2.13,-0.03 2.17,-2.16 0.02,-0.99 0.38,-1.46 1.18,-1.48 0.46,0 0.91,0.22 1.14,0.59 v 0.01 c 0.14,0.22 0.17,0.49 0.12,0.8 -0.06,0.27 -0.08,0.56 -0.1,0.81 0,0.16 0,0.31 0.02,0.47 0.1,1.87 1.36,3.15 2.79,4.37 0.21,0.18 0.37,0.41 0.56,0.6 1.16,-0.58 2.32,-1.12 3.66,-1.16 2.09,-0.06 3.81,0.7 5.29,2.11 0.36,0.35 0.69,0.72 1.04,1.07 1.4,1.93 3.49,3.39 6.64,3.39 0.24,0 0.47,0 0.69,-0.01 h 0.01 c 6.06,-0.25 9.1,-3.69 9.1,-7.29 0,-6.26 -3.08,-9.53 -7.26,-11.89 -8.69,-4.92 -22.09,-5.93 -22.44,-21.48 0,-2.05 -0.31,-5.07 -0.31,-7.2 0,-2.33 -0.22,-3.56 5.81,-3.56 6.04,0 10.63,-0.28 14.5,-0.28 8.04,0 13.54,0.3 21.03,0.34 0.6,0.01 1.22,0.01 1.86,0.01 3.37,0 2.65,1.44 2.65,3.39 0,0.34 -0.02,0.82 -0.06,1.4" /></g><g
           transform="translate(789.965,438.2966)"
           id="g80"><path
             id="path82"
             style="fill:#ffffff;fill-opacity:1;fill-rule:nonzero;stroke:none"
             d="m 0,0 c -0.12,-0.99 -0.76,-1.54 -1.66,-1.55 -0.87,0 -1.47,0.75 -1.53,1.83 -0.03,0.48 -0.01,0.97 0,1.45 0,0.53 -0.01,1.05 0,1.58 0.02,1.06 0.58,1.67 1.46,1.77 0.89,0.1 1.56,-0.47 1.72,-1.46 C 0.18,2.43 0.15,1.2 0,0 m 35.92,-38.77 c 0,1.61 -2.45,2.06 -5.11,2.31 -6.64,0.81 -13.69,-1.15 -20.74,-1.15 -3.25,0 -4.78,0.53 -3.46,2.13 6.33,7.65 30.03,8.64 30.03,27.13 0,4.29 -1.49,8.42 -4.06,11.92 -3.08,4.18 -7.7,7.45 -13.15,9 -2.25,0.63 -4.63,0.98 -7.11,0.98 -12.51,0 -18.41,-5.65 -20.58,-14.6 0.11,-0.31 0.25,-0.6 0.42,-0.91 0.08,-0.13 0.14,-0.31 0.2,-0.46 -0.37,-0.37 -0.76,-0.72 -1.13,-1.09 v -0.02 c -0.54,-0.5 -1.06,-1.02 -1.58,-1.56 -0.39,-0.43 -0.82,-0.6 -1.38,-0.57 -0.7,0.04 -1.39,0.04 -2.07,0 -0.97,-0.01 -1.51,-0.5 -1.49,-1.29 0.02,-0.8 0.48,-1.16 1.47,-1.18 2.13,-0.04 2.13,-0.04 2.17,-2.17 0.02,-0.99 0.39,-1.45 1.18,-1.47 0.46,0 0.91,0.21 1.14,0.58 v 0.02 c 0.14,0.21 0.18,0.48 0.12,0.79 -0.06,0.27 -0.08,0.56 -0.1,0.81 0,0.16 0,0.31 0.02,0.47 0.1,1.88 1.36,3.15 2.79,4.37 0.21,0.18 0.37,0.41 0.56,0.6 1.16,-0.58 2.32,-1.12 3.66,-1.16 2.09,-0.06 3.82,0.7 5.29,2.11 0.36,0.35 0.69,0.72 1.04,1.07 1.4,1.93 3.49,3.39 6.64,3.39 2.67,0 4.79,-0.6 6.37,-1.56 2.29,-1.39 3.43,-3.54 3.43,-5.74 0,-6.26 -3.08,-9.53 -7.26,-11.89 -8.69,-4.92 -22.09,-5.93 -22.44,-21.48 0,-2.05 -0.31,-5.07 -0.31,-7.2 0,-2.32 -0.21,-3.56 5.81,-3.56 6.04,0 10.63,-0.27 14.5,-0.27 8.7,0 14.41,0.34 22.89,0.34 3.37,0 2.65,1.44 2.65,3.39 0,1.42 -0.41,5.35 -0.41,7.92" /></g><g
           transform="translate(319.305,684.5966)"
           id="g84"><path
             id="path86"
             style="fill:#166d82;fill-opacity:1;fill-rule:nonzero;stroke:none"
             d="m 0,0 c -5.55,-6.28 -11.47,-12.17 -17.81,-17.6 -4.1,1.99 -9.17,2.96 -14.83,2.96 -3.99,0 -4.97,-5.98 -4.97,-9.95 0,0 -0.27,-3.56 -0.58,-7.93 -8.16,-5.06 -16.92,-9.45 -26.34,-13.09 v 44.34 c 0,5.57 3.99,8.96 8.58,8.96 4.97,0 6.37,0.6 31.29,0.6 C -14.87,8.29 -6.52,5.27 0,0" /></g><g
           transform="translate(335.095,647.0566)"
           id="g88"><path
             id="path90"
             style="fill:#269fa2;fill-opacity:1;fill-rule:nonzero;stroke:none"
             d="m 0,0 c 0,-37.47 -26.32,-43.84 -42.85,-43.84 -2.6,0 -5.58,-1.61 -5.58,-4.98 0,-1.15 0.06,-6.05 0.17,-11.96 -9.79,-3.55 -20.28,-6.33 -31.54,-8.22 -0.48,-0.08 -0.95,-0.16 -1.43,-0.23 0.4,15.27 0.91,34.46 0.91,41.73 v 19.43 c 9.42,3.64 18.18,8.03 26.34,13.09 -0.38,-5.53 -0.82,-12.34 -0.82,-14.78 0,-4.59 -0.21,-9.18 6.18,-9.18 16.92,0 25.69,9.37 25.69,21.32 0,8.6 -4.09,14.39 -10.67,17.56 6.34,5.43 12.26,11.32 17.81,17.6 C -5.72,29.42 0,15.95 0,0" /></g><g
           transform="translate(368.865,650.8866)"
           id="g92"><path
             id="path94"
             style="fill:#269fa2;fill-opacity:1;fill-rule:nonzero;stroke:none"
             d="m 0,0 c -7.63,-10.69 -16.05,-20.59 -25.42,-29.46 0.9,13.85 1.87,27.79 1.87,35.79 0,6.76 4.19,5.97 12.57,6.37 7.57,0 10.96,-4.18 10.96,-8.77 C -0.02,2.8 -0.01,1.47 0,0" /></g><g
           transform="translate(287.675,561.3666)"
           id="g96"><path
             id="path98"
             style="fill:#4eb8b4;fill-opacity:1;fill-rule:nonzero;stroke:none"
             d="m 0,0 c 0.79,-5.98 0.58,-10.96 -2,-10.96 -2.4,0 -14.94,-0.6 -22.32,-0.6 -7.57,0 -9.96,3.99 -9.96,7.57 0,2.35 0.22,10.58 0.47,20.45 0.48,0.07 0.95,0.15 1.43,0.23 11.26,1.89 21.75,4.67 31.54,8.22 C -0.67,15.41 -0.37,3.31 0,0" /></g><g
           transform="translate(355.505,551.5666)"
           id="g100"><path
             id="path102"
             style="fill:#4eb8b4;fill-opacity:1;fill-rule:nonzero;stroke:none"
             d="M 0,0 C -2.44,-1.62 -4.94,-3.16 -7.49,-4.65 -6.87,-0.76 -3.35,-0.09 0,0" /></g><g
           transform="translate(392.155,584.1466)"
           id="g104"><path
             id="path106"
             style="fill:#4eb8b4;fill-opacity:1;fill-rule:nonzero;stroke:none"
             d="m 0,0 c -6.87,-8 -14.33,-15.41 -22.45,-22.1 -22.32,1.31 -27.78,16 -27.78,27.42 0,7.97 0.73,19.93 1.52,31.96 9.37,8.87 17.79,18.77 25.42,29.46 0.07,-8.38 0.25,-21.2 -0.43,-25.97 -0.98,-7.57 -0.19,-16.73 -0.19,-23.5 0,-6.78 0.39,-18.34 17.14,-18.34 2.5,0 4.75,0.38 6.77,1.07" /></g><g
           transform="translate(429.605,655.2266)"
           id="g108"><path
             id="path110"
             style="fill:#4eb8b4;fill-opacity:1;fill-rule:nonzero;stroke:none"
             d="m 0,0 c 0,-1.07 -0.35,-6.56 -0.84,-13.94 -6.71,-13.69 -14.13,-26.73 -22.5,-38.82 0.85,3.62 1.23,7.43 1.23,11.11 0,8.36 2.59,25.5 2.59,34.46 0,3.8 0.39,13.56 6.38,13.56 h 8.36 C -0.79,6.37 0,3.58 0,0" /></g><g
           transform="translate(321.835,474.8266)"
           id="g112"><path
             id="path114"
             style="fill:#047f4d;fill-opacity:1;fill-rule:nonzero;stroke:none"
             d="m 0,0 c 0.45,1.6 0.69,3.28 0.69,5.02 0,13 -14.46,15.4 -23.74,15.4 -2.77,0 -4.62,-1.86 -4.62,-5.56 0,0 -0.7,-10.74 -1.08,-18.09 -7.97,-0.56 -15.95,-0.87 -23.96,-0.97 v 40.75 c 0,5.19 3.72,8.34 7.98,8.34 4.62,0 5.92,0.56 29.1,0.56 C 6.93,45.45 21.93,28.28 22.04,4.81 15.03,2.82 7.69,1.21 0,0" /></g><g
           transform="translate(379.205,494.1366)"
           id="g116"><path
             id="path118"
             style="fill:#047f4d;fill-opacity:1;fill-rule:nonzero;stroke:none"
             d="m 0,0 c 0.03,0 0.05,0 0.08,-0.01 -5.78,-3.2 -11.85,-6.09 -18.22,-8.64 -0.01,1.15 -0.02,2.3 -0.02,3.46 0,5.93 4.82,4.83 4.82,4.83 C -11.11,-0.36 -1.47,0 0,0" /></g><g
           transform="translate(428.765,641.2866)"
           id="g120"><path
             id="path122"
             style="fill:#047f4d;fill-opacity:1;fill-rule:nonzero;stroke:none"
             d="m 0,0 c -1.17,-17.4 -3.13,-45.31 -3.13,-50.64 0,-7.96 -2.4,-39.06 -2.4,-46.63 0,-7.95 -5.57,-17.52 -16.75,-18.72 -11.54,-1.2 -47.42,-2.4 -52.2,-2.4 -4.78,0 -5.17,1.99 -5.96,5.59 -0.41,3.59 -0.41,11.95 -0.41,17.14 0,0.46 0.03,0.89 0.1,1.29 2.55,1.49 5.05,3.03 7.49,4.65 0.4,0.02 0.79,0.02 1.18,0.02 4.38,0 26.7,-0.79 35.47,-0.79 13.95,0 17.14,10.77 14.74,17.54 -1.18,3.59 -8.77,-6.39 -33.87,-6.39 -1.15,0 -2.25,0.03 -3.32,0.1 8.12,6.69 15.58,14.1 22.45,22.1 7.8,2.67 12.18,10 14.11,18.32 C -14.13,-26.73 -6.71,-13.69 0,0" /></g><g
           transform="translate(485.565,662.4266)"
           id="g124"><path
             id="path126"
             style="fill:#047f4d;fill-opacity:1;fill-rule:nonzero;stroke:none"
             d="m 0,0 v -19.17 c -8.32,-22.95 -17.63,-45.29 -28.84,-65.84 -0.03,0.62 -0.05,1.24 -0.05,1.88 0,12.96 1.4,31.88 1.4,35.67 0,3.58 -2.21,3.58 -8.77,3.58 h -6.59 c -5.17,0 -4.37,2.6 -4.37,6.59 0,4.37 0.6,6.56 0.6,8.36 0,2.6 5.96,3.39 9.95,3.39 h 6.58 c 3.99,0 6.57,1.8 6.57,6.58 0,4.38 -0.99,16.37 -0.99,16.37 0,6.58 1.39,9.76 4.98,9.76 H -5.38 C -2.59,7.17 0,3.18 0,0" /></g><g
           transform="translate(350.345,422.0666)"
           id="g128"><path
             id="path130"
             style="fill:#27a058;fill-opacity:1;fill-rule:nonzero;stroke:none"
             d="m 0,0 c -7.69,-1.05 -15.4,-1.82 -23.14,-2.35 0.22,0.89 0.34,1.84 0.34,2.84 0,8.71 -6.12,13.72 -11.14,13.72 -3.15,0 -10.2,0.57 -12.43,0.57 -2.4,0 -5.19,-1.49 -5.19,-4.65 0,-1.14 -0.97,-7.47 -1.03,-13.46 -9.76,-0.01 -19.54,0.27 -29.32,0.76 0.34,12.81 0.69,26.75 0.69,32.55 v 18.58 c 8.01,0.1 15.99,0.41 23.96,0.97 -0.13,-2.69 -0.22,-4.92 -0.22,-6.02 0,-4.26 1.86,-5.56 7.78,-5.56 10.18,0 18.75,6.2 21.19,14.81 7.69,1.21 15.03,2.82 22.04,4.81 0,-0.67 -0.01,-1.34 -0.03,-2.01 -0.37,-13.91 -9.45,-20.39 -14.44,-23.72 -2.79,-1.86 -2.6,-2.79 0,-2.79 C -8.17,29.05 -0.24,17.18 0,0" /></g><g
           transform="translate(433.175,474.6566)"
           id="g132"><path
             id="path134"
             style="fill:#27a058;fill-opacity:1;fill-rule:nonzero;stroke:none"
             d="m 0,0 c 0,-7.41 -3.16,-7.78 -7.98,-7.78 -4.8,0 -8.52,0.93 -13.71,0.93 -14.39,0 -21.98,-19.43 -22.91,-36.81 -8.55,-3 -17.63,-5.42 -27.27,-7.21 l 0.1,39.57 c 0,8.83 -0.26,15.52 -0.34,22.13 6.37,2.55 12.44,5.44 18.22,8.64 1.45,-0.1 2.51,-3.02 2.51,-6.67 0,-10.76 -0.17,-12.97 -0.36,-14.27 -0.37,-5.75 1.68,-3.91 2.22,-2.22 2.42,7.41 13.91,22.05 35.05,22.05 C -1.3,18.36 0,15.77 0,0" /></g><g
           transform="translate(454.565,492.8466)"
           id="g136"><path
             id="path138"
             style="fill:#27a058;fill-opacity:1;fill-rule:nonzero;stroke:none"
             d="M 0,0 C 1.43,-0.1 8.33,-0.49 15.48,-0.84 9.6,-8.58 3.28,-15.88 -3.56,-22.63 c -4.19,0.55 -6.64,2.32 -6.64,5.93 0,4.46 0.19,7.61 0.75,11.51 C -8.9,-1.86 -5.38,0.36 0,0" /></g><g
           transform="translate(504.895,561.9466)"
           id="g140"><path
             id="path142"
             style="fill:#27a058;fill-opacity:1;fill-rule:nonzero;stroke:none"
             d="m 0,0 v -8.75 c 0,-0.36 -0.04,-0.74 -0.13,-1.14 -0.41,-0.93 -0.83,-1.85 -1.25,-2.77 -1.08,-1.49 -2.82,-2.67 -5.21,-2.67 -21.06,0 -40.46,10.33 -41.58,30.8 11.21,20.55 20.52,42.89 28.84,65.84 v -0.99 c 0,-3.58 2.6,-6.58 8.76,-6.58 5.59,0 9.17,-0.99 9.17,-4.78 0,-3.99 0.41,-10.56 -3.58,-10.56 h -11.75 c -2.6,0 -2.6,-8.38 -2.6,-12.35 0,-3.99 -1.8,-18.34 -1.8,-24.92 0,-6.56 5.19,-14.54 16.15,-14.54 C 0.41,6.59 0,2.6 0,0" /></g><g
           transform="translate(515.055,576.5366)"
           id="g144"><path
             id="path146"
             style="fill:#27a058;fill-opacity:1;fill-rule:nonzero;stroke:none"
             d="m 0,0 0.16,55.16 c 0,11.17 -1.59,47.44 -1.59,55.81 0,6.37 5.17,5.17 5.17,5.17 2.4,0 12.76,0.4 14.35,0.4 1.59,0 2.79,-3.19 2.79,-7.16 V 83.86 c 0,-4.78 0.4,-15.14 0.4,-21.32 0,-0.55 0.05,-1.01 0.13,-1.39 C 14.77,40.63 7.84,19.98 0,0" /></g><g
           transform="translate(350.355,421.2566)"
           id="g148"><path
             id="path150"
             style="fill:#4fb765;fill-opacity:1;fill-rule:nonzero;stroke:none"
             d="m 0,0 c 0,-28.18 -26.7,-33.56 -52.11,-33.56 h -0.37 c -2.22,0 -13.92,-0.56 -20.77,-0.56 -7.05,0 -9.28,3.72 -9.28,7.05 0,2.67 0.29,13.51 0.61,25.31 9.78,-0.49 19.56,-0.77 29.32,-0.76 -0.05,-3.76 0.27,-7.39 1.42,-9.53 1.89,-3.46 24.95,-1.91 28.03,10.51 7.74,0.53 15.45,1.3 23.14,2.35 C 0,0.54 0,0.27 0,0" /></g><g
           transform="translate(361.305,423.7866)"
           id="g152"><path
             id="path154"
             style="fill:#4fb765;fill-opacity:1;fill-rule:nonzero;stroke:none"
             d="m 0,0 c 9.64,1.79 18.72,4.21 27.27,7.21 -0.07,-1.22 -0.1,-2.43 -0.1,-3.62 0,-18.53 -1.83,-29.11 -1.83,-33.19 0,-3.72 -1.32,-6.31 -4.28,-6.31 H 4 c -2.23,0 -4.07,1.49 -4.07,8.9 z" /></g><g
           transform="translate(504.765,552.0566)"
           id="g156"><path
             id="path158"
             style="fill:#4fb765;fill-opacity:1;fill-rule:nonzero;stroke:none"
             d="M 0,0 C -0.19,-0.92 -0.61,-1.9 -1.25,-2.77 -0.83,-1.85 -0.41,-0.93 0,0" /></g><g
           transform="translate(492.495,425.2166)"
           id="g160"><path
             id="path162"
             style="fill:#4fb765;fill-opacity:1;fill-rule:nonzero;stroke:none"
             d="m 0,0 c 1.01,2.41 1.57,4.56 1.57,6.05 0,6.49 -11.87,6.49 -17.25,6.49 -7.98,0 -15.93,-4.26 -15.93,-14.27 0,-11.12 4.62,-16.33 11.48,-16.33 0.42,0 0.83,0.02 1.24,0.06 -6.94,-5.72 -14.37,-10.92 -22.33,-15.52 -3.27,2.14 -6.04,5.25 -8.38,9.71 -4.09,7.8 -3.53,14.66 -3.53,20.97 0,10.75 7.22,23.92 22.99,28.93 5.19,1.67 22.63,3.14 25.03,3.53 2.79,0.36 4.09,2.96 4.09,7.41 0,11.31 -7.98,7.79 -37.28,7.79 -1.15,0 -2.22,0.06 -3.19,0.18 6.84,6.75 13.16,14.05 19.04,21.79 6.79,-0.36 13.81,-0.66 16.61,-0.66 5.75,0 26.87,-1.1 29.1,-19.46 0.63,-5.37 0.92,-9.9 1.04,-14.61 C 17.01,20.57 8.97,9.8 0,0" /></g><g
           transform="translate(590.405,642.5166)"
           id="g164"><path
             id="path166"
             style="fill:#4fb765;fill-opacity:1;fill-rule:nonzero;stroke:none"
             d="m 0,0 c -4.55,-13.09 -8.95,-26.58 -13.39,-40.23 -1.15,13.06 -5.14,22.25 -15.17,22.25 -7.57,0 -17.55,-11.97 -17.55,-31.49 0,-19.92 -0.98,-31.29 -0.98,-35.67 0,-3.98 -2.41,-6.77 -5.58,-6.77 h -18.34 c -2.4,0 -4.39,1.59 -4.39,9.56 l 0.05,16.37 c 7.84,19.98 14.77,40.63 21.41,61.15 0.48,-2.27 2.23,-1.73 3.24,1 2.21,5.97 11.97,12.94 29.11,12.94 C -14.12,9.11 -5.96,6.42 0,0" /></g><g
           transform="translate(517.615,391.2266)"
           id="g168"><path
             id="path170"
             style="fill:#ecae21;fill-opacity:1;fill-rule:nonzero;stroke:none"
             d="m 0,0 c 0,-4.65 -6.31,-4.28 -9.64,-4.28 -3.72,0 -11.87,-0.55 -12.24,3.71 -0.19,1.67 -0.19,3.34 -0.19,5.19 0,2.23 -0.74,0.76 -1.3,0.37 -6.29,-5.56 -14.1,-9.45 -22.81,-9.27 -8.24,0.23 -14.86,1.25 -20.16,4.75 7.96,4.6 15.39,9.8 22.33,15.52 8.52,0.88 15.82,10.65 18.89,18 8.97,9.8 17.01,20.57 24.3,32.06 0.06,-2.28 0.08,-4.61 0.08,-7.09 C -0.56,47.46 -1.3,36.9 -1.3,36.9 V 36.71 C -1.3,32.62 0,2.59 0,0" /></g><g
           transform="translate(550.555,419.0266)"
           id="g172"><path
             id="path174"
             style="fill:#ecae21;fill-opacity:1;fill-rule:nonzero;stroke:none"
             d="m 0,0 c 0,-1.83 0.5,-3.87 1.43,-5.82 -3.87,-6.79 -7.95,-13.36 -12.28,-19.68 -8.66,6.05 -12.14,15.27 -12.14,22.54 0,2.96 1.49,5.92 5.93,5.92 h 11.5 C -2.96,2.96 0,4.09 0,0" /></g><g
           transform="translate(584.915,487.1366)"
           id="g176"><path
             id="path178"
             style="fill:#ecae21;fill-opacity:1;fill-rule:nonzero;stroke:none"
             d="m 0,0 c -3.28,-9.02 -6.69,-17.96 -10.3,-26.74 -0.52,8.86 -5.11,15.75 -10.33,15.75 -5.19,0 -14.1,-2.59 -14.1,-16.69 0,-11.31 7.02,-15.93 15.64,-19.22 -2.37,-5.13 -4.83,-10.19 -7.4,-15.15 -12.77,4.93 -29,11.71 -29,36.23 0,17.8 13.71,34.49 32.26,34.49 C -12.66,8.67 -5.14,5.21 0,0" /></g><g
           transform="translate(599.095,616.7466)"
           id="g180"><path
             id="path182"
             style="fill:#ecae21;fill-opacity:1;fill-rule:nonzero;stroke:none"
             d="m 0,0 c 0,-16.73 0.6,-47.61 0.6,-56.38 0,-8.37 -0.79,-11.56 -4.78,-11.56 h -15.94 c -1.99,0 -3.19,5.19 -2.4,11.56 1.2,6.77 0.82,23.91 0.82,32.28 0,3.38 -0.11,6.61 -0.38,9.64 4.44,13.65 8.84,27.14 13.39,40.23 C -3.52,20.21 0,11.84 0,0" /></g><g
           transform="translate(650.265,663.1566)"
           id="g184"><path
             id="path186"
             style="fill:#ecae21;fill-opacity:1;fill-rule:nonzero;stroke:none"
             d="m 0,0 c -5.72,-10.81 -10.8,-21.94 -15.41,-32.94 -2.14,-5.09 -4.18,-10.16 -6.13,-15.15 v -0.01 c -0.67,-1.69 -1.32,-3.37 -1.96,-5.04 -4.57,-11.89 -8.9,-24.27 -13.14,-36.95 -2.28,7.34 -2.85,15.4 -2.85,22.77 0,22.52 2.59,49.63 17.93,61.77 C -16.28,-0.96 -8.81,-0.13 0,0" /></g><g
           transform="translate(597.295,413.1066)"
           id="g188"><path
             id="path190"
             style="fill:#e5722b;fill-opacity:1;fill-rule:nonzero;stroke:none"
             d="m 0,0 c 0,-15.59 -14.1,-25.97 -34.49,-25.97 -10.06,0 -17.62,2.57 -23.1,6.39 4.33,6.32 8.41,12.89 12.28,19.68 2.09,-4.36 6.4,-8.26 12.3,-8.26 5.75,0 9.27,1.84 9.27,8.52 0,5.98 -6.84,8.41 -15.13,11.62 2.57,4.96 5.03,10.02 7.4,15.15 C -17.76,21.89 0,20.03 0,0" /></g><g
           transform="translate(574.665,458.7266)"
           id="g192"><path
             id="path194"
             style="fill:#e5722b;fill-opacity:1;fill-rule:nonzero;stroke:none"
             d="m 0,0 c 0,0.56 -0.02,1.12 -0.05,1.67 3.61,8.78 7.02,17.72 10.3,26.74 6.78,-6.86 9.42,-16.76 9.42,-25.82 0,-3.72 0,-8.54 -2.62,-8.54 H 5.57 C -1.11,-5.95 0,-2.98 0,0" /></g><g
           transform="translate(626.245,492.1066)"
           id="g196"><path
             id="path198"
             style="fill:#e5722b;fill-opacity:1;fill-rule:nonzero;stroke:none"
             d="m 0,0 c 0.27,0 0.54,0 0.81,-0.02 -5.74,-18.06 -11.5,-36.39 -17.73,-54.44 l -0.31,49.62 c 0,0 0,3.52 2.2,3.52 C -12.41,-0.76 -4.43,0 0,0" /></g><g
           transform="translate(634.785,521.0166)"
           id="g200"><path
             id="path202"
             style="fill:#e5722b;fill-opacity:1;fill-rule:nonzero;stroke:none"
             d="m 0,0 c 0,-1.12 0.13,-2.5 0.31,-3.98 -1.57,-4.77 -3.13,-9.59 -4.69,-14.43 -3.63,-0.24 -11.63,-1.24 -14.73,-1.24 -3.7,0 -8.15,0.93 -6.66,4.82 1.29,4.08 -1.13,10.01 0.17,13.9 0.93,4.45 3.16,6.31 5.38,6.31 2.23,0 10.75,-0.56 12.98,-0.56 C -5.02,4.82 0,4.09 0,0" /></g><g
           transform="translate(655.125,572.0366)"
           id="g204"><path
             id="path206"
             style="fill:#e5722b;fill-opacity:1;fill-rule:nonzero;stroke:none"
             d="m 0,0 c -2.91,-7.16 -5.64,-14.27 -8.25,-21.22 -0.28,-0.74 -0.56,-1.49 -0.83,-2.24 -19.63,1.4 -28.53,11.9 -32.42,24.49 4.24,12.68 8.57,25.06 13.14,36.95 0.64,1.67 1.29,3.35 1.96,5.04 -1.29,-7.97 -0.78,-15.86 -0.43,-18.43 0.82,-5.57 -0.79,-28.48 17.14,-28.48 4.25,0 7.38,1.42 9.69,3.89" /></g><g
           transform="translate(660.265,584.2366)"
           id="g208"><path
             id="path210"
             style="fill:#e5722b;fill-opacity:1;fill-rule:nonzero;stroke:none"
             d="m 0,0 c 1.66,9.27 1.12,21.28 1.12,32.51 0,16.75 -7.97,18.34 -15.54,18.34 -4.81,0 -8.37,-1.9 -10.99,-4.87 4.61,11 9.69,22.13 15.41,32.94 1.16,0.02 2.34,0.03 3.55,0.03 7.03,0 30.02,-1.21 33.28,-29.74 C 16.15,34.04 7.46,17.09 0,0" /></g><g
           transform="translate(715.915,664.7466)"
           id="g212"><path
             id="path214"
             style="fill:#e5722b;fill-opacity:1;fill-rule:nonzero;stroke:none"
             d="m 0,0 c -5.73,-4.58 -11.04,-9.67 -15.98,-15.14 -0.07,3.27 -0.13,6.4 -0.13,9.59 0,6.39 5.17,5.19 5.17,5.19 1.97,0 7.98,0.27 10.94,0.36" /></g><g
           transform="translate(634.785,487.6566)"
           id="g216"><path
             id="path218"
             style="fill:#df3b31;fill-opacity:1;fill-rule:nonzero;stroke:none"
             d="m 0,0 c 0,-2.99 0.37,-87.16 0,-90.68 0,-0.49 0,-0.96 -0.01,-1.4 -0.57,-1.82 -1.15,-3.64 -1.73,-5.46 -0.3,-0.17 -0.64,-0.3 -1.05,-0.38 -3.52,-0.37 -11.11,-1.3 -17.23,-1.3 -5.75,0.56 -7.98,3.52 -7.98,7.24 0.37,3.52 2.59,29.3 2.59,33.73 l -0.05,8.24 c 6.23,18.05 11.99,36.38 17.73,54.44 C -3.61,4.28 0,2.94 0,0" /></g><g
           transform="translate(635.095,517.0366)"
           id="g220"><path
             id="path222"
             style="fill:#df3b31;fill-opacity:1;fill-rule:nonzero;stroke:none"
             d="m 0,0 c 0.48,-3.9 1.35,-8.41 1.35,-10.29 0,-2.96 -2.22,-4.09 -4.82,-4.09 -0.31,0 -0.73,-0.02 -1.22,-0.05 C -3.13,-9.59 -1.57,-4.77 0,0" /></g><g
           transform="translate(674.905,517.3066)"
           id="g224"><path
             id="path226"
             style="fill:#df3b31;fill-opacity:1;fill-rule:nonzero;stroke:none"
             d="m 0,0 c -2.71,-6.65 -5.25,-13.3 -7.67,-19.88 -0.41,-1.09 -0.8,-2.19 -1.2,-3.28 -0.4,-1.09 -0.79,-2.18 -1.18,-3.26 -0.73,-2.03 -1.46,-4.08 -2.17,-6.14 -0.67,-1.91 -1.33,-3.83 -1.98,-5.76 -0.84,-2.47 -1.66,-4.96 -2.48,-7.46 -0.45,-1.35 -0.89,-2.7 -1.33,-4.06 -2.9,-8.98 -5.73,-18.13 -8.54,-27.38 v 12.69 c 0,7.05 0.74,60.09 1.11,62.31 0,3.7 2.98,5.93 5.94,5.93 H -3.93 C -2.08,3.71 -0.48,2.69 0,0" /></g><g
           transform="translate(650.625,548.4166)"
           id="g228"><path
             id="path230"
             style="fill:#df3b31;fill-opacity:1;fill-rule:nonzero;stroke:none"
             d="m 0,0 c -1.59,0 -3.11,0.05 -4.58,0.16 0.27,0.75 0.55,1.5 0.83,2.24 2.61,6.95 5.34,14.06 8.25,21.22 2.67,2.86 4.23,7.11 5.14,12.2 7.46,17.09 16.15,34.04 26.83,49.21 0.27,-2.21 0.4,-4.58 0.4,-7.13 C 36.87,42.23 39.05,0 0,0" /></g><g
           transform="translate(794.775,629.7366)"
           id="g232"><path
             id="path234"
             style="fill:#df3b31;fill-opacity:1;fill-rule:nonzero;stroke:none"
             d="m 0,0 c -0.32,-0.05 -0.64,-0.1 -0.96,-0.15 -0.64,-0.1 -1.27,-0.21 -1.9,-0.32 -0.37,-0.06 -0.74,-0.12 -1.11,-0.19 -0.57,-0.1 -1.15,-0.21 -1.72,-0.32 -0.63,-0.11 -1.26,-0.24 -1.88,-0.37 -1.05,-0.21 -2.1,-0.43 -3.15,-0.67 -1.16,-0.26 -2.31,-0.53 -3.46,-0.82 -0.5,-0.12 -1,-0.25 -1.5,-0.38 -0.43,-0.11 -0.85,-0.22 -1.28,-0.34 -0.6,-0.16 -1.19,-0.32 -1.78,-0.49 -3.07,-0.87 -6.11,-1.84 -9.11,-2.92 -0.6,-0.21 -1.2,-0.44 -1.8,-0.66 v 0.01 c -1.9,10.19 -6.14,14.36 -13.71,14.36 -12.41,0 -21.82,-18.91 -23.74,-36.83 v -0.01 c -0.49,-0.43 -0.98,-0.87 -1.46,-1.31 -0.97,-0.88 -1.93,-1.78 -2.87,-2.69 -0.47,-0.45 -0.94,-0.9 -1.4,-1.37 -0.94,-0.93 -1.85,-1.87 -2.76,-2.82 -0.91,-0.95 -1.8,-1.91 -2.68,-2.89 -1.68,-1.85 -3.3,-3.75 -4.88,-5.69 -0.47,-0.57 -0.93,-1.14 -1.38,-1.72 -1.67,-2.08 -3.28,-4.21 -4.85,-6.39 -0.45,-0.63 -0.9,-1.26 -1.35,-1.9 -0.57,-0.8 -1.13,-1.61 -1.67,-2.42 -0.4,-0.58 -0.79,-1.16 -1.18,-1.75 -0.4,-0.59 -0.79,-1.18 -1.17,-1.78 l 0.17,64.79 c 0,6.92 -0.15,12.6 -0.26,17.91 4.94,5.47 10.25,10.56 15.98,15.14 0.64,0.03 1.14,0.04 1.42,0.04 1.6,0 2.78,-3.19 2.78,-7.18 0,-11.56 -0.38,-14.54 -0.58,-16.92 -0.4,-3.99 1.59,-3.61 2.58,-1.2 3.58,8.77 12.76,24.1 33.67,24.1 C -20.52,33.85 -3.04,21.02 0,0" /></g><g
           transform="translate(633.045,390.1166)"
           id="g236"><path
             id="path238"
             style="fill:#166d82;fill-opacity:1;fill-rule:nonzero;stroke:none"
             d="M 0,0 C 0.58,1.82 1.16,3.64 1.73,5.46 1.71,2.73 1.5,0.83 0,0" /></g><g
           transform="translate(675.795,415.6666)"
           id="g240"><path
             id="path242"
             style="fill:#166d82;fill-opacity:1;fill-rule:nonzero;stroke:none"
             d="m 0,0 c -2.95,-9.14 -5.79,-18.46 -8.59,-27.89 -3.38,0.06 -6.33,0.1 -8.47,0.1 -7.05,0 -10.38,4.45 -10.38,6.68 v 45.53 c 2.81,9.25 5.64,18.4 8.54,27.38 0.44,1.36 0.88,2.71 1.33,4.06 0.82,2.5 1.64,4.99 2.48,7.46 0.65,1.93 1.31,3.85 1.98,5.76 0.71,2.06 1.44,4.11 2.17,6.14 0.39,1.08 0.78,2.17 1.18,3.26 0.4,1.09 0.79,2.19 1.2,3.28 2.42,6.58 4.96,13.23 7.67,19.88 0.11,-0.54 0.16,-1.16 0.16,-1.85 0,-4.45 -1.13,-47.09 -1.13,-53.77 V 3.73 C -1.86,1.44 -1.15,0.44 0,0" /></g><g
           transform="translate(700.005,560.1666)"
           id="g244"><path
             id="path246"
             style="fill:#166d82;fill-opacity:1;fill-rule:nonzero;stroke:none"
             d="m 0,0 0.02,6.74 c 0.38,0.6 0.77,1.19 1.17,1.78 0.39,0.59 0.78,1.17 1.18,1.75 0.54,0.81 1.1,1.62 1.67,2.42 0.45,0.64 0.9,1.27 1.35,1.9 1.57,2.18 3.18,4.31 4.85,6.39 0.45,0.58 0.91,1.15 1.38,1.72 1.58,1.94 3.2,3.84 4.88,5.69 0.88,0.98 1.77,1.94 2.68,2.89 0.91,0.95 1.82,1.89 2.76,2.82 0.46,0.47 0.93,0.92 1.4,1.37 0.94,0.91 1.9,1.81 2.87,2.69 0.48,0.44 0.97,0.88 1.46,1.31 -0.25,-2.22 -0.37,-4.43 -0.37,-6.59 0,-19.92 1.99,-31.29 1.99,-35.67 0,-3.98 -1.39,-6.77 -4.59,-6.77 H 4.39 C 1.99,-9.56 0,-7.97 0,0" /></g><g
           transform="translate(710.945,515.9266)"
           id="g248"><path
             id="path250"
             style="fill:#166d82;fill-opacity:1;fill-rule:nonzero;stroke:none"
             d="m 0,0 c -0.12,-0.99 -0.76,-1.54 -1.67,-1.55 -0.86,-0.01 -1.46,0.75 -1.52,1.83 -0.03,0.48 -0.01,0.97 -0.01,1.45 0.01,0.53 0,1.05 0.01,1.57 0.02,1.07 0.58,1.68 1.46,1.78 0.89,0.1 1.55,-0.47 1.71,-1.47 C 0.18,2.42 0.15,1.2 0,0 m 19.43,12.56 c -2.25,0.64 -4.63,0.99 -7.11,0.99 -12.51,0 -18.42,-5.65 -20.58,-14.6 0.11,-0.31 0.25,-0.6 0.42,-0.91 0.08,-0.13 0.14,-0.31 0.2,-0.46 -0.37,-0.37 -0.76,-0.72 -1.13,-1.09 v -0.02 c -0.54,-0.5 -1.06,-1.02 -1.59,-1.57 -0.38,-0.42 -0.81,-0.6 -1.37,-0.56 -0.7,0.04 -1.39,0.04 -2.07,0 -0.97,-0.02 -1.51,-0.5 -1.49,-1.29 0.02,-0.8 0.48,-1.17 1.47,-1.19 2.13,-0.03 2.13,-0.03 2.17,-2.16 0.02,-0.99 0.38,-1.46 1.18,-1.48 0.46,0 0.91,0.22 1.14,0.59 v 0.01 c 0.14,0.22 0.17,0.49 0.12,0.8 -0.06,0.27 -0.08,0.56 -0.1,0.81 0,0.16 0,0.31 0.02,0.47 0.1,1.87 1.36,3.15 2.79,4.37 0.21,0.18 0.37,0.41 0.56,0.6 1.16,-0.58 2.32,-1.12 3.66,-1.16 2.09,-0.06 3.81,0.7 5.29,2.11 0.36,0.35 0.69,0.72 1.04,1.07 1.4,1.93 3.49,3.39 6.64,3.39 0.24,0 0.47,0 0.69,-0.01 h 0.01 c 2.86,3.81 5.88,7.48 9.07,10.98 -0.34,0.11 -0.68,0.21 -1.03,0.31" /></g><g
           transform="translate(796.565,565.5766)"
           id="g252"><path
             id="path254"
             style="fill:#166d82;fill-opacity:1;fill-rule:nonzero;stroke:none"
             d="m 0,0 c -10.07,-2.24 -19.82,-5.5 -29.11,-10.01 -0.25,-0.12 -0.49,-0.24 -0.74,-0.37 0.05,2.76 0.24,5.99 0.24,8.77 0,10.55 -0.6,32.28 -0.6,40.64 0,7.15 -0.38,12.93 -1.23,17.5 v 0.01 c 0.6,0.22 1.19,0.44 1.8,0.65 3,1.08 6.04,2.05 9.11,2.92 0.59,0.17 1.18,0.33 1.78,0.49 0.43,0.12 0.85,0.23 1.28,0.34 0.5,0.13 1,0.26 1.5,0.38 1.15,0.29 2.3,0.56 3.46,0.82 1.05,0.24 2.1,0.46 3.15,0.67 0.62,0.13 1.25,0.26 1.88,0.37 0.57,0.11 1.15,0.22 1.72,0.32 0.37,0.07 0.74,0.13 1.11,0.19 0.63,0.11 1.26,0.22 1.9,0.32 0.32,0.05 0.64,0.1 0.96,0.15 0.31,-2.12 0.47,-4.32 0.47,-6.6 C -1.32,43.15 -0.28,13.57 0,0" /></g><g
           transform="translate(707.495,410.8766)"
           id="g256"><path
             id="path258"
             style="fill:#269fa2;fill-opacity:1;fill-rule:nonzero;stroke:none"
             d="m 0,0 c 0,-0.61 0.16,-2.48 0.37,-4.81 v -0.01 c -0.61,-1.49 -1.2,-2.98 -1.78,-4.47 -0.7,-1.77 -1.37,-3.54 -2.04,-5.32 -0.47,-1.25 -0.93,-2.49 -1.39,-3.74 -0.14,-0.39 -0.28,-0.78 -0.42,-1.17 -0.43,-1.18 -0.86,-2.36 -1.27,-3.54 -0.08,-0.22 -0.16,-0.44 -0.24,-0.66 -8.58,0.07 -23.13,0.44 -33.52,0.62 2.8,9.43 5.64,18.75 8.59,27.89 0.89,-0.34 2.05,-0.34 3.35,-0.34 2.6,0 21.3,-0.75 23.9,-0.75 C -1.86,3.7 0,1.86 0,0" /></g><g
           transform="translate(746.865,477.1566)"
           id="g260"><path
             id="path262"
             style="fill:#269fa2;fill-opacity:1;fill-rule:nonzero;stroke:none"
             d="m 0,0 c 0,-1.95 0.24,-4.7 0.35,-6.52 -0.61,-0.62 -1.21,-1.24 -1.8,-1.88 -0.33,-0.35 -0.67,-0.71 -0.98,-1.07 -0.57,-0.61 -1.12,-1.23 -1.67,-1.85 -7.49,-0.04 -12.99,-0.34 -21.03,-0.34 -3.87,0 -8.46,0.28 -14.5,0.28 -6.03,0 -5.81,1.23 -5.81,3.56 0,2.13 0.31,5.15 0.31,7.2 0.35,15.55 13.75,16.56 22.44,21.48 4.18,2.36 7.26,5.63 7.26,11.89 0,3.6 -3.04,7.04 -9.1,7.29 2.86,3.81 5.88,7.48 9.07,10.98 9.45,-3.13 16.18,-11.48 16.18,-20.6 0,-18.49 -23.7,-19.48 -30.03,-27.13 -1.32,-1.6 0.21,-2.13 3.46,-2.13 7.05,0 14.1,1.96 20.74,1.15 C -2.46,2.05 0,1.61 0,0" /></g><g
           transform="translate(766.715,555.1966)"
           id="g264"><path
             id="path266"
             style="fill:#269fa2;fill-opacity:1;fill-rule:nonzero;stroke:none"
             d="m 0,0 c 0.25,0.13 0.49,0.25 0.74,0.37 9.29,4.51 19.04,7.77 29.11,10.01 0.05,-2.2 0.08,-3.99 0.08,-5.21 0,-8.37 -0.8,-11.56 -4.78,-11.56 H 1.23 C 0.11,-6.39 -0.06,-3.59 0,0" /></g><g
           transform="translate(800.605,501.9466)"
           id="g268"><path
             id="path270"
             style="fill:#269fa2;fill-opacity:1;fill-rule:nonzero;stroke:none"
             d="m 0,0 c -0.58,-0.16 -1.17,-0.32 -1.75,-0.49 -1.74,-0.49 -3.47,-1.03 -5.18,-1.61 -0.51,-0.16 -1.01,-0.34 -1.52,-0.52 -0.64,-0.21 -1.27,-0.43 -1.89,-0.67 -0.56,-0.2 -1.13,-0.42 -1.69,-0.63 -0.56,-0.21 -1.12,-0.43 -1.68,-0.66 -0.11,3.28 -0.35,6.69 -0.55,9.96 -0.31,4.26 -1.34,9.06 -5.83,9.06 -5.71,0 -10.83,-2.3 -10.83,-12.8 l -0.49,-15.14 c -0.67,-0.41 -1.33,-0.83 -1.98,-1.26 -0.57,-0.37 -1.13,-0.74 -1.69,-1.12 -0.31,-0.2 -0.62,-0.42 -0.93,-0.64 -0.42,-0.28 -0.83,-0.57 -1.24,-0.87 -0.63,-0.45 -1.26,-0.9 -1.88,-1.37 -2.49,-1.85 -4.88,-3.79 -7.2,-5.83 -0.9,2.57 -1.43,5.58 -1.43,9.06 0,8.71 0.21,15.2 0.21,20.72 0,19.75 15.72,22.42 27.46,22.42 11.85,0 16.96,-5.87 19.21,-18.32 C -0.41,6.62 -0.09,3.43 0,0" /></g><g
           transform="translate(707.865,406.0566)"
           id="g272"><path
             id="path274"
             style="fill:#4eb8b4;fill-opacity:1;fill-rule:nonzero;stroke:none"
             d="m 0,0 c 0.44,-4.73 1.1,-11.36 1.1,-13.36 -0.37,-3.33 -2.59,-5.56 -5.56,-5.56 -0.81,0 -1.7,0 -2.68,0.02 0.08,0.22 0.16,0.44 0.24,0.66 0.41,1.18 0.84,2.36 1.27,3.54 0.14,0.39 0.28,0.78 0.42,1.17 0.46,1.25 0.92,2.49 1.39,3.74 0.67,1.78 1.34,3.55 2.04,5.32 C -1.2,-2.98 -0.61,-1.49 0,0" /></g><g
           transform="translate(744.625,465.8466)"
           id="g276"><path
             id="path278"
             style="fill:#4eb8b4;fill-opacity:1;fill-rule:nonzero;stroke:none"
             d="m 0,0 c -0.64,0 -1.26,0 -1.86,-0.01 0.55,0.62 1.1,1.24 1.67,1.85 C 0.12,2.2 0.46,2.56 0.79,2.91 1.38,3.55 1.98,4.17 2.59,4.79 2.63,4.21 2.65,3.73 2.65,3.39 2.65,1.44 3.37,0 0,0" /></g><g
           transform="translate(771.395,429.9666)"
           id="g280"><path
             id="path282"
             style="fill:#4eb8b4;fill-opacity:1;fill-rule:nonzero;stroke:none"
             d="m 0,0 c 0,-18.51 -23.7,-19.5 -30.03,-27.15 -1.32,-1.58 0.21,-2.13 3.48,-2.13 2.69,0 5.38,0.29 8.06,0.6 -3.52,-4.24 -6.79,-8.72 -9.85,-13.38 -3.33,0.07 -7.21,0.24 -12,0.24 -6.04,0 -5.82,1.26 -5.82,3.56 0,2.13 0.31,5.15 0.31,7.2 0.5,23.05 29.72,14.16 29.72,33.37 0,3.73 -3.27,7.3 -9.82,7.3 -8.98,0 -9.39,-11.76 -9.39,-13.34 0,-1.79 -0.62,-2.33 -2.65,-2.33 -1.84,0 -5.93,0.18 -5.93,0.18 -1.02,0 -2.05,0.54 -2.05,3.04 0,14.58 4.92,24.72 21.67,24.72 C -10.83,21.88 0,11.56 0,0" /></g><g
           transform="translate(782.455,464.7866)"
           id="g284"><path
             id="path286"
             style="fill:#4eb8b4;fill-opacity:1;fill-rule:nonzero;stroke:none"
             d="m 0,0 c -3.78,0 -5.5,-0.27 -10.83,-0.27 -6.05,0 -14.11,3.64 -17.35,12.84 2.32,2.04 4.71,3.98 7.2,5.83 0.62,0.47 1.25,0.92 1.88,1.37 0.41,0.3 0.82,0.59 1.24,0.87 0.31,0.22 0.62,0.44 0.93,0.64 0.56,0.38 1.12,0.75 1.69,1.12 0.65,0.43 1.31,0.85 1.98,1.26 l -0.01,-0.35 c 0,-7.82 5.93,-8.98 11.33,-8.98 5.97,0 6.72,8.52 6.38,18.25 0.56,0.23 1.12,0.45 1.68,0.66 0.56,0.21 1.13,0.43 1.69,0.63 0.62,0.24 1.25,0.46 1.89,0.67 0.51,0.18 1.01,0.36 1.52,0.52 1.71,0.58 3.44,1.12 5.18,1.61 0.58,0.17 1.17,0.33 1.75,0.49 C 18.61,21.25 14.46,0 0,0" /></g><g
           transform="translate(789.965,438.2966)"
           id="g288"><path
             id="path290"
             style="fill:#4eb8b4;fill-opacity:1;fill-rule:nonzero;stroke:none"
             d="m 0,0 c -0.12,-0.99 -0.76,-1.54 -1.66,-1.55 -0.87,0 -1.47,0.75 -1.53,1.83 -0.03,0.48 -0.01,0.97 0,1.45 0,0.53 -0.01,1.05 0,1.58 0.02,1.06 0.58,1.67 1.46,1.77 0.89,0.1 1.56,-0.47 1.72,-1.46 C 0.18,2.43 0.15,1.2 0,0 m 19.43,12.57 c -2.25,0.63 -4.63,0.98 -7.11,0.98 -12.51,0 -18.41,-5.65 -20.58,-14.6 0.11,-0.31 0.25,-0.6 0.42,-0.91 0.08,-0.13 0.14,-0.31 0.2,-0.46 -0.37,-0.37 -0.76,-0.72 -1.13,-1.09 v -0.02 c -0.54,-0.5 -1.06,-1.02 -1.58,-1.56 -0.39,-0.43 -0.82,-0.6 -1.38,-0.57 -0.7,0.04 -1.39,0.04 -2.07,0 -0.97,-0.01 -1.51,-0.5 -1.49,-1.29 0.02,-0.8 0.48,-1.16 1.47,-1.18 2.13,-0.04 2.13,-0.04 2.17,-2.17 0.02,-0.99 0.39,-1.45 1.18,-1.47 0.46,0 0.91,0.21 1.14,0.58 v 0.02 c 0.14,0.21 0.18,0.48 0.12,0.79 -0.06,0.27 -0.08,0.56 -0.1,0.81 0,0.16 0,0.31 0.02,0.47 0.1,1.88 1.36,3.15 2.79,4.37 0.21,0.18 0.37,0.41 0.56,0.6 1.16,-0.58 2.32,-1.12 3.66,-1.16 2.09,-0.06 3.82,0.7 5.29,2.11 0.36,0.35 0.69,0.72 1.04,1.07 1.4,1.93 3.49,3.39 6.64,3.39 2.67,0 4.79,-0.6 6.37,-1.56 5.06,1.59 10.25,2.86 15.52,3.85 -3.08,4.18 -7.7,7.45 -13.15,9" /></g><g
           transform="translate(771.085,391.6066)"
           id="g292"><path
             id="path294"
             style="fill:#047f4d;fill-opacity:1;fill-rule:nonzero;stroke:none"
             d="m 0,0 c 0,-1.95 0.72,-3.37 -2.65,-3.37 -8.48,0 -14.2,-0.36 -22.89,-0.36 -0.8,0 -1.62,0.01 -2.49,0.03 3.06,4.66 6.33,9.14 9.85,13.38 4.31,0.5 8.56,1.06 12.66,0.57 C -2.87,9.98 -0.41,9.53 -0.41,7.92 -0.41,5.35 0,1.44 0,0" /></g><g
           transform="translate(826.295,391.6066)"
           id="g296"><path
             id="path298"
             style="fill:#047f4d;fill-opacity:1;fill-rule:nonzero;stroke:none"
             d="m 0,0 c 0,-1.95 0.72,-3.39 -2.65,-3.39 -8.48,0 -14.19,-0.34 -22.89,-0.34 -3.87,0 -8.46,0.27 -14.5,0.27 -6.02,0 -5.81,1.24 -5.81,3.56 0,2.13 0.31,5.15 0.31,7.2 0.35,15.55 13.75,16.56 22.44,21.48 4.18,2.36 7.26,5.63 7.26,11.89 0,2.2 -1.14,4.35 -3.43,5.74 5.06,1.59 10.25,2.86 15.52,3.85 2.57,-3.5 4.06,-7.63 4.06,-11.92 0,-18.49 -23.7,-19.48 -30.03,-27.13 -1.32,-1.6 0.21,-2.13 3.46,-2.13 7.05,0 14.1,1.96 20.74,1.15 2.66,-0.25 5.11,-0.7 5.11,-2.31 C -0.41,5.35 0,1.42 0,0" /></g></g></g></g></svg>