<svg width="92" height="49" viewBox="0 0 92 49" fill="none" xmlns="http://www.w3.org/2000/svg">
<g clip-path="url(#clip0_134_114)">
<path d="M10.5845 1.35715C9.53808 0.513762 8.19795 0.0304565 6.62831 0.0304565C2.6272 0.0304565 2.40412 0.126478 1.60486 0.126478C0.86979 0.126478 0.229417 0.668996 0.229417 1.56679V11.7722C0.229417 12.9356 0.147566 16.0067 0.081763 18.4504C0.0416394 20.03 0.00793457 21.3471 0.00793457 21.7232C0.00793457 22.2961 0.38991 22.9346 1.61288 22.9346C2.79732 22.9346 4.81153 22.8386 5.19511 22.8386C5.61078 22.8386 5.64449 22.0384 5.5161 21.0782C5.45671 20.5485 5.41017 18.612 5.38288 17.0917C5.36363 16.1459 5.35399 15.3618 5.35399 15.1713C5.35399 14.632 5.83548 14.3711 6.24955 14.3711C8.90413 14.3711 13.1267 13.3517 13.1267 7.35524C13.1187 4.81389 12.2023 2.65663 10.5845 1.35715ZM5.31547 10.3959C4.29152 10.3959 4.32362 9.6613 4.32362 8.92679C4.32362 8.5363 4.39424 7.44647 4.45523 6.56147C4.50498 5.86212 4.54992 5.29239 4.54992 5.29239C4.54992 4.65226 4.71042 3.70006 5.35239 3.70006C6.17187 3.6798 6.98538 3.8439 7.73252 4.18016C8.79018 4.68746 9.44498 5.62047 9.44498 6.99036C9.43854 8.89638 8.03264 10.3959 5.31547 10.3959Z" fill="white"/>
<path d="M27.5216 5.03786H26.1798C25.2169 5.03786 25.1559 6.59981 25.1559 7.20793C25.1559 8.64825 24.7386 11.3848 24.7386 12.7227C24.7407 13.3209 24.675 13.9173 24.5428 14.5007C24.2331 15.8322 23.5301 17.0053 22.2783 17.4325C21.928 17.5491 21.5609 17.607 21.1917 17.6038C18.5034 17.6038 18.4392 15.7538 18.4392 14.6687C18.4392 13.5837 18.314 12.1194 18.4698 10.9079C18.5789 10.1445 18.55 8.09293 18.5388 6.74704C18.5388 6.51178 18.5388 6.29894 18.5388 6.1181C18.5388 5.38354 17.9962 4.7146 16.7813 4.7146C15.4363 4.77861 14.7639 4.65218 14.7639 5.73401C14.7639 7.01429 14.6034 9.24518 14.4638 11.4616C14.337 13.3821 14.2183 15.3025 14.2183 16.5828C14.2183 18.4104 15.0961 20.7613 18.6783 20.971C18.8501 20.9821 19.0266 20.987 19.2112 20.987C23.238 20.987 24.4578 19.3866 24.6471 19.9643C25.0307 21.0477 24.5188 22.7713 22.2814 22.7713C20.8739 22.7713 17.2917 22.6449 16.5872 22.6449C16.5245 22.6449 16.4635 22.6449 16.3993 22.6449C15.8617 22.6592 15.2968 22.7665 15.1972 23.3891C15.1854 23.4572 15.1795 23.5263 15.1796 23.5955C15.1796 24.426 15.1796 25.764 15.247 26.3385C15.3722 26.9146 15.4363 27.2331 16.202 27.2331C16.9675 27.2331 22.7293 27.041 24.5798 26.849C26.374 26.6569 27.268 25.1254 27.268 23.8532C27.268 22.6417 27.6548 17.6646 27.6548 16.3908C27.6548 15.5377 27.9678 11.0712 28.1572 8.28657C28.2358 7.10551 28.2904 6.22692 28.2904 6.05568C28.2872 5.48436 28.162 5.03786 27.5216 5.03786Z" fill="white"/>
<path d="M39.5716 19.9307C37.8062 19.9307 36.9813 18.6504 36.9813 17.6038C36.9813 16.5572 37.2702 14.2543 37.2702 13.6157C37.2702 12.9772 37.2702 11.6393 37.6858 11.6393H39.5716C40.2136 11.6393 40.1462 10.5879 40.1462 9.94932C40.1462 9.34283 39.5716 9.18438 38.6761 9.18438C37.6858 9.18438 37.2702 8.70427 37.2702 8.13135V4.90505C37.2702 4.39614 36.8529 3.7576 36.4051 3.7576H34.1293C33.5547 3.7576 33.3268 4.26651 33.3268 5.31954C33.3268 5.31954 33.4873 7.23995 33.4873 7.9393C33.4873 8.70427 33.0748 8.99233 32.4328 8.99233H31.3848C30.7429 8.99233 29.7879 9.11876 29.7879 9.53486C29.7879 9.82294 29.69 10.175 29.69 10.8727C29.69 11.5129 29.5616 11.9273 30.393 11.9273H31.4491C32.5019 11.9273 32.8581 11.9273 32.8581 12.5003C32.8581 13.1069 32.6319 16.1347 32.6319 18.2087C32.6319 18.3111 32.6319 18.4103 32.6399 18.5096C32.8197 21.7855 35.9332 23.4386 39.3132 23.4386C39.4772 23.4405 39.6391 23.4026 39.785 23.3281C39.931 23.2537 40.0566 23.145 40.151 23.0113C40.2487 22.8795 40.317 22.7283 40.3516 22.5681C40.3646 22.5081 40.3716 22.447 40.3725 22.3856V20.9853C40.3725 20.5692 40.4367 19.9307 39.5716 19.9307Z" fill="white"/>
<path d="M55.4894 12.2154C55.4894 10.3206 54.926 8.98114 54.0963 8.09135C53.6501 7.62406 53.1122 7.25344 52.516 7.00261C51.9198 6.75177 51.2782 6.6261 50.6312 6.63343C47.8787 6.63343 46.3124 7.75368 45.9593 8.70428C45.7988 9.14117 45.5163 9.2276 45.4393 8.86431C45.4246 8.79108 45.4177 8.71654 45.4184 8.64187C45.4184 7.65286 45.3526 5.9949 45.3526 5.22993V1.14584C45.3526 0.505705 45.16 0 44.9064 0C44.6529 0 42.9885 0.0640129 42.6017 0.0640129C42.6017 0.0640129 41.772 -0.128031 41.772 0.891389C41.772 2.23088 42.0287 8.03533 42.0287 9.82293L42.0015 18.6504V21.2702C42.0015 22.5504 42.3225 22.8002 42.706 22.8002H45.6479C46.1583 22.8002 46.545 22.3536 46.545 21.7167C46.545 21.0157 46.7056 19.1962 46.7056 16.0083C46.7056 12.8844 48.3105 10.9688 49.5222 10.9688C51.1272 10.9688 51.7691 12.4395 51.9586 14.5295C52.0003 15.0096 52.0195 15.5313 52.0195 16.0723C52.0195 17.4117 52.0805 20.1547 51.8879 21.2382C51.7595 22.2576 51.9521 23.0882 52.2715 23.0882H54.8298C55.4718 23.0882 55.5986 22.5777 55.5986 21.2382C55.5873 19.8346 55.4894 14.896 55.4894 12.2154Z" fill="white"/>
<path d="M69.6769 10.6839C69.6788 10.3027 69.6573 9.92156 69.6128 9.54287C69.0912 4.97709 65.3998 4.78345 64.2731 4.78345C64.0773 4.78345 63.8879 4.78345 63.7034 4.78345C62.2894 4.80425 61.0889 4.94348 60.2431 5.67164C57.7796 7.61446 57.3655 11.953 57.3655 15.557C57.3655 16.7364 57.4554 18.0263 57.8212 19.201C58.4472 21.2158 59.8739 22.8962 63.0245 23.1202C63.262 23.1378 63.5059 23.1458 63.7596 23.1458C70.0269 23.1506 69.6769 16.3923 69.6769 10.6839ZM64.4818 19.377C64.2825 19.5859 64.0405 19.7497 63.7722 19.8571C63.5038 19.9644 63.2154 20.0131 62.9266 19.9996C60.0505 19.9996 60.3073 16.3332 60.1757 15.4417C60.0718 14.4597 60.095 13.4684 60.2447 12.4923C60.3939 11.5914 60.6845 10.6855 61.2286 10.0678C61.4462 9.81524 61.7176 9.61425 62.0231 9.47936C62.3284 9.34456 62.6601 9.27929 62.994 9.28844C64.2089 9.28844 65.4896 9.54287 65.4896 12.2235C65.4896 14.0206 65.5747 15.9426 65.31 17.4261C65.1606 18.2328 64.9103 18.9129 64.4818 19.377Z" fill="white"/>
<path d="M87.1836 20.4044C87.1371 18.2327 86.9701 13.4989 86.9701 11.1928C86.9712 10.8394 86.9466 10.4864 86.8963 10.1366C86.6932 8.62862 85.9453 7.24635 84.7929 6.24902C83.6405 5.25169 82.1629 4.70782 80.637 4.71942C77.2827 4.71942 75.8094 7.17275 75.2332 8.57625C75.0727 8.96194 74.7517 9.02275 74.8191 8.38421C74.8995 7.48398 74.9306 6.58004 74.9122 5.67643C74.9122 5.03629 74.7228 4.52737 74.4677 4.52737C74.4211 4.52737 74.3408 4.52737 74.2382 4.52737C73.7647 4.54178 72.7937 4.58499 72.4823 4.58499C72.4823 4.58499 71.6526 4.39295 71.6526 5.41557C71.6526 5.92608 71.6622 6.42699 71.6735 6.9503C71.6911 7.80008 71.7168 8.71069 71.7168 9.81654L71.6847 20.1916V21.2702C71.6847 22.5504 72.0057 22.8001 72.3892 22.8001H75.6489C76.1625 22.8001 76.384 22.3536 76.384 21.7167C76.384 21.0157 76.063 19.1962 76.063 16.0083C76.063 15.6559 76.0828 15.3038 76.1223 14.9536C76.4305 12.0858 77.9424 9.05956 79.9325 9.05956C81.1474 9.05956 81.8279 9.72695 82.1329 11.3576C82.2818 12.2835 82.348 13.2207 82.3303 14.1583C82.3303 15.4962 82.4282 18.9737 82.4282 20.6621C82.4282 21.107 82.3976 21.6223 82.3896 22.0656C82.3801 22.6401 82.4073 23.0882 82.5871 23.0882H86.4245C87.0664 23.0882 87.1932 22.5777 87.1932 21.2382C87.1964 21.043 87.19 20.7565 87.1836 20.4044Z" fill="white"/>
<path d="M15.5664 43.371C15.5278 40.6216 14.2551 38.73 12.2072 38.73C11.7883 38.73 11.7578 38.5812 12.2072 38.2835C13.0097 37.7506 14.4637 36.7136 14.5231 34.4875C14.5231 34.3802 14.5231 34.273 14.5231 34.1674C14.5055 30.4114 12.0981 27.6636 8.47732 27.6636C4.75706 27.6636 4.54681 27.7532 3.80533 27.7532C3.12162 27.7532 2.52138 28.2574 2.52138 29.0879V38.5812C2.52138 39.5093 2.4668 41.7402 2.41064 43.7903C2.35927 45.6787 2.31433 47.4135 2.31433 47.8407C2.31433 48.3737 2.67064 48.969 3.80212 48.969C4.90311 48.969 6.78089 48.8794 7.13719 48.8794H7.19496C11.2747 48.8794 15.5584 48.0184 15.5584 43.5087C15.5679 43.4574 15.5679 43.4142 15.5664 43.371ZM6.54978 32.5495C6.54978 31.9573 6.84829 31.6596 7.29126 31.6596C8.78225 31.6596 11.103 32.0438 11.103 34.1242C11.1022 34.3947 11.0649 34.6638 10.9922 34.9244C10.6007 36.3022 9.22682 37.2945 7.59139 37.2945C6.63966 37.2945 6.34113 37.0864 6.34113 36.4047C6.34113 36.2286 6.35719 35.8718 6.37804 35.4445C6.43904 34.2683 6.54978 32.5495 6.54978 32.5495ZM7.35225 45.4291C7.16928 45.0866 7.11793 44.5057 7.12595 43.9039C7.13558 42.9437 7.28644 41.9323 7.28644 41.7498C7.28644 41.2441 7.73583 41.0057 8.11941 41.0057C8.47892 41.0057 9.61037 41.0969 10.116 41.0969C10.9184 41.0969 11.9023 41.8971 11.9023 43.2926C11.9023 43.4456 11.8845 43.5982 11.8493 43.7471C11.3582 45.7347 7.6588 45.9828 7.35385 45.4291H7.35225Z" fill="white"/>
<path d="M26.5394 32.0198C23.1466 32.0198 21.3025 34.3627 20.9222 35.5405C20.8338 35.8111 20.5064 36.1055 20.5643 35.1852C20.5947 34.9772 20.6221 34.6236 20.6221 32.9016C20.6221 32.3174 20.4519 31.8502 20.2192 31.8342H20.208C19.9704 31.8342 18.4233 31.8918 18.0654 31.8918C18.0654 31.8918 17.2917 31.7158 17.2917 32.6647C17.2917 32.8503 17.2917 33.0344 17.2917 33.2185C17.3046 34.2762 17.3463 35.3469 17.3463 36.76L17.3286 43.0925L17.3174 47.4135C17.3174 48.5994 17.6144 48.8378 17.9706 48.8378H20.7087C21.1902 48.8378 21.3972 48.4234 21.3972 47.828C21.3972 47.1751 21.6893 45.4819 21.6893 42.5165C21.6893 42.326 21.6893 42.1324 21.7069 41.9372C21.8562 39.1557 23.0728 36.0463 25.3822 36.0463C26.2152 36.0463 26.8138 36.1951 27.5842 36.1951C28.3547 36.1951 28.8682 36.1358 28.8682 34.95C28.8602 32.4311 28.6531 32.0198 26.5394 32.0198Z" fill="white"/>
<path d="M42.2053 42.4317V42.4013C42.2053 42.4013 42.3224 40.7113 42.2951 38.8709C42.2951 38.474 42.2951 38.1012 42.2807 37.7363C42.2614 36.9825 42.2165 36.2576 42.1202 35.3981C41.7623 32.4599 38.3726 32.2839 37.4498 32.2839C36.9988 32.2839 35.8737 32.2359 34.7824 32.1783C33.6365 32.1223 32.5274 32.0599 32.2995 32.0439C31.4344 31.9863 30.8696 32.3416 30.7812 32.8745C30.6935 33.4844 30.6533 34.1002 30.6609 34.7164C30.6609 35.2941 31.0557 35.5774 31.7282 35.6654C31.8981 35.6855 32.0691 35.6951 32.2402 35.6943C36.941 35.6943 38.2217 35.131 38.2217 36.9409C38.2217 37.6531 38.0131 38.0612 37.567 38.1268C37.1801 38.1892 34.3811 38.4244 33.5546 38.6917C31.0252 39.4919 29.8633 41.6011 29.8633 43.3214C29.8633 44.3313 29.7734 45.4292 30.4314 46.6822C30.7361 47.3083 31.1998 47.844 31.7763 48.2361C32.627 48.7963 33.6895 48.9595 35.0103 48.9963C36.4098 49.0251 37.6632 48.4026 38.6712 47.5128C38.7611 47.4504 38.8798 47.2151 38.8798 47.572C38.8742 47.8492 38.8843 48.1265 38.9103 48.4026C38.9697 49.0843 40.2793 48.9963 40.8748 48.9963C41.4092 48.9963 42.4219 49.0556 42.4219 48.3114C42.4123 47.892 42.2053 43.0862 42.2053 42.4317ZM35.349 45.7476C35.2847 45.7476 35.2173 45.7572 35.1499 45.7572C34.0506 45.7572 33.309 44.9235 33.309 43.1438C33.309 41.5435 34.585 40.8602 35.8657 40.8602C36.7291 40.8602 38.6343 40.8602 38.6343 41.8988C38.6092 42.2316 38.5232 42.557 38.3806 42.859C37.888 44.0432 36.7164 45.6068 35.349 45.7476Z" fill="white"/>
<path d="M50.1512 40.4632C48.7677 39.9367 47.6394 39.1973 47.6394 37.3874C47.6394 35.1309 49.0695 34.7163 49.9025 34.7163C50.7354 34.7163 51.4769 35.819 51.5603 37.2369C51.5603 37.325 51.5603 37.4146 51.5603 37.5041C51.5603 37.9842 51.3822 38.4644 52.4543 38.4644H54.2984C54.7188 38.4644 54.7188 37.693 54.7188 37.0977C54.7188 35.6478 54.2952 34.057 53.2054 32.9655C52.382 32.1318 51.1752 31.5781 49.4771 31.5781C46.5016 31.5781 44.2996 34.2491 44.2996 37.0977C44.2996 41.0217 46.906 42.1068 48.9539 42.8957C50.286 43.4095 51.3822 43.7983 51.3822 44.7553C51.3822 45.8243 50.8172 46.1188 49.8944 46.1188C48.9716 46.1188 48.2573 45.4947 47.9203 44.7969C47.7764 44.507 47.6981 44.189 47.6908 43.8655C47.6908 43.211 47.2093 43.3854 46.7985 43.3854H44.9528C44.2402 43.3854 44.0027 43.8655 44.0027 44.3329C44.0164 45.0452 44.2003 45.7441 44.5392 46.3715C44.8781 46.9989 45.3621 47.5366 45.9511 47.94C46.8289 48.5513 48.0375 48.9626 49.6569 48.9626C52.9309 48.9626 55.1923 47.3015 55.1923 44.8017C55.2004 41.5994 52.3499 41.3018 50.1512 40.4632Z" fill="white"/>
<path d="M61.267 28.179C61.2381 27.9667 61.2214 27.753 61.2172 27.5388C61.2172 26.8843 60.4147 26.7674 60.0552 26.7674C59.6957 26.7674 58.3299 26.6778 57.9688 26.6778C57.6077 26.6778 57.253 26.9755 57.1037 27.6876C56.8967 28.3102 57.2835 29.2592 57.078 29.9121C56.8389 30.5347 57.5596 30.6835 58.1453 30.6835C58.6444 30.6835 59.9284 30.5234 60.511 30.485C60.5897 30.485 60.657 30.485 60.7052 30.485C61.1225 30.485 61.4804 30.3042 61.4804 29.8305C61.4852 29.5184 61.3455 28.7967 61.267 28.179ZM61.2172 32.8808C61.2172 32.4103 60.6378 32.1958 59.9766 32.1718C59.9333 32.1718 59.8915 32.1718 59.8466 32.1718C59.04 32.1849 58.2355 32.2554 57.4391 32.3831C57.086 32.3831 57.086 32.9464 57.086 32.9464L57.1358 40.8873V42.206C57.1358 42.9149 56.7795 47.0407 56.7185 47.604C56.7185 48.1993 57.078 48.673 58.0025 48.7626C58.9847 48.7626 60.2013 48.6137 60.7662 48.5546C60.8226 48.543 60.8768 48.5225 60.9267 48.4937C61.1674 48.3609 61.2028 48.0568 61.206 47.62V47.3831C61.2782 46.823 61.2172 33.3528 61.2172 32.8744V32.8808Z" fill="white"/>
<path d="M72.9464 45.9331C72.9143 45.5602 72.8869 45.2609 72.8869 45.1633C72.8869 44.8656 72.5901 44.5711 72.1727 44.5711C71.7555 44.5711 68.7543 44.4511 68.3385 44.4511C68.157 44.4636 67.9747 44.4452 67.7993 44.3967C67.6164 44.3263 67.5008 44.1663 67.5008 43.7998V37.0303C67.5008 35.9613 67.6838 29.1374 67.6838 28.4253C67.6851 28.326 67.6764 28.2268 67.6581 28.1292C67.5795 27.6987 67.3242 27.5387 67.0306 27.5387H64.5285C64.4029 27.537 64.2783 27.5603 64.1619 27.6074C64.0456 27.6544 63.9399 27.7243 63.8511 27.8127C63.7622 27.9012 63.692 28.0065 63.6446 28.1224C63.5972 28.2382 63.5736 28.3625 63.5751 28.4877C63.5142 28.843 63.3954 37.3312 63.3954 38.4595V47.7767C63.3954 48.1335 63.9298 48.8457 65.0613 48.8457C65.4063 48.8457 65.8798 48.8457 66.4223 48.8617C68.0882 48.8905 70.425 48.9497 71.8004 48.9609C71.961 48.9609 72.1005 48.9609 72.2322 48.9609C72.7136 48.9609 73.0635 48.604 73.1245 48.0711C73.1294 47.7511 73.0169 46.69 72.9464 45.9331Z" fill="white"/>
<path d="M87.8305 30.5874C87.8211 30.0889 87.7739 29.5919 87.6893 29.1006C87.3282 27.1082 86.508 26.1689 84.6077 26.1689C82.7076 26.1689 80.199 26.5961 80.199 29.7568C80.199 30.6402 80.1653 31.6772 80.1653 33.0727C80.1597 33.5655 80.2378 34.0558 80.3964 34.5226C80.5895 35.1104 80.961 35.624 81.4597 35.9921C81.9582 36.3602 82.5592 36.5647 83.1793 36.5775C84.0364 36.5775 84.3028 36.5343 84.9191 36.5343C87.2383 36.5343 87.9059 33.1399 87.8305 30.5874ZM84.6077 34.241C83.7395 34.241 82.7878 34.0554 82.7878 32.8007V32.7447L82.8648 30.3217C82.8648 28.6413 83.6865 28.2733 84.6046 28.2733C85.3251 28.2733 85.4889 29.0415 85.5387 29.7232C85.5707 30.2465 85.6092 30.7922 85.6285 31.3236C85.6847 32.8775 85.5643 34.241 84.6077 34.241Z" fill="white"/>
<path d="M83.0267 46.9782C83.0267 46.7205 82.6335 46.6485 82.2082 46.6053C81.5502 46.5269 80.868 46.6165 80.1764 46.6965C79.7468 46.7531 79.3143 46.7852 78.8812 46.7925C78.358 46.7925 78.1108 46.7045 78.3227 46.4516C79.3402 45.2274 83.1375 45.0689 83.1375 42.1067C83.1375 40.2567 81.3993 38.6052 79.2359 38.6052C76.5475 38.6052 75.758 40.2279 75.758 42.5612C75.758 42.9613 75.9184 43.0413 76.087 43.0413C76.087 43.0413 76.745 43.0701 77.0403 43.0701C77.3613 43.0701 77.464 42.9837 77.464 42.6972C77.464 42.4444 77.5314 40.5624 78.9726 40.5624C80.0223 40.5624 80.5487 41.1337 80.5487 41.7306C80.5487 44.8049 75.8574 43.3822 75.7772 47.071C75.7772 47.3911 75.7274 47.8823 75.7274 48.2232C75.7274 48.5913 75.6938 48.7929 76.6615 48.7929C77.4303 48.7929 78.053 48.8202 78.5874 48.8314H78.9871C80.3818 48.8314 81.3014 48.7738 82.6608 48.7738C83.2017 48.7738 83.0877 48.5465 83.0877 48.2344C83.0941 48.0231 83.0267 47.383 83.0267 46.9782Z" fill="white"/>
<path d="M79.2634 35.5981C79.2441 35.3069 79.2056 34.8668 79.2056 34.5547C79.2056 34.297 78.8124 34.2267 78.3871 34.1851C77.3198 34.0555 76.1899 34.3691 75.0584 34.3691C74.5368 34.3691 74.2896 34.2843 74.5015 34.0282C75.519 32.8039 79.3163 32.6455 79.3163 29.6864C79.3163 28.227 78.2346 26.8906 76.7196 26.3897L76.559 26.3402C76.1879 26.2344 75.8039 26.1806 75.4179 26.1801C73.4101 26.1801 72.46 27.0843 72.1133 28.5166C72.1318 28.5669 72.1543 28.6156 72.1807 28.6622C72.1933 28.6859 72.2041 28.7105 72.2128 28.7358C72.1534 28.7951 72.0908 28.8511 72.0315 28.9103C71.9464 28.9903 71.8614 29.0703 71.7779 29.1616C71.7515 29.1934 71.7176 29.2181 71.6792 29.2339C71.6409 29.2495 71.5992 29.2554 71.558 29.2511C71.4474 29.2448 71.3364 29.2448 71.2258 29.2511C71.0653 29.2511 70.9834 29.3312 70.9867 29.4576C70.9899 29.5841 71.0637 29.6448 71.221 29.648C71.5644 29.648 71.5644 29.648 71.5693 29.9937C71.5693 30.1538 71.6302 30.2274 71.7586 30.2306C71.7946 30.2315 71.8303 30.2234 71.8623 30.2068C71.8943 30.1903 71.9216 30.166 71.9416 30.1362C71.9645 30.0976 71.9715 30.0517 71.9609 30.0082C71.953 29.9653 71.9482 29.922 71.9464 29.8785C71.9448 29.8535 71.9448 29.8283 71.9464 29.8033C71.9625 29.504 72.1647 29.2992 72.3942 29.104C72.4279 29.0751 72.4536 29.0383 72.4841 29.0079C72.6631 29.1124 72.8632 29.1758 73.0699 29.1936C73.2273 29.1989 73.3843 29.1716 73.5306 29.1135C73.677 29.0554 73.8098 28.9677 73.9204 28.8559C73.9782 28.7999 74.0312 28.7406 74.081 28.6846C74.1996 28.5128 74.3593 28.3731 74.5456 28.2785C74.732 28.1837 74.9392 28.1368 75.1483 28.1422H75.2606C76.2332 28.1821 76.7196 28.7327 76.7196 29.3087C76.7196 30.3106 76.2251 30.8339 75.5543 31.2116C74.1596 31.9989 72.0106 32.1606 71.9528 34.6491C71.9528 34.9692 71.9031 35.4606 71.9031 35.8014C71.9031 36.1743 71.8694 36.3711 72.8356 36.3711C73.8017 36.3711 74.5416 36.4159 75.1627 36.4159C76.4467 36.4159 77.3374 36.3679 78.5331 36.3615H78.83C79.3709 36.3615 79.2569 36.131 79.2569 35.819C79.273 35.7678 79.2698 35.691 79.2634 35.5981ZM73.4502 28.3502C73.4473 28.4184 73.4176 28.4827 73.3673 28.5291C73.3172 28.5756 73.2507 28.6004 73.1822 28.5982C73.0426 28.5982 72.9479 28.4782 72.9383 28.3054C72.9383 28.2285 72.9383 28.1453 72.9383 28.0733C72.9383 28.0013 72.9383 27.9053 72.9383 27.8221C72.9348 27.788 72.938 27.7535 72.9479 27.7208C72.9578 27.688 72.974 27.6574 72.9959 27.6309C73.0177 27.6044 73.0445 27.5825 73.0748 27.5664C73.1051 27.5503 73.1384 27.5404 73.1726 27.5372C73.2063 27.5335 73.2403 27.5366 73.2727 27.5467C73.3051 27.5567 73.335 27.5732 73.3606 27.5953C73.3862 27.6174 73.407 27.6445 73.4216 27.675C73.4362 27.7055 73.4444 27.7387 73.4455 27.7725C73.4743 27.9638 73.4759 28.1584 73.4502 28.3502Z" fill="white"/>
<path d="M91.8892 46.9783C91.8892 46.7207 91.4945 46.6486 91.0691 46.6086C90.0035 46.479 88.872 46.7927 87.7389 46.7927C87.2173 46.7927 86.9733 46.7078 87.1852 46.4518C88.2011 45.2276 92 45.0691 92 42.11C91.9926 41.4212 91.7642 40.7527 91.3485 40.2025C90.8239 39.5037 90.0824 38.9973 89.2395 38.7621C88.8678 38.6569 88.4832 38.6031 88.0968 38.6021C86.0907 38.6021 85.1437 39.5063 84.7954 40.9386C84.814 40.9886 84.836 41.0372 84.8613 41.0843C84.8751 41.1075 84.8864 41.1322 84.8949 41.1579C84.8356 41.217 84.773 41.2731 84.7136 41.3323C84.6269 41.4123 84.5435 41.4924 84.4584 41.582C84.4316 41.6139 84.3975 41.6388 84.359 41.6547C84.3203 41.6706 84.2784 41.6769 84.237 41.6732C84.1263 41.6667 84.0153 41.6667 83.9047 41.6732C83.7442 41.6732 83.664 41.7532 83.6655 41.8797C83.6672 42.006 83.7442 42.0652 83.9031 42.0684C84.245 42.0684 84.245 42.0684 84.2514 42.4157C84.2514 42.5757 84.314 42.6478 84.4392 42.651C84.4752 42.6522 84.5111 42.6443 84.5433 42.6282C84.5756 42.6119 84.6032 42.5878 84.6237 42.5582C84.6355 42.5395 84.6432 42.5187 84.6465 42.497C84.6499 42.4752 84.6487 42.453 84.643 42.4317C84.6338 42.3891 84.6285 42.3457 84.6269 42.3021C84.6269 42.2765 84.6269 42.2525 84.6269 42.2269C84.6446 41.9261 84.8452 41.7228 85.0763 41.5275C85.1084 41.4987 85.1357 41.462 85.1662 41.4315C85.3451 41.5363 85.5453 41.5997 85.752 41.6172C85.9093 41.6234 86.0662 41.5965 86.2125 41.5383C86.3588 41.4802 86.4911 41.392 86.601 41.2795C86.6604 41.2234 86.7118 41.1643 86.7615 41.1082C86.8796 40.9363 87.039 40.7966 87.2251 40.7018C87.4112 40.607 87.6182 40.5603 87.8272 40.5657C88.1878 40.5544 88.5445 40.643 88.8576 40.8218C89.0221 40.9133 89.1595 41.0464 89.2561 41.2076C89.3528 41.3689 89.4052 41.5526 89.408 41.7404C89.408 42.7422 88.9137 43.2655 88.2428 43.6432C86.8482 44.4306 84.6959 44.5922 84.6414 47.0808C84.6414 47.4008 84.5916 47.8921 84.5916 48.233C84.5916 48.6043 84.5563 48.8027 85.524 48.8027C86.4919 48.8027 87.2302 48.8459 87.8513 48.8459C89.2476 48.8459 90.1624 48.7915 91.5249 48.7915C92.0662 48.7915 91.9487 48.561 91.9487 48.249C91.9535 48.0233 91.8892 47.3832 91.8892 46.9783ZM86.1291 40.7737C86.1262 40.842 86.0965 40.9063 86.0462 40.9527C85.9961 40.9991 85.9296 41.024 85.8611 41.0218C85.7215 41.0218 85.6268 40.9018 85.6171 40.729C85.6132 40.6517 85.6132 40.5742 85.6171 40.4969C85.6171 40.4121 85.6171 40.3289 85.6171 40.2441C85.6134 40.2101 85.6165 40.1758 85.6262 40.1431C85.6359 40.1104 85.6521 40.08 85.6737 40.0536C85.6954 40.0272 85.7222 40.0055 85.7525 39.9895C85.7826 39.9736 85.8158 39.9638 85.8499 39.9608C85.8837 39.957 85.9179 39.9602 85.9504 39.97C85.9829 39.9799 86.0131 39.9963 86.0391 40.0181C86.065 40.04 86.0862 40.0669 86.1015 40.0973C86.1167 40.1275 86.1255 40.1606 86.1276 40.1944C86.1545 40.3865 86.1551 40.5815 86.1291 40.7737Z" fill="white"/>
<path d="M10.5845 1.35713C9.69913 2.36166 8.74402 3.30285 7.72617 4.17375C6.97903 3.83749 6.16551 3.67338 5.34604 3.69364C4.70407 3.69364 4.54357 4.65385 4.54357 5.28599C4.54357 5.28599 4.49864 5.85571 4.44889 6.55506C3.11123 7.38474 1.6986 8.0877 0.229492 8.65471V1.56038C0.229492 0.668989 0.87147 0.120069 1.60493 0.120069C2.4074 0.120069 2.62728 0.0240479 6.62839 0.0240479C8.19802 0.0304492 9.53813 0.513752 10.5845 1.35713Z" fill="white"/>
<path d="M13.1188 7.36471C13.1188 13.3612 8.89613 14.3807 6.24155 14.3807C5.82587 14.3807 5.34599 14.6383 5.34599 15.1808C5.34599 15.3648 5.35562 16.149 5.37488 17.1012C3.73047 17.6918 2.03564 18.1321 0.311293 18.4167L0.0817871 18.4535C0.14759 16.0098 0.229441 12.9387 0.229441 11.7752V8.65459C1.70058 8.08947 3.11537 7.38812 4.45525 6.55973C4.39426 7.44473 4.32365 8.53456 4.32365 8.92505C4.32365 9.65965 4.29154 10.3942 5.3155 10.3942C8.03267 10.3942 9.43859 8.89464 9.43859 6.98223C9.43859 5.60593 8.78378 4.67933 7.72612 4.17202C8.74396 3.30112 9.69913 2.35994 10.5845 1.35541C12.2023 2.6565 13.1188 4.81375 13.1188 7.36471Z" fill="white"/>
<path d="M18.5386 6.75192C17.3347 8.45077 15.969 10.0297 14.4604 11.4666C14.6033 9.2501 14.7606 7.01917 14.7606 5.73889C14.7606 4.65707 15.4331 4.77869 16.778 4.71948C17.993 4.71948 18.5354 5.38842 18.5354 6.12298C18.5354 6.30382 18.537 6.51666 18.5386 6.75192Z" fill="white"/>
<path d="M5.50816 21.0781C5.63655 22.0383 5.60285 22.8384 5.18717 22.8384C4.80359 22.8384 2.78938 22.9345 1.60494 22.9345C0.390001 22.9345 0 22.2944 0 21.723C0 21.3469 0.0337024 20.0298 0.0738259 18.4504L0.303334 18.4135C2.02768 18.1289 3.72251 17.6885 5.36692 17.0981C5.40063 18.612 5.44877 20.5484 5.50816 21.0781Z" fill="white"/>
<path d="M16.396 22.6465C16.0044 22.9058 15.6032 23.1522 15.1938 23.3908C15.2934 22.7682 15.8583 22.6609 16.396 22.6465Z" fill="white"/>
<path d="M22.2781 17.4325C21.1812 18.7149 19.9757 19.9008 18.675 20.9773C15.0928 20.7676 14.2148 18.4167 14.2148 16.5891C14.2148 15.3088 14.3336 13.3996 14.4604 11.468C15.9689 10.0311 17.3347 8.45224 18.5386 6.75339C18.5498 8.09447 18.5787 10.1461 18.4696 10.9143C18.309 12.1257 18.4391 13.5917 18.4391 14.6751C18.4391 15.7586 18.5032 17.6101 21.1916 17.6101C21.5611 17.6112 21.9283 17.5512 22.2781 17.4325Z" fill="white"/>
<path d="M28.287 6.05739C28.287 6.22862 28.2325 7.10721 28.1538 8.28826C27.1066 10.4457 25.8995 12.5223 24.5427 14.5008C24.6749 13.9174 24.7406 13.321 24.7385 12.7228C24.7385 11.3849 25.1558 8.64194 25.1558 7.20804C25.1558 6.5999 25.2168 5.03796 26.1798 5.03796H27.5215C28.1618 5.03796 28.287 5.48446 28.287 6.05739Z" fill="white"/>
<path d="M10.9922 34.9276C11.0649 34.667 11.102 34.3979 11.103 34.1274C11.103 32.047 8.78219 31.6629 7.2912 31.6629C6.84823 31.6629 6.54972 31.9606 6.54972 32.5527C6.54972 32.5527 6.43897 34.2714 6.37798 35.4477C5.09403 35.5373 3.8181 35.5869 2.52612 35.6077V29.0784C2.52612 28.2478 3.12316 27.7436 3.81008 27.7436C4.55156 27.7436 4.76181 27.654 8.48207 27.654C12.1028 27.654 14.5102 30.4018 14.5278 34.1578C13.3659 34.4849 12.1852 34.7419 10.9922 34.9276Z" fill="white"/>
<path d="M20.1998 31.8372H20.211C19.2666 32.3584 18.2905 32.8202 17.2883 33.2199C17.2883 33.0359 17.2883 32.8518 17.2883 32.6662C17.2883 31.7172 18.062 31.8932 18.062 31.8932C18.4151 31.8948 19.9622 31.8372 20.1998 31.8372Z" fill="white"/>
<path d="M28.1542 8.28824C27.9648 11.0729 27.6519 15.5394 27.6519 16.3924C27.6519 17.6727 27.2651 22.6433 27.2651 23.8548C27.2651 25.1271 26.3711 26.6586 24.5768 26.8507C22.7263 27.0427 16.9678 27.2347 16.199 27.2347C15.4303 27.2347 15.3693 26.9147 15.2441 26.3402C15.1766 25.7657 15.1766 24.4197 15.1766 23.5972C15.1765 23.5279 15.1824 23.4589 15.1943 23.3907C15.6036 23.1523 16.0048 22.9106 16.3965 22.6466C16.4606 22.6466 16.5216 22.6466 16.5842 22.6466C17.2888 22.6466 20.871 22.773 22.2786 22.773C24.5158 22.773 25.0278 21.0494 24.6443 19.966C24.4548 19.3914 23.2351 20.9886 19.2083 20.9886C19.0237 20.9886 18.8472 20.9886 18.6755 20.9725C19.9758 19.8987 21.1813 18.7154 22.2786 17.4359C23.5304 17.0085 24.2334 15.8355 24.5431 14.504C25.9002 12.5245 27.1072 10.4468 28.1542 8.28824Z" fill="white"/>
<path d="M37.2702 4.90505V7.97291C35.9332 11.6457 34.4391 15.2209 32.6399 18.5096C32.6399 18.4103 32.6319 18.3111 32.6319 18.2087C32.6319 16.1283 32.8581 13.1069 32.8581 12.5003C32.8581 11.9274 32.5019 11.9274 31.4491 11.9274H30.393C29.5616 11.9274 29.69 11.5113 29.69 10.8727C29.69 10.1734 29.7879 9.82294 29.7879 9.53486C29.7879 9.11876 30.7509 8.99233 31.3848 8.99233H32.4392C33.0812 8.99233 33.4938 8.70427 33.4938 7.93931C33.4938 7.23836 33.3332 5.31954 33.3332 5.31954C33.3332 4.26651 33.5579 3.7576 34.1357 3.7576H36.4067C36.8576 3.7576 37.2702 4.39614 37.2702 4.90505Z" fill="white"/>
<path d="M15.5662 43.3711C14.3336 43.5396 13.0962 43.665 11.854 43.7472C11.8892 43.5982 11.907 43.4457 11.9069 43.2927C11.9069 41.8988 10.9248 41.0969 10.1207 41.0969C9.61504 41.0969 8.4836 41.0058 8.12409 41.0058C7.74052 41.0058 7.29113 41.2442 7.29113 41.7499C7.29113 41.9323 7.13063 42.9453 7.13063 43.904C5.56261 43.904 3.99458 43.8608 2.42334 43.7823C2.47952 41.7323 2.53408 39.5014 2.53408 38.5732V35.5998C3.81804 35.5838 5.10199 35.5341 6.38595 35.4397C6.36508 35.8702 6.34903 36.2271 6.34903 36.4C6.34903 37.0817 6.64755 37.2897 7.59928 37.2897C9.23315 37.2897 10.6086 36.2975 11.0002 34.9196C12.1915 34.7338 13.3706 34.4768 14.5311 34.1498C14.5311 34.2571 14.5311 34.3643 14.5311 34.4699C14.4716 36.696 13.0159 37.733 12.2151 38.2659C11.7657 38.5636 11.7962 38.7125 12.2151 38.7125C14.255 38.7221 15.5277 40.6216 15.5662 43.3711Z" fill="white"/>
<path d="M28.8603 34.9547C28.8603 36.1406 28.3547 36.1998 27.5763 36.1998C26.798 36.1998 26.2074 36.051 25.3744 36.051C23.0648 36.051 21.8435 39.1605 21.6991 41.9419C20.2715 42.4382 18.8078 42.824 17.3208 43.0958L17.3385 36.7631C17.3385 35.3501 17.2967 34.2794 17.2838 33.2216C18.286 32.8219 19.2621 32.3601 20.2065 31.8389C20.4391 31.8549 20.6093 32.319 20.6093 32.9064C20.6093 34.6283 20.582 34.9867 20.5515 35.19C20.4937 36.1102 20.8211 35.8158 20.9094 35.5453C21.2978 34.3594 23.1419 32.0245 26.5267 32.0245C28.6533 32.0197 28.8603 32.4311 28.8603 34.9547Z" fill="white"/>
<path d="M32.2945 32.0438C32.5224 32.0598 33.6315 32.1222 34.7774 32.1782C33.8447 33.4109 32.8257 34.5763 31.728 35.6654C31.0556 35.5773 30.6607 35.2941 30.6607 34.7163C30.6531 34.1002 30.6933 33.4843 30.7811 32.8744C30.8646 32.3398 31.4295 31.9862 32.2945 32.0438Z" fill="white"/>
<path d="M40.3722 20.9853V22.3856C40.3713 22.447 40.3643 22.5081 40.3515 22.5681C40.284 22.7169 40.2166 22.8641 40.1508 23.0114C40.0563 23.145 39.9307 23.2537 39.7848 23.3281C39.6388 23.4026 39.4769 23.4405 39.3131 23.4386C35.933 23.4386 32.8194 21.7855 32.6396 18.5096C34.4388 15.2208 35.933 11.6457 37.2699 7.9729V8.13294C37.2699 8.70586 37.6856 9.18596 38.6759 9.18596C39.5714 9.18596 40.146 9.34603 40.146 9.95095C40.146 10.5911 40.2134 11.6409 39.5714 11.6409H37.6856C37.2699 11.6409 37.2699 12.982 37.2699 13.6173C37.2699 14.2527 36.981 16.5524 36.981 17.6054C36.981 18.6584 37.814 19.9322 39.5714 19.9322C40.4365 19.9307 40.3722 20.5692 40.3722 20.9853Z" fill="white"/>
<path d="M42.0015 18.6504L42.0287 9.82293C42.0287 8.03533 41.772 2.23088 41.772 0.89139C41.772 -0.128031 42.6017 0.0640129 42.6017 0.0640129C42.9885 0.0640129 44.6496 0 44.9064 0C45.1632 0 45.3526 0.510506 45.3526 1.14584V5.22993C45.3526 5.99489 45.4184 7.65286 45.4184 8.64187C45.4177 8.71654 45.4246 8.79108 45.4393 8.86431C44.3735 12.1482 43.2614 15.4529 42.0015 18.6504Z" fill="white"/>
<path d="M15.568 43.5006C15.568 48.0104 11.2844 48.8714 7.2046 48.8714H7.14683C6.79054 48.8714 4.91275 48.961 3.81176 48.961C2.68028 48.961 2.32397 48.3657 2.32397 47.8328C2.32397 47.4055 2.36892 45.6707 2.42027 43.7823C3.99151 43.8607 5.55954 43.9056 7.12757 43.9039C7.11955 44.5057 7.1709 45.0866 7.35387 45.429C7.65881 45.9828 11.3582 45.7347 11.8477 43.7471C13.0899 43.6628 14.3274 43.5374 15.5599 43.371C15.568 43.4142 15.568 43.4574 15.568 43.5006Z" fill="white"/>
<path d="M17.3256 43.0958C18.8126 42.824 20.2764 42.4382 21.7039 41.9419C21.6926 42.1371 21.6863 42.3308 21.6863 42.5212C21.6863 45.4867 21.3942 47.1798 21.3942 47.8328C21.3942 48.4281 21.1823 48.8425 20.7056 48.8425H17.9676C17.6113 48.8425 17.3143 48.6041 17.3143 47.4183L17.3256 43.0958Z" fill="white"/>
<path d="M40.3514 22.5682C40.3168 22.7285 40.2484 22.8796 40.1508 23.0115C40.2165 22.8643 40.284 22.7171 40.3514 22.5682Z" fill="white"/>
<path d="M38.3806 42.8669C38.5232 42.5649 38.6091 42.2395 38.6342 41.9066C38.6342 40.868 36.7291 40.868 35.8657 40.868C34.5817 40.868 33.309 41.5498 33.309 43.1517C33.309 44.9312 34.0504 45.7651 35.1498 45.7651C35.2173 45.7651 35.2846 45.7651 35.3488 45.7555C34.2253 46.6803 33.0272 47.511 31.7666 48.2392C31.1901 47.847 30.7264 47.3114 30.4217 46.6853C29.7637 45.437 29.8535 44.3392 29.8535 43.3245C29.8535 41.6041 31.0139 39.4965 33.5449 38.6947C34.3779 38.4275 37.1769 38.1923 37.5573 38.1298C38.0034 38.0722 38.2121 37.6498 38.2121 36.944C38.2121 35.1339 36.9281 35.6972 32.2305 35.6972C32.0594 35.6982 31.8883 35.6886 31.7185 35.6685C32.8174 34.5789 33.8375 33.4131 34.7711 32.1797C35.8625 32.2374 36.9875 32.2854 37.4385 32.2854C38.3613 32.2854 41.7509 32.4614 42.1089 35.3996C42.21 36.259 42.2549 36.984 42.2694 37.7378C41.1274 39.5584 39.826 41.2748 38.3806 42.8669Z" fill="white"/>
<path d="M54.0961 8.09126C53.3643 10.1861 52.6597 12.3449 51.9472 14.5294C51.7609 12.4394 51.1222 10.9687 49.5108 10.9687C48.2975 10.9687 46.6941 12.8891 46.6941 16.0082C46.6941 19.1961 46.5337 21.0156 46.5337 21.7166C46.5337 22.3568 46.1468 22.8001 45.6365 22.8001H42.6994C42.3126 22.8001 41.9949 22.5456 41.9949 21.2702V18.6503C43.2547 15.4497 44.367 12.1481 45.4326 8.86422C45.5097 9.22751 45.7905 9.14109 45.9526 8.7042C46.3057 7.74398 47.8786 6.63334 50.6247 6.63334C51.2728 6.62513 51.9156 6.75037 52.5129 7.00123C53.1102 7.25209 53.6492 7.62317 54.0961 8.09126Z" fill="white"/>
<path d="M42.4122 48.3064C42.4122 49.0506 41.3995 48.9914 40.865 48.9914C40.2696 48.9914 38.96 49.0794 38.9006 48.3977C38.8747 48.1216 38.8645 47.8443 38.8701 47.5671C38.8701 47.2102 38.7513 47.4455 38.6615 47.5079C37.6536 48.3977 36.4001 49.0202 35.0006 48.9914C33.6797 48.9546 32.6172 48.7913 31.7666 48.2313C33.0272 47.503 34.2254 46.6723 35.3489 45.7475C36.7163 45.6067 37.8879 44.0432 38.3806 42.8669C39.8299 41.2748 41.1351 39.5579 42.2806 37.7362C42.2902 38.101 42.2951 38.4739 42.2951 38.8708C42.3223 40.7112 42.2052 42.4012 42.2052 42.4012V42.4316C42.2052 43.0861 42.4122 47.892 42.4122 48.3064Z" fill="white"/>
<path d="M47.6992 43.8621C47.7064 44.1856 47.7848 44.5035 47.9286 44.7936C47.307 45.8807 46.6506 46.9305 45.9594 47.9431C45.3704 47.5395 44.8864 47.0018 44.5475 46.3745C44.2087 45.7471 44.0248 45.0483 44.011 44.3358C44.011 43.8557 44.2485 43.3885 44.9612 43.3885H46.8084C47.2241 43.382 47.6992 43.2028 47.6992 43.8621Z" fill="white"/>
<path d="M53.2134 32.9575C52.6886 34.3977 52.1398 35.838 51.5603 37.2368C51.4769 35.8189 50.7418 34.7162 49.9024 34.7162C49.0631 34.7162 47.6395 35.1307 47.6395 37.3872C47.6395 39.1972 48.7629 39.9366 50.1512 40.4631C49.7714 41.2835 49.375 42.0917 48.962 42.8876C46.9141 42.0987 44.3076 41.0135 44.3076 37.0896C44.3076 34.2409 46.5096 31.5699 49.4852 31.5699C51.1831 31.5699 52.3901 32.1236 53.2134 32.9575Z" fill="white"/>
<path d="M55.4894 12.2154C55.4894 14.8928 55.5873 19.8346 55.5873 21.2382C55.5873 22.5776 55.4605 23.0881 54.8185 23.0881H52.265C51.9441 23.0881 51.7531 22.2576 51.8815 21.2382C52.074 20.1547 52.0131 17.4117 52.0131 16.0723C52.0131 15.5313 51.9938 15.0144 51.9521 14.5295C52.6647 12.345 53.3693 10.1862 54.1011 8.09131C54.9261 8.9747 55.4894 10.3206 55.4894 12.2154Z" fill="white"/>
<path d="M63.7032 4.78833C62.7835 6.51831 61.9698 8.29948 61.2284 10.0599C60.8865 10.8744 60.5575 11.6859 60.2445 12.4844C60.137 12.7549 60.0343 13.0238 59.9235 13.2846C59.1901 15.1874 58.4936 17.1686 57.813 19.1978C57.4471 18.0232 57.3572 16.7333 57.3572 15.5538C57.3572 11.9499 57.7713 7.61134 60.2348 5.66852C61.0919 4.94196 62.2892 4.81394 63.7032 4.78833Z" fill="white"/>
<path d="M55.2003 44.8048C55.2003 47.2998 52.939 48.9658 49.6649 48.9658C48.0503 48.9658 46.837 48.5545 45.9591 47.9432C46.6524 46.9296 47.3099 45.8781 47.9316 44.7888C48.2686 45.4866 48.9603 46.1107 49.9056 46.1107C50.8509 46.1107 51.3934 45.8163 51.3934 44.7472C51.3934 43.787 50.2973 43.4013 48.9651 42.8876C49.3781 42.0938 49.7745 41.2857 50.1544 40.4631C52.35 41.3017 55.2003 41.5993 55.2003 44.8048Z" fill="white"/>
<path d="M51.5683 37.5039C51.5683 37.4143 51.5683 37.3247 51.5683 37.2367C52.1477 35.8316 52.6918 34.4009 53.2214 32.9573C54.3111 34.0552 54.7349 35.6395 54.7349 37.0894C54.7349 37.6847 54.7349 38.4561 54.3144 38.4561H52.4623C51.3901 38.4561 51.5683 37.9808 51.5683 37.5039Z" fill="white"/>
<path d="M59.8465 32.1621C59.8915 32.1621 59.9332 32.1621 59.9765 32.1621C59.0569 35.0524 58.1308 37.9858 57.1326 40.8744L57.0796 32.9367C57.0796 32.9367 57.0796 32.3734 57.4327 32.3734C58.2312 32.2454 59.0378 32.1748 59.8465 32.1621Z" fill="white"/>
<path d="M61.2171 27.5388C61.2215 27.753 61.238 27.9668 61.2669 28.1789C61.0166 28.9418 60.7661 29.7115 60.5158 30.4882C59.9332 30.5267 58.6492 30.6867 58.1501 30.6867C57.5563 30.6867 56.8437 30.5379 57.0828 29.9153C57.2883 29.2624 56.9015 28.315 57.1085 27.6909C57.2577 26.9787 57.6157 26.681 57.9736 26.681C58.3315 26.681 59.6989 26.7707 60.06 26.7707C60.4212 26.7707 61.2171 26.8811 61.2171 27.5388Z" fill="white"/>
<path d="M64.4818 19.3769C64.0164 20.5228 63.5766 21.6606 63.1594 22.7729C63.1129 22.8912 63.0695 23.0113 63.0245 23.1313C59.8741 22.9073 58.4473 21.2269 57.8213 19.2121C58.5018 17.1828 59.1983 15.2016 59.9319 13.2988C60.0345 13.0315 60.1373 12.7626 60.2529 12.4986C60.1032 13.4747 60.08 14.466 60.1838 15.448C60.3154 16.3395 60.0586 20.0059 62.9347 20.0059C63.2227 20.0174 63.5097 19.9672 63.7766 19.8588C64.0436 19.7502 64.284 19.5859 64.4818 19.3769Z" fill="white"/>
<path d="M65.308 17.4182C65.5729 15.9347 65.4878 14.0127 65.4878 12.2155C65.4878 9.53495 64.2038 9.28052 62.9921 9.28052C62.6582 9.27137 62.3265 9.33664 62.0212 9.47144C61.7158 9.60632 61.4444 9.80732 61.2267 10.0599C61.9681 8.29948 62.7819 6.51831 63.7015 4.78833C63.886 4.78833 64.0755 4.78833 64.2712 4.78833C65.3947 4.78833 69.0861 4.98197 69.6109 9.5478C67.8984 11.9707 66.5037 14.6833 65.308 17.4182Z" fill="white"/>
<path d="M74.2384 4.53394C73.3185 5.27144 72.4598 6.08172 71.6705 6.95686C71.6593 6.43355 71.6497 5.93264 71.6497 5.42213C71.6497 4.39951 72.4794 4.59155 72.4794 4.59155C72.8084 4.59155 73.7714 4.54834 74.2384 4.53394Z" fill="white"/>
<path d="M61.2175 32.8744C61.2175 33.3545 61.2785 46.823 61.2175 47.3863V47.6103C61.1261 47.9015 61.0314 48.1929 60.9383 48.4841C60.8884 48.5129 60.8342 48.5334 60.7777 48.5449C60.2129 48.6041 58.9962 48.7529 58.0141 48.7529C57.0912 48.6634 56.7301 48.1896 56.7301 47.5943C56.7911 47.031 57.1474 42.9053 57.1474 42.1964V40.8776C58.1457 37.989 59.0733 35.0556 59.9913 32.1653C60.6382 32.1894 61.2175 32.4039 61.2175 32.8744Z" fill="white"/>
<path d="M61.2671 28.1789C61.3457 28.803 61.4854 29.5248 61.4854 29.8257C61.4854 30.3058 61.1275 30.4802 60.7102 30.4802C60.6621 30.4802 60.5947 30.4802 60.516 30.4802C60.7663 29.7068 61.0167 28.9396 61.2671 28.1789Z" fill="white"/>
<path d="M67.6582 28.1292C67.2232 29.1934 66.8156 30.2577 66.4256 31.3107L66.233 31.8357C66.1704 32.01 66.1062 32.1845 66.0436 32.3574C65.926 32.6774 65.8099 33.0049 65.6953 33.34C65.5894 33.6456 65.4819 33.9529 65.3743 34.2617C65.238 34.657 65.1063 35.0619 64.9748 35.4556L64.7629 36.1053C64.2958 37.5456 63.8416 39.0068 63.3906 40.4871V38.4562C63.3906 37.328 63.5094 28.8398 63.5704 28.4845C63.5689 28.3593 63.5926 28.2351 63.6399 28.1191C63.6873 28.0032 63.7575 27.898 63.8464 27.8095C63.9352 27.721 64.0409 27.6512 64.1573 27.6042C64.2736 27.5571 64.3982 27.5337 64.5237 27.5355H67.0307C67.3244 27.5387 67.5796 27.6988 67.6582 28.1292Z" fill="white"/>
<path d="M63.7596 23.1507C63.5044 23.1507 63.2621 23.1427 63.0245 23.1251C63.0694 23.0051 63.1128 22.8851 63.1593 22.7667C63.5766 21.6544 64.0164 20.5166 64.4818 19.3707C64.9104 18.9131 65.1607 18.2329 65.3083 17.4183C66.5041 14.6833 67.8987 11.9772 69.6128 9.54297C69.6574 9.92166 69.6788 10.3027 69.677 10.684C69.677 16.3924 70.0268 23.1507 63.7596 23.1507Z" fill="white"/>
<path d="M86.8964 10.1367L86.736 10.1608L86.4294 10.212L86.2512 10.2424L85.9768 10.2936C85.8757 10.3112 85.7746 10.332 85.6751 10.3528C85.5066 10.3864 85.3365 10.4217 85.1679 10.46C84.9994 10.4984 84.7972 10.5448 84.6126 10.5912L84.3719 10.652L84.1681 10.7065L83.8808 10.7849C83.3897 10.9241 82.9001 11.0794 82.4187 11.2522L82.1298 11.3578C81.8248 9.72706 81.1443 9.05971 79.9294 9.05971C77.9393 9.05971 76.4274 12.086 76.1193 14.9538C76.0406 15.0226 75.9587 15.093 75.8865 15.1635C75.7261 15.3043 75.5752 15.4483 75.4243 15.5939C75.3505 15.6659 75.2751 15.738 75.2012 15.8131C75.0504 15.962 74.9028 16.1124 74.7567 16.2645C74.6107 16.4165 74.4693 16.5701 74.3281 16.7269C74.0585 17.0231 73.7985 17.3271 73.5434 17.6376L73.3218 17.9128C73.0554 18.2457 72.7965 18.5865 72.5451 18.9354C72.4729 19.0363 72.399 19.1371 72.3267 19.2395C72.2353 19.3676 72.1454 19.4972 72.0604 19.6268C71.9945 19.7196 71.9335 19.8125 71.871 19.9069C71.8084 20.0012 71.7442 20.0957 71.6832 20.1917L71.7104 9.82312C71.7104 8.71564 71.6848 7.80665 71.6671 6.95686C72.4564 6.08172 73.3152 5.27144 74.2351 4.53394C74.3378 4.53394 74.418 4.53394 74.4646 4.53394C74.7198 4.53394 74.9091 5.04445 74.9091 5.68299C74.9275 6.5866 74.8965 7.49054 74.8161 8.39077C74.7534 9.03091 75.0712 8.96849 75.2301 8.58281C75.8063 7.17931 77.2797 4.72598 80.634 4.72598C82.1593 4.7134 83.6371 5.25602 84.7899 6.25212C85.9428 7.24821 86.6918 8.62939 86.8964 10.1367Z" fill="white"/>
<path d="M60.9316 48.4839C61.0247 48.1927 61.1194 47.9014 61.2109 47.6102C61.2141 48.0471 61.1788 48.3512 60.9316 48.4839Z" fill="white"/>
<path d="M67.7993 44.3952C67.3258 45.8579 66.8717 47.3494 66.4223 48.8585C65.8798 48.8489 65.4063 48.8426 65.0613 48.8426C63.9298 48.8426 63.3954 48.1304 63.3954 47.7735V40.4871C63.8464 39.0068 64.3006 37.5425 64.7676 36.1054L64.9794 35.4557C65.111 35.0555 65.2427 34.6555 65.3791 34.2618C65.4818 33.9529 65.5893 33.6456 65.7001 33.34C65.8108 33.0343 65.9312 32.6823 66.0483 32.3574C66.111 32.1846 66.1751 32.0101 66.2377 31.8357L66.4303 31.3107C66.8203 30.2578 67.2328 29.1935 67.6629 28.1292C67.6813 28.2269 67.6899 28.3261 67.6886 28.4254C67.6886 29.1375 67.5056 35.9614 67.5056 37.0304V43.7982C67.5008 44.1647 67.6163 44.3248 67.7993 44.3952Z" fill="white"/>
<path d="M71.6847 21.2701V20.1914C71.7457 20.0954 71.8067 20.001 71.8725 19.9066C71.9382 19.8122 71.996 19.7193 72.0618 19.6265C72.1469 19.4969 72.2368 19.3673 72.3282 19.2392C72.4005 19.1368 72.4743 19.0359 72.5465 18.9352C72.7991 18.5862 73.058 18.2454 73.3233 17.9125L73.5448 17.6373C73.8 17.3268 74.0599 17.0228 74.3296 16.7266C74.4708 16.5666 74.6137 16.4162 74.7581 16.2642C74.9026 16.1121 75.0519 15.9617 75.2027 15.8128C75.2766 15.7377 75.352 15.6657 75.4258 15.5936C75.5767 15.448 75.7308 15.304 75.888 15.1632C75.9651 15.0927 76.0485 15.0223 76.1207 14.9535C76.0812 15.3036 76.0614 15.6558 76.0614 16.0081C76.0614 19.196 76.3824 21.0156 76.3824 21.7165C76.3824 22.3567 76.1609 22.8 75.6473 22.8H72.3909C72.0057 22.8 71.6847 22.5455 71.6847 21.2701Z" fill="white"/>
<path d="M76.5606 26.3402C76.1895 26.2344 75.8055 26.1806 75.4195 26.1801C73.4117 26.1801 72.4616 27.0843 72.115 28.5166C72.1334 28.5669 72.1559 28.6156 72.1823 28.6622C72.1949 28.6859 72.2057 28.7105 72.2144 28.7358C72.1551 28.7951 72.0924 28.8511 72.0331 28.9103C71.948 28.9903 71.863 29.0703 71.7795 29.1616C71.753 29.1934 71.7192 29.2181 71.6808 29.2339C71.6425 29.2495 71.6008 29.2554 71.5597 29.2511C71.449 29.2448 71.338 29.2448 71.2274 29.2511C71.0669 29.2511 70.985 29.3312 70.9883 29.4576C70.9915 29.5841 71.0653 29.6448 71.2226 29.648C71.566 29.648 71.566 29.648 71.5709 29.9937C71.5709 30.1538 71.6319 30.2274 71.7602 30.2306C71.7963 30.2315 71.8319 30.2234 71.8639 30.2068C71.8959 30.1903 71.9231 30.166 71.9432 30.1362C71.9662 30.0976 71.9731 30.0517 71.9624 30.0082C71.9546 29.9653 71.9498 29.922 71.948 29.8785C71.9464 29.8535 71.9464 29.8283 71.948 29.8033C71.9641 29.504 72.1663 29.2992 72.3958 29.104C72.4295 29.0751 72.4552 29.0383 72.4856 29.0079C72.6647 29.1124 72.8648 29.1758 73.0715 29.1936C73.229 29.1989 73.3859 29.1716 73.5322 29.1135C73.6786 29.0554 73.8114 28.9677 73.9221 28.8559C73.9799 28.7999 74.0328 28.7406 74.0826 28.6846C74.2012 28.5128 74.3609 28.3731 74.5473 28.2785C74.7336 28.1837 74.9408 28.1368 75.1499 28.1422H75.2622C75.7212 27.5329 76.2065 26.9461 76.7179 26.3818L76.5606 26.3402ZM73.4503 28.3502C73.4473 28.4184 73.4175 28.4827 73.3674 28.5291C73.3171 28.5756 73.2506 28.6004 73.1823 28.5982C73.0426 28.5982 72.9479 28.4782 72.9383 28.3054C72.9383 28.2285 72.9383 28.1453 72.9383 28.0733C72.9383 28.0013 72.9383 27.9053 72.9383 27.8221C72.9347 27.788 72.938 27.7535 72.9478 27.7208C72.9578 27.688 72.9741 27.6574 72.9959 27.6309C73.0177 27.6044 73.0444 27.5825 73.0748 27.5664C73.1052 27.5503 73.1384 27.5404 73.1726 27.5372C73.2063 27.5335 73.2403 27.5366 73.2727 27.5467C73.3051 27.5567 73.335 27.5732 73.3607 27.5953C73.3862 27.6174 73.407 27.6445 73.4216 27.675C73.4362 27.7055 73.4443 27.7387 73.4454 27.7725C73.4743 27.9638 73.4759 28.1584 73.4503 28.3502Z" fill="white"/>
<path d="M87.1838 20.4043C85.5691 20.7538 84.0011 21.2909 82.5119 22.0046L82.3931 22.0638C82.3931 21.6222 82.4316 21.1036 82.4316 20.6604C82.4316 18.972 82.3337 15.4944 82.3337 14.1565C82.3513 13.219 82.2853 12.2817 82.1362 11.3559L82.4252 11.2519C82.9066 11.079 83.3962 10.9238 83.8873 10.7846L84.1746 10.7062L84.3784 10.6518L84.6191 10.591C84.8037 10.5446 84.9899 10.5014 85.1744 10.4597C85.359 10.4181 85.5131 10.3861 85.6816 10.3525C85.7811 10.3317 85.8822 10.3109 85.9833 10.2933L86.2577 10.2421L86.4359 10.2116L86.7425 10.1605L86.9029 10.1365C86.9532 10.4863 86.9778 10.8393 86.9768 11.1927C86.9704 13.4988 87.1373 18.2326 87.1838 20.4043Z" fill="white"/>
<path d="M72.8871 45.1619C72.8871 45.2595 72.9143 45.5588 72.9464 45.9316C72.8501 46.1701 72.7539 46.4117 72.6624 46.6469C72.55 46.9302 72.4425 47.2135 72.3334 47.4983C72.2596 47.6984 72.1841 47.8968 72.1119 48.0969L72.0429 48.2841C71.9734 48.473 71.9059 48.6618 71.8406 48.8507L71.8005 48.9562C70.4251 48.945 68.0883 48.8859 66.4224 48.857C66.8718 47.3479 67.326 45.8564 67.7994 44.3937C67.9748 44.4421 68.1571 44.4605 68.3387 44.448C68.7544 44.448 71.7572 44.5681 72.1729 44.5681C72.5886 44.5681 72.8871 44.8642 72.8871 45.1619Z" fill="white"/>
<path d="M79.2053 34.5547C79.2053 34.8667 79.2439 35.3068 79.2631 35.5981C79.1637 35.6973 79.069 35.7965 78.9727 35.8989C78.9213 35.955 78.8651 36.0126 78.8121 36.0702C78.7207 36.1678 78.634 36.267 78.5458 36.3663C77.3436 36.3663 76.4593 36.4207 75.1754 36.4207C74.5543 36.4207 73.8192 36.3758 72.8482 36.3758C71.8772 36.3758 71.9157 36.179 71.9157 35.8061C71.9157 35.4652 71.9655 34.982 71.9655 34.6539C72.0233 32.1653 74.1723 32.0037 75.567 31.2163C76.2379 30.8386 76.7322 30.3153 76.7322 29.3135C76.7322 28.7375 76.2507 28.1933 75.2733 28.1469C75.7323 27.5377 76.2176 26.9509 76.729 26.3865C78.244 26.8874 79.3258 28.2237 79.3258 29.6832C79.3258 32.6423 75.522 32.8007 74.511 34.0249C74.2991 34.281 74.5463 34.3658 75.0678 34.3658C76.1993 34.3658 77.3292 34.0457 78.3965 34.1818C78.8121 34.2266 79.2053 34.297 79.2053 34.5547Z" fill="white"/>
<path d="M82.3928 22.0655L82.5116 22.0064C84.0008 21.2926 85.5688 20.7555 87.1835 20.406C87.1835 20.7581 87.1964 21.0461 87.1964 21.2397C87.1964 22.5793 87.0664 23.0897 86.4276 23.0897H82.5982C82.4105 23.0882 82.3831 22.64 82.3928 22.0655Z" fill="white"/>
<path d="M87.8305 30.5874L87.5497 30.6658C87.2703 30.7442 86.9943 30.8258 86.7183 30.9234C86.6365 30.949 86.5578 30.9778 86.4759 31.0066C86.394 31.0354 86.2721 31.0754 86.1726 31.1139L85.9014 31.2147C85.8115 31.2478 85.7216 31.283 85.6317 31.3203C85.6125 30.7954 85.574 30.2496 85.5419 29.72C85.4921 29.0382 85.3284 28.27 84.6078 28.27C83.6898 28.27 82.8681 28.6381 82.8681 30.3185L82.791 32.7414C82.6835 32.8071 82.576 32.8743 82.47 32.9431L82.1988 33.1223C82.149 33.1543 82.0993 33.1895 82.0479 33.2247C81.9965 33.2599 81.9163 33.3159 81.8489 33.3639C81.7478 33.4359 81.6467 33.5079 81.5472 33.5832C81.147 33.8798 80.7624 34.1908 80.3933 34.5161C80.2346 34.0494 80.1565 33.5591 80.1621 33.0663C80.1621 31.6724 80.1958 30.6338 80.1958 29.7504C80.1958 26.5897 82.7204 26.1624 84.6046 26.1624C86.4888 26.1624 87.333 27.1018 87.6861 29.0942C87.7721 29.5876 87.8204 30.0867 87.8305 30.5874Z" fill="white"/>
<path d="M72.9462 45.9331C73.0169 46.6901 73.1244 47.7511 73.1244 48.0711C73.0634 48.6041 72.7087 48.961 72.232 48.961C72.1004 48.961 71.9592 48.961 71.8003 48.961L71.8404 48.8553C71.9067 48.6665 71.9742 48.4777 72.0426 48.2888L72.1117 48.1016C72.1839 47.9016 72.2594 47.7031 72.3332 47.503C72.4423 47.2182 72.5498 46.9349 72.6621 46.6517C72.7537 46.41 72.8499 46.1716 72.9462 45.9331Z" fill="white"/>
<path d="M78.8462 36.3647H78.5492C78.6375 36.2655 78.7242 36.1663 78.8156 36.0687C78.8654 36.0111 78.9216 35.9535 78.9762 35.8975C79.0724 35.7951 79.1672 35.6959 79.2666 35.5966C79.2666 35.6894 79.2763 35.7662 79.2763 35.8207C79.273 36.1344 79.3886 36.3647 78.8462 36.3647Z" fill="white"/>
<path d="M83.1441 42.1019C83.1441 45.0641 79.3404 45.2225 78.3292 46.4468C78.1174 46.6997 78.3646 46.7877 78.8878 46.7877C79.321 46.7804 79.7534 46.7483 80.1829 46.6917C79.6159 47.3755 79.0876 48.0903 78.6005 48.8329C78.066 48.8217 77.4434 48.7946 76.6745 48.7946C75.7116 48.7946 75.7404 48.5929 75.7404 48.2248C75.7404 47.8839 75.7902 47.4006 75.7902 47.0725C75.8704 43.3838 80.5617 44.8064 80.5617 41.7322C80.5617 41.1353 80.0353 40.5639 78.9857 40.5639C77.5413 40.5639 77.477 42.4459 77.477 42.6988C77.477 42.9853 77.3775 43.0717 77.0533 43.0717C76.7581 43.0717 76.1 43.0429 76.1 43.0429C75.9395 43.0429 75.771 42.9564 75.771 42.5628C75.771 40.2295 76.5606 38.6067 79.2489 38.6067C81.4059 38.6051 83.1441 40.2567 83.1441 42.1019Z" fill="white"/>
<path d="M84.919 36.5345C84.3107 36.5345 84.0362 36.5777 83.1792 36.5777C82.559 36.565 81.958 36.3604 81.4595 35.9923C80.9609 35.6242 80.5893 35.1107 80.3962 34.5228C80.7676 34.1964 81.1522 33.8853 81.5502 33.5899C81.6497 33.5146 81.7508 33.4426 81.852 33.3706C81.9193 33.3226 81.9835 33.2762 82.051 33.2313C82.1184 33.1866 82.1521 33.161 82.2018 33.129L82.473 32.9497C82.5757 32.8809 82.6833 32.8136 82.794 32.7481V32.8041C82.794 34.0555 83.7458 34.2444 84.6141 34.2444C85.577 34.2444 85.6909 32.8809 85.6379 31.3238C85.7278 31.2864 85.8177 31.2512 85.9076 31.2182L86.1788 31.1173C86.2784 31.0789 86.3795 31.0437 86.4822 31.0101C86.5849 30.9765 86.6427 30.9525 86.7246 30.9269C87.0006 30.834 87.2766 30.7476 87.5559 30.6692L87.8367 30.5908C87.9057 33.1402 87.2381 36.5345 84.919 36.5345Z" fill="white"/>
<path d="M89.2427 38.7621C88.871 38.6569 88.4865 38.6031 88.1 38.6021C86.0938 38.6021 85.1469 39.5063 84.7987 40.9386C84.8173 40.9886 84.8392 41.0372 84.8644 41.0843C84.8782 41.1075 84.8896 41.1322 84.8981 41.1579C84.8388 41.217 84.7762 41.2731 84.7168 41.3323C84.6301 41.4123 84.5467 41.4924 84.4616 41.582C84.4348 41.6139 84.4007 41.6388 84.3621 41.6547C84.3236 41.6706 84.2817 41.6769 84.2401 41.6732C84.1295 41.6667 84.0185 41.6667 83.9079 41.6732C83.7474 41.6732 83.6672 41.7532 83.6687 41.8797C83.6704 42.006 83.7474 42.0652 83.9063 42.0684C84.2481 42.0684 84.2481 42.0684 84.2546 42.4157C84.2546 42.5757 84.3171 42.6478 84.4424 42.651C84.4784 42.6522 84.5143 42.6443 84.5466 42.6282C84.5788 42.6119 84.6065 42.5878 84.6269 42.5582C84.6387 42.5395 84.6464 42.5187 84.6497 42.497C84.653 42.4752 84.6518 42.453 84.6461 42.4317C84.6371 42.3891 84.6317 42.3457 84.6301 42.3021C84.6301 42.2765 84.6301 42.2525 84.6301 42.2269C84.6478 41.9261 84.8484 41.7228 85.0795 41.5275C85.1117 41.4988 85.1389 41.462 85.1694 41.4315C85.3483 41.5363 85.5485 41.5997 85.7552 41.6172C85.9125 41.6234 86.0695 41.5965 86.2157 41.5383C86.3619 41.4802 86.4943 41.392 86.6042 41.2795C86.6636 41.2234 86.7149 41.1643 86.7647 41.1082C86.8828 40.9363 87.0422 40.7966 87.2283 40.7018C87.4145 40.607 87.6214 40.5603 87.8303 40.5657C88.1899 40.555 88.5454 40.6437 88.8575 40.8218C89.6744 40.5677 90.5056 40.3619 91.3468 40.2056C90.824 39.5066 90.0843 38.9991 89.2427 38.7621ZM86.1292 40.7737C86.1262 40.842 86.0964 40.9063 86.0463 40.9527C85.996 40.9991 85.9295 41.024 85.8611 41.0218C85.7215 41.0218 85.6268 40.9018 85.6172 40.729C85.6131 40.6517 85.6131 40.5742 85.6172 40.4969C85.6172 40.4121 85.6172 40.3289 85.6172 40.2441C85.6134 40.2101 85.6165 40.1758 85.6262 40.1431C85.6359 40.1104 85.6521 40.08 85.6738 40.0536C85.6954 40.0272 85.7222 40.0055 85.7524 39.9895C85.7827 39.9736 85.8158 39.9638 85.8499 39.9608C85.8836 39.957 85.9178 39.9602 85.9504 39.97C85.9829 39.9799 86.0131 39.9963 86.039 40.0181C86.065 40.04 86.0863 40.0669 86.1015 40.0973C86.1167 40.1275 86.1256 40.1606 86.1275 40.1944C86.1546 40.3865 86.1551 40.5815 86.1292 40.7737Z" fill="white"/>
<path d="M83.0943 48.2456C83.0943 48.5657 83.2082 48.785 82.6674 48.785C81.308 48.785 80.3884 48.8426 78.9936 48.8426H78.594C79.081 48.0999 79.6094 47.3851 80.1765 46.7013C80.8682 46.6213 81.5503 46.5316 82.2083 46.61C82.6336 46.6533 83.0268 46.7253 83.0268 46.983C83.0268 47.383 83.0943 48.0232 83.0943 48.2456Z" fill="white"/>
<path d="M91.9536 48.2456C91.9536 48.5656 92.0709 48.7881 91.53 48.7881C90.1674 48.7881 89.2525 48.8425 87.8563 48.8425C87.2352 48.8425 86.4969 48.7993 85.5291 48.7993C84.5613 48.7993 84.5966 48.6009 84.5966 48.2296C84.5966 47.8887 84.6464 47.4055 84.6464 47.0773C84.7009 44.5888 86.8532 44.4272 88.2479 43.6398C88.9188 43.2621 89.4131 42.7388 89.4131 41.737C89.4091 41.5492 89.3558 41.3659 89.2582 41.2052C89.1608 41.0445 89.0226 40.9122 88.8578 40.8216C89.6745 40.5675 90.5058 40.3617 91.347 40.2054C91.7627 40.7557 91.9911 41.4241 91.9986 42.1131C91.9986 45.0721 88.1965 45.2305 87.1837 46.4548C86.9719 46.7109 87.2158 46.7957 87.7375 46.7957C88.8705 46.7957 90.0021 46.4756 91.0677 46.6117C91.493 46.6517 91.8879 46.7237 91.8879 46.9813C91.8894 47.383 91.9536 48.0231 91.9536 48.2456Z" fill="white"/>
</g>
<defs>
<clipPath id="clip0_134_114">
<rect width="92" height="49" fill="white"/>
</clipPath>
</defs>
</svg>
