<svg width="30" height="20" viewBox="0 0 30 20" fill="none" xmlns="http://www.w3.org/2000/svg">
<path d="M2.33333 19.5H27.6667C28.5375 19.5 29.25 18.7875 29.25 17.9167C29.25 17.0458 28.5375 16.3333 27.6667 16.3333H2.33333C1.4625 16.3333 0.75 17.0458 0.75 17.9167C0.75 18.7875 1.4625 19.5 2.33333 19.5ZM2.33333 11.5833H27.6667C28.5375 11.5833 29.25 10.8708 29.25 10C29.25 9.12917 28.5375 8.41667 27.6667 8.41667H2.33333C1.4625 8.41667 0.75 9.12917 0.75 10C0.75 10.8708 1.4625 11.5833 2.33333 11.5833ZM0.75 2.08333C0.75 2.95417 1.4625 3.66667 2.33333 3.66667H27.6667C28.5375 3.66667 29.25 2.95417 29.25 2.08333C29.25 1.2125 28.5375 0.5 27.6667 0.5H2.33333C1.4625 0.5 0.75 1.2125 0.75 2.08333Z" fill="white"/>
</svg>
