<svg width="38" height="38" viewBox="0 0 38 38" fill="none" xmlns="http://www.w3.org/2000/svg">
<path d="M6.33333 28.5H31.6667C32.5375 28.5 33.25 27.7875 33.25 26.9167C33.25 26.0458 32.5375 25.3333 31.6667 25.3333H6.33333C5.4625 25.3333 4.75 26.0458 4.75 26.9167C4.75 27.7875 5.4625 28.5 6.33333 28.5ZM6.33333 20.5833H31.6667C32.5375 20.5833 33.25 19.8708 33.25 19C33.25 18.1292 32.5375 17.4167 31.6667 17.4167H6.33333C5.4625 17.4167 4.75 18.1292 4.75 19C4.75 19.8708 5.4625 20.5833 6.33333 20.5833ZM4.75 11.0833C4.75 11.9542 5.4625 12.6667 6.33333 12.6667H31.6667C32.5375 12.6667 33.25 11.9542 33.25 11.0833C33.25 10.2125 32.5375 9.5 31.6667 9.5H6.33333C5.4625 9.5 4.75 10.2125 4.75 11.0833Z" fill="#047F4D"/>
</svg>
