<svg width="24" height="24" viewBox="0 0 24 24" fill="none" xmlns="http://www.w3.org/2000/svg">
<g clip-path="url(#clip0_6_682)">
<path d="M23.8944 6.76568C23.8552 5.55138 23.5343 4.36284 22.9571 3.29376C22.5253 2.53037 21.9327 1.86993 21.2203 1.3582C20.508 0.846473 19.693 0.495638 18.8317 0.330033C17.8614 0.128021 16.8723 0.030653 15.8812 0.0396023C15.5974 0.0396023 15.3202 0.039604 15.0429 0H9.04295C8.85154 0 8.65351 0.0330355 8.46209 0.0330355C7.43196 0.0263814 6.40305 0.105857 5.38616 0.27065C4.10948 0.488199 2.93243 1.09853 2.01904 2.01666C1.10564 2.93478 0.50142 4.11498 0.290471 5.39277C0.158458 6.09244 0.118851 6.8119 0.0396426 7.52477L0 7.86802V15.9736C0 16.3762 0.0594156 16.7855 0.0924189 17.1881C0.142289 18.3908 0.457892 19.5675 1.01653 20.6337C1.47104 21.4405 2.10075 22.1351 2.85927 22.6662C3.61778 23.1974 4.4858 23.5517 5.39938 23.703C6.57463 23.9195 7.76904 24.0146 8.96375 23.9868C11.3334 23.9868 13.7096 23.9868 16.0792 23.9406C17.1047 23.9541 18.1275 23.8343 19.1221 23.5842C20.2613 23.3104 21.2961 22.7108 22.1002 21.8586C22.9043 21.0065 23.4429 19.9386 23.6502 18.7855C23.8152 18.0214 23.9079 17.2435 23.9274 16.462C24.0264 13.2607 24.0397 10 23.8944 6.76568ZM21.8218 11.6568C21.8218 13.1815 21.8218 14.7129 21.8218 16.2443C21.8079 16.9614 21.7239 17.6755 21.571 18.3763C21.4214 19.2119 21.0046 19.9764 20.3832 20.5549C19.7619 21.1334 18.9696 21.4946 18.1254 21.5842C17.0908 21.7283 16.0478 21.8033 15.0033 21.8086C12.7327 21.8086 10.4555 21.8086 8.18484 21.7756C7.39026 21.7637 6.59791 21.6886 5.81522 21.5512C4.9487 21.4392 4.14347 21.0438 3.52505 20.4266C2.90663 19.8093 2.5097 19.0049 2.39604 18.1386C2.2521 17.3947 2.177 16.639 2.17164 15.8812C2.17164 13.3465 2.17164 10.8053 2.17164 8.27065C2.14659 7.17591 2.29582 6.08414 2.61384 5.03631C2.80971 4.3901 3.17507 3.80813 3.67186 3.35081C4.16865 2.89349 4.77877 2.57748 5.43894 2.43565C6.29143 2.23847 7.16474 2.14539 8.03964 2.15843C9.23436 2.15843 10.429 2.15843 11.6238 2.15843C13.2805 2.15843 14.9241 2.15843 16.5875 2.23763C17.297 2.27173 18.0008 2.38238 18.6865 2.56767C19.4624 2.73745 20.1647 3.14799 20.6934 3.74067C21.222 4.33335 21.55 5.07787 21.6304 5.868C21.7682 6.91869 21.8431 7.97667 21.8548 9.03631C21.8482 9.87459 21.8218 10.7657 21.8218 11.6568V11.6568Z" fill="#4EB8B4"/>
<path d="M12.0133 5.83498C10.7966 5.83237 9.60641 6.1906 8.59331 6.86439C7.5802 7.53819 6.78962 8.49731 6.32159 9.6204C5.85357 10.7435 5.72911 11.9801 5.96392 13.174C6.19873 14.3678 6.78226 15.4652 7.64076 16.3274C8.49925 17.1896 9.59413 17.7779 10.7869 18.0178C11.9798 18.2577 13.217 18.1386 14.3421 17.6753C15.4671 17.2121 16.4296 16.4257 17.1078 15.4155C17.7859 14.4053 18.1492 13.2167 18.1519 12C18.1545 11.1919 17.9977 10.3912 17.6904 9.64377C17.3832 8.89634 16.9315 8.21684 16.3613 7.64419C15.7911 7.07155 15.1136 6.61699 14.3675 6.30654C13.6214 5.99609 12.8214 5.83584 12.0133 5.83498V5.83498ZM11.967 15.9802C11.1864 15.9685 10.4267 15.7263 9.78323 15.2841C9.13981 14.8418 8.64144 14.2193 8.35078 13.4947C8.06011 12.77 7.99005 11.9757 8.1495 11.2114C8.30896 10.4471 8.69076 9.74698 9.24693 9.19904C9.80309 8.65109 10.5088 8.27977 11.2754 8.13171C12.042 7.98365 12.8352 8.06549 13.5554 8.36691C14.2756 8.66833 14.8907 9.17589 15.3233 9.82583C15.7559 10.4758 15.9867 11.239 15.9868 12.0198C15.9869 12.5449 15.8826 13.0648 15.6798 13.5492C15.4771 14.0336 15.18 14.4729 14.8059 14.8414C14.4318 15.21 13.9882 15.5005 13.5009 15.696C13.0135 15.8915 12.4921 15.9881 11.967 15.9802Z" fill="#4EB8B4"/>
<path d="M19.835 5.60399C19.8336 5.88942 19.7474 6.16796 19.5873 6.40426C19.4272 6.64055 19.2004 6.8239 18.9358 6.93097C18.6712 7.03805 18.3808 7.06402 18.1014 7.00558C17.822 6.94714 17.5664 6.80694 17.3669 6.60279C17.1674 6.39865 17.0331 6.13979 16.9811 5.85913C16.9291 5.57847 16.9618 5.28872 17.075 5.02668C17.1881 4.76464 17.3766 4.54216 17.6166 4.38756C17.8565 4.23295 18.137 4.15321 18.4224 4.15845C18.8011 4.16367 19.1624 4.31869 19.4271 4.5896C19.6918 4.86051 19.8385 5.22524 19.835 5.60399V5.60399Z" fill="#4EB8B4"/>
</g>
<defs>
<clipPath id="clip0_6_682">
<rect width="24" height="23.9868" fill="white"/>
</clipPath>
</defs>
</svg>
