<svg width="24" height="24" viewBox="0 0 24 24" fill="none" xmlns="http://www.w3.org/2000/svg">
<path d="M20.4701 2.00002H3.53006C3.33964 1.99737 3.15056 2.03227 2.97362 2.1027C2.79669 2.17314 2.63536 2.27774 2.49886 2.41053C2.36235 2.54332 2.25334 2.7017 2.17805 2.87663C2.10276 3.05155 2.06267 3.2396 2.06006 3.43002V20.57C2.06267 20.7604 2.10276 20.9485 2.17805 21.1234C2.25334 21.2983 2.36235 21.4567 2.49886 21.5895C2.63536 21.7223 2.79669 21.8269 2.97362 21.8973C3.15056 21.9678 3.33964 22.0027 3.53006 22H20.4701C20.6605 22.0027 20.8496 21.9678 21.0265 21.8973C21.2034 21.8269 21.3648 21.7223 21.5013 21.5895C21.6378 21.4567 21.7468 21.2983 21.8221 21.1234C21.8974 20.9485 21.9375 20.7604 21.9401 20.57V3.43002C21.9375 3.2396 21.8974 3.05155 21.8221 2.87663C21.7468 2.7017 21.6378 2.54332 21.5013 2.41053C21.3648 2.27774 21.2034 2.17314 21.0265 2.1027C20.8496 2.03227 20.6605 1.99737 20.4701 2.00002ZM8.09006 18.74H5.09006V9.74002H8.09006V18.74ZM6.59006 8.48002C6.17632 8.48002 5.77953 8.31566 5.48697 8.0231C5.19442 7.73055 5.03006 7.33376 5.03006 6.92002C5.03006 6.50628 5.19442 6.10949 5.48697 5.81693C5.77953 5.52437 6.17632 5.36002 6.59006 5.36002C6.80975 5.3351 7.03224 5.35687 7.24293 5.4239C7.45363 5.49093 7.6478 5.60171 7.81272 5.74898C7.97763 5.89625 8.10958 6.0767 8.19993 6.2785C8.29028 6.4803 8.33698 6.69891 8.33698 6.92002C8.33698 7.14112 8.29028 7.35973 8.19993 7.56154C8.10958 7.76334 7.97763 7.94378 7.81272 8.09106C7.6478 8.23833 7.45363 8.3491 7.24293 8.41613C7.03224 8.48316 6.80975 8.50493 6.59006 8.48002ZM18.9101 18.74H15.9101V13.91C15.9101 12.7 15.4801 11.91 14.3901 11.91C14.0527 11.9125 13.7242 12.0183 13.4489 12.2132C13.1735 12.4081 12.9645 12.6827 12.8501 13C12.7718 13.2351 12.7379 13.4826 12.7501 13.73V18.73H9.75006C9.75006 18.73 9.75006 10.55 9.75006 9.73002H12.7501V11C13.0226 10.5271 13.419 10.1375 13.8965 9.87322C14.374 9.6089 14.9146 9.47987 15.4601 9.50002C17.4601 9.50002 18.9101 10.79 18.9101 13.56V18.74Z" fill="#4EB8B4"/>
</svg>
