<svg width="657" height="139" viewBox="0 0 657 139" fill="none" xmlns="http://www.w3.org/2000/svg">
<path d="M0.0457885 28.935C0.0457885 18.8984 15.0412 10.527 27.9303 10.5156C48.6492 10.5156 68.9559 10.6753 89.4687 10.7095C103.125 10.7095 111.401 18.5563 112.088 32.0943C112.248 35.2079 112.019 38.3329 112.191 41.4351C112.603 48.6432 110.703 54.5625 102.53 57.8015C110.382 60.6871 112.397 66.2984 112.179 73.1872C112.053 77.2588 112.088 81.3533 111.973 85.4363C111.595 98.3242 102.987 104.757 91.7352 104.825C68.0173 104.951 44.803 104.631 20.7646 104.825C9.95877 104.757 0 94.8228 0 85.3109L0.0457885 28.935ZM28.0219 48.8371C44.6657 48.8371 60.6226 48.9169 76.5795 48.8371C82.6922 48.8371 85.0044 46.3507 84.9128 40.8534C84.8098 35.5386 82.303 33.1663 76.2018 33.0979C67.2389 32.9839 58.2645 33.0979 49.3016 33.0979H28.0219V48.8371ZM28.0219 81.3989C28.4912 81.627 28.9949 82.106 29.4986 82.106C45.9248 82.1744 62.3511 82.3227 78.7201 82.163C83.2988 82.163 84.8671 78.8213 84.9128 74.533C84.9586 70.2446 83.0699 67.2793 78.6285 66.9485C73.9696 66.6064 69.2535 66.8231 64.5603 66.8231H27.9303L28.0219 81.3989Z" fill="black"/>
<path d="M656.271 120.519C656.271 132.403 645.774 137.969 629.634 137.969C614.959 137.969 600.296 138.049 585.621 137.969C572.892 137.889 564.65 129.518 564.399 115.934H627.746V104.871H594.172C572.927 104.871 564.25 98.5867 564.147 74.6586C564.204 71.602 564.032 62.1699 564.147 55.9427C564.399 39.7815 574.655 31.2846 591.745 33.6227V82.0606H627.986V34.1588C639.959 30.9881 656.294 37.2268 656.294 48.6319L656.271 120.519Z" fill="black"/>
<path d="M268.692 0V33.4058H298.534V55.3836H268.772V82.3569H298.534V104.871C284.385 104.871 270.329 104.985 256.421 103.924C246.977 103.206 240.487 94.1498 240.498 84.3756C240.498 75.2514 240.498 55.2125 240.498 55.2125C237.259 55.2125 233.092 55.1213 229.177 55.1213V33.4058C232.863 33.4058 236.045 33.4058 240.498 33.4058C240.498 22.3656 242.788 0 257.668 0H268.692Z" fill="black"/>
<path d="M519.618 0V33.4058H549.483V55.3836H519.721V82.3569H549.483V104.871C535.335 104.871 521.278 104.985 507.37 103.924C497.926 103.206 491.436 94.1498 491.447 84.3756C491.447 75.2514 491.447 55.2125 491.447 55.2125C488.208 55.2125 484.041 55.1213 480.126 55.1213V33.4058C483.801 33.4058 486.995 33.4058 491.447 33.4058C491.447 22.3656 493.737 0 508.618 0H519.618Z" fill="black"/>
<path d="M465.772 0.0913086V22.0235H438.185C438.071 13.6635 441.31 7.37923 448.27 2.99964C449.861 1.98457 451.509 1.06075 453.135 0.0913086H465.772Z" fill="black"/>
<path d="M424.975 33.0979H341.711V82.4938H424.678C426.154 94.3096 418.119 104.7 406.191 104.723C381.408 104.723 358.023 104.723 332.931 104.723C321.484 104.723 313.609 95.4045 313.54 83.8738C313.441 66.3859 313.441 48.8675 313.54 31.3187C313.632 19.7767 322.331 10.7894 333.893 10.7894C357.736 10.5955 381.592 10.5613 405.435 10.7894C417.283 10.9148 425.651 20.4724 424.975 33.0979Z" fill="black"/>
<path d="M170.329 104.962C162.316 104.962 154.303 105.076 146.29 104.962C133.596 104.734 124.965 96.1683 124.782 83.5884C124.637 73.8484 124.637 64.1084 124.782 54.3683C124.999 41.8226 133.745 33.2003 146.439 33.0862C162.671 32.9342 178.906 32.9342 195.146 33.0862C207.875 33.2231 216.357 41.8568 216.46 54.5052C216.528 64.2452 216.551 73.9853 216.46 83.7253C216.334 96.1912 208.126 104.483 195.592 104.973C195.191 104.973 194.802 104.973 194.447 104.973L170.329 104.962ZM188.575 81.9575V55.7255H153.09V81.9575H188.575Z" fill="black"/>
<path d="M465.773 33.5884V104.563H438.518V33.5884H465.773Z" fill="black"/>
</svg>
