<?xml version="1.0" encoding="utf-8"?>
<!-- Generator: Adobe Illustrator 25.4.1, SVG Export Plug-In . SVG Version: 6.00 Build 0)  -->
<svg version="1.1" id="Camada_1" xmlns="http://www.w3.org/2000/svg" xmlns:xlink="http://www.w3.org/1999/xlink" x="0px" y="0px"
	 viewBox="0 0 424.7 174" style="enable-background:new 0 0 424.7 174;" xml:space="preserve">
<style type="text/css">
	.st0{fill-rule:evenodd;clip-rule:evenodd;fill:#F59B27;}
	.st1{fill:#7D7B7C;}
</style>
<g>
	<g>
		<path id="logo_3_" class="st0" d="M85.8,105.1C143.1-4.6,353.7,7.5,402.5,118.7c-21.3-64-86.3-94.5-157.3-100.1
			C189.3,14.1,101.6,48.3,85.8,105.1"/>
		<path id="tipo_3_" class="st1" d="M365.1,99.9c0,7.2-4.7,9.8-12.6,9.8c-7.9,0-12.6-2.6-12.6-9.8c0-7.2,4.7-9.8,12.6-9.8
			C360.5,90.1,365.1,92.6,365.1,99.9 M373.8,99.9c0-12.8-7.4-17.1-21.3-17.1c-13.8,0-21.3,4.3-21.3,17.1c0,12.8,7.4,17.1,21.3,17.1
			C366.4,116.9,373.8,112.6,373.8,99.9z M320,99.9c0,7.2-4.7,9.8-12.6,9.8h-12.6V94.5c0-3.2,1.7-4.5,6.5-4.5h6.1
			C315.3,90.1,320,92.6,320,99.9z M328.7,99.9c0-12.8-7.5-17.1-21.3-17.1h-6.1c-10.6,0-15.2,1.9-15.2,11.7v22.4h21.3
			C321.2,116.9,328.7,112.6,328.7,99.9z M274.4,102.4h-25.2v-2.6c0-7.2,4.7-9.8,12.6-9.8c7.9,0,12.6,2.6,12.6,9.8V102.4z
			 M283.1,116.9V99.9c0-12.8-7.4-17.1-21.3-17.1c-13.8,0-21.3,4.3-21.3,17.1v17.1h8.7v-7.2h25.2v7.2H283.1z M228,94.3
			c0,3.2-2.6,4.3-8.7,4.3h-15.2v-4c0-3.2,1.7-4.5,6.5-4.5h8.7C225.3,90.1,228,91.1,228,94.3z M237.9,116.9v-6.6
			c0-4.2-1.2-6.9-3.4-8.7c1.4-1.7,2.1-4.1,2.1-7.3c0-9.8-6.7-11.5-17.4-11.5h-8.7c-10.6,0-15.2,1.9-15.2,11.7v22.4h8.7v-11.1h16.5
			c6.1,0,8.7,1.3,8.7,4.5v6.6H237.9z M183.7,99.9c0,7.2-4.7,9.8-12.6,9.8c-7.9,0-12.6-2.6-12.6-9.8c0-7.2,4.7-9.8,12.6-9.8
			C179,90.1,183.7,92.6,183.7,99.9z M192.4,99.9c0-12.8-7.4-17.1-21.3-17.1c-13.8,0-21.3,4.3-21.3,17.1c0,12.8,7.4,17.1,21.3,17.1
			C184.9,116.9,192.4,112.6,192.4,99.9z M138.5,99.9c0,7.2-4.7,9.8-12.6,9.8h-12.6V94.5c0-3.2,1.7-4.5,6.5-4.5h6.1
			C133.8,90.1,138.5,92.6,138.5,99.9z M147.2,99.9c0-12.8-7.5-17.1-21.3-17.1h-6.1c-10.6,0-15.2,1.9-15.2,11.7v22.4h21.3
			C139.8,116.9,147.2,112.6,147.2,99.9z M101.6,116.9v-7.3H79.5c-4.8,0-6.5-1.3-6.5-4.5V82.8h-8.7v22.4c0,9.8,4.6,11.8,15.2,11.8
			H101.6z M61.2,116.9v-7.3H37.4c-4.5,0-6.5-0.8-6.5-3.6v-0.6h30v-7.3h-30v-3.6c0-3.2,1.7-4.5,6.5-4.5h23.9v-7.3H37.4
			c-10.6,0-15.2,1.9-15.2,11.7v11.5c0,8.6,4.6,10.9,15.2,10.9H61.2z"/>
		<g>
			<g>
				<path class="st1" d="M27.2,151h-1.9v-16h1.9V151z"/>
				<path class="st1" d="M50,151h-2.3l-8.4-12.8c-0.2-0.3-0.4-0.7-0.5-1h-0.1c0.1,0.3,0.1,1.1,0.1,2.2V151h-1.9v-16h2.5l8.1,12.6
					c0.3,0.5,0.6,0.9,0.7,1.1h0c-0.1-0.5-0.1-1.2-0.1-2.4V135H50V151z"/>
				<path class="st1" d="M58.9,150.3v-2.2c0.3,0.2,0.6,0.4,0.9,0.6c0.4,0.2,0.7,0.3,1.1,0.5c0.4,0.1,0.8,0.2,1.2,0.3
					c0.4,0.1,0.8,0.1,1.1,0.1c1.2,0,2-0.2,2.6-0.6c0.6-0.4,0.9-1,0.9-1.8c0-0.4-0.1-0.8-0.3-1.1c-0.2-0.3-0.5-0.6-0.8-0.9
					c-0.3-0.3-0.7-0.5-1.2-0.8c-0.5-0.2-1-0.5-1.5-0.8c-0.6-0.3-1.1-0.6-1.6-0.9c-0.5-0.3-0.9-0.6-1.3-1c-0.4-0.3-0.6-0.7-0.9-1.2
					c-0.2-0.4-0.3-1-0.3-1.6c0-0.7,0.2-1.4,0.5-1.9c0.3-0.5,0.8-1,1.3-1.3c0.5-0.3,1.1-0.6,1.8-0.8c0.7-0.2,1.4-0.3,2.1-0.3
					c1.6,0,2.8,0.2,3.5,0.6v2.1c-1-0.7-2.2-1-3.7-1c-0.4,0-0.8,0-1.2,0.1c-0.4,0.1-0.8,0.2-1.1,0.4c-0.3,0.2-0.6,0.4-0.8,0.7
					c-0.2,0.3-0.3,0.7-0.3,1.1c0,0.4,0.1,0.8,0.2,1.1c0.2,0.3,0.4,0.6,0.7,0.8c0.3,0.2,0.7,0.5,1.1,0.7c0.4,0.2,0.9,0.5,1.5,0.8
					c0.6,0.3,1.1,0.6,1.7,0.9c0.5,0.3,1,0.7,1.4,1c0.4,0.4,0.7,0.8,0.9,1.3c0.2,0.5,0.3,1,0.3,1.6c0,0.8-0.2,1.5-0.5,2
					c-0.3,0.5-0.7,1-1.3,1.3c-0.5,0.3-1.1,0.6-1.8,0.7c-0.7,0.2-1.4,0.2-2.2,0.2c-0.3,0-0.6,0-1-0.1c-0.4,0-0.8-0.1-1.2-0.2
					c-0.4-0.1-0.8-0.2-1.1-0.3C59.4,150.6,59.1,150.5,58.9,150.3z"/>
				<path class="st1" d="M79.3,144.9v6.1h-1.9v-16h4.5c1.7,0,3.1,0.4,4,1.3c1,0.8,1.4,2,1.4,3.5s-0.5,2.8-1.6,3.7
					c-1.1,1-2.5,1.5-4.3,1.5H79.3z M79.3,136.7v6.6h2c1.3,0,2.3-0.3,3-0.9c0.7-0.6,1-1.4,1-2.5c0-2.1-1.3-3.2-3.8-3.2H79.3z"/>
				<path class="st1" d="M97.6,151h-1.9v-16h1.9V151z"/>
				<path class="st1" d="M118.9,151h-2.3l-2.7-4.5c-0.2-0.4-0.5-0.8-0.7-1.1c-0.2-0.3-0.5-0.5-0.7-0.7c-0.2-0.2-0.5-0.3-0.8-0.4
					c-0.3-0.1-0.6-0.1-1-0.1h-1.6v6.8h-1.9v-16h4.8c0.7,0,1.4,0.1,2,0.3c0.6,0.2,1.1,0.4,1.6,0.8c0.4,0.4,0.8,0.8,1,1.3
					c0.2,0.5,0.4,1.2,0.4,1.9c0,0.6-0.1,1.1-0.3,1.5c-0.2,0.5-0.4,0.9-0.7,1.2c-0.3,0.4-0.7,0.7-1.1,0.9c-0.4,0.3-0.9,0.5-1.5,0.6v0
					c0.3,0.1,0.5,0.3,0.7,0.4c0.2,0.2,0.4,0.3,0.6,0.5c0.2,0.2,0.4,0.4,0.5,0.7c0.2,0.3,0.4,0.6,0.6,0.9L118.9,151z M109.2,136.7
					v5.8h2.6c0.5,0,0.9-0.1,1.3-0.2c0.4-0.1,0.8-0.3,1-0.6c0.3-0.3,0.5-0.6,0.7-1c0.2-0.4,0.2-0.8,0.2-1.3c0-0.9-0.3-1.5-0.8-2
					c-0.6-0.5-1.4-0.7-2.4-0.7H109.2z"/>
				<path class="st1" d="M139.1,151H137l-1.7-4.5h-6.9l-1.6,4.5h-2.1l6.2-16h2L139.1,151z M134.7,144.8l-2.5-6.8
					c-0.1-0.2-0.2-0.6-0.2-1.1h0c-0.1,0.5-0.2,0.8-0.3,1.1l-2.5,6.8H134.7z"/>
				<path class="st1" d="M157.4,150.3c-1.2,0.6-2.7,0.9-4.5,0.9c-2.3,0-4.2-0.7-5.6-2.2c-1.4-1.5-2.1-3.4-2.1-5.8
					c0-2.6,0.8-4.6,2.3-6.2c1.6-1.6,3.5-2.4,5.9-2.4c1.5,0,2.8,0.2,3.8,0.7v2c-1.2-0.6-2.4-1-3.9-1c-1.9,0-3.4,0.6-4.5,1.8
					c-1.2,1.2-1.7,2.9-1.7,4.9c0,2,0.5,3.5,1.6,4.7c1.1,1.2,2.5,1.7,4.3,1.7c1.6,0,3-0.4,4.2-1.1V150.3z M155.1,153.8
					c0,1.3-1,2-3.1,2c-0.3,0-0.5,0-0.7,0v-1c0.3,0,0.6,0.1,0.8,0.1c1.1,0,1.6-0.3,1.6-1c0-0.6-0.5-0.9-1.5-0.9c-0.1,0-0.2,0-0.5,0
					v-2h1.2v1.2c0.7,0,1.2,0.1,1.6,0.4C154.9,152.9,155.1,153.3,155.1,153.8z"/>
				<path class="st1" d="M178.6,151h-2.1l-1.7-4.5h-6.9l-1.6,4.5h-2.1l6.2-16h2L178.6,151z M175,130.8c0,0.8-0.2,1.4-0.5,1.9
					c-0.4,0.5-0.9,0.7-1.5,0.7c-0.5,0-1.1-0.2-1.8-0.6c-0.6-0.3-1-0.5-1.3-0.5c-0.7,0-1,0.4-1,1.3h-1.1c0-0.8,0.2-1.4,0.5-1.9
					c0.4-0.5,0.9-0.7,1.5-0.7c0.5,0,1.1,0.2,1.7,0.6c0.6,0.3,1,0.5,1.5,0.5c0.6,0,1-0.4,1-1.3H175z M174.2,144.8l-2.5-6.8
					c-0.1-0.2-0.2-0.6-0.2-1.1h0c-0.1,0.5-0.2,0.8-0.3,1.1l-2.5,6.8H174.2z"/>
				<path class="st1" d="M192.5,151.2c-2.3,0-4.1-0.7-5.5-2.2c-1.4-1.5-2.1-3.4-2.1-5.8c0-2.6,0.7-4.6,2.1-6.2
					c1.4-1.5,3.3-2.3,5.8-2.3c2.2,0,4.1,0.7,5.4,2.2c1.4,1.5,2.1,3.4,2.1,5.8c0,2.6-0.7,4.7-2.1,6.2S194.9,151.2,192.5,151.2z
					 M192.7,136.4c-1.7,0-3.1,0.6-4.2,1.8c-1.1,1.2-1.6,2.8-1.6,4.8c0,2,0.5,3.6,1.6,4.8c1,1.2,2.4,1.8,4.1,1.8
					c1.8,0,3.2-0.6,4.2-1.7c1-1.1,1.5-2.8,1.5-4.8c0-2.1-0.5-3.7-1.5-4.9C195.8,137,194.4,136.4,192.7,136.4z"/>
				<path class="st1" d="M230.7,144.9v6.1h-1.9v-16h4.5c1.7,0,3.1,0.4,4,1.3c1,0.8,1.4,2,1.4,3.5s-0.5,2.8-1.6,3.7
					c-1.1,1-2.5,1.5-4.3,1.5H230.7z M230.7,136.7v6.6h2c1.3,0,2.3-0.3,3-0.9c0.7-0.6,1-1.4,1-2.5c0-2.1-1.3-3.2-3.8-3.2H230.7z"/>
				<path class="st1" d="M255.7,151h-8.6v-16h8.2v1.7H249v5.3h5.9v1.7H249v5.6h6.7V151z"/>
				<path class="st1" d="M272.5,151h-8.4v-16h1.9v14.3h6.5V151z"/>
				<path class="st1" d="M286.1,151.2c-2.3,0-4.1-0.7-5.5-2.2c-1.4-1.5-2.1-3.4-2.1-5.8c0-2.6,0.7-4.6,2.1-6.2
					c1.4-1.5,3.3-2.3,5.8-2.3c2.2,0,4.1,0.7,5.4,2.2c1.4,1.5,2.1,3.4,2.1,5.8c0,2.6-0.7,4.7-2.1,6.2S288.4,151.2,286.1,151.2z
					 M286.2,136.4c-1.7,0-3.1,0.6-4.2,1.8c-1.1,1.2-1.6,2.8-1.6,4.8c0,2,0.5,3.6,1.6,4.8c1,1.2,2.4,1.8,4.1,1.8
					c1.8,0,3.2-0.6,4.2-1.7c1-1.1,1.5-2.8,1.5-4.8c0-2.1-0.5-3.7-1.5-4.9C289.3,137,288,136.4,286.2,136.4z"/>
				<path class="st1" d="M335.5,151h-2.3l-8.4-12.8c-0.2-0.3-0.4-0.7-0.5-1h-0.1c0.1,0.3,0.1,1.1,0.1,2.2V151h-1.9v-16h2.5l8.1,12.6
					c0.3,0.5,0.6,0.9,0.7,1.1h0c-0.1-0.5-0.1-1.2-0.1-2.4V135h1.9V151z"/>
				<path class="st1" d="M351.7,151.2c-2.3,0-4.1-0.7-5.5-2.2c-1.4-1.5-2.1-3.4-2.1-5.8c0-2.6,0.7-4.6,2.1-6.2
					c1.4-1.5,3.3-2.3,5.8-2.3c2.2,0,4.1,0.7,5.4,2.2c1.4,1.5,2.1,3.4,2.1,5.8c0,2.6-0.7,4.7-2.1,6.2S354,151.2,351.7,151.2z
					 M351.8,136.4c-1.7,0-3.1,0.6-4.2,1.8c-1.1,1.2-1.6,2.8-1.6,4.8c0,2,0.5,3.6,1.6,4.8c1,1.2,2.4,1.8,4.1,1.8
					c1.8,0,3.2-0.6,4.2-1.7c1-1.1,1.5-2.8,1.5-4.8c0-2.1-0.5-3.7-1.5-4.9C354.9,137,353.6,136.4,351.8,136.4z"/>
				<path class="st1" d="M380.2,135l-6,16H372l-5.9-16h2.1l4.5,12.7c0.1,0.4,0.3,0.9,0.3,1.4h0c0.1-0.4,0.2-0.9,0.4-1.4l4.6-12.7
					H380.2z"/>
				<path class="st1" d="M394.1,151.2c-2.3,0-4.1-0.7-5.5-2.2c-1.4-1.5-2.1-3.4-2.1-5.8c0-2.6,0.7-4.6,2.1-6.2
					c1.4-1.5,3.3-2.3,5.8-2.3c2.2,0,4.1,0.7,5.4,2.2c1.4,1.5,2.1,3.4,2.1,5.8c0,2.6-0.7,4.7-2.1,6.2
					C398.4,150.5,396.5,151.2,394.1,151.2z M394.3,136.4c-1.7,0-3.1,0.6-4.2,1.8c-1.1,1.2-1.6,2.8-1.6,4.8c0,2,0.5,3.6,1.6,4.8
					c1,1.2,2.4,1.8,4.1,1.8c1.8,0,3.2-0.6,4.2-1.7c1-1.1,1.5-2.8,1.5-4.8c0-2.1-0.5-3.7-1.5-4.9C397.4,137,396,136.4,394.3,136.4z"
					/>
			</g>
		</g>
	</g>
</g>
</svg>
