<?xml version="1.0" encoding="UTF-8" standalone="no"?>
<svg
   xmlns:dc="http://purl.org/dc/elements/1.1/"
   xmlns:cc="http://creativecommons.org/ns#"
   xmlns:rdf="http://www.w3.org/1999/02/22-rdf-syntax-ns#"
   xmlns:svg="http://www.w3.org/2000/svg"
   xmlns="http://www.w3.org/2000/svg"
   xmlns:sodipodi="http://sodipodi.sourceforge.net/DTD/sodipodi-0.dtd"
   xmlns:inkscape="http://www.inkscape.org/namespaces/inkscape"
   version="1.1"
   width="600"
   height="200"
   viewBox="0 0 449.99999 150"
   id="svg34"
   sodipodi:docname="jusbrasil.svg"
   inkscape:version="0.92.3 (2405546, 2018-03-11)">
  <metadata
     id="metadata40">
    <rdf:RDF>
      <cc:Work
         rdf:about="">
        <dc:format>image/svg+xml</dc:format>
        <dc:type
           rdf:resource="http://purl.org/dc/dcmitype/StillImage" />
        <dc:title></dc:title>
      </cc:Work>
    </rdf:RDF>
  </metadata>
  <defs
     id="defs38" />
  <sodipodi:namedview
     pagecolor="#ffffff"
     bordercolor="#666666"
     borderopacity="1"
     objecttolerance="10"
     gridtolerance="10"
     guidetolerance="10"
     inkscape:pageopacity="0"
     inkscape:pageshadow="2"
     inkscape:window-width="1920"
     inkscape:window-height="1016"
     id="namedview36"
     showgrid="false"
     units="px"
     inkscape:zoom="1.1893643"
     inkscape:cx="569.78722"
     inkscape:cy="241.48731"
     inkscape:window-x="0"
     inkscape:window-y="0"
     inkscape:window-maximized="1"
     inkscape:current-layer="svg34" />
  <g
     id="g32"
     style="enable-background:new"
     transform="matrix(0.92016573,0,0,0.92016573,-161.13133,-200.71461)">
    <g
       id="Layer-1"
       data-name="marca+arejamento">
      <clipPath
         id="cp0">
        <path
           transform="matrix(1,0,0,-1,0,595.276)"
           d="M 0,595.276 H 841.89 V 0 H 0 Z"
           id="path2"
           inkscape:connector-curvature="0" />
      </clipPath>
      <g
         clip-path="url(#cp0)"
         id="g29">
        <path
           transform="matrix(1,0,0,-1,287.9331,332.1693)"
           d="M 0,0 V 8.158 C 4.132,5.262 8.582,3.814 13.35,3.814 c 4.906,0 8.448,1.209 10.619,3.628 2.173,2.419 3.258,6.383 3.258,11.893 v 52.569 h 7.84 V 18.699 C 35.067,14.284 34.449,10.516 33.213,7.39 31.976,4.265 30.29,1.942 28.155,0.425 26.018,-1.095 23.828,-2.171 21.586,-2.807 19.343,-3.442 16.933,-3.76 14.355,-3.76 9.164,-3.76 4.379,-2.507 0,0"
           id="path5"
           inkscape:connector-curvature="0"
           style="fill:#504b50" />
        <path
           transform="matrix(1,0,0,-1,338.6499,312.3051)"
           d="M 0,0 V 31.359 H 7.839 V -0.354 c 0,-5.497 1.199,-9.522 3.597,-12.077 2.396,-2.554 6.15,-3.831 11.262,-3.831 5.041,0 8.777,1.277 11.21,3.831 2.432,2.555 3.648,6.58 3.648,12.077 v 31.713 h 7.84 V 0 c 0,-7.521 -1.977,-13.34 -5.93,-17.453 -3.953,-4.114 -9.542,-6.171 -16.768,-6.171 -7.228,0 -12.817,2.057 -16.77,6.171 C 1.975,-13.34 0,-7.521 0,0"
           id="path7"
           inkscape:connector-curvature="0"
           style="fill:#504b50" />
        <path
           transform="matrix(1,0,0,-1,393.2231,295.6405)"
           d="m 0,0 c 0,4.32 1.58,8.008 4.741,11.064 3.159,3.056 7.989,4.584 14.487,4.584 4.626,0 9.251,-1.097 13.879,-3.29 V 4.567 C 28.975,7.045 24.631,8.285 20.076,8.285 11.918,8.285 7.84,5.523 7.84,0 c 0,-1.877 0.988,-3.391 2.966,-4.542 1.977,-1.15 4.396,-2.106 7.257,-2.868 2.861,-0.761 5.721,-1.672 8.582,-2.734 2.859,-1.063 5.287,-2.859 7.282,-5.391 1.995,-2.531 2.993,-5.762 2.993,-9.691 0,-4.703 -1.757,-8.39 -5.27,-11.059 -3.514,-2.671 -8.379,-4.004 -14.594,-4.004 -6.004,0 -11.459,1.359 -16.368,4.079 v 8.275 c 5.192,-3.186 10.541,-4.779 16.051,-4.779 8.227,0 12.342,2.495 12.342,7.488 0,2.69 -0.99,4.797 -2.966,6.319 -1.979,1.523 -4.398,2.664 -7.257,3.426 -2.861,0.761 -5.721,1.593 -8.582,2.496 -2.86,0.902 -5.288,2.426 -7.284,4.568 C 0.997,-6.275 0,-3.469 0,0"
           id="path9"
           inkscape:connector-curvature="0"
           style="fill:#504b50" />
        <path
           transform="matrix(1,0,0,-1,447.3701,319.268)"
           d="m 0,0 c 0.034,-6.341 4.812,-9.511 14.329,-9.511 2.01,0 3.824,0.229 5.447,0.687 1.621,0.458 3.305,1.356 5.05,2.694 1.744,1.339 3.102,3.54 4.072,6.605 0.968,3.064 1.454,6.869 1.454,11.413 0,7.008 -1.34,12.098 -4.02,15.268 -2.678,3.171 -7.015,4.757 -13.008,4.757 -4.476,0 -8.918,-0.9 -13.324,-2.696 z M -7.84,0.437 V 59.002 H 0 v -21.93 c 4.335,1.468 8.777,2.203 13.324,2.203 2.475,0 4.799,-0.212 6.974,-0.637 2.173,-0.425 4.382,-1.256 6.627,-2.494 2.244,-1.239 4.179,-2.831 5.805,-4.777 1.625,-1.947 2.944,-4.591 3.951,-7.935 1.007,-3.344 1.51,-7.193 1.51,-11.544 0,-4.759 -0.556,-8.927 -1.67,-12.504 -1.114,-3.578 -2.484,-6.354 -4.109,-8.327 -1.627,-1.974 -3.58,-3.578 -5.859,-4.811 -2.282,-1.233 -4.384,-2.026 -6.311,-2.379 -1.928,-0.352 -3.897,-0.528 -5.913,-0.528 -3.924,0 -7.336,0.485 -10.236,1.455 -2.9,0.971 -5.072,2.091 -6.523,3.361 -1.451,1.271 -2.626,2.788 -3.527,4.553 -0.902,1.765 -1.44,3.221 -1.618,4.368 -0.178,1.147 -0.265,2.268 -0.265,3.361"
           id="path11"
           inkscape:connector-curvature="0"
           style="fill:#504b50" />
        <path
           transform="matrix(1,0,0,-1,494.7334,334.9799)"
           d="m 0,0 0.002,49.764 c 8.158,3.411 16.916,5.117 26.274,5.117 V 47.519 C 20.36,47.376 14.215,46.438 7.842,44.705 L 7.84,0 Z"
           id="path13"
           inkscape:connector-curvature="0"
           style="fill:#504b50" />
        <path
           transform="matrix(1,0,0,-1,534.709,318.44963)"
           d="m 0,0 c 0,-6.745 4.9,-10.117 14.7,-10.117 h 0.158 c 9.588,0 14.382,3.266 14.382,9.802 V 10.064 C 26.844,10.488 23.636,10.7 19.617,10.7 6.539,10.7 0,7.133 0,0 m -7.838,0 c 0,2.434 0.449,4.614 1.351,6.544 0.899,1.928 2.003,3.493 3.309,4.691 1.307,1.2 2.967,2.226 4.98,3.077 2.013,0.852 3.796,1.477 5.349,1.877 1.555,0.4 3.4,0.705 5.537,0.914 2.135,0.208 3.654,0.33 4.555,0.365 0.9,0.035 1.968,0.053 3.204,0.053 l 8.689,-0.517 c 0,4.913 -1.331,8.42 -3.993,10.518 -2.662,2.099 -6.601,3.148 -11.818,3.148 -5.859,0 -11.136,-0.865 -15.831,-2.595 v 7.575 c 5.329,1.871 10.748,2.807 16.255,2.807 7.583,0 13.366,-1.916 17.352,-5.747 3.986,-3.833 5.979,-9.439 5.979,-16.818 V -0.37 c 0,-3.462 -0.803,-6.419 -2.407,-8.873 -1.606,-2.455 -3.668,-4.23 -6.19,-5.323 -2.524,-1.095 -4.886,-1.855 -7.091,-2.279 -2.205,-0.424 -4.382,-0.634 -6.534,-0.634 -1.662,0 -3.368,0.106 -5.118,0.318 -1.75,0.212 -3.729,0.698 -5.939,1.46 -2.21,0.762 -4.128,1.736 -5.753,2.923 -1.627,1.187 -3.015,2.886 -4.164,5.1 -1.149,2.214 -1.722,4.774 -1.722,7.678"
           id="path15"
           inkscape:connector-curvature="0"
           style="fill:#504b50" />
        <path
           transform="matrix(1,0,0,-1,581.1094,295.6405)"
           d="m 0,0 c 0,4.32 1.579,8.008 4.741,11.064 3.159,3.056 7.988,4.584 14.487,4.584 4.626,0 9.251,-1.097 13.878,-3.29 V 4.567 C 28.975,7.045 24.631,8.285 20.075,8.285 11.917,8.285 7.84,5.523 7.84,0 c 0,-1.877 0.988,-3.391 2.966,-4.542 1.977,-1.15 4.396,-2.106 7.256,-2.868 2.862,-0.761 5.721,-1.672 8.583,-2.734 2.859,-1.063 5.287,-2.859 7.282,-5.391 1.995,-2.531 2.993,-5.762 2.993,-9.691 0,-4.703 -1.757,-8.39 -5.271,-11.059 -3.513,-2.671 -8.378,-4.004 -14.593,-4.004 -6.004,0 -11.459,1.359 -16.368,4.079 v 8.275 c 5.192,-3.186 10.541,-4.779 16.05,-4.779 8.228,0 12.342,2.495 12.342,7.488 0,2.69 -0.989,4.797 -2.966,6.319 -1.978,1.523 -4.397,2.664 -7.257,3.426 -2.861,0.761 -5.72,1.593 -8.581,2.496 -2.861,0.902 -5.289,2.426 -7.284,4.568 C 0.997,-6.275 0,-3.469 0,0"
           id="path17"
           inkscape:connector-curvature="0"
           style="fill:#504b50" />
        <path
           transform="matrix(1,0,0,-1,0,595.276)"
           d="m 627.35,260.296 h 7.83899 V 314.33 H 627.35 Z m 0,74.715 h 7.83899 v -8.688 H 627.35 Z"
           id="path19"
           inkscape:connector-curvature="0"
           style="fill:#504b50" />
        <path
           transform="matrix(1,0,0,-1,0,595.276)"
           d="m 646.713,335.011 h 7.84007 V 260.296 H 646.713 Z"
           id="path21"
           inkscape:connector-curvature="0"
           style="fill:#504b50" />
        <path
           transform="matrix(1,0,0,-1,193.7031,334.2279)"
           d="m 0,0 v 0 c -6.087,3.501 -8.173,11.257 -4.659,17.321 l 29.697,51.248 c 3.514,6.066 11.298,8.143 17.385,4.642 6.087,-3.502 8.173,-11.257 4.659,-17.322 L 17.385,4.641 C 13.871,-1.424 6.087,-3.502 0,0"
           id="path23"
           inkscape:connector-curvature="0"
           style="fill:#ffcc00" />
        <path
           transform="matrix(1,0,0,-1,265.7861,334.2592)"
           d="m 0,0 v 0 c -6.087,-3.502 -13.871,-1.424 -17.385,4.642 l -29.697,51.247 c -3.514,6.065 -1.428,13.82 4.659,17.322 6.087,3.502 13.871,1.424 17.385,-4.641 L 4.659,17.321 C 8.173,11.257 6.087,3.501 0,0"
           id="path25"
           inkscape:connector-curvature="0"
           style="fill:#388cc8" />
        <path
           transform="matrix(1,0,0,-1,240.2632,264.8393)"
           d="m 0,0 c -0.083,0.122 -0.163,0.247 -0.25,0.366 -0.153,0.207 -0.317,0.401 -0.48,0.596 -0.109,0.131 -0.213,0.266 -0.329,0.392 -0.144,0.16 -0.298,0.307 -0.449,0.458 -0.151,0.149 -0.297,0.302 -0.456,0.445 -0.128,0.116 -0.264,0.22 -0.397,0.33 C -2.556,2.749 -2.75,2.911 -2.956,3.062 -3.077,3.15 -3.203,3.23 -3.327,3.314 -3.554,3.468 -3.782,3.62 -4.021,3.761 -4.16,3.843 -4.303,3.917 -4.445,3.993 -4.668,4.113 -4.893,4.231 -5.121,4.337 -5.301,4.421 -5.484,4.496 -5.668,4.571 -5.859,4.65 -6.051,4.727 -6.244,4.795 -6.461,4.872 -6.68,4.939 -6.9,5.004 -7.068,5.054 -7.237,5.103 -7.406,5.145 -7.641,5.204 -7.878,5.253 -8.116,5.298 -8.282,5.33 -8.449,5.36 -8.616,5.385 -8.847,5.42 -9.079,5.446 -9.312,5.468 -9.497,5.485 -9.681,5.5 -9.866,5.509 c -0.21,0.011 -0.421,0.014 -0.632,0.014 -0.211,0 -0.422,-0.003 -0.632,-0.014 C -11.315,5.5 -11.5,5.485 -11.684,5.468 -11.917,5.446 -12.149,5.42 -12.38,5.385 -12.547,5.36 -12.714,5.33 -12.88,5.298 c -0.238,-0.045 -0.475,-0.094 -0.71,-0.153 -0.169,-0.042 -0.337,-0.091 -0.506,-0.141 -0.22,-0.065 -0.439,-0.132 -0.656,-0.209 -0.193,-0.068 -0.385,-0.145 -0.576,-0.224 -0.183,-0.075 -0.367,-0.15 -0.547,-0.234 -0.228,-0.106 -0.452,-0.224 -0.676,-0.344 -0.142,-0.076 -0.285,-0.15 -0.424,-0.232 -0.239,-0.141 -0.468,-0.293 -0.694,-0.448 -0.124,-0.084 -0.25,-0.163 -0.371,-0.251 -0.207,-0.151 -0.401,-0.314 -0.596,-0.476 -0.133,-0.109 -0.268,-0.214 -0.396,-0.329 -0.159,-0.143 -0.306,-0.296 -0.456,-0.446 -0.151,-0.15 -0.305,-0.297 -0.449,-0.456 -0.115,-0.127 -0.22,-0.262 -0.329,-0.393 -0.163,-0.195 -0.327,-0.389 -0.48,-0.596 -0.087,-0.119 -0.167,-0.244 -0.25,-0.366 -0.155,-0.227 -0.309,-0.456 -0.451,-0.695 -2.257,-3.811 -2.452,-8.687 -0.073,-12.793 l 11.022,-19.021 11.022,19.021 C 2.903,-9.382 2.708,-4.506 0.451,-0.695 0.309,-0.456 0.155,-0.227 0,0"
           id="path27"
           inkscape:connector-curvature="0"
           style="fill:#78b441" />
      </g>
    </g>
  </g>
</svg>
