<?xml version="1.0" encoding="UTF-8" standalone="no"?>
<svg
   xmlns:dc="http://purl.org/dc/elements/1.1/"
   xmlns:cc="http://creativecommons.org/ns#"
   xmlns:rdf="http://www.w3.org/1999/02/22-rdf-syntax-ns#"
   xmlns:svg="http://www.w3.org/2000/svg"
   xmlns="http://www.w3.org/2000/svg"
   xmlns:sodipodi="http://sodipodi.sourceforge.net/DTD/sodipodi-0.dtd"
   xmlns:inkscape="http://www.inkscape.org/namespaces/inkscape"
   id="a7b87b8f-1c74-43d2-a089-4b3a49a5e9da"
   data-name="Layer 1"
   viewBox="0 0 400 100"
   version="1.1"
   sodipodi:docname="packt.svg"
   width="400"
   height="100"
   inkscape:version="0.92.5 (2060ec1f9f, 2020-04-08)">
  <metadata
     id="metadata25">
    <rdf:RDF>
      <cc:Work
         rdf:about="">
        <dc:format>image/svg+xml</dc:format>
        <dc:type
           rdf:resource="http://purl.org/dc/dcmitype/StillImage" />
        <dc:title></dc:title>
      </cc:Work>
    </rdf:RDF>
  </metadata>
  <sodipodi:namedview
     pagecolor="#ffffff"
     bordercolor="#666666"
     borderopacity="1"
     objecttolerance="10"
     gridtolerance="10"
     guidetolerance="10"
     inkscape:pageopacity="0"
     inkscape:pageshadow="2"
     inkscape:window-width="1920"
     inkscape:window-height="1007"
     id="namedview23"
     showgrid="false"
     inkscape:zoom="1.0161054"
     inkscape:cx="319.14992"
     inkscape:cy="126.18354"
     inkscape:window-x="0"
     inkscape:window-y="0"
     inkscape:window-maximized="1"
     inkscape:current-layer="a7b87b8f-1c74-43d2-a089-4b3a49a5e9da" />
  <defs
     id="defs4">
    <style
       id="style2">.e8f5c8e4-4557-44f0-9f06-04858b2208f1{fill:#f97141;}</style>
  </defs>
  <g
     id="g3738"
     transform="matrix(0.43208557,0,0,0.43208557,-94.839945,172.50489)">
    <polygon
       transform="translate(0,-668)"
       style="fill:#f97141"
       id="polygon6"
       points="1011.89,321.4 1064.02,384.47 1011.89,447.53 1052.67,447.53 1101.5,384.47 1052.67,321.4 "
       class="e8f5c8e4-4557-44f0-9f06-04858b2208f1" />
    <polygon
       transform="translate(0,-668)"
       style="fill:#f97141"
       id="polygon8"
       points="908.62,321.4 856.49,384.47 908.62,447.53 867.84,447.53 819.01,384.47 867.84,321.4 "
       class="e8f5c8e4-4557-44f0-9f06-04858b2208f1" />
    <polygon
       transform="translate(0,-668)"
       style="fill:#f97141"
       id="polygon10"
       points="354.11,321.4 301.98,384.47 354.11,447.53 313.33,447.53 264.5,384.47 313.33,321.4 "
       class="e8f5c8e4-4557-44f0-9f06-04858b2208f1" />
    <path
       style="fill:#f97141"
       inkscape:connector-curvature="0"
       id="path12"
       d="m 604.93,-334.37 a 44.69,44.69 0 0 0 -12.28,-9.16 52.45,52.45 0 0 0 -24.28,-5.47 57.51,57.51 0 0 0 -31.07,8.62 60,60 0 0 0 -21.68,23.5 q -7.83,14.88 -7.83,33.69 a 70.66,70.66 0 0 0 7.83,33.42 60,60 0 0 0 21.68,23.5 57.51,57.51 0 0 0 31.07,8.62 51.53,51.53 0 0 0 24.28,-5.61 46.36,46.36 0 0 0 12.28,-9.23 v 12.23 h 34 v -126.15 h -34 z m -7,75.57 q -8.88,9.54 -23.24,9.53 a 31.59,31.59 0 0 1 -16.58,-4.3 29.88,29.88 0 0 1 -11.23,-12 37.84,37.84 0 0 1 -4.05,-17.88 37.33,37.33 0 0 1 4.05,-17.63 29.86,29.86 0 0 1 11.23,-12 31.59,31.59 0 0 1 16.58,-4.31 32.13,32.13 0 0 1 16.84,4.31 29.93,29.93 0 0 1 11.23,12 37.33,37.33 0 0 1 4,17.63 q 0,15.12 -8.88,24.65 z"
       class="e8f5c8e4-4557-44f0-9f06-04858b2208f1" />
    <path
       style="fill:#f97141"
       inkscape:connector-curvature="0"
       id="path14"
       d="m 740.32,-252.53 a 38.65,38.65 0 0 1 -15.53,3 32.94,32.94 0 0 1 -16.85,-4.31 31.11,31.11 0 0 1 -11.75,-12 35.49,35.49 0 0 1 -4.31,-17.62 34.61,34.61 0 0 1 4.31,-17.63 31.69,31.69 0 0 1 11.75,-11.75 33,33 0 0 1 16.85,-4.31 39.56,39.56 0 0 1 15.27,2.87 32.81,32.81 0 0 1 11.88,8.36 l 21.94,-22.2 a 62.35,62.35 0 0 0 -21.68,-15.66 67.54,67.54 0 0 0 -27.41,-5.49 69.29,69.29 0 0 0 -34.6,8.75 65,65 0 0 0 -24.42,23.63 q -8.88,14.88 -8.88,33.69 a 63.83,63.83 0 0 0 33.17,56.92 q 15.41,8.63 34.73,8.62 a 67.7,67.7 0 0 0 27.41,-5.48 66.19,66.19 0 0 0 22.2,-15.93 l -22.2,-22.2 a 32.67,32.67 0 0 1 -11.88,8.74 z"
       class="e8f5c8e4-4557-44f0-9f06-04858b2208f1" />
    <polyline
       transform="translate(0,-668)"
       style="fill:#f97141"
       id="polyline16"
       points="822.03 382.42 822.03 278.56 787.82 278.56 787.82 447.72 822.03 447.72 822.03 389.18"
       class="e8f5c8e4-4557-44f0-9f06-04858b2208f1" />
    <polygon
       transform="translate(0,-668)"
       style="fill:#f97141"
       id="polygon18"
       points="977.97,447.37 977.97,351.27 1007.48,351.27 1007.48,321.24 977.97,321.24 977.97,277.97 943.76,277.97 943.76,321.24 914.26,321.24 914.26,351.27 943.76,351.27 943.76,447.37 "
       class="e8f5c8e4-4557-44f0-9f06-04858b2208f1" />
    <path
       style="fill:#f97141"
       inkscape:connector-curvature="0"
       id="path20"
       d="m 464.37,-339.82 a 58,58 0 0 0 -31.37,-8.62 51.4,51.4 0 0 0 -24.41,5.74 49.37,49.37 0 0 0 -11.36,8.24 V -346.6 H 363.05 V -178 H 397 v -52.85 a 47.79,47.79 0 0 0 11.49,8.14 53.09,53.09 0 0 0 24.51,5.62 58,58 0 0 0 31.34,-8.62 61,61 0 0 0 21.8,-23.5 69.7,69.7 0 0 0 8,-33.43 q 0,-18.8 -8,-33.68 a 61,61 0 0 0 -21.77,-23.5 z M 455.1,-265 a 29.63,29.63 0 0 1 -11.36,12 32.25,32.25 0 0 1 -16.74,4.31 31.5,31.5 0 0 1 -16.55,-4.31 29.79,29.79 0 0 1 -11.23,-12 37.88,37.88 0 0 1 -4.05,-17.89 37.29,37.29 0 0 1 4.05,-17.62 29.5,29.5 0 0 1 11.36,-12 31.69,31.69 0 0 1 16.42,-4.33 32.25,32.25 0 0 1 16.71,4.31 29.63,29.63 0 0 1 11.36,12 37.29,37.29 0 0 1 4,17.62 37.88,37.88 0 0 1 -3.97,17.91 z"
       class="e8f5c8e4-4557-44f0-9f06-04858b2208f1" />
  </g>
</svg>
