<svg width="520" height="279" viewBox="0 0 520 279" fill="none" xmlns="http://www.w3.org/2000/svg">
<g clip-path="url(#clip0_6_236)">
<path d="M59.7826 8.20027C53.8679 3.41484 46.293 0.672516 37.4208 0.672516C14.805 0.672516 13.5441 1.21735 9.02637 1.21735C4.87152 1.21735 1.2519 4.29565 1.2519 9.38982V67.2963C1.2519 73.8978 0.789246 91.3233 0.417305 105.189C0.190512 114.152 0 121.625 0 123.759C0 127.01 2.15907 130.633 9.07172 130.633C15.7666 130.633 27.1517 130.088 29.3198 130.088C31.6694 130.088 31.8599 125.548 31.1341 120.099C30.7985 117.094 30.5354 106.106 30.3812 97.4799C30.2723 92.1133 30.2179 87.6639 30.2179 86.5833C30.2179 83.5232 32.9394 82.043 35.2799 82.043C50.2845 82.043 74.1522 76.2588 74.1522 42.2341C74.1069 27.8142 68.9269 15.5737 59.7826 8.20027ZM30.0002 59.487C24.2124 59.487 24.3939 55.3191 24.3939 51.1511C24.3939 48.9355 24.793 42.7517 25.1377 37.7301C25.4189 33.7619 25.673 30.5293 25.673 30.5293C25.673 26.8971 26.5802 21.4942 30.2088 21.4942C34.8408 21.3792 39.4391 22.3103 43.6622 24.2183C49.6404 27.0968 53.3417 32.3908 53.3417 40.1637C53.3054 50.9786 45.3586 59.487 30.0002 59.487Z" fill="white"/>
<path d="M155.517 29.0855H147.933C142.49 29.0855 142.145 37.9481 142.145 41.3987C142.145 49.5711 139.786 65.0988 139.786 72.6901C139.798 76.0839 139.427 79.4682 138.679 82.7786C136.929 90.3336 132.955 96.9896 125.879 99.4141C123.9 100.076 121.824 100.404 119.738 100.386C104.543 100.386 104.18 89.8886 104.18 83.732C104.18 77.5754 103.472 69.2668 104.352 62.3928C104.969 58.0614 104.806 46.4202 104.742 38.7835C104.742 37.4486 104.742 36.2409 104.742 35.2148C104.742 31.0469 101.676 27.2512 94.8086 27.2512C87.2065 27.6144 83.4054 26.8971 83.4054 33.0355C83.4054 40.2999 82.4983 52.9582 81.709 65.5347C80.9924 76.4313 80.321 87.3279 80.321 94.5923C80.321 104.962 85.2833 118.302 105.531 119.491C106.502 119.555 107.5 119.582 108.543 119.582C131.304 119.582 138.199 110.501 139.269 113.779C141.437 119.927 138.543 129.707 125.897 129.707C117.941 129.707 97.6934 128.989 93.7109 128.989C93.3571 128.989 93.0124 128.989 92.6495 128.989C89.6105 129.071 86.4172 129.679 85.8548 133.212C85.7877 133.599 85.7543 133.991 85.755 134.383C85.755 139.096 85.755 146.687 86.136 149.947C86.8436 153.216 87.2065 155.023 91.5337 155.023C95.8609 155.023 128.428 153.934 138.888 152.844C149.03 151.754 154.083 143.064 154.083 135.845C154.083 128.971 156.269 100.731 156.269 93.5027C156.269 88.6627 158.038 63.319 159.109 47.5189C159.553 40.8175 159.862 35.8323 159.862 34.8607C159.844 31.619 159.136 29.0855 155.517 29.0855Z" fill="white"/>
<path d="M223.627 113.589C213.648 113.589 208.985 106.324 208.985 100.386C208.985 94.447 210.618 81.3802 210.618 77.757C210.618 74.1339 210.618 66.5426 212.968 66.5426H223.627C227.256 66.5426 226.875 60.5767 226.875 56.9536C226.875 53.5121 223.627 52.6131 218.565 52.6131C212.968 52.6131 210.618 49.8889 210.618 46.6381V28.3318C210.618 25.4442 208.259 21.821 205.728 21.821H192.865C189.617 21.821 188.329 24.7087 188.329 30.6836C188.329 30.6836 189.236 41.5803 189.236 45.5484C189.236 49.8889 186.905 51.5234 183.276 51.5234H177.352C173.723 51.5234 168.326 52.2408 168.326 54.6017C168.326 56.2362 167.772 58.2339 167.772 62.193C167.772 65.8252 167.047 68.1771 171.746 68.1771H177.715C183.666 68.1771 185.68 68.1771 185.68 71.4279C185.68 74.8694 184.401 92.0498 184.401 103.818C184.401 104.399 184.401 104.962 184.446 105.525C185.462 124.113 203.061 133.493 222.166 133.493C223.093 133.504 224.008 133.288 224.833 132.866C225.658 132.444 226.368 131.827 226.902 131.069C227.454 130.32 227.84 129.463 228.036 128.553C228.109 128.213 228.148 127.866 228.154 127.518V119.573C228.154 117.212 228.517 113.589 223.627 113.589Z" fill="white"/>
<path d="M313.6 69.8116C313.6 59.0602 310.416 51.4599 305.726 46.4111C303.204 43.7596 300.163 41.6567 296.794 40.2335C293.424 38.8102 289.797 38.0971 286.14 38.1387C270.582 38.1387 261.728 44.4951 259.732 49.8889C258.825 52.3679 257.229 52.8582 256.793 50.797C256.71 50.3814 256.671 49.9585 256.675 49.5348C256.675 43.923 256.303 34.5156 256.303 30.1751V7.00163C256.303 3.36942 255.215 0.5 253.781 0.5C252.348 0.5 242.941 0.863215 240.754 0.863215C240.754 0.863215 236.064 -0.226462 236.064 5.55783C236.064 13.1582 237.516 46.0932 237.516 56.2362L237.361 106.324V121.189C237.361 128.454 239.176 129.87 241.344 129.87H257.972C260.857 129.87 263.043 127.337 263.043 123.723C263.043 119.745 263.951 109.421 263.951 91.3324C263.951 73.6072 273.022 62.7378 279.872 62.7378C288.943 62.7378 292.572 71.0828 293.642 82.942C293.878 85.6661 293.987 88.6264 293.987 91.6956C293.987 99.296 294.332 114.86 293.243 121.008C292.518 126.792 293.606 131.505 295.411 131.505H309.872C313.5 131.505 314.217 128.608 314.217 121.008C314.154 113.044 313.6 85.0214 313.6 69.8116Z" fill="white"/>
<path d="M393.794 61.1215C393.804 58.958 393.683 56.7959 393.431 54.6471C390.483 28.7404 369.618 27.6417 363.25 27.6417C362.143 27.6417 361.073 27.6417 360.029 27.6417C352.037 27.7597 345.251 28.5497 340.471 32.6813C326.546 43.7051 324.205 68.3224 324.205 88.7717C324.205 95.464 324.713 102.783 326.781 109.448C330.319 120.88 338.384 130.415 356.192 131.686C357.535 131.786 358.913 131.831 360.347 131.831C395.772 131.859 393.794 93.5117 393.794 61.1215ZM364.429 110.447C363.303 111.632 361.935 112.561 360.418 113.171C358.901 113.78 357.271 114.056 355.639 113.979C339.382 113.979 340.833 93.1757 340.09 88.1179C339.503 82.5457 339.634 76.9212 340.48 71.3825C341.323 66.2702 342.965 61.1306 346.041 57.6255C347.271 56.1924 348.805 55.0519 350.531 54.2869C352.258 53.5219 354.132 53.1517 356.02 53.2033C362.887 53.2033 370.126 54.6471 370.126 69.857C370.126 80.0544 370.607 90.9601 369.11 99.3777C368.266 103.954 366.851 107.814 364.429 110.447Z" fill="white"/>
<path d="M492.749 116.277C492.485 103.954 491.542 77.0942 491.542 64.0091C491.548 62.0039 491.409 60.001 491.125 58.016C489.976 49.4596 485.749 41.6165 479.235 35.9575C472.722 30.2986 464.37 27.2127 455.745 27.2785C436.785 27.2785 428.457 41.1989 425.2 49.1625C424.293 51.3509 422.479 51.696 422.86 48.0728C423.314 42.9648 423.49 37.8358 423.386 32.7086C423.386 29.0764 422.316 26.1888 420.873 26.1888C420.61 26.1888 420.157 26.1888 419.576 26.1888C416.9 26.2705 411.411 26.5157 409.651 26.5157C409.651 26.5157 404.961 25.426 404.961 31.2285C404.961 34.1252 405.016 36.9674 405.079 39.9367C405.179 44.7584 405.324 49.9253 405.324 56.1999L405.143 115.069V121.189C405.143 128.454 406.957 129.87 409.125 129.87H427.55C430.453 129.87 431.705 127.337 431.705 123.723C431.705 119.745 429.891 109.421 429.891 91.3324C429.891 89.333 430.003 87.3352 430.226 85.3483C431.968 69.0761 440.514 51.9048 451.762 51.9048C458.63 51.9048 462.476 55.6914 464.2 64.9444C465.042 70.1978 465.415 75.5157 465.316 80.8354C465.316 88.4267 465.869 108.159 465.869 117.739C465.869 120.263 465.697 123.187 465.651 125.702C465.597 128.962 465.751 131.505 466.767 131.505H488.458C492.086 131.505 492.803 128.608 492.803 121.008C492.821 119.9 492.785 118.274 492.749 116.277Z" fill="white"/>
<path d="M87.9412 246.591C87.7235 230.991 80.5296 220.258 68.9541 220.258C66.5864 220.258 66.414 219.413 68.9541 217.724C73.49 214.7 81.7089 208.816 82.0446 196.185C82.0446 195.577 82.0446 194.968 82.0446 194.369C81.9448 173.057 68.3372 157.466 47.8714 157.466C26.8432 157.466 25.6548 157.974 21.4636 157.974C17.5991 157.974 14.2063 160.835 14.2063 165.547V219.413C14.2063 224.68 13.8978 237.338 13.5803 248.97C13.29 259.685 13.036 269.528 13.036 271.953C13.036 274.977 15.0499 278.355 21.4455 278.355C27.6687 278.355 38.2826 277.846 40.2965 277.846H40.6231C63.6834 277.846 87.8959 272.961 87.8959 247.372C87.9503 247.081 87.9503 246.836 87.9412 246.591ZM36.9763 185.189C36.9763 181.829 38.6636 180.14 41.1674 180.14C49.595 180.14 62.7127 182.319 62.7127 194.124C62.7079 195.659 62.4974 197.186 62.0868 198.664C59.8733 206.482 52.1079 212.112 42.8638 212.112C37.4843 212.112 35.7969 210.932 35.7969 207.064C35.7969 206.065 35.8877 204.04 36.0056 201.615C36.3503 194.941 36.9763 185.189 36.9763 185.189ZM41.5121 258.269C40.478 256.325 40.1877 253.029 40.233 249.615C40.2875 244.167 41.1402 238.428 41.1402 237.393C41.1402 234.523 43.6803 233.17 45.8484 233.17C47.8805 233.17 54.2761 233.688 57.1336 233.688C61.6695 233.688 67.2305 238.228 67.2305 246.146C67.2308 247.014 67.1303 247.88 66.9311 248.725C64.1551 260.003 43.2449 261.41 41.5212 258.269H41.5121Z" fill="white"/>
<path d="M149.965 182.183C130.787 182.183 120.364 195.477 118.214 202.16C117.715 203.695 115.864 205.366 116.191 200.144C116.363 198.964 116.517 196.957 116.517 187.186C116.517 183.872 115.556 181.22 114.24 181.13H114.177C112.834 181.13 104.089 181.457 102.066 181.457C102.066 181.457 97.6934 180.458 97.6934 185.842C97.6934 186.896 97.6934 187.94 97.6934 188.984C97.7659 194.986 98.0018 201.061 98.0018 209.079L97.902 245.011L97.8385 269.528C97.8385 276.257 99.5168 277.61 101.531 277.61H117.007C119.729 277.61 120.899 275.258 120.899 271.88C120.899 268.175 122.55 258.568 122.55 241.742C122.55 240.662 122.55 239.563 122.65 238.455C123.493 222.673 130.37 205.03 143.424 205.03C148.132 205.03 151.516 205.874 155.87 205.874C160.225 205.874 163.128 205.538 163.128 198.809C163.082 184.517 161.912 182.183 149.965 182.183Z" fill="white"/>
<path d="M238.514 241.261V241.088C238.514 241.088 239.176 231.499 239.022 221.057C239.022 218.805 239.022 216.689 238.94 214.619C238.831 210.342 238.577 206.228 238.033 201.352C236.01 184.68 216.85 183.681 211.634 183.681C209.085 183.681 202.726 183.409 196.557 183.082C190.08 182.764 183.811 182.41 182.523 182.319C177.633 181.992 174.44 184.008 173.941 187.032C173.445 190.493 173.218 193.987 173.261 197.484C173.261 200.762 175.492 202.369 179.293 202.868C180.254 202.982 181.22 203.037 182.187 203.032C208.758 203.032 215.998 199.835 215.998 210.106C215.998 214.146 214.818 216.462 212.296 216.834C210.11 217.188 194.289 218.523 189.617 220.04C175.32 224.58 168.752 236.548 168.752 246.31C168.752 252.039 168.244 258.269 171.964 265.379C173.686 268.931 176.307 271.971 179.566 274.196C184.374 277.374 190.379 278.3 197.845 278.509C205.756 278.673 212.841 275.14 218.538 270.091C219.046 269.737 219.717 268.402 219.717 270.427C219.685 272 219.743 273.574 219.889 275.14C220.225 279.008 227.628 278.509 230.993 278.509C234.014 278.509 239.738 278.845 239.738 274.623C239.684 272.243 238.514 244.975 238.514 241.261ZM199.759 260.076C199.396 260.076 199.015 260.13 198.634 260.13C192.42 260.13 188.229 255.399 188.229 245.302C188.229 236.221 195.441 232.344 202.68 232.344C207.561 232.344 218.329 232.344 218.329 238.237C218.187 240.125 217.702 241.972 216.896 243.685C214.111 250.405 207.488 259.277 199.759 260.076Z" fill="white"/>
<path d="M283.428 230.092C275.608 227.104 269.231 222.909 269.231 212.639C269.231 199.835 277.313 197.484 282.022 197.484C286.73 197.484 290.921 203.74 291.393 211.785C291.393 212.285 291.393 212.793 291.393 213.302C291.393 216.026 290.386 218.75 296.446 218.75H306.869C309.246 218.75 309.246 214.373 309.246 210.995C309.246 202.769 306.851 193.742 300.691 187.55C296.037 182.819 289.216 179.677 279.618 179.677C262.799 179.677 250.352 194.832 250.352 210.995C250.352 233.261 265.085 239.418 276.66 243.894C284.19 246.809 290.386 249.016 290.386 254.446C290.386 260.512 287.193 262.182 281.976 262.182C276.76 262.182 272.723 258.641 270.818 254.682C270.005 253.036 269.562 251.232 269.521 249.397C269.521 245.683 266.799 246.673 264.477 246.673H254.045C250.017 246.673 248.674 249.397 248.674 252.049C248.752 256.091 249.791 260.056 251.707 263.616C253.622 267.176 256.358 270.227 259.687 272.516C264.649 275.985 271.48 278.318 280.634 278.318C299.14 278.318 311.922 268.893 311.922 254.709C311.967 236.539 295.856 234.85 283.428 230.092Z" fill="white"/>
<path d="M346.258 160.39C346.095 159.185 346.001 157.973 345.977 156.758C345.977 153.044 341.441 152.381 339.409 152.381C337.377 152.381 329.657 151.872 327.616 151.872C325.575 151.872 323.57 153.561 322.726 157.602C321.556 161.134 323.742 166.519 322.581 170.224C321.229 173.756 325.303 174.601 328.614 174.601C331.435 174.601 338.693 173.693 341.986 173.475C342.43 173.475 342.811 173.475 343.083 173.475C345.442 173.475 347.465 172.449 347.465 169.761C347.492 167.99 346.703 163.895 346.258 160.39ZM345.977 187.068C345.977 184.399 342.702 183.182 338.965 183.046C338.72 183.046 338.484 183.046 338.23 183.046C333.671 183.119 329.124 183.52 324.622 184.244C322.626 184.244 322.626 187.441 322.626 187.441L322.908 232.498V239.98C322.908 244.003 320.894 267.413 320.549 270.609C320.549 273.987 322.581 276.675 327.806 277.183C333.358 277.183 340.235 276.339 343.428 276.003C343.747 275.938 344.053 275.821 344.335 275.658C345.696 274.904 345.896 273.179 345.914 270.7V269.356C346.322 266.178 345.977 189.747 345.977 187.032V187.068Z" fill="white"/>
<path d="M412.273 261.129C412.092 259.013 411.938 257.315 411.938 256.761C411.938 255.072 410.259 253.401 407.901 253.401C405.542 253.401 388.578 252.72 386.229 252.72C385.202 252.791 384.172 252.687 383.18 252.412C382.146 252.012 381.493 251.104 381.493 249.025V210.614C381.493 204.548 382.527 165.829 382.527 161.788C382.535 161.225 382.486 160.662 382.382 160.108C381.938 157.666 380.495 156.758 378.835 156.758H364.692C363.983 156.748 363.278 156.88 362.621 157.147C361.963 157.414 361.366 157.811 360.863 158.312C360.361 158.814 359.965 159.412 359.697 160.069C359.429 160.727 359.295 161.432 359.304 162.142C358.959 164.158 358.288 212.321 358.288 218.723V271.59C358.288 273.615 361.308 277.656 367.704 277.656C369.654 277.656 372.331 277.656 375.397 277.746C384.813 277.91 398.022 278.246 405.796 278.309C406.703 278.309 407.493 278.309 408.236 278.309C410.958 278.309 412.936 276.284 413.28 273.261C413.308 271.444 412.673 265.424 412.273 261.129Z" fill="white"/>
<path d="M496.404 174.056C496.352 171.228 496.085 168.408 495.606 165.62C493.565 154.315 488.929 148.985 478.189 148.985C467.448 148.985 453.268 151.409 453.268 169.343C453.268 174.356 453.078 180.24 453.078 188.158C453.046 190.954 453.488 193.736 454.384 196.385C455.476 199.72 457.576 202.634 460.394 204.723C463.212 206.812 466.609 207.972 470.115 208.044C474.959 208.044 476.465 207.799 479.948 207.799C493.057 207.799 496.831 188.539 496.404 174.056ZM478.189 194.787C473.281 194.787 467.901 193.733 467.901 186.614V186.296L468.337 172.549C468.337 163.014 472.981 160.926 478.17 160.926C482.244 160.926 483.169 165.284 483.45 169.152C483.632 172.122 483.849 175.218 483.958 178.233C484.276 187.05 483.595 194.787 478.189 194.787Z" fill="white"/>
<path d="M469.253 267.059C469.253 265.597 467.03 265.188 464.626 264.943C460.907 264.498 457.051 265.006 453.141 265.46C450.714 265.782 448.269 265.964 445.821 266.005C442.863 266.005 441.466 265.506 442.664 264.071C448.415 257.124 469.879 256.226 469.879 239.417C469.879 228.92 460.054 219.549 447.825 219.549C432.63 219.549 428.167 228.757 428.167 241.996C428.167 244.266 429.074 244.72 430.027 244.72C430.027 244.72 433.746 244.884 435.415 244.884C437.23 244.884 437.81 244.394 437.81 242.768C437.81 241.333 438.191 230.655 446.338 230.655C452.271 230.655 455.246 233.897 455.246 237.284C455.246 254.727 428.73 246.655 428.276 267.585C428.276 269.401 427.995 272.189 427.995 274.123C427.995 276.212 427.804 277.356 433.274 277.356C437.62 277.356 441.14 277.51 444.161 277.574H446.419C454.303 277.574 459.501 277.247 467.185 277.247C470.242 277.247 469.598 275.957 469.598 274.187C469.634 272.988 469.253 269.356 469.253 267.059Z" fill="white"/>
<path d="M447.98 202.487C447.871 200.834 447.653 198.337 447.653 196.567C447.653 195.105 445.43 194.705 443.026 194.469C436.994 193.733 430.607 195.513 424.212 195.513C421.263 195.513 419.866 195.032 421.064 193.579C426.815 186.632 448.279 185.733 448.279 168.944C448.279 160.662 442.165 153.08 433.601 150.238L432.694 149.956C430.596 149.356 428.425 149.051 426.244 149.048C414.895 149.048 409.525 154.179 407.565 162.306C407.669 162.591 407.797 162.867 407.946 163.132C408.017 163.266 408.078 163.406 408.128 163.55C407.792 163.886 407.438 164.204 407.102 164.54C406.622 164.994 406.141 165.448 405.669 165.965C405.52 166.146 405.328 166.286 405.111 166.375C404.895 166.464 404.659 166.498 404.426 166.474C403.801 166.437 403.174 166.437 402.548 166.474C401.641 166.474 401.179 166.928 401.197 167.645C401.215 168.362 401.632 168.707 402.521 168.726C404.463 168.726 404.463 168.726 404.49 170.687C404.49 171.595 404.835 172.013 405.56 172.031C405.764 172.036 405.965 171.99 406.146 171.896C406.327 171.803 406.481 171.665 406.594 171.495C406.724 171.277 406.763 171.016 406.703 170.769C406.659 170.526 406.632 170.28 406.622 170.033C406.613 169.891 406.613 169.749 406.622 169.606C406.712 167.908 407.855 166.746 409.153 165.638C409.343 165.475 409.488 165.266 409.661 165.093C410.673 165.686 411.804 166.046 412.972 166.147C413.862 166.177 414.749 166.022 415.576 165.693C416.404 165.363 417.154 164.865 417.78 164.231C418.106 163.913 418.406 163.577 418.687 163.259C419.357 162.284 420.26 161.492 421.313 160.954C422.367 160.417 423.538 160.151 424.72 160.181H425.355C430.852 160.408 433.601 163.532 433.601 166.801C433.601 172.485 430.807 175.454 427.015 177.597C419.132 182.065 406.985 182.982 406.658 197.102C406.658 198.918 406.377 201.706 406.377 203.64C406.377 205.756 406.186 206.873 411.647 206.873C417.109 206.873 421.291 207.127 424.801 207.127C432.059 207.127 437.094 206.855 443.852 206.818H445.53C448.587 206.818 447.943 205.511 447.943 203.74C448.034 203.45 448.016 203.014 447.98 202.487ZM415.122 161.361C415.105 161.748 414.937 162.113 414.653 162.377C414.37 162.64 413.994 162.781 413.607 162.769C412.818 162.769 412.282 162.088 412.228 161.107C412.228 160.671 412.228 160.199 412.228 159.79C412.228 159.382 412.228 158.837 412.228 158.365C412.208 158.171 412.226 157.976 412.282 157.79C412.338 157.604 412.43 157.43 412.553 157.28C412.677 157.13 412.828 157.005 413 156.914C413.171 156.823 413.359 156.767 413.552 156.748C413.743 156.727 413.935 156.745 414.118 156.802C414.301 156.859 414.47 156.953 414.615 157.078C414.76 157.204 414.878 157.358 414.96 157.53C415.043 157.703 415.088 157.892 415.095 158.083C415.258 159.169 415.267 160.273 415.122 161.361Z" fill="white"/>
<path d="M519.347 267.059C519.347 265.597 517.115 265.188 514.711 264.961C508.688 264.225 502.292 266.005 495.887 266.005C492.939 266.005 491.56 265.524 492.758 264.071C498.5 257.124 519.973 256.225 519.973 239.436C519.931 235.527 518.64 231.734 516.29 228.612C513.325 224.647 509.134 221.774 504.369 220.439C502.268 219.842 500.095 219.537 497.91 219.531C486.571 219.531 481.218 224.662 479.25 232.789C479.355 233.072 479.479 233.348 479.622 233.615C479.7 233.747 479.764 233.887 479.812 234.033C479.477 234.369 479.123 234.687 478.787 235.022C478.297 235.477 477.826 235.931 477.345 236.439C477.193 236.62 477 236.762 476.782 236.852C476.564 236.942 476.328 236.978 476.093 236.957C475.468 236.92 474.841 236.92 474.215 236.957C473.308 236.957 472.854 237.411 472.863 238.128C472.872 238.845 473.308 239.181 474.206 239.2C476.138 239.2 476.138 239.2 476.175 241.17C476.175 242.078 476.528 242.487 477.236 242.505C477.44 242.512 477.643 242.467 477.825 242.375C478.007 242.283 478.164 242.147 478.279 241.978C478.346 241.872 478.39 241.754 478.408 241.631C478.427 241.507 478.42 241.381 478.388 241.261C478.337 241.019 478.306 240.773 478.297 240.525C478.297 240.38 478.297 240.244 478.297 240.099C478.397 238.391 479.531 237.238 480.837 236.13C481.019 235.967 481.173 235.758 481.345 235.585C482.357 236.18 483.488 236.54 484.657 236.639C485.546 236.674 486.433 236.521 487.26 236.191C488.086 235.861 488.834 235.361 489.456 234.723C489.791 234.405 490.082 234.069 490.363 233.751C491.03 232.776 491.931 231.983 492.983 231.445C494.035 230.907 495.205 230.642 496.386 230.673C498.425 230.609 500.441 231.112 502.21 232.126C503.14 232.645 503.917 233.4 504.463 234.315C505.01 235.23 505.306 236.272 505.322 237.338C505.322 243.022 502.528 245.992 498.736 248.135C490.853 252.602 478.687 253.519 478.379 267.64C478.379 269.456 478.098 272.244 478.098 274.178C478.098 276.284 477.898 277.41 483.368 277.41C488.839 277.41 493.012 277.656 496.522 277.656C504.415 277.656 509.586 277.347 517.288 277.347C520.345 277.347 519.683 276.039 519.683 274.268C519.71 272.988 519.347 269.356 519.347 267.059ZM486.788 231.853C486.772 232.24 486.604 232.605 486.32 232.869C486.036 233.132 485.66 233.273 485.274 233.261C484.484 233.261 483.949 232.58 483.895 231.599C483.872 231.161 483.872 230.721 483.895 230.282C483.895 229.801 483.895 229.329 483.895 228.848C483.873 228.655 483.891 228.461 483.946 228.275C484 228.089 484.092 227.917 484.214 227.767C484.337 227.617 484.488 227.494 484.659 227.403C484.83 227.313 485.017 227.257 485.21 227.24C485.401 227.219 485.594 227.237 485.778 227.293C485.962 227.349 486.132 227.442 486.279 227.566C486.426 227.69 486.546 227.843 486.632 228.015C486.718 228.187 486.768 228.374 486.779 228.566C486.932 229.656 486.935 230.762 486.788 231.853Z" fill="white"/>
<path d="M59.7827 8.20026C54.778 13.9 49.3791 19.2404 43.6259 24.182C39.4028 22.274 34.8045 21.3429 30.1726 21.4578C26.5439 21.4578 25.6367 26.9061 25.6367 30.4929C25.6367 30.4929 25.3827 33.7256 25.1015 37.6938C17.5406 42.4015 9.5559 46.3901 1.25195 49.6074V9.3535C1.25195 4.29565 4.88065 1.18104 9.02642 1.18104C13.5623 1.18104 14.8051 0.6362 37.4209 0.6362C46.293 0.672522 53.8679 3.41483 59.7827 8.20026Z" fill="#166D82"/>
<path d="M74.1069 42.2886C74.1069 76.3132 50.2392 82.0975 35.2346 82.0975C32.885 82.0975 30.1726 83.5595 30.1726 86.6378C30.1726 87.6821 30.227 92.1315 30.3359 97.5344C21.0411 100.885 11.4612 103.384 1.71461 104.999L0.417358 105.207C0.789299 91.3415 1.25195 73.916 1.25195 67.3145V49.6074C9.56738 46.4009 17.5643 42.4214 25.1378 37.7211C24.7931 42.7426 24.3939 48.9264 24.3939 51.1421C24.3939 55.31 24.2125 59.478 30.0002 59.478C45.3587 59.478 53.3055 50.9695 53.3055 40.1183C53.3055 32.3091 49.6042 27.0514 43.6259 24.1729C49.3792 19.2314 54.778 13.891 59.7827 8.19122C68.927 15.5737 74.1069 27.8142 74.1069 42.2886Z" fill="#269FA2"/>
<path d="M104.742 38.8107C97.9371 48.4502 90.2175 57.4089 81.6908 65.5619C82.4982 52.9854 83.3872 40.3271 83.3872 33.0627C83.3872 26.9243 87.1883 27.6144 94.7904 27.2784C101.658 27.2784 104.724 31.0741 104.724 35.242C104.724 36.2681 104.733 37.4758 104.742 38.8107Z" fill="#269FA2"/>
<path d="M31.0887 120.099C31.8145 125.548 31.624 130.088 29.2744 130.088C27.1063 130.088 15.7212 130.633 9.02631 130.633C2.15902 130.633 -0.0454102 127.001 -0.0454102 123.759C-0.0454102 121.625 0.145088 114.152 0.371881 105.189L1.66914 104.98C11.4158 103.365 20.9956 100.867 30.2904 97.5162C30.4809 106.106 30.7531 117.094 31.0887 120.099Z" fill="#4EB8B4"/>
<path d="M92.6313 128.998C90.4178 130.469 88.1498 131.868 85.8365 133.221C86.399 129.689 89.5923 129.08 92.6313 128.998Z" fill="#4EB8B4"/>
<path d="M125.879 99.4141C119.679 106.69 112.865 113.419 105.513 119.527C85.2651 118.338 80.3029 104.999 80.3029 94.6286C80.3029 87.3642 80.9742 76.5311 81.6908 65.571C90.2175 57.4179 97.9371 48.4592 104.742 38.8198C104.806 46.4292 104.969 58.0705 104.352 62.4291C103.445 69.3031 104.18 77.6208 104.18 83.7683C104.18 89.9158 104.542 100.422 119.738 100.422C121.826 100.428 123.902 100.088 125.879 99.4141Z" fill="#4EB8B4"/>
<path d="M159.844 34.8697C159.844 35.8413 159.535 40.8266 159.091 47.528C153.172 59.7696 146.349 71.5524 138.679 82.7785C139.427 79.4682 139.798 76.0839 139.786 72.6901C139.786 65.0988 142.145 49.5348 142.145 41.3986C142.145 37.948 142.49 29.0854 147.933 29.0854H155.517C159.136 29.0854 159.844 31.6189 159.844 34.8697Z" fill="#4EB8B4"/>
<path d="M62.0868 198.682C62.4975 197.204 62.708 195.677 62.7128 194.142C62.7128 182.337 49.5951 180.158 41.1675 180.158C38.6637 180.158 36.9763 181.847 36.9763 185.207C36.9763 185.207 36.3504 194.959 36.0056 201.633C28.7483 202.142 21.5363 202.423 14.2335 202.541V165.493C14.2335 160.78 17.6082 157.92 21.4909 157.92C25.682 157.92 26.8704 157.411 47.8987 157.411C68.3645 157.411 81.972 173.003 82.0718 194.314C75.5037 196.17 68.83 197.629 62.0868 198.682Z" fill="#047F4D"/>
<path d="M114.131 181.148H114.195C108.857 184.105 103.34 186.725 97.6752 188.993C97.6752 187.949 97.6752 186.905 97.6752 185.851C97.6752 180.467 102.048 181.466 102.048 181.466C104.044 181.475 112.789 181.148 114.131 181.148Z" fill="#047F4D"/>
<path d="M159.091 47.528C158.02 63.3281 156.251 88.6718 156.251 93.5117C156.251 100.776 154.065 128.98 154.065 135.854C154.065 143.073 149.012 151.763 138.87 152.853C128.41 153.943 95.8609 155.032 91.5155 155.032C87.1702 155.032 86.8254 153.216 86.1178 149.956C85.7368 146.696 85.7368 139.06 85.7368 134.392C85.7362 134 85.7695 133.608 85.8366 133.221C88.1499 131.868 90.4178 130.497 92.6313 128.998C92.9942 128.998 93.3389 128.998 93.6927 128.998C97.6752 128.998 117.923 129.716 125.879 129.716C138.525 129.716 141.419 119.936 139.251 113.789C138.18 110.529 131.286 119.591 108.525 119.591C107.482 119.591 106.484 119.591 105.513 119.5C112.863 113.407 119.677 106.693 125.879 99.4322C132.955 97.0077 136.929 90.3517 138.679 82.7967C146.35 71.5647 153.172 59.7758 159.091 47.528Z" fill="#047F4D"/>
<path d="M210.618 28.3318V45.7391C203.061 66.5789 194.616 86.8648 184.446 105.525C184.446 104.962 184.401 104.399 184.401 103.818C184.401 92.0135 185.68 74.8694 185.68 71.4279C185.68 68.1771 183.666 68.1771 177.715 68.1771H171.746C167.047 68.1771 167.772 65.8161 167.772 62.193C167.772 58.2248 168.326 56.2362 168.326 54.6017C168.326 52.2408 173.769 51.5234 177.352 51.5234H183.312C186.941 51.5234 189.272 49.8889 189.272 45.5484C189.272 41.5712 188.365 30.6836 188.365 30.6836C188.365 24.7087 189.635 21.821 192.901 21.821H205.737C208.287 21.821 210.618 25.4442 210.618 28.3318Z" fill="#047F4D"/>
<path d="M87.9412 246.591C80.9742 247.548 73.9799 248.259 66.9584 248.725C67.1576 247.88 67.258 247.014 67.2577 246.146C67.2577 238.237 61.7058 233.688 57.1609 233.688C54.3033 233.688 47.9078 233.17 45.8757 233.17C43.7076 233.17 41.1675 234.523 41.1675 237.393C41.1675 238.428 40.2603 244.176 40.2603 249.615C31.3972 249.615 22.5342 249.37 13.653 248.925C13.9705 237.293 14.2789 224.634 14.2789 219.368V202.496C21.5363 202.405 28.7937 202.124 36.051 201.588C35.9331 204.031 35.8424 206.056 35.8424 207.036C35.8424 210.905 37.5297 212.085 42.9092 212.085C52.1443 212.085 59.9187 206.455 62.1322 198.637C68.8662 197.582 75.5308 196.124 82.09 194.269C82.09 194.878 82.09 195.486 82.09 196.085C81.7543 208.716 73.5263 214.6 68.9995 217.624C66.4594 219.313 66.6318 220.158 68.9995 220.158C80.5296 220.212 87.7235 230.991 87.9412 246.591Z" fill="#27A058"/>
<path d="M163.082 198.837C163.082 205.565 160.225 205.901 155.825 205.901C151.425 205.901 148.087 205.057 143.378 205.057C130.324 205.057 123.421 222.7 122.604 238.482C114.536 241.298 106.262 243.487 97.8566 245.029L97.9564 209.098C97.9564 201.08 97.7205 195.005 97.6479 189.002C103.312 186.734 108.83 184.114 114.168 181.157C115.483 181.248 116.445 183.881 116.445 187.214C116.445 196.984 116.29 199.018 116.118 200.171C115.791 205.393 117.642 203.722 118.141 202.187C120.336 195.459 130.76 182.21 149.892 182.21C161.912 182.183 163.082 184.517 163.082 198.837Z" fill="#27A058"/>
<path d="M182.496 182.319C183.784 182.41 190.053 182.764 196.53 183.082C191.258 190.076 185.498 196.689 179.293 202.868C175.492 202.369 173.261 200.762 173.261 197.484C173.218 193.987 173.445 190.493 173.941 187.032C174.413 183.999 177.606 181.992 182.496 182.319Z" fill="#27A058"/>
<path d="M228.154 119.573V127.518C228.148 127.866 228.109 128.213 228.036 128.553C227.655 129.398 227.274 130.233 226.902 131.069C226.368 131.827 225.658 132.444 224.833 132.866C224.008 133.288 223.093 133.504 222.166 133.493C203.061 133.493 185.462 124.113 184.446 105.525C194.616 86.8648 203.061 66.5789 210.618 45.7391V46.6472C210.618 49.898 212.968 52.6222 218.565 52.6222C223.627 52.6222 226.875 53.5302 226.875 56.9627C226.875 60.5949 227.256 66.5517 223.627 66.5517H212.968C210.618 66.5517 210.618 74.1612 210.618 77.7661C210.618 81.3711 208.985 94.4198 208.985 100.395C208.985 106.37 213.694 113.598 223.627 113.598C228.517 113.589 228.154 117.212 228.154 119.573Z" fill="#27A058"/>
<path d="M237.361 106.324L237.516 56.2362C237.516 46.0932 236.064 13.1582 236.064 5.55783C236.064 -0.226462 240.754 0.863215 240.754 0.863215C242.941 0.863215 252.33 0.5 253.781 0.5C255.233 0.5 256.303 3.39666 256.303 7.00163V30.1751C256.303 34.5156 256.675 43.923 256.675 49.5348C256.671 49.9585 256.71 50.3814 256.793 50.797C250.769 69.4302 244.483 88.1814 237.361 106.324Z" fill="#27A058"/>
<path d="M87.9503 247.327C87.9503 272.915 63.7379 277.801 40.6776 277.801H40.351C38.3371 277.801 27.7232 278.309 21.5 278.309C15.1044 278.309 13.0905 274.931 13.0905 271.908C13.0905 269.483 13.3445 259.64 13.6348 248.925C22.516 249.37 31.3791 249.624 40.2421 249.615C40.1968 253.029 40.4871 256.325 41.5212 258.269C43.2449 261.41 64.1552 260.003 66.9221 248.725C73.9436 248.247 80.9378 247.535 87.9049 246.591C87.9503 246.836 87.9503 247.081 87.9503 247.327Z" fill="#4FB765"/>
<path d="M97.8838 245.029C106.289 243.487 114.563 241.298 122.631 238.482C122.568 239.59 122.532 240.689 122.532 241.769C122.532 258.596 120.881 268.203 120.881 271.908C120.881 275.286 119.683 277.637 116.989 277.637H101.512C99.4986 277.637 97.8203 276.284 97.8203 269.556L97.8838 245.029Z" fill="#4FB765"/>
<path d="M228.036 128.553C227.84 129.463 227.454 130.32 226.902 131.069C227.274 130.233 227.655 129.398 228.036 128.553Z" fill="#4FB765"/>
<path d="M216.896 243.731C217.702 242.017 218.187 240.171 218.329 238.282C218.329 232.389 207.561 232.389 202.68 232.389C195.423 232.389 188.229 236.257 188.229 245.347C188.229 255.445 192.42 260.176 198.634 260.176C199.015 260.176 199.396 260.176 199.759 260.121C193.409 265.368 186.637 270.082 179.511 274.214C176.252 271.989 173.632 268.949 171.909 265.397C168.19 258.314 168.698 252.085 168.698 246.328C168.698 236.566 175.257 224.607 189.563 220.058C194.271 218.541 210.092 217.207 212.242 216.852C214.764 216.525 215.943 214.128 215.943 210.124C215.943 199.854 208.686 203.05 182.133 203.05C181.166 203.055 180.199 203 179.239 202.887C185.45 196.704 191.216 190.089 196.493 183.091C202.662 183.418 209.022 183.69 211.571 183.69C216.787 183.69 235.946 184.689 237.969 201.361C238.541 206.237 238.795 210.351 238.877 214.628C232.421 224.959 225.066 234.698 216.896 243.731Z" fill="#4FB765"/>
<path d="M305.726 46.4111C301.589 58.2975 297.607 70.5471 293.579 82.942C292.527 71.0828 288.916 62.7378 279.808 62.7378C272.95 62.7378 263.887 73.6345 263.887 91.3324C263.887 109.421 262.98 119.745 262.98 123.723C262.98 127.355 260.794 129.87 257.909 129.87H241.308C239.121 129.87 237.325 128.426 237.325 121.189V106.324C244.446 88.1633 250.733 69.4302 256.757 50.797C257.192 52.8582 258.78 52.3679 259.696 49.8889C261.692 44.4406 270.582 38.1387 286.104 38.1387C289.767 38.0921 293.401 38.8028 296.777 40.2262C300.153 41.6496 303.2 43.7551 305.726 46.4111Z" fill="#4FB765"/>
<path d="M239.684 274.595C239.684 278.818 233.96 278.482 230.939 278.482C227.573 278.482 220.171 278.981 219.835 275.113C219.689 273.547 219.631 271.973 219.663 270.4C219.663 268.375 218.991 269.71 218.483 270.064C212.786 275.113 205.701 278.645 197.791 278.482C190.325 278.273 184.319 277.347 179.511 274.169C186.637 270.037 193.409 265.323 199.759 260.076C207.488 259.277 214.111 250.405 216.896 243.731C225.088 234.697 232.465 224.955 238.94 214.619C238.994 216.689 239.022 218.805 239.022 221.057C239.176 231.499 238.514 241.088 238.514 241.088V241.261C238.514 244.975 239.684 272.244 239.684 274.595Z" fill="#ECAE21"/>
<path d="M269.566 249.379C269.607 251.214 270.05 253.018 270.863 254.664C267.349 260.832 263.639 266.789 259.732 272.534C256.403 270.245 253.667 267.194 251.752 263.634C249.837 260.074 248.797 256.109 248.719 252.067C248.719 249.343 250.062 246.691 254.09 246.691H264.531C266.881 246.655 269.566 245.638 269.566 249.379Z" fill="#ECAE21"/>
<path d="M300.736 187.504C297.77 195.677 294.667 203.849 291.393 211.785C290.921 203.74 286.766 197.484 282.022 197.484C277.277 197.484 269.23 199.835 269.23 212.639C269.23 222.909 275.581 227.104 283.428 230.092C281.281 234.747 279.04 239.333 276.705 243.849C265.13 239.372 250.397 233.215 250.397 210.95C250.397 194.787 262.844 179.631 279.663 179.631C289.261 179.631 296.083 182.773 300.736 187.504Z" fill="#ECAE21"/>
<path d="M313.6 69.8116C313.6 85.0033 314.154 113.044 314.154 121.008C314.154 128.608 313.437 131.505 309.808 131.505H295.375C293.561 131.505 292.481 126.792 293.207 121.008C294.296 114.86 293.951 99.296 293.951 91.6956C293.951 88.6264 293.842 85.6934 293.606 82.942C297.634 70.5471 301.616 58.2975 305.753 46.4111C310.416 51.4235 313.6 59.0603 313.6 69.8116Z" fill="#ECAE21"/>
<path d="M360.029 27.6689C354.831 37.485 350.232 47.5916 346.041 57.5801C344.108 62.2021 342.249 66.8059 340.48 71.3371C339.872 72.8717 339.291 74.3973 338.665 75.8774C334.52 86.6741 330.582 97.9158 326.736 109.43C324.668 102.765 324.16 95.4459 324.16 88.7535C324.16 68.3042 326.5 43.6869 340.425 32.6632C345.27 28.5406 352.037 27.8142 360.029 27.6689Z" fill="#ECAE21"/>
<path d="M311.967 254.727C311.967 268.884 299.185 278.337 280.679 278.337C271.553 278.337 264.695 276.003 259.732 272.534C263.651 266.783 267.368 260.817 270.882 254.636C272.787 258.596 276.697 262.137 282.04 262.137C287.383 262.137 290.449 260.466 290.449 254.4C290.449 248.952 284.253 246.764 276.724 243.849C279.058 239.345 281.299 234.759 283.446 230.092C295.856 234.85 311.967 236.539 311.967 254.727Z" fill="#E5722B"/>
<path d="M291.438 213.302C291.438 212.793 291.438 212.285 291.438 211.785C294.713 203.813 297.788 195.695 300.782 187.504C306.941 193.733 309.336 202.723 309.336 210.95C309.336 214.328 309.336 218.705 306.96 218.705H296.491C290.431 218.705 291.438 216.008 291.438 213.302Z" fill="#E5722B"/>
<path d="M338.23 182.991C338.484 182.991 338.72 182.991 338.965 182.991C333.767 199.391 328.532 216.035 322.89 232.425L322.59 187.386C322.59 187.386 322.59 184.19 324.586 184.19C329.1 183.464 333.659 183.063 338.23 182.991Z" fill="#E5722B"/>
<path d="M345.977 156.758C346.001 157.973 346.095 159.185 346.259 160.39C344.843 164.718 343.428 169.086 342.013 173.493C338.72 173.711 331.463 174.619 328.641 174.619C325.285 174.619 321.257 173.774 322.609 170.242C323.77 166.537 321.583 161.162 322.754 157.62C323.597 153.579 325.62 151.89 327.643 151.89C329.666 151.89 337.395 152.399 339.437 152.399C341.478 152.399 345.977 153.025 345.977 156.758Z" fill="#E5722B"/>
<path d="M364.429 110.447C361.798 116.949 359.313 123.405 356.954 129.716C356.691 130.388 356.446 131.069 356.192 131.75C338.384 130.479 330.319 120.944 326.781 109.512C330.628 97.9975 334.565 86.7558 338.711 75.9591C339.291 74.4426 339.872 72.9171 340.525 71.4188C339.679 76.9575 339.548 82.5821 340.135 88.1542C340.879 93.2121 339.427 114.016 355.684 114.016C357.312 114.081 358.935 113.796 360.443 113.181C361.952 112.565 363.311 111.633 364.429 110.447Z" fill="#E5722B"/>
<path d="M369.101 99.3324C370.598 90.9147 370.117 80.009 370.117 69.8116C370.117 54.6017 362.86 53.1579 356.011 53.1579C354.124 53.1063 352.249 53.4765 350.522 54.2415C348.796 55.0065 347.262 56.147 346.032 57.5801C350.223 47.5916 354.822 37.485 360.02 27.6689C361.064 27.6689 362.134 27.6689 363.241 27.6689C369.591 27.6689 390.456 28.7676 393.422 54.6744C383.743 68.4223 375.86 83.8138 369.101 99.3324Z" fill="#E5722B"/>
<path d="M419.576 26.2251C414.376 30.4098 409.522 35.0073 405.061 39.973C404.998 37.0037 404.943 34.1615 404.943 31.2648C404.943 25.4623 409.633 26.552 409.633 26.552C411.493 26.552 416.936 26.3068 419.576 26.2251Z" fill="#E5722B"/>
<path d="M345.977 187.032C345.977 189.756 346.322 266.178 345.977 269.374V270.645C345.46 272.298 344.925 273.951 344.399 275.603C344.117 275.767 343.811 275.883 343.492 275.948C340.298 276.284 333.422 277.129 327.87 277.129C322.654 276.62 320.613 273.933 320.613 270.555C320.958 267.358 322.971 243.949 322.971 239.926V232.444C328.614 216.053 333.858 199.409 339.047 183.009C342.702 183.145 345.977 184.362 345.977 187.032Z" fill="#DF3B31"/>
<path d="M346.259 160.39C346.703 163.931 347.492 168.026 347.492 169.734C347.492 172.458 345.469 173.447 343.111 173.447C342.838 173.447 342.457 173.447 342.013 173.447C343.428 169.059 344.843 164.706 346.259 160.39Z" fill="#DF3B31"/>
<path d="M382.382 160.108C379.924 166.147 377.619 172.185 375.415 178.16L374.326 181.139C373.973 182.128 373.61 183.118 373.256 184.099C372.591 185.915 371.934 187.774 371.287 189.674C370.689 191.409 370.081 193.152 369.473 194.905C368.702 197.148 367.958 199.445 367.214 201.679L366.017 205.366C363.377 213.538 360.809 221.828 358.26 230.228V218.705C358.26 212.303 358.932 164.14 359.276 162.124C359.268 161.414 359.401 160.709 359.669 160.051C359.937 159.393 360.334 158.796 360.836 158.294C361.338 157.792 361.936 157.396 362.593 157.129C363.251 156.862 363.955 156.73 364.665 156.739H378.835C380.495 156.757 381.937 157.666 382.382 160.108Z" fill="#DF3B31"/>
<path d="M360.347 131.859C358.904 131.859 357.535 131.813 356.192 131.713C356.446 131.032 356.691 130.351 356.954 129.679C359.313 123.368 361.798 116.912 364.429 110.411C366.851 107.814 368.266 103.954 369.101 99.3323C375.859 83.8137 383.743 68.4586 393.431 54.6471C393.683 56.7959 393.804 58.958 393.794 61.1215C393.794 93.5117 395.772 131.859 360.347 131.859Z" fill="#DF3B31"/>
<path d="M491.125 58.016L490.218 58.1522L488.485 58.4428L487.478 58.6153L485.927 58.9059C485.355 59.0058 484.784 59.1238 484.221 59.2418C483.269 59.4325 482.307 59.6323 481.354 59.8502C480.402 60.0682 479.259 60.3315 478.216 60.5949L476.855 60.9399L475.703 61.2487L474.079 61.6936C471.303 62.4836 468.536 63.3644 465.815 64.3451L464.182 64.9444C462.458 55.6914 458.612 51.9048 451.744 51.9048C440.495 51.9048 431.95 69.076 430.208 85.3483C429.764 85.7388 429.301 86.1384 428.893 86.5379C427.986 87.337 427.133 88.1542 426.28 88.9805C425.863 89.3892 425.436 89.7978 425.019 90.2246C424.166 91.0691 423.332 91.9226 422.506 92.7853C421.681 93.6479 420.882 94.5197 420.084 95.4096C418.56 97.0894 417.09 98.8148 415.648 100.576L414.396 102.138C412.89 104.027 411.427 105.961 410.005 107.941C409.597 108.513 409.18 109.085 408.772 109.666C408.255 110.392 407.747 111.128 407.266 111.863C406.894 112.39 406.549 112.917 406.195 113.453C405.841 113.988 405.479 114.524 405.134 115.069L405.288 56.2362C405.288 49.9525 405.143 44.7948 405.043 39.973C409.504 35.0073 414.358 30.4098 419.558 26.2251C420.139 26.2251 420.592 26.2251 420.855 26.2251C422.298 26.2251 423.368 29.1218 423.368 32.7449C423.472 37.8721 423.296 43.0011 422.842 48.1091C422.488 51.7414 424.284 51.3872 425.182 49.1988C428.439 41.2352 436.767 27.3148 455.727 27.3148C464.349 27.2434 472.701 30.3222 479.218 35.9742C485.735 41.6261 489.968 49.4631 491.125 58.016Z" fill="#DF3B31"/>
<path d="M344.363 275.603C344.889 273.951 345.424 272.298 345.941 270.645C345.959 273.124 345.76 274.85 344.363 275.603Z" fill="#166D82"/>
<path d="M383.18 252.403C380.504 260.702 377.937 269.165 375.397 277.728C372.331 277.674 369.654 277.637 367.704 277.637C361.308 277.637 358.288 273.597 358.288 271.572V230.228C360.837 221.829 363.404 213.52 366.044 205.366L367.241 201.679C367.985 199.409 368.729 197.139 369.5 194.905C370.081 193.152 370.689 191.409 371.315 189.674C371.941 187.94 372.621 185.942 373.283 184.099C373.637 183.118 374 182.129 374.354 181.139L375.442 178.16C377.647 172.185 379.978 166.147 382.409 160.108C382.513 160.662 382.562 161.225 382.554 161.788C382.554 165.829 381.52 204.548 381.52 210.614V249.016C381.493 251.095 382.146 252.003 383.18 252.403Z" fill="#166D82"/>
<path d="M405.143 121.189V115.069C405.488 114.524 405.833 113.988 406.204 113.453C406.576 112.917 406.903 112.39 407.275 111.863C407.756 111.128 408.264 110.392 408.781 109.666C409.189 109.085 409.606 108.513 410.015 107.941C411.442 105.961 412.905 104.027 414.405 102.138L415.657 100.576C417.1 98.8148 418.569 97.0895 420.093 95.4096C420.892 94.5015 421.699 93.6479 422.515 92.7853C423.332 91.9226 424.176 91.0691 425.028 90.2246C425.446 89.7978 425.872 89.3892 426.289 88.9805C427.142 88.1542 428.013 87.337 428.902 86.5379C429.337 86.1384 429.809 85.7388 430.217 85.3483C429.994 87.3352 429.882 89.333 429.882 91.3324C429.882 109.421 431.696 119.745 431.696 123.723C431.696 127.355 430.444 129.87 427.541 129.87H409.135C406.957 129.87 405.143 128.426 405.143 121.189Z" fill="#166D82"/>
<path d="M432.703 149.956C430.605 149.356 428.435 149.051 426.253 149.048C414.904 149.048 409.534 154.179 407.574 162.306C407.679 162.591 407.806 162.867 407.955 163.132C408.027 163.266 408.087 163.406 408.137 163.55C407.801 163.886 407.447 164.204 407.112 164.54C406.631 164.994 406.15 165.448 405.678 165.965C405.529 166.146 405.337 166.286 405.12 166.375C404.904 166.464 404.668 166.498 404.435 166.474C403.81 166.437 403.183 166.437 402.558 166.474C401.65 166.474 401.188 166.928 401.206 167.645C401.224 168.362 401.641 168.707 402.53 168.726C404.472 168.726 404.472 168.726 404.499 170.687C404.499 171.595 404.844 172.013 405.569 172.031C405.773 172.036 405.974 171.99 406.155 171.896C406.336 171.803 406.49 171.665 406.604 171.495C406.733 171.277 406.772 171.016 406.712 170.769C406.668 170.526 406.641 170.28 406.631 170.033C406.622 169.891 406.622 169.749 406.631 169.606C406.721 167.908 407.864 166.746 409.162 165.638C409.352 165.475 409.497 165.266 409.67 165.093C410.682 165.686 411.813 166.046 412.981 166.147C413.871 166.177 414.758 166.022 415.585 165.693C416.413 165.363 417.163 164.865 417.789 164.231C418.116 163.913 418.415 163.577 418.696 163.259C419.366 162.284 420.269 161.492 421.322 160.954C422.376 160.417 423.547 160.151 424.729 160.181H425.364C427.958 156.724 430.701 153.395 433.592 150.192L432.703 149.956ZM415.122 161.361C415.105 161.748 414.937 162.113 414.653 162.377C414.37 162.64 413.994 162.781 413.607 162.769C412.818 162.769 412.282 162.088 412.228 161.107C412.228 160.671 412.228 160.199 412.228 159.79C412.228 159.382 412.228 158.837 412.228 158.365C412.208 158.171 412.226 157.976 412.282 157.79C412.338 157.604 412.43 157.43 412.554 157.28C412.677 157.13 412.828 157.005 413 156.914C413.171 156.823 413.359 156.767 413.552 156.748C413.743 156.727 413.935 156.745 414.118 156.802C414.301 156.859 414.47 156.953 414.615 157.078C414.76 157.203 414.878 157.358 414.96 157.53C415.043 157.703 415.088 157.892 415.095 158.083C415.258 159.169 415.267 160.273 415.122 161.361Z" fill="#166D82"/>
<path d="M492.749 116.277C483.622 118.26 474.759 121.307 466.341 125.357L465.669 125.693C465.669 123.187 465.887 120.245 465.887 117.729C465.887 108.15 465.334 88.4176 465.334 80.8262C465.434 75.5066 465.06 70.1887 464.218 64.9353L465.851 64.3451C468.572 63.3644 471.339 62.4836 474.115 61.6936L475.739 61.2487L476.891 60.9399L478.252 60.5949C479.295 60.3315 480.348 60.0863 481.391 59.8502C482.434 59.6142 483.305 59.4325 484.257 59.2418C484.82 59.1238 485.391 59.0057 485.963 58.9059L487.514 58.6153L488.521 58.4428L490.254 58.1522L491.161 58.016C491.445 60.001 491.584 62.0039 491.578 64.0091C491.542 77.0941 492.485 103.954 492.749 116.277Z" fill="#166D82"/>
<path d="M411.938 256.752C411.938 257.306 412.092 259.004 412.273 261.12C411.729 262.473 411.185 263.844 410.668 265.179C410.033 266.786 409.425 268.393 408.808 270.01C408.391 271.145 407.964 272.271 407.556 273.406L407.166 274.468C406.773 275.54 406.392 276.611 406.023 277.683L405.796 278.282C398.022 278.219 384.813 277.883 375.397 277.719C377.937 269.156 380.504 260.693 383.18 252.394C384.171 252.669 385.202 252.773 386.228 252.702C388.578 252.702 405.551 253.383 407.901 253.383C410.25 253.383 411.938 255.063 411.938 256.752Z" fill="#269FA2"/>
<path d="M447.653 196.567C447.653 198.337 447.871 200.834 447.98 202.487C447.417 203.05 446.882 203.613 446.338 204.194C446.047 204.512 445.73 204.839 445.431 205.166C444.913 205.72 444.424 206.283 443.925 206.846C437.13 206.846 432.131 207.154 424.874 207.154C421.363 207.154 417.208 206.9 411.72 206.9C406.232 206.9 406.449 205.783 406.449 203.667C406.449 201.733 406.731 198.991 406.731 197.13C407.057 183.009 419.204 182.092 427.088 177.625C430.88 175.482 433.674 172.512 433.674 166.828C433.674 163.559 430.952 160.471 425.427 160.208C428.022 156.751 430.765 153.422 433.655 150.22C442.219 153.062 448.333 160.644 448.333 168.925C448.333 185.715 426.834 186.614 421.118 193.561C419.921 195.014 421.318 195.495 424.266 195.495C430.662 195.495 437.048 193.679 443.081 194.451C445.431 194.705 447.653 195.105 447.653 196.567Z" fill="#269FA2"/>
<path d="M465.669 125.702L466.341 125.366C474.758 121.316 483.622 118.269 492.748 116.286C492.748 118.283 492.821 119.918 492.821 121.017C492.821 128.617 492.086 131.514 488.476 131.514H466.831C465.769 131.505 465.615 128.962 465.669 125.702Z" fill="#269FA2"/>
<path d="M496.404 174.056L494.817 174.501C493.238 174.946 491.678 175.409 490.118 175.963C489.655 176.108 489.21 176.272 488.748 176.435C488.285 176.598 487.596 176.825 487.033 177.043L485.5 177.615C484.992 177.803 484.484 178.003 483.976 178.215C483.867 175.236 483.65 172.14 483.468 169.134C483.187 165.266 482.262 160.907 478.188 160.907C472.999 160.907 468.355 162.996 468.355 172.53L467.919 186.278C467.311 186.651 466.704 187.032 466.105 187.422L464.572 188.439C464.29 188.621 464.009 188.821 463.719 189.021C463.429 189.22 462.975 189.538 462.594 189.811C462.023 190.219 461.451 190.628 460.889 191.055C458.627 192.738 456.453 194.502 454.366 196.349C453.47 193.7 453.028 190.918 453.06 188.122C453.06 180.212 453.25 174.319 453.25 169.307C453.25 151.373 467.52 148.948 478.17 148.948C488.82 148.948 493.592 154.279 495.588 165.584C496.074 168.383 496.347 171.215 496.404 174.056Z" fill="#269FA2"/>
<path d="M412.273 261.129C412.673 265.424 413.28 271.444 413.28 273.261C412.936 276.284 410.931 278.309 408.236 278.309C407.493 278.309 406.694 278.309 405.796 278.309L406.023 277.71C406.398 276.639 406.779 275.567 407.166 274.495L407.556 273.433C407.964 272.298 408.391 271.172 408.808 270.037C409.425 268.421 410.033 266.813 410.668 265.206C411.185 263.835 411.729 262.482 412.273 261.129Z" fill="#4EB8B4"/>
<path d="M445.621 206.837H443.943C444.442 206.274 444.931 205.711 445.449 205.157C445.73 204.83 446.047 204.503 446.356 204.185C446.9 203.604 447.435 203.041 447.998 202.478C447.998 203.005 448.052 203.44 448.052 203.749C448.034 205.529 448.687 206.837 445.621 206.837Z" fill="#4EB8B4"/>
<path d="M469.915 239.39C469.915 256.198 448.415 257.097 442.7 264.044C441.502 265.479 442.899 265.978 445.857 265.978C448.305 265.937 450.75 265.755 453.178 265.433C449.972 269.313 446.986 273.369 444.233 277.583C441.212 277.519 437.692 277.365 433.347 277.365C427.904 277.365 428.067 276.221 428.067 274.132C428.067 272.198 428.348 269.456 428.348 267.594C428.802 246.664 455.319 254.736 455.319 237.293C455.319 233.906 452.343 230.664 446.41 230.664C438.246 230.664 437.883 241.343 437.883 242.777C437.883 244.403 437.32 244.893 435.488 244.893C433.819 244.893 430.099 244.73 430.099 244.73C429.192 244.73 428.24 244.239 428.24 242.005C428.24 228.766 432.703 219.558 447.898 219.558C460.09 219.549 469.915 228.92 469.915 239.39Z" fill="#4EB8B4"/>
<path d="M479.948 207.799C476.51 207.799 474.959 208.044 470.115 208.044C466.609 207.972 463.212 206.812 460.394 204.723C457.576 202.634 455.476 199.72 454.384 196.385C456.483 194.533 458.657 192.768 460.907 191.091C461.469 190.664 462.041 190.256 462.612 189.847C462.993 189.575 463.356 189.311 463.737 189.057C464.118 188.803 464.309 188.657 464.59 188.476L466.123 187.459C466.704 187.068 467.311 186.687 467.937 186.315V186.632C467.937 193.733 473.317 194.805 478.225 194.805C483.668 194.805 484.312 187.068 484.013 178.233C484.521 178.021 485.029 177.821 485.537 177.634L487.07 177.062C487.632 176.844 488.204 176.644 488.784 176.453C489.365 176.262 489.691 176.126 490.154 175.981C491.714 175.454 493.275 174.964 494.853 174.519L496.441 174.074C496.831 188.539 493.057 207.799 479.948 207.799Z" fill="#4EB8B4"/>
<path d="M504.388 220.439C502.286 219.842 500.113 219.537 497.929 219.531C486.589 219.531 481.237 224.662 479.268 232.789C479.373 233.072 479.497 233.348 479.64 233.615C479.718 233.747 479.782 233.887 479.83 234.033C479.495 234.369 479.141 234.687 478.805 235.022C478.315 235.477 477.844 235.931 477.363 236.439C477.212 236.62 477.019 236.762 476.801 236.852C476.583 236.942 476.346 236.978 476.111 236.957C475.486 236.92 474.859 236.92 474.233 236.957C473.326 236.957 472.872 237.411 472.881 238.128C472.891 238.845 473.326 239.181 474.224 239.2C476.156 239.2 476.156 239.2 476.193 241.17C476.193 242.078 476.546 242.487 477.254 242.505C477.458 242.512 477.661 242.467 477.843 242.375C478.025 242.283 478.182 242.147 478.297 241.978C478.364 241.872 478.408 241.754 478.426 241.631C478.445 241.507 478.438 241.381 478.406 241.261C478.355 241.019 478.324 240.773 478.315 240.525C478.315 240.38 478.315 240.244 478.315 240.099C478.415 238.391 479.549 237.238 480.856 236.13C481.037 235.967 481.191 235.758 481.364 235.585C482.375 236.18 483.506 236.54 484.675 236.639C485.564 236.674 486.451 236.521 487.278 236.191C488.104 235.861 488.853 235.361 489.474 234.723C489.809 234.405 490.1 234.069 490.381 233.751C491.048 232.776 491.949 231.983 493.001 231.445C494.054 230.907 495.223 230.642 496.404 230.673C498.437 230.612 500.446 231.115 502.21 232.126C506.827 230.684 511.526 229.516 516.281 228.63C513.326 224.663 509.145 221.784 504.388 220.439ZM486.788 231.853C486.772 232.24 486.604 232.605 486.32 232.869C486.036 233.132 485.66 233.273 485.273 233.261C484.484 233.261 483.949 232.58 483.895 231.599C483.872 231.161 483.872 230.721 483.895 230.282C483.895 229.801 483.895 229.329 483.895 228.848C483.873 228.655 483.891 228.461 483.946 228.275C484 228.089 484.092 227.917 484.214 227.767C484.337 227.617 484.488 227.494 484.659 227.403C484.83 227.313 485.017 227.257 485.21 227.24C485.401 227.219 485.594 227.237 485.778 227.293C485.962 227.349 486.132 227.442 486.279 227.566C486.426 227.69 486.546 227.843 486.632 228.015C486.718 228.187 486.768 228.374 486.779 228.566C486.932 229.656 486.935 230.762 486.788 231.853Z" fill="#4EB8B4"/>
<path d="M469.634 274.25C469.634 276.066 470.278 277.31 467.221 277.31C459.537 277.31 454.339 277.637 446.456 277.637H444.197C446.95 273.424 449.936 269.367 453.141 265.488C457.051 265.034 460.907 264.525 464.626 264.97C467.03 265.215 469.253 265.624 469.253 267.086C469.253 269.356 469.634 272.988 469.634 274.25Z" fill="#047F4D"/>
<path d="M519.71 274.25C519.71 276.066 520.372 277.329 517.315 277.329C509.613 277.329 504.442 277.637 496.55 277.637C493.039 277.637 488.866 277.392 483.396 277.392C477.925 277.392 478.125 276.266 478.125 274.16C478.125 272.225 478.406 269.483 478.406 267.622C478.715 253.501 490.88 252.584 498.763 248.117C502.555 245.974 505.349 243.004 505.349 237.32C505.327 236.255 505.025 235.214 504.474 234.302C503.923 233.391 503.143 232.64 502.21 232.126C506.827 230.684 511.526 229.516 516.281 228.63C518.631 231.752 519.921 235.545 519.964 239.454C519.964 256.244 498.473 257.143 492.749 264.089C491.551 265.542 492.93 266.023 495.878 266.023C502.283 266.023 508.678 264.207 514.702 264.979C517.106 265.206 519.338 265.615 519.338 267.077C519.347 269.356 519.71 272.988 519.71 274.25Z" fill="#047F4D"/>
</g>
<defs>
<clipPath id="clip0_6_236">
<rect width="520" height="278" fill="white" transform="translate(0 0.5)"/>
</clipPath>
</defs>
</svg>
