<svg width="1920" height="1080" viewBox="0 0 1920 1080" fill="none" xmlns="http://www.w3.org/2000/svg">
<mask id="mask0_6_444" style="mask-type:alpha" maskUnits="userSpaceOnUse" x="0" y="0" width="1920" height="1080">
<rect width="1920" height="1080" fill="#C4C4C4"/>
</mask>
<g mask="url(#mask0_6_444)">
</g>
<g clip-path="url(#clip0_6_444)">
<path d="M3295.78 921.044C3125 1108.38 2788.33 952.848 2571.93 994.611C2327.28 1041.8 2307.03 1350.14 2232.72 1541.49C2198.55 1629.48 2148.26 1729.56 2048.56 1753.27C1937.48 1779.65 1806.43 1729.91 1701.62 1696.31C1549.66 1647.61 1238.47 1498.28 1137.39 1698.28C1042.26 1886.35 1087.64 2128.16 1044.26 2329.89C1021.24 2437.01 973.5 2526.86 853.351 2532.44C737.484 2537.83 616.411 2495.71 507.211 2462.16C388.456 2425.67 270.438 2383 148.509 2357.88C57.2258 2339.07 -67.7759 2315.33 -129.941 2402.65C-205.07 2508.17 -160.167 2697.39 -147.052 2815.51C-133.417 2938.09 -97.1624 3099.56 -149.47 3217.13C-209.52 3351.89 -408.694 3330.21 -527.097 3320.53C-678.95 3308.13 -838.931 3275.72 -979.986 3349.33L-911.322 3450.69C-769.662 3375.46 -608.976 3406.71 -455.729 3418.33C-336.705 3427.35 -135.23 3447.82 -78.0022 3310.48C-27.6252 3189.67 -63.3594 3029.76 -77.5823 2904.74C-91.2346 2784.72 -135.953 2597.17 -61.2434 2489.4C1.15698 2399.36 124.245 2423.91 217.157 2443.52C339.187 2469.38 457.287 2512.62 576.143 2549.95C685.125 2584.17 806.064 2627.48 921.981 2623.95C1042.89 2620.28 1090.11 2528.69 1112.14 2421.47C1154.12 2217.61 1104.98 1975.25 1197.17 1784.04C1295.51 1580.04 1609.49 1731.98 1760.88 1781.62C1866.37 1816.24 1997.65 1868.1 2110.01 1843.41C2210.61 1821.31 2261.57 1721.15 2295.93 1632.92C2370.52 1441.49 2389.16 1128.73 2633.64 1079.97C2851.2 1036.57 3187.44 1193.72 3359.07 1005.53C3529.28 818.98 3477.19 511.294 3676.9 342.48L3616.77 253.716L3617.97 255.496C3417.09 424.931 3466.83 733.423 3295.78 921.044Z" fill="#ECAE21"/>
<path d="M3233.9 836.091C3064.42 1022.57 2726.77 868.685 2511.71 908.802C2266.91 954.477 2244.9 1258.35 2170.74 1449.63C2136.71 1537.41 2087.03 1637.44 1988.21 1662.69C1878.37 1690.75 1747.61 1643.13 1643.4 1610.5C1490.91 1562.76 1182.41 1415.71 1078.5 1611.75C980.419 1796.66 1022.57 2038.09 978 2237.68C954.139 2344.6 906.163 2432.91 786.77 2440.45C670.902 2447.79 549.83 2406.65 440.461 2373.73C321.773 2338.03 203.823 2295.87 82.0955 2271.43C-7.62598 2253.42 -134.442 2230.44 -196.406 2314.99C-272.089 2418.23 -227.321 2609.21 -214.877 2725.57C-201.998 2845.88 -165.407 3009.09 -219.915 3123.28C-282.953 3255.43 -479.743 3232.74 -597.894 3222.45C-748.622 3209.34 -908.132 3175.89 -1048.67 3247.87L-979.987 3349.33C-838.931 3275.72 -678.95 3308.13 -527.097 3320.53C-408.694 3330.21 -209.521 3351.89 -149.555 3217.13C-97.2471 3099.58 -133.501 2938.16 -147.136 2815.51C-160.268 2697.39 -205.154 2508.21 -130.025 2402.65C-67.8936 2315.33 57.1421 2339.07 148.425 2357.88C270.304 2383.07 388.371 2425.67 507.126 2462.16C616.276 2495.75 737.333 2537.83 853.267 2532.44C973.416 2526.86 1021.19 2437.01 1044.18 2329.89C1087.55 2128.16 1042.18 1886.37 1137.31 1698.28C1238.45 1498.28 1549.65 1647.61 1701.53 1696.31C1806.35 1729.9 1937.4 1779.65 2048.48 1753.27C2148.17 1729.59 2198.47 1629.48 2232.64 1541.49C2306.96 1350.05 2327.21 1041.8 2571.85 994.611C2788.25 952.848 3124.92 1108.38 3295.7 921.044C3466.74 733.423 3417 424.931 3617.99 255.446L3616.78 253.666L3559.08 168.478C3357.34 338.467 3405.32 647.446 3233.9 836.091Z" fill="#E5722B"/>
<path d="M3173.31 750.668C3005.39 936.274 2666.18 784.085 2452.82 822.573C2207.84 866.754 2183.99 1166.11 2109.91 1357.38C2075.97 1444.96 2026.88 1544.9 1928.92 1571.7C1820.24 1601.42 1689.86 1555.91 1586.17 1524.19C1433.16 1477.39 1127.33 1332.62 1020.64 1524.49C919.58 1706.2 958.908 1947.43 913.451 2145.07C888.917 2251.75 840.841 2338.62 722.304 2348.26C606.571 2357.59 485.381 2317.31 375.928 2285C257.341 2249.99 139.509 2208.31 17.9661 2184.5C-70.2944 2167.22 -198.84 2145 -260.636 2226.75C-336.957 2327.7 -292.542 2520.61 -280.888 2635.22C-268.847 2753.24 -232.189 2918.58 -288.948 3029.22C-355.395 3158.74 -549.615 3135.21 -667.917 3124.37C-817.755 3110.61 -976.896 3076.21 -1117.25 3146.65L-1048.58 3248.01C-908.048 3176.02 -748.538 3209.47 -597.81 3222.59C-479.658 3232.88 -282.868 3255.57 -219.83 3123.41C-165.356 3009.22 -201.946 2846.02 -214.792 2725.7C-227.269 2609.35 -272.037 2418.4 -196.321 2315.13C-134.357 2230.58 -7.54199 2253.55 82.1794 2271.57C203.907 2296 321.857 2338.17 440.545 2373.87C549.914 2406.78 670.986 2447.92 786.854 2440.58C906.18 2432.98 954.156 2344.66 978.001 2237.68C1022.55 2038.02 980.402 1796.6 1078.49 1611.68C1182.4 1415.73 1490.89 1562.7 1643.38 1610.44C1747.59 1643.06 1878.36 1690.69 1988.19 1662.63C2087.02 1637.44 2136.69 1537.34 2170.73 1449.57C2244.88 1258.28 2266.9 954.41 2511.7 908.735C2726.64 868.618 3064.4 1022.5 3233.88 836.024C3405.3 647.429 3357.32 338.483 3559.15 168.411L3500.21 81.5439C3297.96 252.087 3344.71 561.2 3173.31 750.668Z" fill="#DF3B31"/>
<path d="M3113.82 664.86C2947.76 849.575 2606.69 699.099 2395.11 735.958C2149.94 778.678 2124.18 1073.48 2050.09 1264.77C2016.22 1352.2 1967.67 1452.02 1870.56 1480.35C1762.99 1511.75 1633.05 1468.34 1529.83 1437.48C1376.32 1391.58 1073.08 1248.85 963.626 1436.64C859.615 1615.04 896.457 1856.26 850.295 2051.94C825.207 2158.3 777.165 2243.86 659.568 2255.5C544.02 2266.93 422.711 2227.35 313.208 2195.62C194.739 2161.26 77.0583 2120.05 -44.3167 2096.79C-131.183 2080.17 -261.408 2058.74 -323.07 2137.63C-400.096 2236.29 -356.353 2431.09 -345.538 2544.16C-334.455 2659.91 -297.949 2827.68 -357.091 2934.58C-427.266 3061.41 -618.699 3037.3 -737.488 3025.88C-886.654 3011.56 -1045.64 2976.28 -1185.84 3045.22L-1117.18 3146.58C-976.88 3076.06 -817.688 3110.55 -667.851 3124.3C-549.548 3135.15 -355.328 3158.67 -288.881 3029.15C-232.123 2918.51 -268.73 2753.17 -280.821 2635.16C-292.575 2520.48 -336.89 2327.64 -260.569 2226.68C-198.773 2144.94 -70.2275 2167.15 18.0332 2184.43C139.576 2208.24 257.408 2249.92 375.995 2284.93C485.448 2317.24 606.638 2357.53 722.371 2348.19C840.908 2338.62 888.985 2251.75 913.518 2145C958.975 1947.36 919.647 1706.14 1020.7 1524.43C1127.4 1332.56 1433.22 1477.41 1586.24 1524.12C1689.93 1555.84 1820.3 1601.37 1928.98 1571.63C2026.95 1544.76 2076.04 1444.9 2109.97 1357.31C2184.06 1166.04 2207.91 866.687 2452.89 822.506C2666.3 784.018 3005.47 936.207 3173.38 750.601C3344.71 561.201 3297.96 252.087 3500.21 81.5442L3440.08 -7.22021L3441.3 -5.42358C3238.92 165.506 3284.87 474.602 3113.82 664.86Z" fill="#166D82"/>
<path d="M3055.21 578.715C2891.19 762.524 2547.93 613.777 2338.18 649.041C2092.81 690.283 2065.09 980.489 1990.95 1171.87C1957.13 1259.19 1909.1 1358.87 1812.83 1388.74C1706.32 1421.81 1576.9 1380.48 1474.08 1350.44C1320.06 1305.44 1019.38 1164.6 907.154 1348.24C800.187 1523.3 834.796 1764.69 788.146 1958.41C762.605 2064.47 714.697 2148.77 598.108 2162.52C482.828 2176.12 361.335 2137.11 251.849 2105.91C133.497 2072.18 15.9675 2031.37 -105.206 2008.68C-190.746 1992.66 -322.667 1972.01 -384.06 2048.04C-461.842 2144.38 -418.954 2341.22 -409.063 2452.74C-398.988 2566.66 -363.153 2736.21 -424.462 2839.74C-498.013 2964 -687.514 2939.21 -806.672 2927.31C-955.301 2912.45 -1114.21 2876.38 -1254.52 2943.88L-1185.88 3045.22C-1045.63 2976.28 -886.637 3011.56 -737.521 3025.88C-618.732 3037.3 -427.3 3061.41 -357.125 2934.58C-297.982 2827.68 -334.489 2659.91 -345.572 2544.16C-356.386 2431.09 -400.13 2236.29 -323.103 2137.63C-261.492 2058.71 -131.267 2080.17 -44.3503 2096.79C77.0249 2120.03 194.705 2161.26 313.175 2195.62C422.678 2227.35 543.986 2266.93 659.534 2255.5C777.081 2243.86 825.174 2158.3 850.261 2051.94C896.407 1856.26 859.581 1615.04 963.593 1436.64C1073.05 1248.85 1376.28 1391.58 1529.8 1437.48C1633.02 1468.34 1762.96 1511.75 1870.53 1480.35C1967.64 1452.02 2016.19 1352.2 2050.06 1264.77C2124.15 1073.47 2149.9 778.678 2395.07 735.958C2606.66 699.015 2947.79 849.559 3113.78 664.86C3284.83 474.603 3238.89 165.573 3441.24 -5.45703L3440.01 -7.25366L3382.31 -92.4412C3180.15 78.9917 3225.62 387.752 3055.21 578.715Z" fill="#269FA2"/>
<path d="M2997.28 492.352C2835.44 675.237 2489.75 528.204 2281.93 561.872C2036.32 601.636 2006.62 887.257 1932.39 1078.77C1898.57 1166.09 1851.09 1265.52 1755.65 1296.96C1650.15 1331.68 1521.32 1292.47 1418.83 1263.19C1264.34 1219.04 966.112 1079.97 851.151 1259.46C741.229 1431.09 773.806 1672.75 726.888 1864.57C700.978 1970.36 653.287 2053.38 537.739 2069.3C422.795 2085.14 301.085 2046.6 191.632 2015.92C73.4143 1982.77 -43.9475 1942.35 -164.919 1920.2C-249.2 1904.77 -382.8 1884.94 -443.924 1958.05C-522.495 2052.09 -480.649 2251 -471.732 2361.07C-462.631 2473.58 -427.955 2644.32 -491.245 2744.73C-567.919 2866.3 -756.127 2841.05 -875.537 2828.69C-1023.78 2813.34 -1182.67 2776.51 -1323.19 2842.59L-1254.52 2943.95C-1114.21 2876.44 -955.301 2912.51 -806.672 2927.38C-687.447 2939.28 -498.012 2963.98 -424.462 2839.8C-363.153 2736.28 -398.954 2566.73 -409.063 2452.81C-418.953 2341.29 -461.842 2144.45 -384.06 2048.11C-322.667 1972.08 -190.746 1992.7 -105.206 2008.75C15.9678 2031.44 133.497 2072.24 251.849 2105.98C361.335 2137.18 482.828 2176.19 598.108 2162.59C714.697 2148.83 762.673 2064.53 788.146 1958.47C834.796 1764.74 800.187 1523.37 907.154 1348.31C1019.38 1164.67 1320.06 1305.5 1474.08 1350.51C1576.9 1380.55 1706.32 1421.88 1812.83 1388.81C1909.1 1358.94 1957.13 1259.27 1990.95 1171.94C2065.09 980.505 2092.81 690.35 2338.18 649.108C2547.97 613.844 2891.22 762.591 3055.21 578.782C3225.62 387.82 3180.15 79.0588 3382.41 -92.3743L3322.28 -181.138L3323.49 -179.342C3121.58 -7.60669 3166.85 300.734 2997.28 492.352Z" fill="#4EB8B4"/>
<path d="M2940.56 406.929C2862.2 496.264 2714.93 496.063 2605.8 489.699C2480.92 482.394 2351.82 456.114 2226.93 475.626C1981.09 513.947 1949.44 795.034 1875.11 986.719C1841.31 1073.92 1794.31 1173.28 1699.72 1206.24C1595.17 1242.65 1466.99 1205.47 1364.8 1176.93C1209.75 1133.62 913.971 996.139 796.308 1171.52C683.463 1339.71 714.193 1581.76 667.007 1771.73C640.811 1877.1 593.372 1959.05 478.932 1977.11C364.492 1995.18 242.395 1957.06 133.01 1926.89C14.9258 1894.29 -102.284 1854.26 -223.072 1832.58C-306.143 1817.67 -441.456 1798.61 -502.244 1868.89C-581.571 1960.59 -540.867 2161.64 -532.991 2270.22C-524.914 2381.37 -491.548 2553.38 -556.82 2650.64C-636.65 2769.56 -823.465 2743.94 -943.346 2731.12C-1091.32 2715.31 -1250.24 2677.79 -1391.01 2742.48L-1323.24 2842.52C-1182.72 2776.45 -1023.83 2813.27 -875.589 2828.62C-756.178 2840.98 -567.969 2866.23 -491.296 2744.66C-428.005 2644.26 -462.749 2473.48 -471.783 2361C-480.699 2250.98 -522.546 2052.02 -443.975 1957.99C-382.85 1884.84 -249.184 1904.71 -164.97 1920.14C-44.0652 1942.3 73.3638 1982.72 191.582 2015.85C301.034 2046.53 422.745 2085.07 537.689 2069.24C653.237 2053.32 700.927 1970.16 726.837 1864.5C773.856 1672.69 741.245 1431.03 851.101 1259.39C966.061 1079.9 1264.19 1218.97 1418.78 1263.12C1521.22 1292.41 1650.1 1331.62 1755.6 1296.89C1851.03 1265.45 1898.52 1165.91 1932.34 1078.71C2006.57 887.274 2036.27 601.569 2281.88 561.805C2489.66 528.22 2835.35 675.17 2997.23 492.284C3166.83 300.667 3121.49 -7.67358 3323.44 -179.409L3322.23 -181.206L3263.3 -268.173L3265.29 -265.251C3063.9 -93.0964 3109.15 214.707 2940.56 406.929Z" fill="#047F4D"/>
<path d="M2883.34 320.314C2806.38 408.894 2657.5 408.945 2549.7 402.765C2424.93 395.594 2296.28 369.415 2171.45 388.105C1925.34 425.048 1891.72 701.467 1817.3 893.387C1783.5 980.556 1737.03 1079.78 1643.28 1114.31C1539.69 1152.44 1412.23 1117.33 1310.27 1089.49C1154.67 1046.97 861.311 911.035 740.893 1082.23C625.026 1246.8 654.06 1489.4 606.672 1677.5C580.207 1782.61 533.004 1863.31 419.756 1883.61C305.568 1904.05 183.32 1866.22 74.0186 1836.6C-43.9307 1804.56 -160.973 1764.91 -281.559 1743.72C-344.379 1732.68 -439.642 1719.39 -507.87 1744.15C-509.268 1753.2 -511.517 1762.1 -514.586 1770.72C-517.945 1780.31 -522.26 1788.62 -528.02 1794.85C-529.599 1796.53 -536.114 1800.66 -544.813 1805.73C-546.072 1833.66 -549.564 1863.38 -558.582 1886.47C-562.864 1898.54 -568.523 1909.04 -575.996 1916.83C-577.977 1918.89 -580.127 1920.89 -582.394 1922.84C-584.501 1938.55 -588.186 1954 -593.392 1968.97C-597.336 1980.78 -602.771 1992.04 -609.564 2002.47C-606.726 2067.68 -597.691 2131.87 -594.719 2178.15C-587.666 2288.04 -555.711 2461.46 -622.897 2555.36C-705.986 2671.49 -891.239 2645.62 -1011.81 2632.35C-1159.58 2616.08 -1318.52 2577.89 -1459.61 2641.17L-1390.94 2742.53C-1250.17 2677.84 -1091.25 2715.36 -943.278 2731.17C-823.398 2743.99 -636.583 2769.61 -556.752 2650.69C-491.497 2553.48 -524.846 2381.42 -532.991 2270.27C-540.9 2161.7 -581.571 1960.64 -502.244 1868.94C-441.456 1798.66 -306.143 1817.72 -223.071 1832.63C-102.284 1854.31 14.9263 1894.34 133.01 1926.94C242.395 1957.16 364.392 1995.27 478.932 1977.16C593.473 1959.06 640.827 1877.15 667.007 1771.78C714.227 1581.81 683.497 1339.76 796.308 1171.57C913.972 996.189 1209.75 1133.67 1364.8 1176.98C1466.99 1205.52 1595.17 1242.7 1699.72 1206.3C1794.31 1173.33 1841.31 1073.97 1875.11 986.769C1949.44 795.084 1981.09 513.997 2226.93 475.677C2351.82 456.198 2480.92 482.394 2605.8 489.749C2714.95 496.114 2862.2 496.315 2940.55 406.98C3109.15 214.758 3063.89 -93.0625 3265.34 -265.201L3263.35 -268.123L3206.41 -352.185C3005.54 -179.761 3050.88 127.488 2883.34 320.314Z" fill="#27A058"/>
<path d="M2826.42 232.894C2750.85 320.583 2600.38 320.919 2493.93 314.941C2369.3 307.939 2241.1 281.843 2116.37 299.828C1870.03 335.226 1834.48 607.128 1760 799.4C1726.23 886.552 1680.32 985.677 1587.41 1021.78C1484.83 1061.65 1358.25 1028.65 1256.52 1001.5C1100.58 959.784 809.741 825.445 686.838 992.428C568.284 1153.63 595.051 1396.25 547.293 1582.51C520.426 1687.26 473.407 1766.72 361.234 1789.17C247.802 1811.88 125.453 1774.36 16.4209 1745.11C-101.125 1713.57 -217.698 1674.26 -337.797 1653.51C-375.832 1646.93 -426.797 1639.57 -476.351 1640.41C-481.472 1656.45 -491.246 1670.94 -503.806 1683.63C-503.806 1703.38 -504.629 1724.81 -507.87 1744.09C-439.643 1719.32 -344.38 1732.62 -281.56 1743.65C-160.974 1764.84 -43.9312 1804.49 74.0183 1836.53C183.32 1866.2 305.652 1904.03 419.756 1883.55C533.003 1863.31 580.207 1782.61 606.672 1677.5C654.06 1489.43 625.143 1246.85 740.893 1082.23C861.311 910.952 1154.67 1046.97 1310.27 1089.49C1412.23 1117.33 1539.69 1152.44 1643.28 1114.31C1737.03 1079.8 1783.5 980.556 1817.3 893.387C1891.72 701.467 1925.34 424.88 2171.45 388.105C2296.28 369.415 2424.93 395.595 2549.7 402.765C2657.5 408.945 2806.38 408.894 2883.34 320.314C3050.88 127.488 3005.54 -179.762 3206.41 -352.236L3146.28 -441L3147.5 -439.203C2947.27 -266.695 2992.8 39.7482 2826.42 232.894Z" fill="#4FB765"/>
</g>
<defs>
<clipPath id="clip0_6_444">
<rect width="5200" height="3891.64" fill="white" transform="translate(3677 3450.64) rotate(-180)"/>
</clipPath>
</defs>
</svg>
