<svg width="26" height="21" viewBox="0 0 26 21" fill="none" xmlns="http://www.w3.org/2000/svg">
<path d="M23.5001 0.833333C22.2051 0.425 20.7817 0.25 19.4167 0.25C17.1417 0.25 14.6917 0.716667 13.0001 2C11.3084 0.716667 8.85841 0.25 6.58341 0.25C4.30841 0.25 1.85841 0.716667 0.166748 2V19.0917C0.166748 19.3833 0.458415 19.675 0.750081 19.675C0.866748 19.675 0.925081 19.6167 1.04175 19.6167C2.61675 18.8583 4.89175 18.3333 6.58341 18.3333C8.85841 18.3333 11.3084 18.8 13.0001 20.0833C14.5751 19.0917 17.4334 18.3333 19.4167 18.3333C21.3417 18.3333 23.3251 18.6833 24.9584 19.5583C25.0751 19.6167 25.1334 19.6167 25.2501 19.6167C25.5417 19.6167 25.8334 19.325 25.8334 19.0333V2C25.1334 1.475 24.3751 1.125 23.5001 0.833333ZM23.5001 16.5833C22.2167 16.175 20.8167 16 19.4167 16C17.4334 16 14.5751 16.7583 13.0001 17.75V4.33333C14.5751 3.34167 17.4334 2.58333 19.4167 2.58333C20.8167 2.58333 22.2167 2.75833 23.5001 3.16667V16.5833Z" fill="#269FA2"/>
</svg>
