<svg width="28" height="28" viewBox="0 0 28 28" fill="none" xmlns="http://www.w3.org/2000/svg">
<path d="M23.3333 10.1383V4.66666H17.8616L13.9999 0.804993L10.1383 4.66666H4.6666V10.1383L0.804932 14L4.6666 17.8617V23.3333H10.1383L13.9999 27.195L17.8616 23.3333H23.3333V17.8617L27.1949 14L23.3333 10.1383ZM20.9999 16.8933V21H16.8933L13.9999 23.8933L11.1066 21H6.99993V16.8933L4.1066 14L6.99993 11.1067V6.99999H11.1066L13.9999 4.10666L16.8933 6.99999H20.9999V11.1067L23.8933 14L20.9999 16.8933ZM13.9999 7.58333C10.4649 7.58333 7.58327 10.465 7.58327 14C7.58327 17.535 10.4649 20.4167 13.9999 20.4167C17.5349 20.4167 20.4166 17.535 20.4166 14C20.4166 10.465 17.5349 7.58333 13.9999 7.58333ZM13.9999 18.0833C11.7483 18.0833 9.9166 16.2517 9.9166 14C9.9166 11.7483 11.7483 9.91666 13.9999 9.91666C16.2516 9.91666 18.0833 11.7483 18.0833 14C18.0833 16.2517 16.2516 18.0833 13.9999 18.0833Z" fill="#269FA2"/>
</svg>
