<svg width="24" height="24" viewBox="0 0 24 24" fill="none" xmlns="http://www.w3.org/2000/svg">
<path d="M9.08325 12C9.08325 12.6417 8.55825 13.1667 7.91659 13.1667C7.27492 13.1667 6.74992 12.6417 6.74992 12C6.74992 11.3583 7.27492 10.8333 7.91659 10.8333C8.55825 10.8333 9.08325 11.3583 9.08325 12ZM14.0416 9.66666C14.6833 9.66666 15.2083 9.14166 15.2083 8.49999C15.2083 7.85833 14.6833 7.33333 14.0416 7.33333C13.3999 7.33333 12.8749 7.85833 12.8749 8.49999C12.8749 9.14166 13.3999 9.66666 14.0416 9.66666ZM9.95825 9.66666C10.5999 9.66666 11.1249 9.14166 11.1249 8.49999C11.1249 7.85833 10.5999 7.33333 9.95825 7.33333C9.31659 7.33333 8.79159 7.85833 8.79159 8.49999C8.79159 9.14166 9.31659 9.66666 9.95825 9.66666ZM9.95825 14.3333C9.31659 14.3333 8.79159 14.8583 8.79159 15.5C8.79159 16.1417 9.31659 16.6667 9.95825 16.6667C10.5999 16.6667 11.1249 16.1417 11.1249 15.5C11.1249 14.8583 10.5999 14.3333 9.95825 14.3333ZM23.6666 11.125V12.875C23.6666 13.3533 23.2699 13.75 22.7916 13.75C22.3133 13.75 21.9166 13.3533 21.9166 12.875H20.1199C19.9449 14.4733 19.3149 15.9433 18.3466 17.1333L19.6183 18.405L19.6299 18.3933C19.9683 18.055 20.5283 18.055 20.8666 18.3933C21.2049 18.7317 21.2049 19.2917 20.8666 19.63L19.6299 20.8667C19.2916 21.205 18.7316 21.205 18.3933 20.8667C18.0549 20.5283 18.0549 19.98 18.3816 19.6417L17.1099 18.37C15.9199 19.3267 14.4616 19.9567 12.8633 20.1317V21.9283H12.8749C13.3533 21.9283 13.7499 22.325 13.7499 22.8033C13.7499 23.2817 13.3533 23.6783 12.8749 23.6783H11.1249C10.6466 23.6783 10.2499 23.2817 10.2499 22.8033C10.2499 22.325 10.6349 21.94 11.1133 21.9283V20.12C9.51492 19.945 8.05659 19.315 6.87825 18.3583L5.60659 19.63L5.61825 19.6417C5.95659 19.98 5.95659 20.54 5.61825 20.8783C5.27992 21.2167 4.71992 21.2167 4.38159 20.8783L3.13325 19.63C2.79492 19.2917 2.79492 18.7317 3.13325 18.3933C3.47159 18.055 4.01992 18.055 4.35825 18.3817L5.62992 17.11C4.67325 15.92 4.04325 14.4733 3.87992 12.875H2.08325C2.08325 13.3533 1.68659 13.75 1.20825 13.75C0.729919 13.75 0.333252 13.3533 0.333252 12.875V11.125C0.333252 10.6467 0.729919 10.25 1.20825 10.25C1.68659 10.25 2.08325 10.6467 2.08325 11.125H3.87992C4.05492 9.52666 4.68492 8.07999 5.62992 6.88999L4.35825 5.61833C4.01992 5.94499 3.47159 5.94499 3.13325 5.60666C2.79492 5.26833 2.79492 4.70833 3.13325 4.36999L4.36992 3.13333C4.70825 2.795 5.26825 2.795 5.60659 3.13333C5.94492 3.47166 5.94492 4.03166 5.60659 4.36999L5.59492 4.38166L6.86659 5.65333C8.05659 4.69666 9.50325 4.06666 11.1016 3.89166V2.08333C10.6233 2.07166 10.2383 1.68666 10.2383 1.20833C10.2499 0.729995 10.6466 0.333328 11.1249 0.333328H12.8749C13.3533 0.333328 13.7499 0.729995 13.7499 1.20833C13.7499 1.68666 13.3533 2.08333 12.8749 2.08333H12.8633V3.87999C14.4616 4.04333 15.9199 4.685 17.1099 5.64166L18.3816 4.36999C18.0433 4.03166 18.0549 3.48333 18.3933 3.14499C18.7316 2.80666 19.2916 2.80666 19.6299 3.14499L20.8666 4.38166C21.2049 4.71999 21.2049 5.27999 20.8666 5.61833C20.5283 5.95666 19.9683 5.95666 19.6299 5.61833L19.6183 5.60666L18.3466 6.86666C19.3033 8.05666 19.9449 9.51499 20.1199 11.125H21.9166C21.9166 10.6467 22.3133 10.25 22.7916 10.25C23.2699 10.25 23.6666 10.6467 23.6666 11.125ZM17.8333 12C17.8333 8.77999 15.2199 6.16666 11.9999 6.16666C8.77992 6.16666 6.16659 8.77999 6.16659 12C6.16659 15.22 8.77992 17.8333 11.9999 17.8333C15.2199 17.8333 17.8333 15.22 17.8333 12ZM11.9999 10.8333C11.3583 10.8333 10.8333 11.3583 10.8333 12C10.8333 12.6417 11.3583 13.1667 11.9999 13.1667C12.6416 13.1667 13.1666 12.6417 13.1666 12C13.1666 11.3583 12.6416 10.8333 11.9999 10.8333ZM16.0833 10.8333C15.4416 10.8333 14.9166 11.3583 14.9166 12C14.9166 12.6417 15.4416 13.1667 16.0833 13.1667C16.7249 13.1667 17.2499 12.6417 17.2499 12C17.2499 11.3583 16.7249 10.8333 16.0833 10.8333ZM14.0416 14.3333C13.3999 14.3333 12.8749 14.8583 12.8749 15.5C12.8749 16.1417 13.3999 16.6667 14.0416 16.6667C14.6833 16.6667 15.2083 16.1417 15.2083 15.5C15.2083 14.8583 14.6833 14.3333 14.0416 14.3333Z" fill="#269FA2"/>
</svg>
