<svg width="1440" height="1791" viewBox="0 0 1440 1791" fill="none" xmlns="http://www.w3.org/2000/svg">
<mask id="mask0_251_453" style="mask-type:alpha" maskUnits="userSpaceOnUse" x="0" y="0" width="1440" height="1791">
<rect width="1440" height="1791" fill="#C4C4C4"/>
</mask>
<g mask="url(#mask0_251_453)">
<mask id="mask1_251_453" style="mask-type:alpha" maskUnits="userSpaceOnUse" x="236" y="822" width="1889" height="596">
<rect width="1792.47" height="507.977" transform="matrix(0.998536 -0.054097 0.193911 0.981019 236.384 919.22)" fill="#C4C4C4"/>
</mask>
<g mask="url(#mask1_251_453)">
</g>
<g clip-path="url(#clip0_251_453)">
<path d="M3392.36 619.418C3250.24 801.003 2922.21 696.402 2724.28 754.086C2500.52 819.275 2509.77 1092.99 2457.95 1268.81C2434.12 1349.65 2396.36 1442.72 2305.59 1473.23C2204.44 1507.2 2077.74 1476 1976.97 1456.5C1830.87 1428.24 1527.15 1326.64 1451.17 1512.66C1379.64 1687.6 1443.99 1896.34 1421.96 2078.32C1410.27 2174.95 1373.96 2258.75 1262.46 2275.26C1154.94 2291.19 1038.23 2265.75 933.376 2246.71C819.342 2226.01 705.433 2199.78 589.478 2189.41C502.668 2181.63 383.974 2172.77 333.986 2255.72C273.575 2355.98 332.691 2518.41 355.69 2621.25C379.582 2727.98 428.106 2866.8 390.066 2975.46C346.378 3100.02 158.729 3100.13 47.47 3103.03C-95.2211 3106.74 -247.313 3093.61 -372.093 3172.1L-298.839 3254.81C-173.643 3174.84 -20.9989 3186.88 122.92 3182.34C234.698 3178.81 424.382 3177.41 465.204 3050.84C501.148 2939.51 453.251 2802.01 428.59 2693.2C404.917 2588.74 346.124 2427.75 405.939 2325.55C455.898 2240.18 572.881 2249.94 661.284 2258.26C777.4 2269.28 891.438 2296 1005.64 2317.44C1110.36 2337.09 1227.05 2363.59 1334.79 2349.3C1447.16 2334.39 1482.83 2249.12 1493.59 2152.49C1514.13 1968.77 1446.22 1759.9 1514.72 1582.48C1587.78 1393.2 1894.34 1496.82 2039.99 1525.97C2141.49 1546.31 2268.6 1579.35 2371.09 1546.75C2462.86 1517.57 2501.23 1424.37 2525.21 1343.29C2577.29 1167.38 2566.14 889.926 2789.6 823.362C2988.45 764.13 3316.23 870.195 3459.06 687.772C3600.72 506.938 3524.09 240.779 3694.87 72.7271L3630.72 0.29438L3632.01 1.74665C3460.19 170.459 3534.7 437.555 3392.36 619.418Z" fill="#ECAE21"/>
<path d="M3326.92 550.513C3185.94 731.219 2857.14 628.162 2660.32 684.266C2436.28 748.137 2443.48 1018.08 2391.79 1193.83C2368.07 1274.47 2330.89 1367.43 2241.07 1399.22C2141.23 1434.55 2014.99 1405.19 1914.87 1386.48C1768.36 1359.12 1467.37 1259.27 1388.38 1442.07C1313.81 1614.52 1375.12 1823.23 1351.78 2003.45C1339.29 2099.98 1302.62 2182.44 1192 2200.61C1084.66 2218.25 968.043 2193.67 863.086 2175.21C749.188 2155.2 635.388 2129.41 519.683 2119.62C434.4 2112.39 314.086 2104.38 264.034 2184.88C202.897 2283.17 262.049 2447.17 284.261 2548.52C307.241 2653.33 356.237 2793.64 315.838 2899.54C269.126 3022.1 83.6079 3021.09 -27.4727 3023.41C-169.179 3026.39 -320.928 3012.3 -445.37 3089.3L-372.092 3172.1C-247.313 3093.61 -95.2204 3106.74 47.4709 3103.03C158.73 3100.13 346.379 3100.02 389.988 2975.47C428.03 2866.82 379.511 2728.04 355.613 2621.26C332.598 2518.42 273.501 2356.01 333.909 2255.73C383.865 2172.78 502.591 2181.64 589.401 2189.41C705.315 2199.86 819.264 2226.01 933.298 2246.72C1038.11 2265.79 1154.8 2291.2 1262.38 2275.27C1373.88 2258.76 1410.22 2174.96 1421.88 2078.33C1443.92 1896.35 1379.57 1687.62 1451.09 1512.67C1527.14 1326.64 1830.86 1428.24 1976.89 1456.51C2077.66 1475.99 2204.37 1507.21 2305.51 1473.24C2396.29 1442.75 2434.04 1349.66 2457.87 1268.81C2509.7 1092.92 2500.46 819.281 2724.21 754.094C2922.13 696.41 3250.16 801.011 3392.28 619.426C3534.62 437.563 3460.11 170.467 3632.02 1.70029L3630.73 0.248019L3569.17 -69.2672C3396.61 100.017 3469.51 367.712 3326.92 550.513Z" fill="#E5722B"/>
<path d="M3262.65 481.069C3123.04 660.855 2792.95 559.443 2597.56 613.948C2373.21 676.52 2378.29 942.663 2326.67 1118.38C2303.02 1198.86 2266.37 1291.67 2177.49 1324.74C2078.89 1361.42 1953.2 1333.89 1853.65 1315.93C1706.74 1289.45 1408.44 1191.36 1326.48 1370.75C1248.84 1540.66 1307.51 1749.47 1283.16 1928.05C1270.02 2024.44 1233.12 2105.64 1123.5 2125.57C1016.46 2144.97 899.815 2121.15 794.835 2103.23C681.093 2083.82 567.448 2058.45 451.972 2049.19C368.119 2042.47 246.26 2035.29 196.109 2113.3C134.169 2209.64 193.169 2375.38 214.486 2475.27C236.473 2578.12 285.726 2720.31 242.907 2823.3C192.777 2943.87 9.57637 2941.87 -101.696 2943.72C-242.631 2946.05 -394.122 2931.08 -518.534 3006.7L-445.28 3089.41C-320.837 3012.41 -169.089 3026.5 -27.382 3023.52C83.6986 3021.2 269.218 3022.21 315.93 2899.65C356.297 2793.75 307.301 2653.44 284.352 2548.63C262.109 2447.29 202.96 2283.31 264.125 2184.99C314.177 2104.49 434.491 2112.51 519.774 2119.73C635.478 2129.52 749.278 2155.31 863.177 2175.32C968.133 2193.78 1084.75 2218.36 1192.09 2200.72C1302.64 2182.5 1339.31 2100.04 1351.78 2003.45C1375.1 1823.17 1313.79 1614.46 1388.36 1442.02C1467.35 1259.29 1768.34 1359.06 1914.85 1386.43C2014.97 1405.13 2141.21 1434.49 2241.05 1399.16C2330.87 1367.43 2368.05 1274.41 2391.77 1193.77C2443.45 1018.03 2436.26 748.08 2660.3 684.208C2857.01 628.115 3185.91 731.161 3326.9 550.456C3469.5 367.699 3396.6 100.033 3569.23 -69.3331L3506.36 -140.208C3333.38 29.6123 3405.15 297.544 3262.65 481.069Z" fill="#DF3B31"/>
<path d="M3199.36 411.179C3061.41 590.001 2729.74 490.278 2535.86 543.176C2311.2 604.478 2314.08 866.795 2262.46 1042.53C2238.86 1122.86 2202.71 1215.52 2114.76 1249.85C2017.35 1287.91 1892.26 1262.18 1793.22 1244.94C1645.92 1219.3 1350.22 1122.75 1265.32 1298.82C1184.63 1466.09 1240.98 1675.14 1215.79 1852.06C1202.1 1948.23 1165.12 2028.27 1056.56 2049.87C949.885 2071.09 833.19 2047.91 728.215 2030.5C614.642 2011.65 501.181 1986.68 385.913 1977.89C303.418 1971.62 180.067 1965.3 129.78 2040.78C66.9732 2135.16 125.519 2302.64 145.912 2401.24C166.801 2502.19 216.135 2646.54 170.751 2746.46C116.901 2865.02 -63.7539 2862.23 -175.532 2863.63C-315.893 2865.39 -467.323 2849.63 -591.73 2923.93L-518.477 3006.64C-394.12 2930.94 -242.574 2945.99 -101.639 2943.65C9.63321 2941.8 192.834 2943.8 242.964 2823.24C285.783 2720.24 236.577 2578.05 214.542 2475.2C193.126 2375.27 134.226 2209.57 196.166 2113.23C246.317 2035.23 368.175 2042.41 452.029 2049.12C567.504 2058.38 681.15 2083.75 794.892 2103.17C899.872 2121.08 1016.52 2144.9 1123.56 2125.51C1233.19 2105.63 1270.08 2024.44 1283.22 1927.98C1307.56 1749.4 1248.9 1540.59 1326.53 1370.69C1408.5 1191.29 1706.8 1289.45 1853.7 1315.87C1953.26 1333.82 2078.95 1361.37 2177.55 1324.67C2266.43 1291.54 2303.07 1198.79 2326.72 1118.32C2378.34 942.597 2373.27 676.454 2597.62 613.882C2793.05 559.372 3123.11 660.787 3262.71 481.003C3405.15 297.544 3333.38 29.6122 3506.36 -140.208L3442.21 -212.641L3443.52 -211.176C3270.44 -41.0019 3341.46 226.993 3199.36 411.179Z" fill="#166D82"/>
<path d="M3136.87 340.909C3000.73 518.735 2667.18 420.748 2474.86 472.062C2249.89 532.082 2250.51 790.533 2198.85 966.363C2175.29 1046.59 2139.61 1139.07 2052.59 1174.69C1956.31 1214.11 1831.9 1190.17 1733.31 1173.61C1585.63 1148.8 1292.48 1053.68 1204.61 1226.36C1120.86 1390.97 1175.14 1600.38 1149.32 1775.62C1135.19 1871.56 1098.21 1950.48 990.783 1973.85C884.558 1996.96 767.744 1974.3 662.833 1957.36C549.427 1939.04 436.143 1914.42 321.114 1906.11C239.912 1900.24 115.05 1894.77 64.7535 1967.7C1.03069 2060.11 58.9646 2229.47 78.3559 2326.8C98.1383 2426.23 147.007 2572.21 99.2967 2669.37C42.0656 2785.99 -136.85 2782.42 -249.017 2783.42C-388.926 2784.66 -540.351 2768.2 -664.999 2841.23L-591.762 2923.93C-467.308 2849.63 -315.878 2865.39 -175.564 2863.63C-63.7854 2862.23 116.87 2865.02 170.72 2746.46C216.104 2646.54 166.769 2502.19 145.881 2401.25C125.488 2302.64 66.9419 2135.16 129.749 2040.78C179.985 1965.28 303.34 1971.63 385.881 1977.9C501.148 1986.67 614.611 2011.65 728.184 2030.51C833.158 2047.91 949.853 2071.1 1056.53 2049.87C1165.04 2028.28 1202.07 1948.23 1215.76 1852.06C1240.93 1675.15 1184.6 1466.09 1265.29 1298.82C1350.19 1122.75 1645.89 1219.3 1793.19 1244.94C1892.23 1262.19 2017.32 1287.91 2114.73 1249.86C2202.68 1215.52 2238.83 1122.87 2262.43 1042.53C2314.05 866.784 2311.17 604.482 2535.83 543.18C2729.7 490.209 3061.44 589.983 3199.33 411.184C3341.43 226.997 3270.42 -40.9385 3443.45 -211.198L3442.14 -212.664L3380.59 -282.179C3207.76 -111.582 3278.32 156.162 3136.87 340.909Z" fill="#269FA2"/>
<path d="M3074.99 270.38C2940.8 447.182 2605.13 350.939 2414.47 400.661C2189.14 459.401 2187.5 714.003 2135.78 889.959C2112.21 970.182 2077.01 1062.4 1990.92 1099.31C1895.73 1140.09 1772.06 1117.96 1673.85 1102.04C1525.8 1078.03 1235.1 984.225 1144.31 1153.51C1057.49 1315.39 1109.9 1525.24 1083.66 1698.83C1069.15 1794.57 1032.27 1872.34 926.004 1897.52C820.296 1922.56 703.321 1900.34 598.49 1883.85C485.263 1866.04 372.17 1841.74 257.378 1833.89C177.403 1828.42 51.051 1823.83 0.738779 1894.16C-63.9297 1984.62 -6.77872 2155.9 11.5731 2252.05C30.3189 2350.33 78.2173 2497.48 28.3744 2592.07C-32.0134 2706.62 -209.767 2702.52 -322.209 2703.14C-461.803 2703.92 -613.281 2686.79 -738.247 2758.58L-664.993 2841.29C-540.345 2768.26 -388.921 2784.72 -249.012 2783.48C-136.782 2782.47 42.0634 2785.97 99.3022 2669.43C147.013 2572.27 98.1751 2426.29 78.3613 2326.86C58.9701 2229.52 1.03611 2060.17 64.7589 1967.76C115.055 1894.82 239.914 1900.27 321.12 1906.17C436.149 1914.48 549.432 1939.1 662.839 1957.42C767.749 1974.36 884.564 1997.02 990.788 1973.91C1098.22 1950.54 1135.25 1871.61 1149.33 1775.68C1175.15 1600.43 1120.87 1391.03 1204.62 1226.42C1292.48 1053.74 1585.63 1148.86 1733.31 1173.67C1831.9 1190.23 1956.32 1214.17 2052.6 1174.75C2139.62 1139.13 2175.3 1046.66 2198.86 966.422C2250.51 790.548 2249.89 532.141 2474.87 472.121C2667.22 420.804 3000.77 518.791 3136.88 340.968C3278.32 156.221 3207.77 -111.523 3380.69 -282.13L3316.53 -354.562L3317.82 -353.096C3145.26 -182.256 3215.59 85.1373 3074.99 270.38Z" fill="#4EB8B4"/>
<path d="M3014.32 200.564C2949.43 286.859 2812.12 300.888 2709.81 305.807C2592.72 311.416 2469.98 300.707 2355.34 329.953C2129.66 387.442 2125.79 638.236 2073.98 814.35C2050.43 894.468 2015.67 986.575 1930.5 1024.75C1836.36 1066.92 1713.48 1046.52 1615.61 1031.22C1467.12 1008.01 1178.85 915.372 1085.16 1081.3C995.306 1240.42 1046.03 1450.79 1019.37 1622.77C1004.56 1718.17 967.809 1794.97 862.775 1821.94C757.741 1848.9 640.443 1827.08 535.721 1811.04C422.669 1793.7 309.753 1769.73 195.176 1762.27C116.376 1757.14 -11.5028 1753.4 -61.7608 1821.2C-127.347 1909.68 -71.064 2082.95 -53.8192 2177.89C-36.1522 2275.07 10.6402 2423.45 -41.3362 2515.47C-104.909 2627.99 -281.397 2623.43 -394.32 2623.7C-533.706 2624.03 -685.277 2606.3 -810.605 2676.89L-738.301 2758.53C-613.335 2686.73 -461.857 2703.86 -322.264 2703.09C-209.821 2702.46 -32.0667 2706.57 28.3211 2592.02C78.1639 2497.42 30.2 2350.26 11.5197 2252C-6.82737 2155.89 -63.983 1984.57 0.685435 1894.11C50.9946 1823.74 177.412 1828.36 257.325 1833.83C372.056 1841.71 485.211 1866 598.437 1883.8C703.268 1900.28 820.243 1922.51 925.951 1897.46C1032.21 1872.28 1069.09 1794.39 1083.6 1698.77C1109.94 1525.17 1057.5 1315.33 1144.25 1153.46C1235.05 984.17 1525.66 1077.99 1673.8 1101.98C1771.96 1117.91 1895.68 1140.04 1990.86 1099.25C2076.96 1062.34 2112.15 970.024 2135.72 889.904C2187.45 714.022 2189.09 459.347 2414.42 400.607C2605.06 350.962 2940.71 447.13 3074.94 270.325C3215.57 85.0794 3145.18 -182.307 3317.77 -353.15L3316.48 -354.617L3253.62 -425.583L3255.73 -423.199C3083.69 -252.04 3153.96 14.882 3014.32 200.564Z" fill="#047F4D"/>
<path d="M2953.09 129.743C2889.42 215.238 2750.64 229.645 2649.58 234.598C2532.61 240.315 2410.3 229.651 2295.63 258.166C2069.58 314.468 2063.45 561.337 2011.58 737.668C1988.01 817.756 1953.75 909.693 1869.5 949.166C1776.41 992.77 1654.39 974.118 1556.8 959.416C1407.88 936.952 1122 845.445 1025.36 1007.95C932.357 1164.17 981.549 1375.19 954.53 1545.55C939.445 1640.74 902.802 1716.42 799.083 1745.24C694.5 1774.26 577.088 1752.71 472.494 1737.15C359.618 1720.29 246.893 1696.64 132.549 1689.59C72.981 1685.93 -17.0373 1683.4 -78.3805 1711.81C-78.8589 1719.92 -80.1443 1727.97 -82.2194 1735.87C-84.4756 1744.64 -87.7406 1752.39 -92.5416 1758.43C-93.8601 1760.07 -99.557 1764.33 -107.203 1769.64C-105.83 1794.38 -106.375 1820.91 -112.675 1842.13C-115.566 1853.19 -119.884 1862.98 -126.14 1870.57C-127.799 1872.58 -129.62 1874.55 -131.556 1876.49C-132.088 1890.53 -134.113 1904.51 -137.601 1918.2C-140.201 1928.99 -144.24 1939.44 -149.622 1949.29C-141.029 2006.48 -126.751 2062.19 -119.76 2102.7C-103.162 2198.87 -57.5567 2348.63 -111.624 2437.87C-178.488 2548.24 -353.543 2543.31 -467.149 2543.25C-606.389 2543.16 -758.037 2524.84 -883.791 2594.22L-810.537 2676.93C-685.209 2606.34 -533.638 2624.07 -394.252 2623.74C-281.329 2623.46 -104.841 2628.03 -41.268 2515.51C10.6973 2423.54 -36.0841 2275.11 -53.8136 2177.94C-71.0898 2083 -127.341 1909.72 -61.7554 1821.24C-11.4973 1753.44 116.381 1757.19 195.182 1762.32C309.758 1769.77 422.674 1793.75 535.726 1811.08C640.453 1827.17 757.655 1848.98 862.78 1821.98C967.905 1794.98 1004.58 1718.21 1019.37 1622.82C1046.07 1450.83 995.343 1240.46 1085.17 1081.34C1178.86 915.416 1467.13 1008.05 1615.61 1031.26C1713.49 1046.57 1836.36 1066.97 1930.5 1024.8C2015.68 986.619 2050.43 894.512 2073.99 814.394C2125.79 638.28 2129.66 387.487 2355.34 329.997C2469.98 300.781 2592.72 311.416 2709.81 305.851C2812.14 300.931 2949.43 286.903 3014.33 200.608C3153.96 14.9262 3083.7 -252.01 3255.78 -423.159L3253.67 -425.543L3192.92 -494.14C3021.39 -322.794 3091.68 -56.3692 2953.09 129.743Z" fill="#27A058"/>
<path d="M2892.05 58.1852C2829.6 142.761 2689.36 157.573 2589.58 162.573C2472.76 168.425 2350.87 157.792 2236.24 185.675C2009.82 240.638 2001.48 483.712 1949.59 660.358C1926.06 740.429 1892.3 832.223 1808.98 873.007C1716.99 918.038 1595.98 901.167 1498.67 887.049C1349.5 865.327 1066.12 774.983 966.779 934.012C870.964 1087.53 918.044 1298.78 890.512 1467.55C875.02 1562.47 838.436 1637.04 735.915 1667.65C632.242 1698.6 514.766 1677.34 410.456 1662.07C298.002 1645.62 185.746 1622.22 71.8954 1615.51C35.8387 1613.38 -12.3425 1611.81 -58.461 1617.33C-61.7729 1631.96 -69.5618 1645.68 -80.1132 1658.08C-78.3121 1675.48 -77.1247 1694.45 -78.3878 1711.75C-17.0445 1683.34 72.974 1685.87 132.542 1689.53C246.886 1696.58 359.611 1720.23 472.487 1737.09C577.085 1752.7 694.576 1774.24 799.077 1745.18C902.802 1716.42 939.445 1640.74 954.529 1545.55C981.552 1375.21 932.47 1164.2 1025.36 1007.95C1121.99 845.371 1407.87 936.952 1556.8 959.416C1654.39 974.119 1776.41 992.771 1869.5 949.166C1953.75 909.708 1988.01 817.756 2011.58 737.668C2063.45 561.337 2069.56 314.321 2295.63 258.167C2410.3 229.652 2532.61 240.315 2649.58 234.598C2750.64 229.645 2889.42 215.238 2953.09 129.743C3091.68 -56.369 3021.39 -322.794 3192.92 -494.184L3128.76 -566.617L3130.07 -565.152C2959.14 -393.793 3029.53 -128.096 2892.05 58.1852Z" fill="#4FB765"/>
</g>
</g>
<defs>
<clipPath id="clip0_251_453">
<rect width="4854.61" height="1830.43" fill="white" transform="matrix(-0.998536 0.054097 -0.193911 -0.981019 3978.45 2325.69)"/>
</clipPath>
</defs>
</svg>
