<svg width="62" height="48" viewBox="0 0 62 48" fill="none" xmlns="http://www.w3.org/2000/svg">
<path d="M55.75 1.75C52.6975 0.7875 49.3425 0.375 46.125 0.375C40.7625 0.375 34.9875 1.475 31 4.5C27.0125 1.475 21.2375 0.375 15.875 0.375C10.5125 0.375 4.7375 1.475 0.75 4.5V44.7875C0.75 45.475 1.4375 46.1625 2.125 46.1625C2.4 46.1625 2.5375 46.025 2.8125 46.025C6.525 44.2375 11.8875 43 15.875 43C21.2375 43 27.0125 44.1 31 47.125C34.7125 44.7875 41.45 43 46.125 43C50.6625 43 55.3375 43.825 59.1875 45.8875C59.4625 46.025 59.6 46.025 59.875 46.025C60.5625 46.025 61.25 45.3375 61.25 44.65V4.5C59.6 3.2625 57.8125 2.4375 55.75 1.75ZM55.75 38.875C52.725 37.9125 49.425 37.5 46.125 37.5C41.45 37.5 34.7125 39.2875 31 41.625V10C34.7125 7.6625 41.45 5.875 46.125 5.875C49.425 5.875 52.725 6.2875 55.75 7.25V38.875Z" fill="#E88C27"/>
</svg>
