<?xml version="1.0" encoding="UTF-8" standalone="no"?>
<svg
   xmlns:dc="http://purl.org/dc/elements/1.1/"
   xmlns:cc="http://creativecommons.org/ns#"
   xmlns:rdf="http://www.w3.org/1999/02/22-rdf-syntax-ns#"
   xmlns:svg="http://www.w3.org/2000/svg"
   xmlns="http://www.w3.org/2000/svg"
   xmlns:sodipodi="http://sodipodi.sourceforge.net/DTD/sodipodi-0.dtd"
   xmlns:inkscape="http://www.inkscape.org/namespaces/inkscape"
   version="1.0"
   width="600"
   height="200"
   viewBox="0 0 450.00002 150"
   preserveAspectRatio="xMidYMid meet"
   id="svg18"
   sodipodi:docname="stream.svg"
   inkscape:version="0.92.3 (2405546, 2018-03-11)">
  <metadata
     id="metadata24">
    <rdf:RDF>
      <cc:Work
         rdf:about="">
        <dc:format>image/svg+xml</dc:format>
        <dc:type
           rdf:resource="http://purl.org/dc/dcmitype/StillImage" />
        <dc:title></dc:title>
      </cc:Work>
    </rdf:RDF>
  </metadata>
  <defs
     id="defs22" />
  <sodipodi:namedview
     pagecolor="#ffffff"
     bordercolor="#666666"
     borderopacity="1"
     objecttolerance="10"
     gridtolerance="10"
     guidetolerance="10"
     inkscape:pageopacity="0"
     inkscape:pageshadow="2"
     inkscape:window-width="1920"
     inkscape:window-height="1052"
     id="namedview20"
     showgrid="false"
     units="px"
     inkscape:zoom="0.73622294"
     inkscape:cx="854.95846"
     inkscape:cy="50.760521"
     inkscape:window-x="1920"
     inkscape:window-y="0"
     inkscape:window-maximized="1"
     inkscape:current-layer="svg18" />
  <g
     id="g105"
     transform="translate(0.53742637,-1.5)">
    <path
       d="m 83.939419,41.425435 c -0.36286,0.2419 -5.080031,5.38241 -10.522921,11.43007 -8.829577,9.91815 -10.039108,11.0672 -11.792928,11.0672 -1.028101,0 -11.006733,-0.66524 -22.134419,-1.51191 -11.127686,-0.84667 -21.106317,-1.51191 -22.194895,-1.51191 -2.298109,0 -3.810023,1.33048 -3.810023,3.38668 0,0.90715 5.745273,9.43435 16.389146,24.2511 9.071483,12.579115 16.872959,23.222995 17.356771,23.646325 0.786196,0.54429 9.192437,0.72572 39.067854,0.60477 l 38.100226,-0.18143 16.81248,-23.283465 c 13.60723,-18.92917 16.75201,-23.64634 16.81248,-25.2792 0,-3.44717 -0.42333,-3.44717 -25.15824,-1.69335 -12.27674,0.84667 -22.92062,1.57239 -23.64633,1.57239 -0.90715,0 -4.11241,-3.20525 -11.43007,-11.49054 -8.224812,-9.31339 -10.401968,-11.49055 -11.671975,-11.49055 -0.846672,0 -1.874773,0.24191 -2.177156,0.48382 z m 0.06048,47.716 c -0.181429,0.18143 -5.866225,-1.8143 -12.700076,-4.35432 -11.067209,-4.17288 -12.397694,-4.77764 -11.732452,-5.68479 0.423336,-0.54429 6.108132,-6.95481 12.579124,-14.27247 l 11.792928,-13.30484 0.181429,18.68725 c 0.06048,10.28102 0,18.80821 -0.120953,18.92917 z m 16.570581,-23.223 c 6.71289,7.62005 12.0953,13.90961 11.97435,14.09104 -0.42334,0.36286 -24.069666,9.31339 -24.734908,9.31339 -0.302382,0 -0.544289,-7.741 -0.544289,-18.80821 0,-10.52292 0.241907,-18.68726 0.544289,-18.5663 0.302383,0.0605 6.047656,6.41051 12.760558,13.97008 z m -57.452731,3.74955 c 6.168608,0.48381 11.853404,0.90714 12.579123,0.90714 1.814297,0 1.632867,0.42334 -1.632867,3.93098 l -2.660968,2.8424 -9.13196,-3.38669 c -5.019554,-1.93525 -9.918155,-3.81002 -10.946256,-4.29383 -2.419063,-1.08858 -1.93525,-1.08858 11.792928,0 z m 97.972011,-0.36286 c -0.48381,0.30238 -5.50337,2.23763 -11.06721,4.29383 l -10.16006,3.8705 -2.66097,-3.02383 c -1.45144,-1.63286 -2.66097,-3.14478 -2.72144,-3.44716 0,-0.24191 0.90714,-0.42334 1.99572,-0.48381 1.0281,0 6.16861,-0.42334 11.30912,-0.84667 11.91388,-0.96763 14.45389,-1.02811 13.30484,-0.36286 z m -87.146708,12.6396 c 14.03056,5.26146 25.460629,9.85767 25.400153,10.16006 -0.06048,0.30238 -6.773374,3.02383 -14.877233,6.04765 L 49.770166,103.71628 39.005339,88.778575 C 26.789075,71.905615 27.151934,72.389425 27.877653,72.389425 c 0.302383,0 12.034834,4.29384 26.065395,9.5553 z m 89.807678,-8.82958 c -2.35859,3.99145 -21.71108,30.117315 -22.25537,30.117315 -1.27001,0 -29.270649,-10.522915 -29.452079,-11.127675 -0.241906,-0.42334 49.530289,-19.47345 51.344589,-19.65488 0.48381,-0.0605 0.60476,0.2419 0.36286,0.66524 z M 84.241806,100.51102 v 5.74527 H 69.304093 c -8.164335,0 -14.695803,-0.18143 -14.453897,-0.48381 0.423336,-0.42334 28.061121,-10.885775 28.96827,-10.946255 0.241906,-0.0605 0.423336,2.54002 0.423336,5.684795 z m 18.687244,-0.18143 14.87724,5.62432 -14.51438,0.18143 c -7.982895,0.0605 -14.816746,0 -15.240081,-0.12095 -0.544289,-0.24191 -0.786196,-1.93525 -0.786196,-5.80575 0,-2.963355 0.18143,-5.442885 0.423336,-5.442885 0.241906,0 7.075757,2.54001 15.240081,5.563835 z"
       id="path2"
       inkscape:connector-curvature="0"
       style="fill:#005fff;fill-opacity:1;stroke:none;stroke-width:0.06047656" />
    <path
       d="m 213.66162,54.488365 c 0,5.9267 -1.93524,8.58767 -6.77337,9.19244 l -2.90287,0.42333 v 5.01956 5.08003 h 3.8705 3.8705 l 0.2419,14.63532 c 0.24191,15.905335 0.42334,16.933435 3.8705,20.985365 2.23763,2.72144 5.08003,3.81002 9.67625,3.74954 3.56812,0 9.31339,-1.08857 9.31339,-1.69334 0,-0.18143 -0.42334,-1.75382 -0.96763,-3.56812 l -0.90714,-3.26573 h -3.81003 c -2.96335,0 -4.17288,-0.30238 -5.44289,-1.27001 l -1.57239,-1.20953 V 88.355235 74.203725 h 5.14051 5.14051 v -5.14051 -5.14051 h -5.14051 -5.14051 v -6.35003 -6.35004 h -4.23336 -4.23336 z"
       id="path4"
       inkscape:connector-curvature="0"
       style="fill:#000000;stroke:none;stroke-width:0.06047656" />
    <path
       d="m 256.72093,62.713175 c -2.8424,0.60477 -5.9267,2.29811 -7.68052,4.23336 -1.51191,1.69334 -1.8143,1.57239 -2.66097,-1.20953 l -0.72572,-2.41906 h -3.8705 -3.93097 v 25.09777 25.097765 h 4.77764 4.83813 l 0.18143,-16.872955 0.18143,-16.87296 1.81429,-2.60049 c 2.35859,-3.38669 6.59195,-5.56384 10.76483,-5.62432 1.75382,-0.0605 3.68907,0.12095 4.41479,0.42334 1.14905,0.42333 1.39096,0.0605 2.47954,-3.93098 0.84667,-3.08431 0.96762,-4.53574 0.54429,-4.83813 -1.20953,-0.66524 -8.46672,-1.0281 -11.12769,-0.48381 z"
       id="path6"
       inkscape:connector-curvature="0"
       style="fill:#000000;stroke:none;stroke-width:0.06047656" />
    <path
       d="m 284.6611,62.955085 c -6.89433,1.69334 -12.45817,6.47099 -15.90533,13.6677 -2.11668,4.35431 -2.17716,4.77765 -2.17716,11.18816 0,6.22909 0.12095,6.89433 1.93525,10.76483 6.16861,13.002455 21.65061,18.384865 35.25783,12.155785 3.8705,-1.75382 7.25719,-4.23336 7.25719,-5.26146 0,-0.42334 -1.20953,-1.93525 -2.66097,-3.38669 l -2.60049,-2.540015 -2.96335,1.814295 c -7.741,4.95908 -16.69153,3.93098 -22.31585,-2.479535 -1.33049,-1.51191 -2.72145,-3.56811 -3.14478,-4.65669 l -0.66525,-1.87478 h 18.14297 18.20344 l -0.42333,-4.77764 c -0.96763,-11.85341 -6.16861,-20.68299 -13.84913,-23.52538 -4.23336,-1.63287 -10.22054,-2.05621 -14.09104,-1.08858 z m 10.46244,9.67625 c 3.50764,1.69334 6.04766,4.8986 6.65242,8.46671 l 0.36286,2.17716 h -12.76055 -12.70008 l 0.66525,-2.23763 c 0.96762,-3.02383 5.62432,-7.92243 8.58767,-8.95053 3.44716,-1.20953 5.62432,-1.08858 9.19243,0.54429 z"
       id="path8"
       inkscape:connector-curvature="0"
       style="fill:#000000;stroke:none;stroke-width:0.06047656" />
    <path
       d="m 336.42903,62.713175 c -4.65669,0.96763 -8.7691,3.44717 -12.57912,7.55957 -4.77765,5.08003 -6.28956,8.95053 -6.65242,16.63105 -0.24191,6.77338 0.90714,10.94626 4.47526,16.207715 7.43862,10.76483 23.70681,13.54675 32.11305,5.44289 l 1.93525,-1.87477 0.36286,1.75382 c 1.08858,4.8986 0.96763,4.77765 5.32194,4.95907 l 4.05193,0.18143 V 88.415715 63.317945 h -4.17289 -4.17288 l -0.66524,2.78192 -0.72572,2.8424 -1.93525,-1.87478 c -3.8705,-3.74954 -11.24864,-5.56384 -17.35677,-4.35431 z m 9.97863,9.61577 c 5.56384,2.6005 8.89006,8.40625 8.89006,15.482 0,5.08003 -1.45144,9.07149 -4.53575,12.337215 -9.13196,9.61577 -23.64633,1.99573 -23.64633,-12.337215 0,-9.19243 6.28956,-16.63105 14.15151,-16.63105 1.51192,0 3.81003,0.54429 5.14051,1.14905 z"
       id="path10"
       inkscape:connector-curvature="0"
       style="fill:#000000;stroke:none;stroke-width:0.06047656" />
    <path
       d="m 389.52744,62.773655 c -1.20953,0.36286 -3.26573,1.57239 -4.59621,2.66097 l -2.35859,2.0562 -0.96762,-2.11668 c -0.96763,-2.0562 -1.02811,-2.0562 -4.95908,-2.0562 h -3.93098 v 25.09777 25.097765 h 4.77765 4.83812 l 0.18143,-17.719625 c 0.18143,-16.44963 0.24191,-17.84059 1.45144,-20.01774 2.96335,-5.6848 11.00673,-5.98718 14.57485,-0.54429 0.96763,1.45144 1.14906,3.81002 1.39096,19.83631 l 0.30239,18.142965 h 4.53574 4.53574 l 0.30238,-18.142965 c 0.36286,-20.13869 0.36286,-20.19917 4.41479,-22.67871 3.26573,-1.99573 7.68052,-1.20953 10.5834,1.93525 2.0562,2.23763 2.54001,6.83385 2.54001,23.94872 v 15.300555 l 4.41479,-0.18143 4.35431,-0.18142 V 94.765755 c 0,-16.14724 -0.12095,-18.80821 -1.08858,-21.52966 -3.99145,-11.43007 -18.08249,-14.51437 -26.24682,-5.86622 l -1.99573,2.0562 -2.0562,-2.11668 c -3.56812,-3.81002 -10.28101,-5.80575 -14.99819,-4.53574 z"
       id="path12"
       inkscape:connector-curvature="0"
       style="fill:#000000;stroke:none;stroke-width:0.06047656" />
    <path
       d="m 176.95236,63.862235 c -11.06721,3.81002 -14.57485,15.36104 -6.7129,22.07394 2.72144,2.35858 6.47099,3.93098 13.6677,5.86622 2.96335,0.72572 5.80575,1.93525 6.83385,2.78193 4.47527,3.74954 0,9.494815 -7.31766,9.434335 -3.99145,-0.0605 -6.53147,-1.20953 -8.70863,-3.93098 l -1.51191,-1.935245 -3.81002,1.75382 c -2.11668,0.967625 -3.8705,1.814295 -3.99146,1.874775 -0.0605,0.0605 0.12096,0.78619 0.42334,1.63286 1.08858,2.8424 4.77765,6.22909 8.64815,7.98291 6.65242,3.02383 16.08676,2.0562 21.89251,-2.17716 7.80148,-5.68479 8.34576,-16.328665 1.14905,-21.287735 -2.96335,-2.05621 -5.38241,-3.02383 -12.27674,-4.95908 -7.13623,-1.99573 -9.07148,-3.32621 -9.07148,-6.04766 0,-3.8705 5.44289,-6.65242 10.28102,-5.20098 2.11667,0.60476 4.41478,2.66097 4.95907,4.41479 0.30239,0.90715 8.34577,-0.66524 8.7691,-1.69335 0.48382,-1.27 -1.63286,-4.8986 -4.05193,-7.13623 -4.71717,-4.23336 -12.70007,-5.6848 -19.17106,-3.44716 z"
       id="path14"
       inkscape:connector-curvature="0"
       style="fill:#000000;stroke:none;stroke-width:0.06047656" />
  </g>
</svg>
