<svg width="1362" height="1080" viewBox="0 0 1362 1080" fill="none" xmlns="http://www.w3.org/2000/svg">
<g clip-path="url(#clip0_6_643)">
<path d="M958.787 35.0437C778.156 222.379 422.063 66.8484 193.175 108.611C-65.5864 155.797 -87.0065 464.138 -165.599 655.487C-201.743 743.479 -254.938 843.561 -360.386 867.272C-477.875 893.653 -616.484 843.914 -727.349 810.312C-888.069 761.615 -1217.22 612.281 -1324.12 812.277C-1424.74 1000.35 -1376.75 1242.16 -1422.63 1443.89C-1446.98 1551.01 -1497.47 1640.86 -1624.55 1646.44C-1747.1 1651.83 -1875.16 1609.71 -1990.66 1576.16C-2116.27 1539.67 -2241.09 1497 -2370.06 1471.88C-2466.61 1453.07 -2598.82 1429.33 -2664.57 1516.65C-2744.04 1622.17 -2696.54 1811.39 -2682.67 1929.51C-2668.25 2052.09 -2629.9 2213.56 -2685.23 2331.13C-2748.74 2465.89 -2959.41 2444.21 -3084.64 2434.53C-3245.25 2422.13 -3414.47 2389.72 -3563.66 2463.33L-3491.03 2564.69C-3341.2 2489.46 -3171.24 2520.71 -3009.16 2532.33C-2883.26 2541.35 -2670.17 2561.82 -2609.64 2424.48C-2556.35 2303.67 -2594.15 2143.76 -2609.19 2018.74C-2623.63 1898.72 -2670.93 1711.17 -2591.91 1603.4C-2525.91 1513.36 -2395.72 1537.91 -2297.45 1557.52C-2168.38 1583.38 -2043.47 1626.62 -1917.75 1663.95C-1802.48 1698.17 -1674.57 1741.48 -1551.96 1737.95C-1424.08 1734.28 -1374.14 1642.69 -1350.84 1535.47C-1306.43 1331.61 -1358.4 1089.25 -1260.89 898.036C-1156.88 694.042 -824.786 845.979 -664.669 895.617C-553.094 930.243 -414.237 982.098 -295.397 957.413C-188.99 935.315 -135.086 835.148 -98.7463 746.921C-19.8514 555.489 -0.136719 242.731 258.448 193.966C488.561 150.575 844.192 307.718 1025.73 119.526C1205.76 -67.0203 1150.66 -374.706 1361.89 -543.52L1298.29 -632.284L1299.57 -630.504C1087.09 -461.069 1139.7 -152.577 958.787 35.0437Z" fill="#ECAE21"/>
<path d="M893.337 -49.9089C714.074 136.57 356.951 -17.3149 129.484 22.802C-129.438 68.4773 -152.723 372.351 -231.156 563.633C-267.157 651.406 -319.695 751.438 -424.219 776.694C-540.395 804.754 -678.701 757.131 -788.926 724.504C-950.215 676.763 -1276.5 529.712 -1386.41 725.746C-1490.15 910.663 -1445.57 1152.09 -1492.71 1351.68C-1517.95 1458.6 -1568.69 1546.91 -1694.97 1554.45C-1817.53 1561.79 -1945.58 1520.65 -2061.26 1487.73C-2186.8 1452.03 -2311.55 1409.87 -2440.3 1385.43C-2535.2 1367.42 -2669.33 1344.44 -2734.87 1428.99C-2814.92 1532.23 -2767.57 1723.21 -2754.41 1839.57C-2740.79 1959.88 -2702.08 2123.09 -2759.74 2237.28C-2826.41 2369.43 -3034.55 2346.74 -3159.52 2336.45C-3318.95 2323.34 -3487.66 2289.89 -3636.3 2361.87L-3563.66 2463.33C-3414.47 2389.72 -3245.26 2422.13 -3084.64 2434.53C-2959.41 2444.21 -2748.74 2465.89 -2685.32 2331.13C-2629.99 2213.58 -2668.34 2052.16 -2682.76 1929.51C-2696.65 1811.39 -2744.12 1622.21 -2664.66 1516.65C-2598.95 1429.33 -2466.7 1453.07 -2370.15 1471.88C-2241.24 1497.07 -2116.36 1539.67 -1990.75 1576.16C-1875.3 1609.75 -1747.26 1651.83 -1624.64 1646.44C-1497.56 1640.86 -1447.03 1551.01 -1422.71 1443.89C-1376.84 1242.16 -1424.83 1000.37 -1324.21 812.277C-1217.24 612.28 -888.086 761.615 -727.437 810.312C-616.572 843.897 -477.964 893.653 -360.475 867.272C-255.027 843.595 -201.832 743.479 -165.688 655.487C-87.0776 464.054 -65.6577 155.797 193.086 108.611C421.974 66.8484 778.067 222.379 958.698 35.0437C1139.61 -152.577 1087 -461.069 1299.59 -630.554L1298.31 -632.334L1237.28 -717.522C1023.9 -547.533 1074.64 -238.554 893.337 -49.9089Z" fill="#E5722B"/>
<path d="M829.255 -135.332C651.644 50.2739 292.869 -101.915 67.196 -63.4268C-191.921 -19.2461 -217.142 280.111 -295.504 471.376C-331.399 558.965 -383.315 658.896 -486.933 685.697C-601.883 715.419 -739.781 669.911 -849.456 638.191C-1011.3 591.391 -1334.76 446.624 -1447.62 638.493C-1554.5 820.203 -1512.91 1061.43 -1560.98 1259.07C-1586.93 1365.75 -1637.78 1452.62 -1763.16 1462.26C-1885.57 1471.59 -2013.75 1431.31 -2129.52 1399C-2254.95 1363.99 -2379.58 1322.31 -2508.13 1298.5C-2601.48 1281.22 -2737.45 1259 -2802.81 1340.75C-2883.53 1441.7 -2836.55 1634.61 -2824.23 1749.22C-2811.49 1867.24 -2772.72 2032.58 -2832.75 2143.22C-2903.03 2272.74 -3108.46 2249.21 -3233.59 2238.37C-3392.07 2224.61 -3560.39 2190.21 -3708.84 2260.65L-3636.21 2362.01C-3487.57 2290.02 -3318.86 2323.47 -3159.43 2336.59C-3034.47 2346.88 -2826.32 2369.57 -2759.65 2237.41C-2702.03 2123.22 -2740.73 1960.02 -2754.32 1839.7C-2767.52 1723.35 -2814.87 1532.4 -2734.78 1429.13C-2669.24 1344.58 -2535.11 1367.55 -2440.21 1385.57C-2311.46 1410 -2186.71 1452.17 -2061.17 1487.87C-1945.5 1520.78 -1817.44 1561.92 -1694.89 1554.58C-1568.68 1546.98 -1517.93 1458.66 -1492.71 1351.68C-1445.59 1152.02 -1490.17 910.596 -1386.43 725.679C-1276.52 529.729 -950.232 676.696 -788.944 724.436C-678.718 757.064 -540.412 804.687 -424.237 776.627C-319.712 751.438 -267.175 651.339 -231.173 563.566C-152.74 372.284 -129.455 68.4097 129.467 22.7346C356.809 -17.3823 714.056 136.503 893.319 -49.9761C1074.62 -238.571 1023.88 -547.517 1237.35 -717.589L1175.01 -804.456C961.096 -633.913 1010.54 -324.8 829.255 -135.332Z" fill="#DF3B31"/>
<path d="M766.327 -221.14C590.687 -36.4246 229.941 -186.901 6.15063 -150.042C-253.162 -107.322 -280.407 187.484 -358.77 378.766C-394.594 466.204 -445.941 566.017 -548.654 594.346C-662.431 625.748 -799.867 582.34 -909.045 551.475C-1071.42 505.582 -1392.15 362.847 -1507.91 550.636C-1617.93 729.037 -1578.96 970.26 -1627.78 1165.94C-1654.32 1272.3 -1705.13 1357.86 -1829.52 1369.5C-1951.73 1380.93 -2080.04 1341.35 -2195.86 1309.62C-2321.16 1275.26 -2445.63 1234.05 -2574.01 1210.79C-2665.89 1194.17 -2803.62 1172.74 -2868.84 1251.63C-2950.31 1350.29 -2904.05 1545.09 -2892.61 1658.16C-2880.89 1773.91 -2842.27 1941.68 -2904.83 2048.58C-2979.05 2175.41 -3181.53 2151.3 -3307.17 2139.88C-3464.94 2125.56 -3633.1 2090.28 -3781.39 2159.22L-3708.77 2260.58C-3560.37 2190.06 -3392 2224.55 -3233.52 2238.3C-3108.39 2249.15 -2902.96 2272.67 -2832.68 2143.15C-2772.65 2032.51 -2811.37 1867.17 -2824.16 1749.16C-2836.59 1634.48 -2883.46 1441.64 -2802.74 1340.68C-2737.38 1258.94 -2601.41 1281.15 -2508.06 1298.43C-2379.51 1322.24 -2254.88 1363.92 -2129.45 1398.93C-2013.68 1431.24 -1885.5 1471.53 -1763.09 1462.19C-1637.71 1452.62 -1586.86 1365.75 -1560.91 1259C-1512.83 1061.36 -1554.43 820.136 -1447.54 638.426C-1334.69 446.557 -1011.22 591.407 -849.385 638.124C-739.71 669.844 -601.813 715.369 -486.863 685.629C-383.244 658.761 -331.328 558.897 -295.433 471.309C-217.071 280.044 -191.85 -19.3132 67.267 -63.4939C292.993 -101.982 651.733 50.2073 829.326 -135.399C1010.54 -324.799 961.096 -633.913 1175.01 -804.456L1111.41 -893.22L1112.7 -891.424C898.647 -720.494 947.242 -411.398 766.327 -221.14Z" fill="#166D82"/>
<path d="M704.341 -307.285C530.85 -123.476 167.795 -272.223 -54.0593 -236.959C-313.585 -195.717 -342.909 94.4885 -421.324 285.871C-457.095 373.191 -507.892 472.87 -609.716 502.744C-722.375 535.808 -859.26 494.482 -968.012 464.441C-1130.92 419.437 -1448.95 278.6 -1567.64 462.241C-1680.78 637.301 -1644.18 878.691 -1693.52 1072.41C-1720.53 1178.47 -1771.21 1262.77 -1894.52 1276.52C-2016.45 1290.12 -2144.95 1251.11 -2260.76 1219.91C-2385.94 1186.18 -2510.25 1145.37 -2638.41 1122.68C-2728.89 1106.66 -2868.42 1086.01 -2933.35 1162.04C-3015.62 1258.38 -2970.26 1455.22 -2959.8 1566.74C-2949.14 1680.66 -2911.24 1850.21 -2976.08 1953.74C-3053.88 2078 -3254.31 2053.21 -3380.35 2041.31C-3537.55 2026.45 -3705.62 1990.38 -3854.04 2057.88L-3781.43 2159.22C-3633.09 2090.28 -3464.92 2125.56 -3307.21 2139.88C-3181.56 2151.3 -2979.09 2175.41 -2904.86 2048.58C-2842.31 1941.68 -2880.92 1773.91 -2892.64 1658.16C-2904.08 1545.09 -2950.35 1350.29 -2868.88 1251.63C-2803.71 1172.71 -2665.98 1194.17 -2574.04 1210.79C-2445.67 1234.03 -2321.2 1275.26 -2195.89 1309.62C-2080.07 1341.35 -1951.76 1380.93 -1829.55 1369.5C-1705.22 1357.86 -1654.35 1272.3 -1627.82 1165.94C-1579.01 970.26 -1617.96 729.037 -1507.95 550.636C-1392.18 362.847 -1071.45 505.582 -909.08 551.475C-799.902 582.34 -662.467 625.748 -548.689 594.346C-445.976 566.017 -394.629 466.204 -358.805 378.766C-280.443 187.468 -253.197 -107.322 6.11523 -150.042C229.905 -186.985 590.723 -36.4414 766.292 -221.14C947.206 -411.397 898.612 -720.427 1112.63 -891.457L1111.34 -893.254L1050.31 -978.441C836.484 -807.008 884.581 -498.248 704.341 -307.285Z" fill="#269FA2"/>
<path d="M643.065 -393.648C471.883 -210.763 106.253 -357.796 -113.559 -324.128C-373.333 -284.364 -404.752 1.25732 -483.257 192.774C-519.027 280.094 -569.256 379.522 -670.192 410.957C-781.786 445.684 -918.049 406.473 -1026.45 377.188C-1189.85 333.041 -1505.29 193.966 -1626.88 373.46C-1743.14 545.094 -1708.69 786.753 -1758.31 978.572C-1785.72 1084.36 -1836.16 1167.38 -1958.37 1183.3C-2079.95 1199.14 -2208.68 1160.6 -2324.45 1129.92C-2449.48 1096.77 -2573.62 1056.35 -2701.57 1034.2C-2790.71 1018.77 -2932.02 998.941 -2996.67 1072.05C-3079.77 1166.09 -3035.51 1365 -3026.08 1475.07C-3016.46 1587.58 -2979.78 1758.32 -3046.72 1858.73C-3127.82 1980.3 -3326.88 1955.05 -3453.18 1942.69C-3609.98 1927.34 -3778.03 1890.51 -3926.66 1956.59L-3854.03 2057.95C-3705.62 1990.44 -3537.55 2026.51 -3380.35 2041.38C-3254.24 2053.28 -3053.88 2077.98 -2976.08 1953.8C-2911.24 1850.28 -2949.1 1680.73 -2959.8 1566.81C-2970.26 1455.29 -3015.62 1258.45 -2933.35 1162.11C-2868.42 1086.08 -2728.88 1106.7 -2638.41 1122.75C-2510.25 1145.44 -2385.94 1186.24 -2260.76 1219.98C-2144.95 1251.18 -2016.45 1290.19 -1894.52 1276.59C-1771.2 1262.83 -1720.46 1178.53 -1693.52 1072.47C-1644.18 878.741 -1680.78 637.368 -1567.64 462.308C-1448.95 278.667 -1130.92 419.504 -968.011 464.508C-859.26 494.549 -722.375 535.875 -609.716 502.811C-507.892 472.937 -457.095 373.275 -421.324 285.938C-342.908 94.5051 -313.585 -195.65 -54.0591 -236.892C167.831 -272.156 530.886 -123.409 704.341 -307.218C884.581 -498.18 836.484 -806.941 1050.42 -978.374L986.814 -1067.14L988.093 -1065.34C774.533 -893.607 822.417 -585.266 643.065 -393.648Z" fill="#4EB8B4"/>
<path d="M583.068 -479.071C500.194 -389.735 344.429 -389.937 229 -396.301C96.9102 -403.606 -39.6376 -429.886 -171.727 -410.373C-431.75 -372.053 -465.23 -90.9659 -543.841 100.719C-579.594 187.921 -629.307 287.281 -729.356 320.245C-839.936 356.651 -975.507 319.472 -1083.6 290.925C-1247.59 247.618 -1560.43 110.139 -1684.89 285.518C-1804.24 453.71 -1771.74 695.755 -1821.65 885.727C-1849.35 991.099 -1899.53 1073.05 -2020.57 1091.11C-2141.61 1109.18 -2270.76 1071.06 -2386.45 1040.89C-2511.35 1008.29 -2635.32 968.261 -2763.08 946.582C-2850.94 931.671 -2994.06 912.611 -3058.36 982.887C-3142.26 1074.59 -3099.21 1275.64 -3090.88 1384.22C-3082.33 1495.37 -3047.04 1667.38 -3116.08 1764.64C-3200.52 1883.56 -3398.11 1857.94 -3524.91 1845.12C-3681.42 1829.31 -3849.51 1791.79 -3998.4 1856.48L-3926.72 1956.52C-3778.09 1890.45 -3610.03 1927.27 -3453.24 1942.62C-3326.94 1954.98 -3127.87 1980.23 -3046.77 1858.66C-2979.83 1758.26 -3016.58 1587.48 -3026.14 1475C-3035.57 1364.98 -3079.83 1166.02 -2996.72 1071.99C-2932.07 998.84 -2790.69 1018.71 -2701.62 1034.14C-2573.74 1056.3 -2449.54 1096.72 -2324.5 1129.85C-2208.73 1160.53 -2080 1199.07 -1958.43 1183.24C-1836.21 1167.32 -1785.77 1084.16 -1758.36 978.505C-1708.63 786.686 -1743.13 545.027 -1626.93 373.393C-1505.34 193.899 -1190.01 332.973 -1026.5 377.12C-918.156 406.406 -781.84 445.616 -670.246 410.89C-569.31 379.454 -519.081 279.909 -483.311 192.707C-404.806 1.27405 -373.387 -284.431 -113.613 -324.195C106.164 -357.78 471.794 -210.83 643.012 -393.715C822.399 -585.333 774.444 -893.673 988.039 -1065.41L986.761 -1067.21L924.437 -1154.17L926.533 -1151.25C713.523 -979.096 761.389 -671.293 583.068 -479.071Z" fill="#047F4D"/>
<path d="M522.556 -565.686C441.156 -477.106 283.686 -477.055 169.66 -483.235C37.6946 -490.406 -98.3734 -516.585 -230.41 -497.895C-490.717 -460.952 -526.274 -184.533 -604.992 7.3866C-640.745 94.5557 -689.89 193.782 -789.051 228.307C-898.619 266.442 -1033.43 231.329 -1141.27 203.488C-1305.85 160.969 -1616.13 25.0354 -1743.5 196.233C-1866.05 360.798 -1835.34 603.397 -1885.46 791.505C-1913.45 896.608 -1963.38 977.312 -2083.16 997.614C-2203.94 1018.05 -2333.24 980.217 -2448.85 950.596C-2573.6 918.556 -2697.4 878.909 -2824.94 857.717C-2891.38 846.685 -2992.14 833.385 -3064.3 858.154C-3065.78 867.201 -3068.16 876.095 -3071.41 884.719C-3074.96 894.308 -3079.53 902.62 -3085.62 908.85C-3087.29 910.529 -3094.18 914.66 -3103.38 919.731C-3104.71 947.657 -3108.4 977.379 -3117.94 1000.47C-3122.47 1012.54 -3128.46 1023.04 -3136.36 1030.83C-3138.46 1032.89 -3140.73 1034.89 -3143.13 1036.84C-3145.36 1052.55 -3149.25 1068 -3154.76 1082.97C-3158.93 1094.78 -3164.68 1106.04 -3171.87 1116.47C-3168.86 1181.68 -3159.31 1245.87 -3156.16 1292.15C-3148.7 1402.04 -3114.91 1575.46 -3185.97 1669.36C-3273.85 1785.49 -3469.79 1759.62 -3597.32 1746.35C-3753.61 1730.08 -3921.72 1691.89 -4070.95 1755.17L-3998.33 1856.53C-3849.43 1791.84 -3681.34 1829.36 -3524.83 1845.17C-3398.04 1857.99 -3200.44 1883.61 -3116.01 1764.69C-3046.99 1667.48 -3082.26 1495.42 -3090.88 1384.27C-3099.24 1275.7 -3142.26 1074.64 -3058.35 982.938C-2994.06 912.662 -2850.94 931.721 -2763.08 946.633C-2635.32 968.312 -2511.35 1008.34 -2386.45 1040.94C-2270.76 1071.16 -2141.72 1109.27 -2020.57 1091.16C-1899.42 1073.06 -1849.34 991.149 -1821.65 885.777C-1771.7 695.805 -1804.21 453.761 -1684.89 285.568C-1560.43 110.189 -1247.59 247.668 -1083.6 290.976C-975.507 319.523 -839.936 356.701 -729.355 320.295C-629.307 287.332 -579.593 187.971 -543.84 100.769C-465.229 -90.9158 -431.75 -372.003 -171.727 -410.323C-39.6373 -429.802 96.9105 -403.606 229 -396.251C344.447 -389.886 500.194 -389.685 583.068 -479.02C761.39 -671.242 713.523 -979.062 926.586 -1151.2L924.49 -1154.12L864.262 -1238.19C651.804 -1065.76 699.758 -758.512 522.556 -565.686Z" fill="#27A058"/>
<path d="M462.345 -653.106C382.42 -565.417 223.263 -565.081 110.675 -571.059C-21.1481 -578.061 -156.737 -604.157 -288.666 -586.172C-549.222 -550.774 -586.823 -278.872 -665.593 -86.6C-701.311 0.552185 -749.87 99.6775 -848.142 135.781C-956.645 175.646 -1090.53 142.649 -1198.12 115.496C-1363.05 73.7836 -1670.68 -60.5552 -1800.67 106.428C-1926.06 267.634 -1897.75 510.25 -1948.27 696.511C-1976.68 801.261 -2026.42 880.723 -2145.06 903.174C-2265.04 925.877 -2394.44 888.363 -2509.77 859.111C-2634.09 827.575 -2757.39 788.264 -2884.42 767.509C-2924.65 760.926 -2978.55 753.571 -3030.97 754.411C-3036.38 770.447 -3046.72 784.939 -3060.01 797.634C-3060.01 817.382 -3060.88 838.809 -3064.31 858.087C-2992.14 833.318 -2891.38 846.617 -2824.94 857.65C-2697.4 878.842 -2573.6 918.489 -2448.85 950.528C-2333.24 980.2 -2203.85 1018.03 -2083.16 997.547C-1963.38 977.312 -1913.45 896.608 -1885.46 791.505C-1835.34 603.431 -1865.93 360.849 -1743.5 196.233C-1616.13 24.9515 -1305.85 160.969 -1141.27 203.488C-1033.43 231.329 -898.619 266.442 -789.051 228.307C-689.89 193.798 -640.745 94.5557 -604.992 7.38666C-526.275 -184.533 -490.717 -461.12 -230.41 -497.895C-98.3736 -516.585 37.6945 -490.405 169.66 -483.235C283.686 -477.055 441.156 -477.106 522.556 -565.686C699.758 -758.512 651.804 -1065.76 864.262 -1238.24L800.659 -1327L801.956 -1325.2C590.172 -1152.7 638.323 -846.252 462.345 -653.106Z" fill="#4FB765"/>
</g>
<defs>
<clipPath id="clip0_6_643">
<rect width="5500" height="3891.64" fill="white" transform="translate(1362 2564.64) rotate(-180)"/>
</clipPath>
</defs>
</svg>
