<svg width="1440" height="249" viewBox="0 0 1440 249" fill="none" xmlns="http://www.w3.org/2000/svg">
<mask id="mask0_365_536" style="mask-type:alpha" maskUnits="userSpaceOnUse" x="0" y="0" width="1440" height="249">
<rect width="1440" height="249" fill="#EA9D24"/>
</mask>
<g mask="url(#mask0_365_536)">
<path d="M-1370.06 1334.83C-1239.85 1191.98 -983.134 1310.58 -818.126 1278.74C-631.594 1242.75 -616.14 1007.64 -559.481 861.737C-533.424 794.656 -495.076 718.33 -419.057 700.25C-334.357 680.135 -234.433 718.061 -154.509 743.682C-38.6438 780.814 198.644 894.682 275.713 742.184C348.248 598.777 313.651 414.396 346.725 260.579C364.279 178.901 400.681 110.385 492.296 106.134C580.645 102.024 672.963 134.15 756.229 159.733C846.78 187.544 936.768 220.079 1029.74 239.234C1099.34 253.588 1194.66 271.68 1242.06 205.098C1299.35 124.636 1265.11 -19.6284 1255.11 -109.706C1244.71 -203.177 1217.07 -326.302 1256.95 -415.944C1302.66 -518.686 1454.55 -502.168 1544.83 -494.793C1660.62 -485.331 1782.63 -460.619 1890.12 -516.714L1837.76 -594C1729.75 -536.637 1607.22 -560.466 1490.37 -569.326C1399.62 -576.202 1245.99 -591.81 1202.35 -487.085C1163.94 -394.971 1191.19 -273.037 1202.03 -177.709C1212.44 -86.1974 1246.54 56.8127 1189.57 138.99C1141.99 207.646 1048.14 188.926 977.294 173.971C884.246 154.253 794.193 121.282 703.565 92.8181C620.466 66.7231 528.25 33.7012 439.798 36.3901C347.608 39.207 311.603 109.029 294.803 190.784C262.793 346.227 300.258 531.029 229.963 676.831C154.981 832.377 -84.4319 716.524 -199.862 678.675C-280.298 652.272 -380.401 612.733 -466.074 631.556C-542.784 648.406 -581.645 724.783 -607.843 792.057C-664.719 938.025 -678.932 1176.52 -865.348 1213.69C-1031.24 1246.79 -1287.62 1126.95 -1418.49 1270.45C-1548.26 1412.69 -1508.54 1647.3 -1660.82 1776.02L-1614.97 1843.71L-1615.89 1842.35C-1462.56 1713.12 -1500.49 1477.89 -1370.06 1334.83Z" fill="#ECAE21"/>
<path d="M-1322.88 1399.6C-1193.65 1257.41 -936.194 1374.75 -772.21 1344.16C-585.55 1309.33 -568.764 1077.63 -512.22 931.776C-486.266 864.849 -448.391 788.573 -373.039 769.316C-289.286 747.92 -189.58 784.246 -110.117 809.125C6.15845 845.527 241.385 957.577 320.617 808.164C395.406 667.164 363.268 483.091 397.238 330.836C415.432 249.311 452.014 181.974 543.052 176.225C631.401 170.63 723.719 202 807.113 227.096C897.613 254.331 987.55 286.469 1080.37 305.099C1148.78 318.838 1245.48 336.354 1292.73 271.885C1350.43 193.165 1316.3 47.5425 1306.81 -41.1779C1296.99 -132.92 1269.09 -257.364 1310.65 -344.433C1358.72 -445.202 1508.77 -427.891 1598.86 -420.055C1713.79 -410.054 1835.42 -384.549 1942.58 -439.44C1925.12 -465.194 1907.67 -490.952 1890.23 -516.714C1782.74 -460.619 1660.73 -485.331 1544.94 -494.793C1454.66 -502.168 1302.78 -518.685 1257.07 -415.944C1217.18 -326.315 1244.83 -203.228 1255.22 -109.706C1265.24 -19.6284 1299.46 124.611 1242.17 205.098C1194.8 271.68 1099.46 253.588 1029.86 239.234C936.922 220.028 846.896 187.544 756.345 159.733C673.117 134.125 580.812 102.024 492.411 106.134C400.797 110.385 364.369 178.901 346.84 260.579C313.767 414.396 348.364 598.764 275.828 742.184C198.708 894.682 -38.5796 780.814 -154.394 743.682C-234.318 718.073 -334.242 680.135 -418.942 700.25C-494.96 718.304 -533.309 794.656 -559.366 861.737C-616.037 1007.71 -631.492 1242.75 -818.011 1278.74C-983.019 1310.58 -1239.73 1191.98 -1369.95 1334.83C-1500.37 1477.89 -1462.45 1713.12 -1615.7 1842.35L-1614.78 1843.71L-1570.78 1908.66C-1417 1778.98 -1453.59 1543.41 -1322.88 1399.6Z" fill="#EBA223"/>
<path d="M-1276.68 1464.74C-1148.64 1323.21 -889.996 1439.26 -727.306 1409.91C-540.505 1376.22 -522.323 1147.96 -465.831 1002.14C-439.954 935.336 -402.527 859.138 -327.827 838.703C-244.958 816.039 -145.546 850.751 -66.4803 874.925C50.1917 910.61 283.382 1021 364.74 874.695C441.796 736.153 411.808 552.208 446.469 401.502C465.176 320.17 501.835 253.921 592.22 246.571C680.466 239.452 772.874 270.169 856.332 294.805C946.756 321.502 1036.6 353.282 1129.28 371.438C1196.58 384.614 1294.59 401.553 1341.71 339.222C1399.91 262.244 1366.04 115.149 1357.16 27.7599C1347.98 -62.2153 1320.02 -188.299 1363.3 -272.653C1413.97 -371.424 1562.06 -353.486 1652.27 -345.214C1766.52 -334.728 1887.86 -308.492 1994.88 -362.205L1942.53 -439.491C1835.37 -384.6 1713.74 -410.106 1598.81 -420.106C1508.72 -427.942 1358.67 -445.253 1310.6 -344.484C1269.06 -257.415 1296.96 -132.971 1306.76 -41.2291C1316.27 47.4914 1350.41 193.088 1292.67 271.834C1245.43 336.303 1148.73 318.787 1080.32 305.048C987.499 286.418 897.562 254.279 807.062 227.045C723.668 201.949 631.35 170.578 543 176.174C451.962 181.923 415.381 249.26 397.186 330.785C363.216 483.04 395.355 667.113 320.565 808.113C241.333 957.526 6.10663 845.476 -110.169 809.073C-189.631 784.195 -289.338 747.869 -373.09 769.265C-448.443 788.471 -486.318 864.797 -512.272 931.725C-568.816 1077.58 -585.602 1309.28 -772.262 1344.11C-936.156 1374.7 -1193.7 1257.36 -1322.93 1399.55C-1453.64 1543.36 -1417.06 1778.93 -1570.95 1908.61L-1526.02 1974.92C-1371.73 1844.91 -1407.38 1609.21 -1276.68 1464.74Z" fill="#E99625"/>
<path d="M-1231.32 1530.14C-1104.7 1389.3 -844.631 1504.02 -683.298 1475.92C-496.356 1443.36 -476.715 1218.55 -420.222 1072.71C-394.396 1006.03 -357.379 929.932 -283.333 908.319C-201.309 884.375 -102.23 917.487 -23.5225 941.008C93.5337 976.002 324.752 1084.84 408.21 941.661C487.52 805.616 459.427 621.684 494.626 472.476C513.755 391.374 550.388 326.137 640.056 317.263C728.162 308.544 820.659 338.723 904.156 362.923C994.49 389.121 1084.22 420.542 1176.77 438.276C1243.01 450.952 1342.3 467.29 1389.32 407.136C1448.05 331.911 1414.7 183.37 1406.45 97.1589C1398 8.91226 1370.17 -119.015 1415.26 -200.539C1468.77 -297.249 1614.74 -278.85 1705.32 -270.156C1747.97 -266.058 1791.68 -259.72 1835.29 -256.161C1838.91 -255.862 1842.54 -255.585 1846.19 -255.328C1849.83 -255.072 1853.46 -254.842 1857.07 -254.637C1878.7 -253.294 1900.39 -253.166 1922.04 -254.253C1927.41 -254.56 1932.77 -254.962 1938.11 -255.457C1948.8 -256.455 1959.42 -257.876 1969.95 -259.81C1973.47 -260.45 1976.97 -261.155 1980.47 -261.91C1985.72 -263.037 1990.94 -264.317 1996.14 -265.751C2013.74 -270.5 2030.85 -276.932 2047.23 -284.958L1994.87 -362.244C1887.89 -308.53 1766.51 -334.766 1652.25 -345.252C1562.05 -353.524 1413.96 -371.463 1363.29 -272.691C1320.01 -188.337 1347.92 -62.2536 1357.14 27.7217C1366.11 115.162 1399.9 262.205 1341.7 339.184C1294.58 401.515 1196.57 384.575 1129.27 371.399C1036.59 353.243 946.743 321.463 856.319 294.766C772.862 270.131 680.453 239.413 592.207 246.532C501.822 253.831 465.163 320.08 446.456 401.464C411.795 552.169 441.783 736.115 364.727 874.656C283.369 1020.96 50.1788 910.508 -66.4932 874.887C-145.559 850.713 -244.971 815.988 -327.84 838.664C-402.54 859.151 -439.967 935.297 -465.844 1002.1C-522.336 1147.92 -540.518 1376.18 -727.319 1409.87C-890.048 1439.22 -1148.67 1323.18 -1276.7 1464.7C-1407.39 1609.17 -1371.74 1844.87 -1525.98 1974.94L-1480.13 2042.62L-1481.06 2041.25C-1326.71 1910.89 -1361.74 1675.24 -1231.32 1530.14Z" fill="#E89026"/>
<path d="M-1186.68 1595.85C-1061.61 1455.7 -799.88 1569.12 -639.943 1542.23C-452.847 1510.78 -431.708 1289.5 -375.177 1143.57C-349.389 1076.99 -312.769 1001 -239.363 978.204C-158.145 952.993 -59.4633 984.504 18.9369 1007.41C136.377 1041.73 365.649 1149.11 451.22 1009.09C532.783 875.604 506.393 691.544 541.964 543.834C561.439 462.976 597.969 398.685 686.869 388.198C774.77 377.827 867.408 407.571 950.892 431.361C1041.14 457.085 1130.75 488.199 1223.15 505.498C1288.37 517.713 1388.96 533.462 1435.77 475.485C1495.08 402.04 1462.38 251.936 1454.84 166.903C1447.16 80.0393 1419.83 -49.2317 1466.58 -128.17C1522.66 -222.921 1667.16 -204.035 1758.01 -194.957C1871.35 -183.625 1992.52 -156.121 2099.51 -207.581L2047.16 -284.868C2030.79 -276.842 2013.68 -270.41 1996.07 -265.661C1990.88 -264.253 1985.65 -262.972 1980.4 -261.82C1976.91 -261.065 1973.41 -260.361 1969.89 -259.721C1959.35 -257.787 1948.74 -256.366 1938.05 -255.367C1932.7 -254.864 1927.35 -254.462 1921.98 -254.163C1900.33 -253.075 1878.64 -253.204 1857.01 -254.548C1853.39 -254.752 1849.76 -254.983 1846.12 -255.239C1842.49 -255.495 1838.86 -255.772 1835.23 -256.071C1791.62 -259.631 1747.9 -265.969 1705.25 -270.066C1614.68 -278.76 1468.71 -297.16 1415.2 -200.45C1370.1 -118.925 1397.94 9.00165 1406.39 97.2483C1414.63 183.459 1447.99 332.001 1389.26 407.225C1342.28 467.405 1242.98 451.042 1176.71 438.366C1084.16 420.657 994.426 389.21 904.092 363.013C820.596 338.813 728.099 308.633 639.993 317.353C550.363 326.226 513.692 391.464 494.562 472.566C459.376 621.773 487.456 805.706 408.147 941.751C324.689 1084.93 93.4703 976.091 -23.5858 941.098C-102.293 917.576 -201.373 884.465 -283.396 908.409C-357.443 930.022 -394.46 1006.12 -420.286 1072.8C-476.778 1218.65 -496.42 1443.45 -683.362 1476.01C-844.695 1504.18 -1104.81 1389.39 -1231.38 1530.23C-1361.81 1675.29 -1326.77 1910.94 -1481.06 2041.34L-1480.13 2042.71L-1436.13 2107.66C-1281.89 1976.89 -1316.57 1741.41 -1186.68 1595.85Z" fill="#E88A27"/>
<path d="M-1142.46 1661.71C-1019.05 1522.26 -755.462 1634.37 -596.997 1608.71C-409.723 1578.38 -387.072 1360.59 -330.478 1214.57C-304.69 1147.99 -268.479 1072.16 -195.713 1048.19C-115.264 1021.71 -17.0303 1051.62 61.1139 1073.94C178.913 1107.6 406.316 1213.65 493.973 1076.78C577.79 945.912 552.949 761.646 588.724 615.384C608.469 534.781 644.845 471.413 732.951 459.275C820.596 447.213 913.401 476.586 996.859 499.979C1087 525.255 1176.49 556.075 1268.73 572.964C1332.99 584.743 1434.87 599.852 1481.47 544.103C1541.38 472.399 1509.48 320.733 1502.68 236.802C1495.74 151.013 1469.3 20.8201 1517.55 -55.7235C1576.02 -148.439 1719.53 -129.181 1810.58 -119.745C1923.61 -108.041 2044.77 -79.9622 2151.91 -130.347L2099.56 -207.62C1992.57 -156.16 1871.4 -183.663 1758.06 -194.995C1667.21 -204.073 1522.71 -222.909 1466.63 -128.209C1419.88 -49.2706 1447.18 80.001 1454.89 166.865C1462.43 251.898 1495.13 402.001 1435.83 475.446C1389.01 533.424 1288.42 517.7 1223.2 505.459C1130.8 488.161 1041.19 457.047 950.943 431.323C867.459 407.533 774.821 377.789 686.92 388.16C598.02 398.647 561.439 462.937 542.015 543.795C506.445 691.517 532.834 875.565 451.271 1009.05C365.701 1149.08 136.428 1041.69 18.9882 1007.37C-59.412 984.465 -158.094 952.954 -239.312 978.166C-312.718 1000.96 -349.338 1076.94 -375.126 1143.53C-431.656 1289.5 -452.796 1510.74 -639.891 1542.19C-799.854 1569.08 -1061.59 1455.66 -1186.63 1595.82C-1316.57 1741.42 -1281.89 1976.86 -1436.12 2107.57L-1390.27 2175.26L-1391.19 2173.89C-1237.23 2042.93 -1271.75 1807.83 -1142.46 1661.71Z" fill="#E78428"/>
<path d="M-1099.2 1726.84C-1039.46 1658.72 -927.167 1658.88 -843.952 1663.74C-748.727 1669.3 -650.288 1689.35 -555.063 1674.47C-367.61 1645.24 -343.474 1430.91 -286.802 1284.75C-261.027 1218.27 -225.188 1142.5 -153.062 1117.36C-73.3433 1089.6 24.3912 1117.95 102.318 1139.72C220.539 1172.75 446.073 1277.57 535.792 1143.84C621.836 1015.59 598.404 831.033 634.384 686.178C654.359 605.832 690.531 543.347 777.791 529.57C865.052 515.793 958.151 544.858 1041.56 567.868C1131.6 592.721 1220.97 623.245 1313.07 639.776C1376.41 651.146 1479.53 665.678 1525.94 612.093C1586.43 542.169 1555.39 388.877 1549.39 306.072C1543.21 221.308 1517.75 90.1164 1567.5 15.9928C1628.38 -74.6867 1770.82 -55.1349 1862.23 -45.3781C1975.06 -33.3165 2096.24 -4.71159 2203.58 -54.0334L2151.9 -130.321C2044.76 -79.9365 1923.6 -108.016 1810.57 -119.719C1719.52 -129.143 1576.01 -148.4 1517.54 -55.6977C1469.28 20.8459 1495.78 151.065 1502.66 236.827C1509.46 320.721 1541.37 472.425 1481.46 544.129C1434.85 599.904 1332.93 584.769 1268.72 572.989C1176.53 556.088 1086.99 525.268 996.846 500.005C913.388 476.612 820.583 447.239 732.938 459.301C644.832 471.439 608.456 534.845 588.712 615.409C552.86 761.672 577.726 945.938 493.96 1076.81C406.303 1213.67 178.977 1107.63 61.1011 1073.97C-17.0046 1051.65 -115.277 1021.74 -195.726 1048.22C-268.492 1072.19 -304.703 1148.09 -330.49 1214.6C-387.085 1360.56 -409.736 1578.4 -597.01 1608.73C-755.449 1634.34 -1019.04 1522.28 -1142.47 1661.73C-1271.79 1807.85 -1237.22 2042.95 -1391.2 2173.9L-1390.28 2175.27L-1345.35 2241.58L-1346.86 2239.36C-1193.25 2108.12 -1227.76 1873.41 -1099.2 1726.84Z" fill="#E67E29"/>
<path d="M2203.62 -54.0212C2096.28 -4.6994 1975.1 -33.3037 1862.27 -45.3653C1770.86 -55.1221 1628.41 -74.6739 1567.54 16.0056C1517.79 90.1292 1543.21 221.321 1549.42 306.085C1555.46 388.877 1586.47 542.169 1525.98 612.106C1479.63 665.691 1376.45 651.159 1313.11 639.789C1221.01 623.258 1131.64 592.733 1041.6 567.88C958.19 544.832 865.168 515.792 777.83 529.582C690.493 543.372 654.385 605.844 634.423 686.191C598.417 831.045 621.849 1015.6 535.83 1143.85C446.111 1277.58 220.578 1172.76 102.356 1139.73C24.4299 1117.96 -73.3046 1089.61 -153.024 1117.37C-225.15 1142.51 -260.989 1218.28 -286.764 1284.76C-343.435 1430.92 -367.571 1645.25 -555.025 1674.48C-650.25 1689.32 -748.689 1669.36 -843.914 1663.75C-927.141 1658.89 -1039.42 1658.73 -1099.17 1726.85C-1227.72 1873.42 -1193.21 2108.14 -1346.81 2239.39L-1345.3 2241.62L-1301.88 2305.72C-1148.76 2174.19 -1183.33 1939.88 -1055.58 1792.88C-996.898 1725.34 -883.376 1725.3 -801.173 1730.03C-706.038 1735.48 -607.945 1755.45 -512.758 1741.19C-325.099 1713.09 -299.465 1502.25 -242.717 1355.92C-216.942 1289.45 -181.513 1213.79 -110.027 1187.46C-31.0377 1158.38 66.146 1185.16 143.893 1206.4C262.537 1238.81 486.227 1342.46 578.046 1211.92C666.395 1086.44 644.256 901.456 680.39 758.036C700.569 677.932 736.536 616.344 822.914 600.864C909.918 585.294 1003.2 614.129 1086.54 636.716C1176.48 661.146 1265.72 691.376 1357.67 707.535C1405.57 715.948 1478.21 726.102 1530.23 707.203C1531.32 700.302 1533.05 693.52 1535.42 686.947C1537.98 679.635 1541.27 673.297 1545.66 668.547C1546.86 667.266 1551.83 664.116 1558.46 660.262C1559.43 638.969 1562.09 616.293 1568.96 598.687C1572.23 589.481 1576.54 581.478 1582.24 575.537C1583.79 573.932 1585.42 572.407 1587.12 570.966C1588.73 558.985 1591.54 547.197 1595.51 535.78C1598.51 526.775 1602.66 518.191 1607.84 510.235C1605.67 460.516 1598.79 411.566 1596.52 376.277C1591.14 292.487 1566.77 160.258 1618 88.6564C1681.36 0.115208 1822.62 19.8339 1914.55 29.962C2027.23 42.3565 2148.42 71.473 2256 23.2267L2203.62 -54.0212Z" fill="#E6782A"/>
</g>
</svg>
