<svg width="1440" height="706" viewBox="0 0 1440 706" fill="none" xmlns="http://www.w3.org/2000/svg">
<mask id="mask0_215_447" style="mask-type:alpha" maskUnits="userSpaceOnUse" x="0" y="0" width="1440" height="706">
<rect width="1440" height="706" fill="#C4C4C4"/>
</mask>
<g mask="url(#mask0_215_447)">
<mask id="mask1_215_447" style="mask-type:alpha" maskUnits="userSpaceOnUse" x="112" y="-1193" width="2010" height="1211">
<rect x="112.032" y="-994.981" width="1914.79" height="1018.32" transform="rotate(-5.90808 112.032 -994.981)" fill="#C4C4C4"/>
</mask>
<g mask="url(#mask1_215_447)">
</g>
<g clip-path="url(#clip0_215_447)">
<path d="M3470.35 -469.459C3319.12 -276.229 2970.05 -387.538 2759.44 -326.155C2521.33 -256.786 2531.16 34.4799 2476.02 221.57C2450.67 307.604 2410.49 406.632 2313.89 439.104C2206.26 475.249 2071.44 442.052 1964.2 421.298C1808.73 391.224 1485.54 283.111 1404.69 481.06C1328.57 667.217 1397.05 889.347 1373.6 1083C1361.16 1185.82 1322.52 1275 1203.88 1292.56C1089.46 1309.51 965.271 1282.44 853.689 1262.18C732.343 1240.15 611.13 1212.25 487.74 1201.2C395.363 1192.93 269.057 1183.5 215.865 1271.77C151.579 1378.45 214.487 1551.31 238.96 1660.74C264.384 1774.31 316.02 1922.03 275.541 2037.66C229.051 2170.21 29.369 2170.33 -89.0238 2173.41C-240.865 2177.36 -402.71 2163.39 -535.491 2246.91L-457.539 2334.92C-324.316 2249.83 -161.883 2262.64 -8.73628 2257.81C110.209 2254.05 312.056 2252.56 355.496 2117.88C393.746 1999.4 342.777 1853.09 316.534 1737.3C291.344 1626.14 228.781 1454.83 292.432 1346.08C345.593 1255.23 470.078 1265.62 564.149 1274.48C687.712 1286.2 809.062 1314.63 930.589 1337.44C1042.02 1358.35 1166.19 1386.55 1280.84 1371.35C1400.42 1355.49 1438.37 1264.74 1449.82 1161.92C1471.68 966.419 1399.42 744.154 1472.31 555.354C1550.06 353.938 1876.27 464.206 2031.26 495.22C2139.27 516.867 2274.53 552.023 2383.59 517.338C2481.25 486.285 2522.08 387.109 2547.6 300.836C2603.01 113.638 2591.15 -181.605 2828.94 -252.437C3040.54 -315.467 3389.34 -202.601 3541.33 -396.721C3692.07 -589.152 3610.53 -872.377 3792.26 -1051.21L3724 -1128.28L3725.37 -1126.74C3542.53 -947.206 3621.82 -662.983 3470.35 -469.459Z" fill="#ECAE21"/>
<path d="M3400.72 -542.782C3250.69 -350.489 2900.82 -460.154 2691.37 -400.452C2452.97 -332.485 2460.62 -45.2275 2405.63 141.784C2380.38 227.599 2340.81 326.517 2245.23 360.348C2139 397.94 2004.66 366.699 1898.12 346.796C1742.21 317.674 1421.92 211.426 1337.87 405.949C1258.52 589.449 1323.76 811.548 1298.92 1003.32C1285.63 1106.04 1246.61 1193.79 1128.9 1213.12C1014.67 1231.9 890.579 1205.74 778.892 1186.1C657.689 1164.8 536.592 1137.36 413.468 1126.94C322.717 1119.25 194.687 1110.73 141.426 1196.38C76.3687 1300.98 139.314 1475.5 162.95 1583.35C187.404 1694.87 239.541 1844.18 196.552 1956.87C146.845 2087.29 -50.5697 2086.21 -168.773 2088.69C-319.567 2091.86 -481.046 2076.86 -613.468 2158.8L-535.491 2246.91C-402.71 2163.39 -240.865 2177.36 -89.024 2173.41C29.3689 2170.33 229.051 2170.21 275.457 2037.67C315.938 1922.06 264.307 1774.38 238.877 1660.75C214.387 1551.32 151.5 1378.49 215.782 1271.78C268.941 1183.51 395.279 1192.94 487.657 1201.21C611.004 1212.32 732.26 1240.16 853.605 1262.19C965.14 1282.48 1089.31 1309.53 1203.79 1292.57C1322.44 1275.01 1361.11 1185.83 1373.52 1083C1396.97 889.356 1328.49 667.241 1404.6 481.069C1485.52 283.113 1808.72 391.225 1964.11 421.306C2071.35 442.045 2206.18 475.257 2313.81 439.113C2410.41 406.672 2450.58 307.612 2475.94 221.579C2531.09 34.4079 2521.26 -256.779 2759.35 -326.147C2969.97 -387.53 3319.04 -276.221 3470.26 -469.45C3621.73 -662.975 3542.45 -947.197 3725.38 -1126.79L3724.01 -1128.33L3658.5 -1202.3C3474.87 -1022.17 3552.45 -737.305 3400.72 -542.782Z" fill="#E5722B"/>
<path d="M3332.33 -616.679C3183.76 -425.365 2832.5 -533.279 2624.59 -475.28C2385.85 -408.695 2391.25 -125.486 2336.32 61.5031C2311.16 147.135 2272.16 245.897 2177.58 281.089C2072.66 320.122 1938.91 290.825 1832.97 271.719C1676.64 243.533 1359.22 139.153 1272 330.057C1189.39 510.853 1251.81 733.053 1225.9 923.088C1211.92 1025.66 1172.66 1112.07 1056 1133.28C942.105 1153.91 817.976 1128.57 706.264 1109.5C585.229 1088.84 464.296 1061.85 341.416 1051.99C252.185 1044.85 122.513 1037.21 69.146 1120.22C3.23425 1222.74 66.0169 1399.1 88.7007 1505.39C112.098 1614.84 164.509 1766.15 118.945 1875.75C65.5998 2004.04 -129.348 2001.91 -247.755 2003.88C-397.728 2006.37 -558.934 1990.43 -691.323 2070.91L-613.371 2158.92C-480.949 2076.98 -319.47 2091.98 -168.676 2088.8C-50.4727 2086.33 146.942 2087.41 196.65 1956.99C239.605 1844.3 187.468 1694.99 163.048 1583.47C139.378 1475.62 76.4364 1301.13 141.523 1196.5C194.785 1110.84 322.813 1119.37 413.565 1127.06C536.689 1137.48 657.786 1164.92 778.988 1186.22C890.675 1205.86 1014.77 1232.01 1129 1213.24C1246.63 1193.85 1285.65 1106.1 1298.92 1003.32C1323.74 811.487 1258.49 589.387 1337.85 405.888C1421.91 211.444 1742.19 317.613 1898.09 346.734C2004.64 366.637 2138.98 397.879 2245.21 360.286C2340.8 326.518 2380.36 227.538 2405.6 141.723C2460.6 -45.2888 2452.95 -332.547 2691.35 -400.514C2900.68 -460.204 3250.67 -350.55 3400.7 -542.843C3552.44 -737.319 3474.86 -1022.15 3658.56 -1202.37L3591.66 -1277.79C3407.59 -1097.08 3483.96 -811.972 3332.33 -616.679Z" fill="#DF3B31"/>
<path d="M3264.98 -691.05C3118.18 -500.762 2765.24 -606.879 2558.93 -550.589C2319.87 -485.356 2322.93 -206.218 2268 -19.2135C2242.88 66.2696 2204.41 164.866 2110.83 201.404C2007.17 241.898 1874.06 214.525 1768.67 196.174C1611.93 168.89 1297.27 66.15 1206.92 253.509C1121.05 431.506 1181.01 653.962 1154.21 842.226C1139.65 944.557 1100.29 1029.73 984.768 1052.72C871.255 1075.3 747.077 1050.64 635.372 1032.11C514.516 1012.05 393.779 985.48 271.119 976.127C183.335 969.452 52.0739 962.724 -1.43722 1043.04C-68.2717 1143.48 -5.9717 1321.69 15.7292 1426.62C37.9574 1534.04 90.4548 1687.65 42.161 1793.98C-15.1425 1920.14 -207.382 1917.17 -326.327 1918.66C-475.689 1920.53 -636.829 1903.77 -769.214 1982.82L-691.263 2070.84C-558.932 1990.29 -397.668 2006.3 -247.696 2003.81C-129.289 2001.84 65.6595 2003.97 119.004 1875.68C164.569 1766.08 112.208 1614.77 88.7603 1505.32C65.97 1398.98 3.29387 1222.67 69.2054 1120.15C122.573 1037.14 252.245 1044.78 341.475 1051.92C464.356 1061.78 585.288 1088.77 706.324 1109.43C818.035 1128.5 942.165 1153.84 1056.06 1133.21C1172.72 1112.06 1211.98 1025.65 1225.96 923.018C1251.87 732.983 1189.45 510.783 1272.06 329.987C1359.28 139.083 1676.71 243.542 1833.03 271.649C1938.97 290.755 2072.72 320.068 2177.64 281.02C2272.22 245.764 2311.22 147.065 2336.38 61.4333C2391.31 -125.556 2385.91 -408.765 2624.65 -475.349C2832.61 -533.354 3183.84 -425.436 3332.39 -616.748C3483.97 -811.972 3407.59 -1097.08 3591.66 -1277.79L3523.4 -1354.87L3524.79 -1353.31C3340.62 -1172.23 3416.19 -887.047 3264.98 -691.05Z" fill="#166D82"/>
<path d="M3198.48 -765.827C3053.61 -576.598 2698.67 -680.869 2494.02 -626.263C2254.62 -562.395 2255.28 -287.371 2200.31 -100.267C2175.24 -14.8992 2137.27 83.5181 2044.67 121.418C1942.22 163.363 1809.83 137.889 1704.92 120.269C1547.76 93.8714 1235.82 -7.35119 1142.32 176.402C1053.2 351.568 1110.96 574.411 1083.48 760.883C1068.44 862.976 1029.1 946.955 914.776 971.822C801.74 996.413 677.435 972.299 565.798 954.276C445.119 934.786 324.571 908.58 202.166 899.741C115.756 893.498 -17.1122 887.668 -70.6334 965.283C-138.442 1063.62 -76.7938 1243.83 -56.1589 1347.41C-35.108 1453.21 16.895 1608.56 -33.8753 1711.94C-94.7762 1836.04 -285.165 1832.24 -404.525 1833.31C-553.405 1834.63 -714.539 1817.11 -847.18 1894.83L-769.247 1982.83C-636.812 1903.76 -475.672 1920.53 -326.361 1918.66C-207.415 1917.17 -15.1755 1920.14 42.1277 1793.98C90.4215 1687.65 37.9241 1534.05 15.6961 1426.63C-6.00474 1321.7 -68.3047 1143.48 -1.47026 1043.05C51.9873 962.702 183.252 969.461 271.086 976.13C393.744 985.468 514.483 1012.05 635.338 1032.11C747.044 1050.64 871.222 1075.31 984.735 1052.72C1100.21 1029.74 1139.61 944.56 1154.18 842.229C1180.96 653.967 1121.02 431.509 1206.88 253.513C1297.23 66.1534 1611.89 168.894 1768.63 196.177C1874.02 214.528 2007.14 241.901 2110.8 201.408C2204.38 164.87 2242.85 66.273 2267.96 -19.21C2322.89 -206.23 2319.83 -485.352 2558.89 -550.586C2765.2 -606.954 3118.21 -500.781 3264.95 -691.046C3416.16 -887.043 3340.59 -1172.16 3524.72 -1353.34L3523.33 -1354.9L3457.82 -1428.87C3273.92 -1247.33 3348.99 -962.42 3198.48 -765.827Z" fill="#269FA2"/>
<path d="M3132.63 -840.878C2989.83 -652.739 2632.65 -755.153 2429.76 -702.243C2189.98 -639.736 2188.23 -368.809 2133.19 -181.57C2108.12 -96.2021 2070.66 1.92408 1979.04 41.2029C1877.75 84.6028 1746.15 61.0534 1641.64 44.1071C1484.11 18.5613 1174.77 -81.2593 1078.15 98.8851C985.763 271.142 1041.53 494.445 1013.61 679.164C998.173 781.044 958.922 863.804 845.844 890.596C733.358 917.246 608.882 893.596 497.329 876.058C376.841 857.104 256.497 831.244 134.344 822.889C49.2406 817.067 -85.2137 812.181 -138.752 887.028C-207.567 983.289 -146.752 1165.54 -127.223 1267.86C-107.275 1372.45 -56.3054 1529.03 -109.344 1629.69C-173.605 1751.58 -362.756 1747.22 -482.409 1747.88C-630.954 1748.71 -792.145 1730.48 -925.124 1806.88L-847.173 1894.89C-714.532 1817.18 -553.398 1834.69 -404.518 1833.37C-285.092 1832.3 -94.7777 1836.02 -33.8684 1712.01C16.9017 1608.62 -35.0678 1453.27 -56.1522 1347.47C-76.7871 1243.89 -138.436 1063.68 -70.6267 965.346C-17.1052 887.731 115.76 893.529 202.173 899.804C324.578 908.643 445.126 934.849 565.804 954.339C677.441 972.362 801.747 996.476 914.783 971.885C1029.1 947.018 1068.51 863.033 1083.49 760.945C1110.96 574.458 1053.2 351.632 1142.32 176.465C1235.83 -7.28801 1547.77 93.9345 1704.92 120.332C1809.83 137.952 1942.23 163.426 2044.68 121.481C2137.28 83.5811 2175.25 -14.8205 2200.32 -100.204C2255.28 -287.355 2254.63 -562.332 2494.03 -626.2C2698.71 -680.809 3053.65 -576.539 3198.49 -765.764C3349 -962.357 3273.92 -1247.27 3457.93 -1428.82L3389.66 -1505.89L3391.04 -1504.33C3207.41 -1322.54 3282.25 -1038 3132.63 -840.878Z" fill="#4EB8B4"/>
<path d="M3068.07 -915.172C2999.02 -823.342 2852.91 -808.414 2744.03 -803.18C2619.44 -797.211 2488.82 -808.606 2366.83 -777.486C2126.68 -716.309 2122.56 -449.434 2067.44 -262.027C2042.37 -176.771 2005.39 -78.7585 1914.75 -38.1326C1814.57 6.74404 1683.82 -14.967 1579.67 -31.2496C1421.66 -55.951 1114.91 -154.527 1015.21 22.0363C919.591 191.364 973.566 415.219 945.195 598.234C929.435 699.749 890.33 781.475 778.561 810.169C666.791 838.863 541.973 815.646 430.535 798.573C310.234 780.126 190.077 754.612 68.1533 746.679C-15.7003 741.221 -151.779 737.236 -205.26 809.387C-275.051 903.536 -215.159 1087.92 -196.809 1188.95C-178.009 1292.36 -128.216 1450.26 -183.525 1548.18C-251.175 1667.91 -438.98 1663.05 -559.144 1663.34C-707.468 1663.7 -868.758 1644.83 -1002.12 1719.94L-925.182 1806.82C-792.203 1730.42 -631.012 1748.65 -482.467 1747.83C-362.814 1747.16 -173.661 1751.53 -109.401 1629.63C-56.3623 1528.97 -107.402 1372.37 -127.28 1267.81C-146.804 1165.53 -207.624 983.232 -138.809 886.97C-85.2739 812.092 49.2503 817.002 134.287 822.831C256.375 831.208 376.786 857.062 497.272 876C608.826 893.538 733.302 917.189 845.788 890.538C958.865 863.746 998.103 780.86 1013.55 679.106C1041.58 494.377 985.773 271.077 1078.09 98.8274C1174.71 -81.317 1483.95 18.5136 1641.59 44.049C1746.04 61.0005 1877.7 84.5448 1978.99 41.1449C2070.6 1.86596 2108.05 -96.3705 2133.13 -181.628C2188.18 -368.788 2189.92 -639.794 2429.7 -702.301C2632.56 -755.129 2989.74 -652.794 3132.58 -840.936C3282.22 -1038.06 3207.32 -1322.59 3390.98 -1504.39L3389.61 -1505.95L3322.71 -1581.47L3324.96 -1578.93C3141.89 -1396.8 3216.66 -1112.76 3068.07 -915.172Z" fill="#047F4D"/>
<path d="M3002.91 -990.533C2935.17 -899.556 2787.48 -884.225 2679.94 -878.954C2555.48 -872.871 2425.32 -884.218 2303.3 -853.875C2062.75 -793.963 2056.23 -531.264 2001.03 -343.626C1975.95 -258.402 1939.49 -160.57 1849.84 -118.566C1750.78 -72.1653 1620.94 -92.0134 1517.09 -107.659C1358.61 -131.563 1054.41 -228.938 951.572 -56.0136C852.605 110.223 904.951 334.771 876.2 516.059C860.148 617.35 821.155 697.886 710.785 728.552C599.495 759.441 474.554 736.507 363.254 719.945C243.14 702.004 123.187 676.835 1.51011 669.338C-61.8775 665.439 -157.668 662.745 -222.945 692.979C-223.454 701.607 -224.822 710.18 -227.03 718.584C-229.431 727.921 -232.905 736.16 -238.014 742.594C-239.417 744.331 -245.479 748.874 -253.616 754.524C-252.155 780.844 -252.735 809.078 -259.439 831.659C-262.515 843.422 -267.11 853.847 -273.767 861.921C-275.532 864.062 -277.47 866.157 -279.53 868.216C-280.096 883.164 -282.251 898.036 -285.963 912.609C-288.729 924.089 -293.028 935.205 -298.754 945.688C-289.611 1006.55 -274.418 1065.83 -266.977 1108.93C-249.316 1211.27 -200.786 1370.63 -258.32 1465.6C-329.472 1583.05 -515.752 1577.8 -636.643 1577.73C-784.811 1577.64 -946.183 1558.14 -1080 1631.97L-1002.05 1719.98C-868.685 1644.87 -707.395 1663.74 -559.071 1663.38C-438.907 1663.09 -251.102 1667.95 -183.453 1548.22C-128.155 1450.35 -177.936 1292.4 -196.803 1189C-215.187 1087.97 -275.045 903.583 -205.254 809.434C-151.773 737.283 -15.6944 741.268 68.159 746.726C190.083 754.659 310.239 780.173 430.541 798.621C541.983 815.74 666.7 838.952 778.566 810.216C890.432 781.481 929.458 699.795 945.201 598.281C973.605 415.263 919.629 191.408 1015.21 22.0836C1114.91 -154.48 1421.67 -55.904 1579.67 -31.2024C1683.82 -14.9197 1814.58 6.7914 1914.76 -38.0853C2005.39 -78.7111 2042.37 -176.724 2067.44 -261.98C2122.57 -449.387 2126.69 -716.262 2366.84 -777.438C2488.83 -808.527 2619.44 -797.211 2744.04 -803.133C2852.93 -808.368 2999.02 -823.295 3068.08 -915.124C3216.67 -1112.71 3141.9 -1396.77 3325.02 -1578.89L3322.77 -1581.43L3258.12 -1654.42C3075.6 -1472.09 3150.39 -1188.58 3002.91 -990.533Z" fill="#27A058"/>
<path d="M2937.96 -1066.68C2871.51 -976.68 2722.27 -960.918 2616.1 -955.598C2491.78 -949.371 2362.08 -960.686 2240.09 -931.014C1999.16 -872.527 1990.28 -613.866 1935.07 -425.893C1910.03 -340.688 1874.1 -243.007 1785.44 -199.609C1687.55 -151.689 1558.78 -169.643 1455.23 -184.667C1296.5 -207.781 994.946 -303.918 889.233 -134.692C787.275 28.6709 837.374 253.468 808.076 433.061C791.59 534.062 752.661 613.414 643.565 645.986C533.245 678.923 408.236 656.299 297.237 640.056C177.572 622.546 58.1181 597.643 -63.0331 590.506C-101.402 588.237 -152.673 586.57 -201.749 592.445C-205.273 608.011 -213.561 622.606 -224.789 635.802C-222.873 654.323 -221.609 674.503 -222.953 692.916C-157.676 662.682 -61.8855 665.376 1.50209 669.275C123.179 676.772 243.132 701.941 363.246 719.882C474.551 736.491 599.576 759.416 710.777 728.489C821.154 697.886 860.146 617.35 876.199 516.059C904.953 334.803 852.725 110.258 951.571 -56.0135C1054.4 -229.017 1358.61 -131.563 1517.09 -107.659C1620.94 -92.0133 1750.78 -72.1652 1849.84 -118.566C1939.49 -160.554 1975.95 -258.402 2001.03 -343.626C2056.23 -531.264 2062.73 -794.12 2303.3 -853.875C2425.32 -884.218 2555.48 -872.871 2679.94 -878.954C2787.48 -884.225 2935.17 -899.556 3002.91 -990.533C3150.39 -1188.58 3075.6 -1472.09 3258.12 -1654.47L3189.85 -1731.55L3191.24 -1729.99C3009.36 -1547.64 3084.26 -1264.91 2937.96 -1066.68Z" fill="#4FB765"/>
</g>
</g>
<defs>
<clipPath id="clip0_215_447">
<rect width="5185.89" height="3669.39" fill="white" transform="translate(4094.02 1863.87) rotate(174.092)"/>
</clipPath>
</defs>
</svg>
