<svg width="428" height="706" viewBox="0 0 428 706" fill="none" xmlns="http://www.w3.org/2000/svg">
<g clip-path="url(#clip0_423_551)">
<path d="M2454.87 -311.739C2303.64 -118.51 1954.57 -229.819 1743.96 -168.436C1505.85 -99.0673 1515.68 192.199 1460.54 379.289C1435.19 465.323 1395.01 564.351 1298.41 596.823C1190.78 632.968 1055.96 599.771 948.716 579.017C793.253 548.943 470.057 440.83 389.204 638.779C313.091 824.936 381.569 1047.07 358.12 1240.71C345.679 1343.54 307.042 1432.72 188.396 1450.28C73.9804 1467.23 -50.2098 1440.16 -161.792 1419.9C-283.138 1397.87 -404.351 1369.96 -527.741 1358.92C-620.118 1350.65 -746.424 1341.21 -799.616 1429.49C-863.902 1536.17 -800.994 1709.02 -776.521 1818.46C-751.097 1932.03 -699.461 2079.75 -739.94 2195.38C-786.43 2327.93 -986.112 2328.05 -1104.5 2331.13C-1256.35 2335.08 -1418.19 2321.11 -1550.97 2404.63L-1473.02 2492.64C-1339.8 2407.55 -1177.36 2420.36 -1024.22 2415.53C-905.272 2411.77 -703.424 2410.28 -659.984 2275.59C-621.735 2157.12 -672.704 2010.81 -698.946 1895.02C-724.137 1783.86 -786.7 1612.55 -723.049 1503.8C-669.887 1412.95 -545.403 1423.34 -451.332 1432.19C-327.769 1443.92 -206.419 1472.35 -84.8915 1495.16C26.5394 1516.07 150.712 1544.27 265.359 1529.07C384.938 1513.21 422.891 1422.46 434.34 1319.64C456.199 1124.14 383.936 901.873 456.83 713.073C534.579 511.657 860.793 621.925 1015.78 652.939C1123.79 674.586 1259.05 709.742 1368.11 675.057C1465.76 644.004 1506.6 544.828 1532.12 458.555C1587.53 271.357 1575.67 -23.8856 1813.46 -94.7181C2025.06 -157.748 2373.85 -44.8819 2525.85 -239.002C2676.59 -431.433 2595.05 -714.658 2776.78 -893.486L2708.51 -970.564L2709.89 -969.018C2527.05 -789.487 2606.33 -505.264 2454.87 -311.739Z" fill="#ECAE21"/>
<path d="M2385.24 -385.063C2235.21 -192.77 1885.34 -302.435 1675.89 -242.733C1437.49 -174.766 1445.14 112.492 1390.14 299.503C1364.9 385.318 1325.33 484.236 1229.75 518.067C1123.52 555.659 989.181 524.418 882.636 504.515C726.733 475.394 406.44 369.145 322.387 563.668C243.036 747.168 308.278 969.267 283.44 1161.04C270.146 1263.76 231.125 1351.51 113.42 1370.84C-0.806721 1389.62 -124.902 1363.46 -236.589 1343.82C-357.792 1322.52 -478.889 1295.08 -602.013 1284.66C-692.764 1276.97 -820.794 1268.45 -874.055 1354.1C-939.112 1458.7 -876.167 1633.22 -852.531 1741.07C-828.077 1852.59 -775.94 2001.9 -818.929 2114.59C-868.636 2245.01 -1066.05 2243.93 -1184.25 2246.41C-1335.05 2249.58 -1496.53 2234.58 -1628.95 2316.52L-1550.97 2404.63C-1418.19 2321.11 -1256.35 2335.08 -1104.5 2331.13C-986.112 2328.05 -786.43 2327.93 -740.024 2195.39C-699.543 2079.78 -751.174 1932.1 -776.604 1818.47C-801.094 1709.04 -863.981 1536.21 -799.699 1429.5C-746.54 1341.23 -620.202 1350.66 -527.824 1358.93C-404.477 1370.04 -283.221 1397.88 -161.876 1419.91C-50.3405 1440.2 73.8302 1467.24 188.313 1450.29C306.958 1432.73 345.629 1343.55 358.037 1240.72C381.486 1047.07 313.01 824.96 389.121 638.788C470.041 440.832 793.237 548.944 948.633 579.025C1055.87 599.764 1190.7 632.976 1298.33 596.832C1394.93 564.391 1435.1 465.331 1460.46 379.298C1515.61 192.127 1505.78 -99.0604 1743.87 -168.428C1954.49 -229.811 2303.56 -118.502 2454.78 -311.731C2606.25 -505.256 2526.97 -789.478 2709.9 -969.067L2708.53 -970.613L2643.02 -1044.59C2459.39 -864.447 2536.97 -579.586 2385.24 -385.063Z" fill="#E5722B"/>
<path d="M2316.85 -458.96C2168.28 -267.646 1817.02 -375.56 1609.1 -317.561C1370.37 -250.976 1375.77 32.2331 1320.84 219.222C1295.68 304.854 1256.68 403.616 1162.1 438.808C1057.18 477.841 923.43 448.544 817.489 429.438C661.161 401.252 343.739 296.872 256.516 487.776C173.905 668.572 236.33 890.772 210.42 1080.81C196.436 1183.38 157.176 1269.79 40.5237 1290.99C-73.3758 1311.63 -197.505 1286.29 -309.217 1267.22C-430.252 1246.56 -551.185 1219.57 -674.065 1209.71C-763.296 1202.56 -892.968 1194.92 -946.335 1277.94C-1012.25 1380.45 -949.464 1556.82 -926.78 1663.11C-903.383 1772.56 -850.972 1923.87 -896.536 2033.46C-949.881 2161.76 -1144.83 2159.63 -1263.24 2161.6C-1413.21 2164.09 -1574.41 2148.15 -1706.8 2228.63L-1628.85 2316.64C-1496.43 2234.7 -1334.95 2249.7 -1184.16 2246.52C-1065.95 2244.05 -868.538 2245.12 -818.831 2114.71C-775.876 2002.02 -828.013 1852.71 -852.433 1741.19C-876.103 1633.34 -939.045 1458.85 -873.958 1354.22C-820.696 1268.56 -692.668 1277.09 -601.916 1284.78C-478.792 1295.2 -357.695 1322.64 -236.493 1343.94C-124.806 1363.58 -0.710034 1389.73 113.517 1370.96C231.149 1351.57 270.169 1263.82 283.44 1161.04C308.256 969.206 243.013 747.106 322.365 563.607C406.425 369.163 726.71 475.332 882.613 504.453C989.158 524.356 1123.49 555.598 1229.73 518.005C1325.32 484.237 1364.88 385.257 1390.12 299.442C1445.12 112.43 1437.46 -174.828 1675.87 -242.795C1885.2 -302.485 2235.19 -192.831 2385.21 -385.124C2536.95 -579.6 2459.38 -864.429 2643.08 -1044.66L2576.18 -1120.08C2392.11 -939.365 2468.48 -654.253 2316.85 -458.96Z" fill="#DF3B31"/>
<path d="M2249.5 -533.331C2102.7 -343.043 1749.76 -449.159 1543.44 -392.87C1304.39 -327.637 1307.45 -48.4991 1252.52 138.506C1227.4 223.989 1188.93 322.585 1095.35 359.123C991.688 399.617 858.577 372.244 753.186 353.893C596.446 326.609 281.786 223.869 191.436 411.228C105.572 589.225 165.531 811.681 138.73 999.945C124.166 1102.28 84.8123 1187.45 -30.7129 1210.44C-144.226 1233.02 -268.404 1208.35 -380.109 1189.83C-500.965 1169.77 -621.702 1143.2 -744.362 1133.85C-832.146 1127.17 -963.407 1120.44 -1016.92 1200.76C-1083.75 1301.2 -1021.45 1479.41 -999.752 1584.34C-977.524 1691.76 -925.026 1845.37 -973.32 1951.7C-1030.62 2077.86 -1222.86 2074.89 -1341.81 2076.38C-1491.17 2078.25 -1652.31 2061.49 -1784.69 2140.54L-1706.74 2228.56C-1574.41 2148.01 -1413.15 2164.02 -1263.18 2161.53C-1144.77 2159.56 -949.821 2161.69 -896.477 2033.4C-850.912 1923.8 -903.273 1772.49 -926.721 1663.04C-949.511 1556.7 -1012.19 1380.38 -946.276 1277.87C-892.908 1194.85 -763.236 1202.5 -674.006 1209.64C-551.125 1219.5 -430.192 1246.49 -309.157 1267.15C-197.446 1286.22 -73.3162 1311.56 40.5833 1290.92C157.242 1269.78 196.503 1183.37 210.479 1080.74C236.39 890.702 173.965 668.502 256.576 487.706C343.798 296.802 661.229 401.261 817.549 429.368C923.49 448.474 1057.24 477.787 1162.16 438.739C1256.74 403.483 1295.74 304.784 1320.9 219.152C1375.83 32.1634 1370.43 -251.046 1609.16 -317.63C1817.13 -375.635 2168.36 -267.717 2316.91 -459.029C2468.48 -654.253 2392.11 -939.365 2576.18 -1120.08L2507.92 -1197.15L2509.31 -1195.59C2325.14 -1014.51 2400.71 -729.328 2249.5 -533.331Z" fill="#166D82"/>
<path d="M2183 -608.108C2038.13 -418.879 1683.19 -523.15 1478.54 -468.544C1239.14 -404.676 1239.8 -129.652 1184.83 57.4522C1159.76 142.82 1121.79 241.237 1029.19 279.137C926.739 321.082 794.346 295.608 689.435 277.988C532.282 251.59 220.338 150.368 126.837 334.121C37.7167 509.287 95.4762 732.13 68.0018 918.602C52.9588 1020.7 13.6157 1104.67 -100.705 1129.54C-213.741 1154.13 -338.046 1130.02 -449.683 1112C-570.362 1092.5 -690.91 1066.3 -813.315 1057.46C-899.725 1051.22 -1032.59 1045.39 -1086.11 1123C-1153.92 1221.34 -1092.27 1401.55 -1071.64 1505.12C-1050.59 1610.93 -998.586 1766.27 -1049.36 1869.66C-1110.26 1993.76 -1300.65 1989.96 -1420.01 1991.03C-1568.89 1992.35 -1730.02 1974.83 -1862.66 2052.55L-1784.73 2140.55C-1652.29 2061.48 -1491.15 2078.25 -1341.84 2076.38C-1222.9 2074.89 -1030.66 2077.86 -973.353 1951.7C-925.059 1845.37 -977.557 1691.77 -999.785 1584.35C-1021.49 1479.42 -1083.79 1301.2 -1016.95 1200.77C-963.494 1120.42 -832.229 1127.18 -744.395 1133.85C-621.737 1143.19 -500.998 1169.77 -380.143 1189.83C-268.437 1208.36 -144.259 1233.03 -30.7462 1210.44C84.729 1187.46 124.133 1102.28 138.697 999.948C165.481 811.686 105.539 589.228 191.402 411.232C281.753 223.872 596.413 326.613 753.153 353.896C858.544 372.247 991.655 399.62 1095.32 359.127C1188.9 322.589 1227.37 223.992 1252.48 138.509C1307.41 -48.5114 1304.35 -327.633 1543.41 -392.867C1749.71 -449.235 2102.73 -343.062 2249.47 -533.327C2400.68 -729.324 2325.11 -1014.44 2509.24 -1195.62L2507.85 -1197.18L2442.34 -1271.15C2258.44 -1089.61 2333.51 -804.701 2183 -608.108Z" fill="#269FA2"/>
<path d="M2117.15 -683.159C1974.35 -495.02 1617.16 -597.435 1414.28 -544.524C1174.5 -482.017 1172.75 -211.09 1117.71 -23.8507C1092.64 61.517 1055.18 159.643 963.563 198.922C862.272 242.322 730.668 218.772 626.163 201.826C468.626 176.28 159.285 76.4597 62.6663 256.604C-29.7179 428.861 26.0523 652.164 -1.87284 836.883C-17.3083 938.763 -56.5592 1021.52 -169.637 1048.31C-282.123 1074.97 -406.598 1051.31 -518.152 1033.78C-638.64 1014.82 -758.984 988.963 -881.137 980.608C-966.24 974.786 -1100.69 969.901 -1154.23 1044.75C-1223.05 1141.01 -1162.23 1323.26 -1142.7 1425.58C-1122.76 1530.17 -1071.79 1686.75 -1124.83 1787.41C-1189.09 1909.3 -1378.24 1904.94 -1497.89 1905.6C-1646.43 1906.43 -1807.63 1888.2 -1940.6 1964.6L-1862.65 2052.61C-1730.01 1974.89 -1568.88 1992.41 -1420 1991.09C-1300.57 1990.02 -1110.26 1993.74 -1049.35 1869.72C-998.579 1766.34 -1050.55 1610.99 -1071.63 1505.19C-1092.27 1401.61 -1153.92 1221.4 -1086.11 1123.06C-1032.59 1045.45 -899.721 1051.25 -813.308 1057.52C-690.903 1066.36 -570.355 1092.57 -449.677 1112.06C-338.039 1130.08 -213.734 1154.2 -100.698 1129.6C13.6224 1104.74 53.0322 1020.75 68.0085 918.665C95.4813 732.177 37.7235 509.351 126.843 334.184C220.344 150.431 532.288 251.653 689.441 278.051C794.353 295.671 926.746 321.145 1029.2 279.201C1121.8 241.3 1159.77 142.898 1184.84 57.5151C1239.8 -129.637 1239.14 -404.613 1478.55 -468.481C1683.23 -523.09 2038.17 -418.82 2183.01 -608.045C2333.52 -804.638 2258.44 -1089.55 2442.45 -1271.1L2374.18 -1348.18L2375.56 -1346.61C2191.93 -1164.82 2266.76 -880.28 2117.15 -683.159Z" fill="#4EB8B4"/>
<path d="M2052.59 -757.453C1983.54 -665.623 1837.43 -650.695 1728.55 -645.461C1603.96 -639.492 1473.34 -650.887 1351.35 -619.767C1111.2 -558.59 1107.08 -291.715 1051.96 -104.308C1026.89 -19.0523 989.905 78.9605 899.271 119.586C799.093 164.463 668.335 142.752 564.185 126.469C406.18 101.768 99.4265 3.19181 -0.273617 179.755C-95.8904 349.083 -41.915 572.938 -70.286 755.953C-86.0455 857.468 -125.151 939.194 -236.92 967.888C-348.69 996.582 -473.508 973.365 -584.946 956.292C-705.247 937.845 -825.404 912.331 -947.328 904.398C-1031.18 898.94 -1167.26 894.955 -1220.74 967.106C-1290.53 1061.26 -1230.64 1245.64 -1212.29 1346.67C-1193.49 1450.08 -1143.7 1607.98 -1199.01 1705.9C-1266.66 1825.63 -1454.46 1820.77 -1574.62 1821.06C-1722.95 1821.42 -1884.24 1802.55 -2017.6 1877.66L-1940.66 1964.54C-1807.68 1888.14 -1646.49 1906.37 -1497.95 1905.55C-1378.29 1904.88 -1189.14 1909.25 -1124.88 1787.35C-1071.84 1686.69 -1122.88 1530.09 -1142.76 1425.53C-1162.28 1323.25 -1223.11 1140.95 -1154.29 1044.69C-1100.75 969.811 -966.231 974.721 -881.194 980.55C-759.106 988.927 -638.695 1014.78 -518.209 1033.72C-406.655 1051.26 -282.179 1074.91 -169.693 1048.26C-56.6159 1021.46 -17.3784 938.579 -1.92981 836.825C26.0952 652.096 -29.7083 428.796 62.6093 256.546C159.228 76.4019 468.469 176.233 626.106 201.768C730.561 218.719 862.215 242.264 963.506 198.864C1055.12 159.585 1092.57 61.3485 1117.65 -23.9089C1172.7 -211.069 1174.44 -482.075 1414.22 -544.582C1617.08 -597.41 1974.26 -495.075 2117.09 -683.217C2266.74 -880.342 2191.84 -1164.87 2375.5 -1346.67L2374.13 -1348.23L2307.23 -1423.75L2309.48 -1421.21C2126.41 -1239.08 2201.18 -955.041 2052.59 -757.453Z" fill="#047F4D"/>
<path d="M1987.43 -832.814C1919.69 -741.837 1772 -726.506 1664.46 -721.235C1540 -715.152 1409.84 -726.499 1287.82 -696.156C1047.27 -636.244 1040.75 -373.545 985.545 -185.907C960.473 -100.683 924.011 -2.85111 834.362 39.1532C735.301 85.5538 605.46 65.7056 501.612 50.0604C343.134 26.156 38.9285 -71.2192 -63.9091 101.705C-162.876 267.942 -110.53 492.49 -139.281 673.778C-155.333 775.069 -194.326 855.605 -304.696 886.271C-415.986 917.16 -540.927 894.226 -652.227 877.664C-772.341 859.723 -892.294 834.554 -1013.97 827.057C-1077.36 823.158 -1173.15 820.464 -1238.43 850.698C-1238.94 859.326 -1240.3 867.899 -1242.51 876.303C-1244.91 885.64 -1248.39 893.879 -1253.5 900.313C-1254.9 902.05 -1260.96 906.593 -1269.1 912.243C-1267.64 938.563 -1268.22 966.797 -1274.92 989.378C-1278 1001.14 -1282.59 1011.57 -1289.25 1019.64C-1291.01 1021.78 -1292.95 1023.88 -1295.01 1025.94C-1295.58 1040.88 -1297.73 1055.76 -1301.44 1070.33C-1304.21 1081.81 -1308.51 1092.92 -1314.23 1103.41C-1305.09 1164.27 -1289.9 1223.55 -1282.46 1266.65C-1264.8 1368.99 -1216.27 1528.35 -1273.8 1623.32C-1344.95 1740.77 -1531.23 1735.52 -1652.12 1735.45C-1800.29 1735.36 -1961.66 1715.86 -2095.48 1789.69L-2017.53 1877.7C-1884.17 1802.59 -1722.88 1821.46 -1574.55 1821.1C-1454.39 1820.81 -1266.58 1825.67 -1198.93 1705.94C-1143.64 1608.07 -1193.42 1450.12 -1212.28 1346.72C-1230.67 1245.69 -1290.53 1061.3 -1220.73 967.153C-1167.25 895.002 -1031.18 898.987 -947.322 904.445C-825.398 912.378 -705.241 937.892 -584.94 956.34C-473.498 973.459 -348.781 996.671 -236.915 967.935C-125.049 939.2 -86.023 857.514 -70.2804 756C-41.876 572.982 -95.8515 349.127 -0.267932 179.803C99.4322 3.23917 406.186 101.815 564.191 126.517C668.341 142.799 799.098 164.51 899.277 119.634C989.911 79.0079 1026.89 -19.0052 1051.96 -104.261C1107.09 -291.668 1111.2 -558.543 1351.36 -619.719C1473.35 -650.808 1603.96 -639.492 1728.56 -645.414C1837.45 -650.649 1983.54 -665.576 2052.6 -757.405C2201.18 -954.993 2126.42 -1239.05 2309.54 -1421.17L2307.29 -1423.71L2242.64 -1496.7C2060.12 -1314.37 2134.91 -1030.86 1987.43 -832.814Z" fill="#27A058"/>
<path d="M1922.48 -908.96C1856.03 -818.961 1706.79 -803.199 1600.61 -797.879C1476.3 -791.652 1346.6 -802.967 1224.61 -773.295C983.678 -714.808 974.803 -456.147 919.586 -268.174C894.546 -182.969 858.624 -85.2883 769.96 -41.8898C672.066 6.02956 543.298 -11.9239 439.749 -26.9476C281.016 -50.0615 -20.5354 -146.199 -126.248 23.0275C-228.206 186.39 -178.107 411.187 -207.405 590.78C-223.891 691.781 -262.82 771.133 -371.916 803.705C-482.236 836.642 -607.245 814.018 -718.244 797.775C-837.909 780.265 -957.363 755.362 -1078.51 748.225C-1116.88 745.956 -1168.15 744.289 -1217.23 750.164C-1220.75 765.73 -1229.04 780.325 -1240.27 793.521C-1238.35 812.042 -1237.09 832.222 -1238.43 850.635C-1173.16 820.401 -1077.37 823.095 -1013.98 826.994C-892.302 834.491 -772.349 859.66 -652.235 877.601C-540.929 894.21 -415.905 917.135 -304.703 886.208C-194.327 855.605 -155.335 775.069 -139.282 673.778C-110.528 492.522 -162.756 267.977 -63.9101 101.705C38.9194 -71.2978 343.133 26.156 501.611 50.0604C605.459 65.7057 735.3 85.5538 834.361 39.1532C924.012 -2.83529 960.473 -100.683 985.545 -185.907C1040.75 -373.545 1047.25 -636.401 1287.82 -696.156C1409.84 -726.499 1540 -715.152 1664.46 -721.235C1772 -726.506 1919.69 -741.837 1987.43 -832.814C2134.91 -1030.86 2060.12 -1314.37 2242.64 -1496.75L2174.37 -1573.83L2175.76 -1572.27C1993.88 -1389.92 2068.78 -1107.19 1922.48 -908.96Z" fill="#4FB765"/>
</g>
<defs>
<clipPath id="clip0_423_551">
<rect width="5185.89" height="3669.39" fill="white" transform="translate(3221.02 1843.87) rotate(174.092)"/>
</clipPath>
</defs>
</svg>
