<?xml version="1.0" encoding="UTF-8" standalone="no"?>
<!DOCTYPE svg PUBLIC "-//W3C//DTD SVG 1.1//EN" "http://www.w3.org/Graphics/SVG/1.1/DTD/svg11.dtd">
<svg xmlns="http://www.w3.org/2000/svg" xmlns:xlink="http://www.w3.org/1999/xlink" version="1.1" width="600pt" height="210pt" viewBox="0 0 600 210">
<g enable-background="new">
<g id="Layer-1" data-name="Layer 1">
<clipPath id="cp0">
<path transform="matrix(1,0,0,-1,0,210)" d="M 0 210 L 600 210 L 600 0 L 0 0 Z "/>
</clipPath>
<g clip-path="url(#cp0)">
<path transform="matrix(1,0,0,-1,38.6509,132.4902)" d="M 0 0 C 0 7.499 -.165 13.649 -.66 19.648 L 12.209 19.648 L 13.035 7.649 L 13.365 7.649 C 17.324 14.549 26.564 21.299 39.764 21.299 C 50.818 21.299 67.978 15.299 67.978 -9.6 L 67.978 -52.948 L 53.458 -52.948 L 53.458 -11.1 C 53.458 .6 48.673 10.35 34.979 10.35 C 25.409 10.35 17.984 4.199 15.509 -3.15 C 14.85 -4.8 14.52 -7.05 14.52 -9.3 L 14.52 -52.948 L 0 -52.948 Z "/>
<path transform="matrix(1,0,0,-1,139.1343,149.29001)" d="M 0 0 C 0 -15.899 10.064 -27.898 24.254 -27.898 C 38.113 -27.898 48.508 -16.049 48.508 .3 C 48.508 12.6 41.743 28.199 24.584 28.199 C 7.425 28.199 0 13.8 0 0 M 63.357 .75 C 63.357 -26.099 42.898 -37.799 23.594 -37.799 C 1.98 -37.799 -14.685 -23.399 -14.685 -.45 C -14.685 23.85 2.805 38.099 24.914 38.099 C 47.848 38.099 63.357 22.949 63.357 .75 "/>
<path transform="matrix(1,0,0,-1,225.2656,112.8418)" d="M 0 0 L 15.674 -40.798 C 18.314 -47.397 20.459 -53.397 22.109 -59.397 L 22.604 -59.397 C 24.419 -53.397 26.729 -47.397 29.369 -40.798 L 44.878 0 L 60.057 0 L 28.709 -72.597 L 14.85 -72.597 L -15.509 0 Z "/>
<path transform="matrix(1,0,0,-1,340.4336,148.3896)" d="M 0 0 C -15.84 .3 -33.824 -2.25 -33.824 -16.35 C -33.824 -24.899 -27.555 -28.949 -20.131 -28.949 C -9.736 -28.949 -3.135 -22.949 -.826 -16.8 C -.33 -15.449 0 -13.95 0 -12.6 Z M 2.145 -37.049 L .988 -27.899 L .494 -27.899 C -3.961 -33.599 -12.541 -38.699 -23.926 -38.699 C -40.094 -38.699 -48.344 -28.35 -48.344 -17.85 C -48.344 -.301 -31.186 9.299 -.33 9.149 L -.33 10.649 C -.33 16.649 -2.146 27.448 -18.48 27.448 C -25.904 27.448 -33.66 25.349 -39.27 22.049 L -42.569 30.748 C -35.969 34.648 -26.4 37.198 -16.336 37.198 C 8.084 37.198 14.023 22.049 14.023 7.499 L 14.023 -19.649 C 14.023 -25.949 14.354 -32.099 15.344 -37.049 Z "/>
<path transform="matrix(1,0,0,-1,394.7187,91.9922)" d="M 0 0 L 0 -20.85 L 20.789 -20.85 L 20.789 -30.898 L 0 -30.898 L 0 -70.047 C 0 -79.047 2.805 -84.146 10.889 -84.146 C 14.684 -84.146 17.488 -83.696 19.303 -83.247 L 19.963 -93.146 C 17.158 -94.196 12.703 -94.946 7.094 -94.946 C .33 -94.946 -5.115 -92.996 -8.58 -89.396 C -12.705 -85.497 -14.189 -79.047 -14.189 -70.497 L -14.189 -30.898 L -26.564 -30.898 L -26.564 -20.85 L -14.189 -20.85 L -14.189 -3.45 Z " fill="#fda300"/>
<path transform="matrix(1,0,0,-1,481.5059,142.0898)" d="M 0 0 C .166 8.399 -3.795 21.448 -20.129 21.448 C -34.813 21.448 -41.248 9.149 -42.402 0 Z M -42.568 -9.45 C -42.238 -27.299 -29.697 -34.649 -15.18 -34.649 C -4.783 -34.649 1.486 -32.999 6.93 -30.899 L 9.406 -40.349 C 4.291 -42.448 -4.455 -44.849 -17.158 -44.849 C -41.742 -44.849 -56.428 -30.149 -56.428 -8.25 C -56.428 13.649 -42.238 30.898 -18.973 30.898 C 7.096 30.898 14.025 10.049 14.025 -3.3 C 14.025 -6 13.695 -8.1 13.529 -9.45 Z " fill="#fda300"/>
<path transform="matrix(1,0,0,-1,570.4395,182.7383)" d="M 0 0 C -3.795 -1.8 -12.209 -4.2 -22.934 -4.2 C -47.021 -4.2 -62.697 10.649 -62.697 32.849 C -62.697 55.197 -45.867 71.396 -19.799 71.396 C -11.219 71.396 -3.629 69.447 .33 67.646 L -2.969 57.447 C -6.434 59.247 -11.879 60.897 -19.799 60.897 C -38.113 60.897 -48.012 48.598 -48.012 33.448 C -48.012 16.649 -36.133 6.3 -20.293 6.3 C -12.043 6.3 -6.6 8.249 -2.475 9.899 Z " fill="#fda300"/>
<path transform="matrix(1,0,0,-1,388.7363,51.4057)" d="M 0 0 C .068 3.472 -1.569 8.865 -8.322 8.865 C -14.393 8.865 -17.053 3.782 -17.529 0 Z M -17.598 -3.906 C -17.461 -11.283 -12.277 -14.321 -6.275 -14.321 C -1.979 -14.321 .613 -13.64 2.864 -12.771 L 3.887 -16.677 C 1.773 -17.545 -1.842 -18.537 -7.094 -18.537 C -17.257 -18.537 -23.327 -12.461 -23.327 -3.41 C -23.327 5.642 -17.461 12.771 -7.844 12.771 C 2.933 12.771 5.797 4.154 5.797 -1.364 C 5.797 -2.479 5.66 -3.348 5.593 -3.906 Z "/>
<path transform="matrix(1,0,0,-1,424.4727,51.5298)" d="M 0 0 C 0 .682 -.068 1.612 -.273 2.294 C -1.16 5.766 -4.434 8.618 -8.936 8.618 C -15.143 8.618 -18.826 3.658 -18.826 -2.976 C -18.826 -9.052 -15.552 -14.073 -9.072 -14.073 C -5.048 -14.073 -1.365 -11.655 -.273 -7.563 C -.068 -6.819 0 -6.075 0 -5.208 Z M 6.002 26.225 L 6.002 -10.043 C 6.002 -12.709 6.07 -15.747 6.274 -17.793 L .887 -17.793 L .613 -12.585 L .477 -12.585 C -1.365 -15.933 -5.389 -18.475 -10.777 -18.475 C -18.758 -18.475 -24.896 -12.337 -24.896 -3.224 C -24.965 6.758 -18.144 12.896 -10.096 12.896 C -5.048 12.896 -1.637 10.726 -.137 8.308 L 0 8.308 L 0 26.225 Z "/>
<path transform="matrix(1,0,0,-1,0,210)" d="M 440.428 170.684 L 446.431 170.684 L 446.431 140.67801 L 440.428 140.67801 Z M 447.113 179.115 C 447.181 177.255 445.68 175.767 443.293 175.767 C 441.179 175.767 439.678 177.255 439.678 179.115 C 439.678 181.037 441.246 182.525 443.43 182.525 C 445.68 182.525 447.113 181.037 447.113 179.115 "/>
<path transform="matrix(1,0,0,-1,463.6172,30.6987)" d="M 0 0 L 0 -8.618 L 8.594 -8.618 L 8.594 -12.771 L 0 -12.771 L 0 -28.952 C 0 -32.672 1.158 -34.78 4.502 -34.78 C 6.07 -34.78 7.229 -34.595 7.98 -34.408 L 8.252 -38.5 C 7.094 -38.934 5.252 -39.244 2.932 -39.244 C .137 -39.244 -2.115 -38.438 -3.547 -36.95 C -5.252 -35.338 -5.867 -32.672 -5.867 -29.139 L -5.867 -12.771 L -10.982 -12.771 L -10.982 -8.618 L -5.867 -8.618 L -5.867 -1.426 Z "/>
<path transform="matrix(1,0,0,-1,482.2344,54.3813)" d="M 0 0 C 0 -6.572 4.162 -11.531 10.027 -11.531 C 15.756 -11.531 20.053 -6.634 20.053 .124 C 20.053 5.207 17.258 11.655 10.164 11.655 C 3.07 11.655 0 5.703 0 0 M 26.191 .31 C 26.191 -10.788 17.734 -15.623 9.754 -15.623 C .818 -15.623 -6.07 -9.672 -6.07 -.187 C -6.07 9.857 1.16 15.747 10.301 15.747 C 19.781 15.747 26.191 9.485 26.191 .31 "/>
<path transform="matrix(1,0,0,-1,515.9941,48.678209)" d="M 0 0 C 0 3.534 -.068 6.572 -.273 9.362 L 4.979 9.362 L 5.184 3.472 L 5.455 3.472 C 6.957 7.502 10.57 10.044 14.596 10.044 C 15.277 10.044 15.756 9.982 16.301 9.858 L 16.301 4.712 C 15.688 4.836 15.072 4.898 14.254 4.898 C 10.025 4.898 7.025 1.984 6.205 -2.107 C 6.07 -2.852 5.934 -3.72 5.934 -4.649 L 5.934 -20.645 L 0 -20.645 Z "/>
<path transform="matrix(1,0,0,-1,555.3477,54.009294)" d="M 0 0 C -6.549 .124 -13.982 -.931 -13.982 -6.758 C -13.982 -10.292 -11.391 -11.966 -8.322 -11.966 C -4.025 -11.966 -1.297 -9.485 -.342 -6.944 C -.137 -6.386 0 -5.766 0 -5.208 Z M .887 -15.313 L .408 -11.531 L .203 -11.531 C -1.637 -13.888 -5.184 -15.995 -9.891 -15.995 C -16.574 -15.995 -19.984 -11.718 -19.984 -7.378 C -19.984 -.124 -12.893 3.844 -.137 3.781 L -.137 4.401 C -.137 6.881 -.887 11.345 -7.641 11.345 C -10.709 11.345 -13.914 10.477 -16.234 9.113 L -17.598 12.709 C -14.869 14.321 -10.914 15.375 -6.754 15.375 C 3.342 15.375 5.797 9.113 5.797 3.1 L 5.797 -8.122 C 5.797 -10.726 5.934 -13.268 6.342 -15.313 Z "/>
</g>
</g>
</g>
</svg>
